%TF.GenerationSoftware,KiCad,Pcbnew,8.0.6*%
%TF.CreationDate,2025-07-15T21:54:57+01:00*%
%TF.ProjectId,Ruler,52756c65-722e-46b6-9963-61645f706362,rev?*%
%TF.SameCoordinates,Original*%
%TF.FileFunction,Copper,L2,Bot*%
%TF.FilePolarity,Positive*%
%FSLAX46Y46*%
G04 Gerber Fmt 4.6, Leading zero omitted, Abs format (unit mm)*
G04 Created by KiCad (PCBNEW 8.0.6) date 2025-07-15 21:54:57*
%MOMM*%
%LPD*%
G01*
G04 APERTURE LIST*
G04 Aperture macros list*
%AMRoundRect*
0 Rectangle with rounded corners*
0 $1 Rounding radius*
0 $2 $3 $4 $5 $6 $7 $8 $9 X,Y pos of 4 corners*
0 Add a 4 corners polygon primitive as box body*
4,1,4,$2,$3,$4,$5,$6,$7,$8,$9,$2,$3,0*
0 Add four circle primitives for the rounded corners*
1,1,$1+$1,$2,$3*
1,1,$1+$1,$4,$5*
1,1,$1+$1,$6,$7*
1,1,$1+$1,$8,$9*
0 Add four rect primitives between the rounded corners*
20,1,$1+$1,$2,$3,$4,$5,0*
20,1,$1+$1,$4,$5,$6,$7,0*
20,1,$1+$1,$6,$7,$8,$9,0*
20,1,$1+$1,$8,$9,$2,$3,0*%
G04 Aperture macros list end*
%TA.AperFunction,SMDPad,CuDef*%
%ADD10RoundRect,0.050000X0.387500X0.050000X-0.387500X0.050000X-0.387500X-0.050000X0.387500X-0.050000X0*%
%TD*%
%TA.AperFunction,SMDPad,CuDef*%
%ADD11RoundRect,0.050000X0.050000X0.387500X-0.050000X0.387500X-0.050000X-0.387500X0.050000X-0.387500X0*%
%TD*%
%TA.AperFunction,HeatsinkPad*%
%ADD12R,3.200000X3.200000*%
%TD*%
%TA.AperFunction,SMDPad,CuDef*%
%ADD13RoundRect,0.250000X0.362500X1.075000X-0.362500X1.075000X-0.362500X-1.075000X0.362500X-1.075000X0*%
%TD*%
%TA.AperFunction,SMDPad,CuDef*%
%ADD14RoundRect,0.250000X0.312500X1.075000X-0.312500X1.075000X-0.312500X-1.075000X0.312500X-1.075000X0*%
%TD*%
%TA.AperFunction,SMDPad,CuDef*%
%ADD15RoundRect,0.250000X0.312500X0.625000X-0.312500X0.625000X-0.312500X-0.625000X0.312500X-0.625000X0*%
%TD*%
%TA.AperFunction,SMDPad,CuDef*%
%ADD16RoundRect,0.250000X0.262500X0.450000X-0.262500X0.450000X-0.262500X-0.450000X0.262500X-0.450000X0*%
%TD*%
%TA.AperFunction,SMDPad,CuDef*%
%ADD17RoundRect,0.200000X0.200000X0.275000X-0.200000X0.275000X-0.200000X-0.275000X0.200000X-0.275000X0*%
%TD*%
%TA.AperFunction,SMDPad,CuDef*%
%ADD18RoundRect,0.135000X0.135000X0.185000X-0.135000X0.185000X-0.135000X-0.185000X0.135000X-0.185000X0*%
%TD*%
%TA.AperFunction,SMDPad,CuDef*%
%ADD19RoundRect,0.100000X0.130000X0.100000X-0.130000X0.100000X-0.130000X-0.100000X0.130000X-0.100000X0*%
%TD*%
G04 APERTURE END LIST*
D10*
%TO.P,U1,1,IOVDD*%
%TO.N,Net-(U1-IOVDD-Pad1)*%
X255100000Y-49600000D03*
%TO.P,U1,2,GPIO0*%
%TO.N,unconnected-(U1-GPIO0-Pad2)*%
X255100000Y-50000000D03*
%TO.P,U1,3,GPIO1*%
%TO.N,unconnected-(U1-GPIO1-Pad3)*%
X255100000Y-50400000D03*
%TO.P,U1,4,GPIO2*%
%TO.N,unconnected-(U1-GPIO2-Pad4)*%
X255100000Y-50800000D03*
%TO.P,U1,5,GPIO3*%
%TO.N,unconnected-(U1-GPIO3-Pad5)*%
X255100000Y-51200000D03*
%TO.P,U1,6,GPIO4*%
%TO.N,unconnected-(U1-GPIO4-Pad6)*%
X255100000Y-51600000D03*
%TO.P,U1,7,GPIO5*%
%TO.N,unconnected-(U1-GPIO5-Pad7)*%
X255100000Y-52000000D03*
%TO.P,U1,8,GPIO6*%
%TO.N,unconnected-(U1-GPIO6-Pad8)*%
X255100000Y-52400000D03*
%TO.P,U1,9,GPIO7*%
%TO.N,unconnected-(U1-GPIO7-Pad9)*%
X255100000Y-52800000D03*
%TO.P,U1,10,IOVDD*%
%TO.N,Net-(U1-IOVDD-Pad1)*%
X255100000Y-53200000D03*
%TO.P,U1,11,GPIO8*%
%TO.N,unconnected-(U1-GPIO8-Pad11)*%
X255100000Y-53600000D03*
%TO.P,U1,12,GPIO9*%
%TO.N,unconnected-(U1-GPIO9-Pad12)*%
X255100000Y-54000000D03*
%TO.P,U1,13,GPIO10*%
%TO.N,unconnected-(U1-GPIO10-Pad13)*%
X255100000Y-54400000D03*
%TO.P,U1,14,GPIO11*%
%TO.N,unconnected-(U1-GPIO11-Pad14)*%
X255100000Y-54800000D03*
D11*
%TO.P,U1,15,GPIO12*%
%TO.N,unconnected-(U1-GPIO12-Pad15)*%
X254262500Y-55637500D03*
%TO.P,U1,16,GPIO13*%
%TO.N,unconnected-(U1-GPIO13-Pad16)*%
X253862500Y-55637500D03*
%TO.P,U1,17,GPIO14*%
%TO.N,unconnected-(U1-GPIO14-Pad17)*%
X253462500Y-55637500D03*
%TO.P,U1,18,GPIO15*%
%TO.N,unconnected-(U1-GPIO15-Pad18)*%
X253062500Y-55637500D03*
%TO.P,U1,19,TESTEN*%
%TO.N,unconnected-(U1-TESTEN-Pad19)*%
X252662500Y-55637500D03*
%TO.P,U1,20,XIN*%
%TO.N,unconnected-(U1-XIN-Pad20)*%
X252262500Y-55637500D03*
%TO.P,U1,21,XOUT*%
%TO.N,unconnected-(U1-XOUT-Pad21)*%
X251862500Y-55637500D03*
%TO.P,U1,22,IOVDD*%
%TO.N,Net-(U1-IOVDD-Pad1)*%
X251462500Y-55637500D03*
%TO.P,U1,23,DVDD*%
%TO.N,Net-(U1-DVDD-Pad23)*%
X251062500Y-55637500D03*
%TO.P,U1,24,SWCLK*%
%TO.N,unconnected-(U1-SWCLK-Pad24)*%
X250662500Y-55637500D03*
%TO.P,U1,25,SWD*%
%TO.N,unconnected-(U1-SWD-Pad25)*%
X250262500Y-55637500D03*
%TO.P,U1,26,RUN*%
%TO.N,unconnected-(U1-RUN-Pad26)*%
X249862500Y-55637500D03*
%TO.P,U1,27,GPIO16*%
%TO.N,unconnected-(U1-GPIO16-Pad27)*%
X249462500Y-55637500D03*
%TO.P,U1,28,GPIO17*%
%TO.N,unconnected-(U1-GPIO17-Pad28)*%
X249062500Y-55637500D03*
D10*
%TO.P,U1,29,GPIO18*%
%TO.N,unconnected-(U1-GPIO18-Pad29)*%
X248225000Y-54800000D03*
%TO.P,U1,30,GPIO19*%
%TO.N,unconnected-(U1-GPIO19-Pad30)*%
X248225000Y-54400000D03*
%TO.P,U1,31,GPIO20*%
%TO.N,unconnected-(U1-GPIO20-Pad31)*%
X248225000Y-54000000D03*
%TO.P,U1,32,GPIO21*%
%TO.N,unconnected-(U1-GPIO21-Pad32)*%
X248225000Y-53600000D03*
%TO.P,U1,33,IOVDD*%
%TO.N,Net-(U1-IOVDD-Pad1)*%
X248225000Y-53200000D03*
%TO.P,U1,34,GPIO22*%
%TO.N,unconnected-(U1-GPIO22-Pad34)*%
X248225000Y-52800000D03*
%TO.P,U1,35,GPIO23*%
%TO.N,unconnected-(U1-GPIO23-Pad35)*%
X248225000Y-52400000D03*
%TO.P,U1,36,GPIO24*%
%TO.N,unconnected-(U1-GPIO24-Pad36)*%
X248225000Y-52000000D03*
%TO.P,U1,37,GPIO25*%
%TO.N,unconnected-(U1-GPIO25-Pad37)*%
X248225000Y-51600000D03*
%TO.P,U1,38,GPIO26_ADC0*%
%TO.N,unconnected-(U1-GPIO26_ADC0-Pad38)*%
X248225000Y-51200000D03*
%TO.P,U1,39,GPIO27_ADC1*%
%TO.N,unconnected-(U1-GPIO27_ADC1-Pad39)*%
X248225000Y-50800000D03*
%TO.P,U1,40,GPIO28_ADC2*%
%TO.N,unconnected-(U1-GPIO28_ADC2-Pad40)*%
X248225000Y-50400000D03*
%TO.P,U1,41,GPIO29_ADC3*%
%TO.N,unconnected-(U1-GPIO29_ADC3-Pad41)*%
X248225000Y-50000000D03*
%TO.P,U1,42,IOVDD*%
%TO.N,Net-(U1-IOVDD-Pad1)*%
X248225000Y-49600000D03*
D11*
%TO.P,U1,43,ADC_AVDD*%
%TO.N,unconnected-(U1-ADC_AVDD-Pad43)*%
X249062500Y-48762500D03*
%TO.P,U1,44,VREG_IN*%
%TO.N,unconnected-(U1-VREG_IN-Pad44)*%
X249462500Y-48762500D03*
%TO.P,U1,45,VREG_VOUT*%
%TO.N,unconnected-(U1-VREG_VOUT-Pad45)*%
X249862500Y-48762500D03*
%TO.P,U1,46,USB_DM*%
%TO.N,unconnected-(U1-USB_DM-Pad46)*%
X250262500Y-48762500D03*
%TO.P,U1,47,USB_DP*%
%TO.N,unconnected-(U1-USB_DP-Pad47)*%
X250662500Y-48762500D03*
%TO.P,U1,48,USB_VDD*%
%TO.N,unconnected-(U1-USB_VDD-Pad48)*%
X251062500Y-48762500D03*
%TO.P,U1,49,IOVDD*%
%TO.N,Net-(U1-IOVDD-Pad1)*%
X251462500Y-48762500D03*
%TO.P,U1,50,DVDD*%
%TO.N,Net-(U1-DVDD-Pad23)*%
X251862500Y-48762500D03*
%TO.P,U1,51,QSPI_SD3*%
%TO.N,unconnected-(U1-QSPI_SD3-Pad51)*%
X252262500Y-48762500D03*
%TO.P,U1,52,QSPI_SCLK*%
%TO.N,unconnected-(U1-QSPI_SCLK-Pad52)*%
X252662500Y-48762500D03*
%TO.P,U1,53,QSPI_SD0*%
%TO.N,unconnected-(U1-QSPI_SD0-Pad53)*%
X253062500Y-48762500D03*
%TO.P,U1,54,QSPI_SD2*%
%TO.N,unconnected-(U1-QSPI_SD2-Pad54)*%
X253462500Y-48762500D03*
%TO.P,U1,55,QSPI_SD1*%
%TO.N,unconnected-(U1-QSPI_SD1-Pad55)*%
X253862500Y-48762500D03*
%TO.P,U1,56,QSPI_SS*%
%TO.N,unconnected-(U1-QSPI_SS-Pad56)*%
X254262500Y-48762500D03*
D12*
%TO.P,U1,57,GND*%
%TO.N,unconnected-(U1-GND-Pad57)*%
X251662500Y-52200000D03*
%TD*%
D13*
%TO.P,R7,1*%
%TO.N,unconnected-(R7-Pad1)*%
X254275000Y-72000000D03*
%TO.P,R7,2*%
%TO.N,unconnected-(R7-Pad2)*%
X249650000Y-72000000D03*
%TD*%
D14*
%TO.P,R6,1*%
%TO.N,unconnected-(R6-Pad1)*%
X254425000Y-68500000D03*
%TO.P,R6,2*%
%TO.N,unconnected-(R6-Pad2)*%
X251500000Y-68500000D03*
%TD*%
D15*
%TO.P,R5,1*%
%TO.N,unconnected-(R5-Pad1)*%
X254425000Y-65500000D03*
%TO.P,R5,2*%
%TO.N,unconnected-(R5-Pad2)*%
X251500000Y-65500000D03*
%TD*%
D16*
%TO.P,R4,1*%
%TO.N,unconnected-(R4-Pad1)*%
X254287500Y-63000000D03*
%TO.P,R4,2*%
%TO.N,unconnected-(R4-Pad2)*%
X252462500Y-63000000D03*
%TD*%
D17*
%TO.P,R3,1*%
%TO.N,unconnected-(R3-Pad1)*%
X254462500Y-61000000D03*
%TO.P,R3,2*%
%TO.N,unconnected-(R3-Pad2)*%
X252812500Y-61000000D03*
%TD*%
D18*
%TO.P,R2,1*%
%TO.N,unconnected-(R2-Pad1)*%
X254482500Y-59500000D03*
%TO.P,R2,2*%
%TO.N,unconnected-(R2-Pad2)*%
X253462500Y-59500000D03*
%TD*%
D19*
%TO.P,R1,1*%
%TO.N,unconnected-(R1-Pad1)*%
X254782500Y-58000000D03*
%TO.P,R1,2*%
%TO.N,unconnected-(R1-Pad2)*%
X254142500Y-58000000D03*
%TD*%
M02*
