%TF.GenerationSoftware,KiCad,Pcbnew,8.0.6*%
%TF.CreationDate,2025-07-15T21:54:57+01:00*%
%TF.ProjectId,Ruler,52756c65-722e-46b6-9963-61645f706362,rev?*%
%TF.SameCoordinates,Original*%
%TF.FileFunction,Legend,Bot*%
%TF.FilePolarity,Positive*%
%FSLAX46Y46*%
G04 Gerber Fmt 4.6, Leading zero omitted, Abs format (unit mm)*
G04 Created by KiCad (PCBNEW 8.0.6) date 2025-07-15 21:54:57*
%MOMM*%
%LPD*%
G01*
G04 APERTURE LIST*
%ADD10C,0.150000*%
%ADD11C,0.120000*%
G04 APERTURE END LIST*
D10*
X253757738Y-54954819D02*
X254091071Y-54478628D01*
X254329166Y-54954819D02*
X254329166Y-53954819D01*
X254329166Y-53954819D02*
X253948214Y-53954819D01*
X253948214Y-53954819D02*
X253852976Y-54002438D01*
X253852976Y-54002438D02*
X253805357Y-54050057D01*
X253805357Y-54050057D02*
X253757738Y-54145295D01*
X253757738Y-54145295D02*
X253757738Y-54288152D01*
X253757738Y-54288152D02*
X253805357Y-54383390D01*
X253805357Y-54383390D02*
X253852976Y-54431009D01*
X253852976Y-54431009D02*
X253948214Y-54478628D01*
X253948214Y-54478628D02*
X254329166Y-54478628D01*
X253329166Y-54954819D02*
X253329166Y-53954819D01*
X253329166Y-53954819D02*
X252948214Y-53954819D01*
X252948214Y-53954819D02*
X252852976Y-54002438D01*
X252852976Y-54002438D02*
X252805357Y-54050057D01*
X252805357Y-54050057D02*
X252757738Y-54145295D01*
X252757738Y-54145295D02*
X252757738Y-54288152D01*
X252757738Y-54288152D02*
X252805357Y-54383390D01*
X252805357Y-54383390D02*
X252852976Y-54431009D01*
X252852976Y-54431009D02*
X252948214Y-54478628D01*
X252948214Y-54478628D02*
X253329166Y-54478628D01*
X252376785Y-54050057D02*
X252329166Y-54002438D01*
X252329166Y-54002438D02*
X252233928Y-53954819D01*
X252233928Y-53954819D02*
X251995833Y-53954819D01*
X251995833Y-53954819D02*
X251900595Y-54002438D01*
X251900595Y-54002438D02*
X251852976Y-54050057D01*
X251852976Y-54050057D02*
X251805357Y-54145295D01*
X251805357Y-54145295D02*
X251805357Y-54240533D01*
X251805357Y-54240533D02*
X251852976Y-54383390D01*
X251852976Y-54383390D02*
X252424404Y-54954819D01*
X252424404Y-54954819D02*
X251805357Y-54954819D01*
X251186309Y-53954819D02*
X251091071Y-53954819D01*
X251091071Y-53954819D02*
X250995833Y-54002438D01*
X250995833Y-54002438D02*
X250948214Y-54050057D01*
X250948214Y-54050057D02*
X250900595Y-54145295D01*
X250900595Y-54145295D02*
X250852976Y-54335771D01*
X250852976Y-54335771D02*
X250852976Y-54573866D01*
X250852976Y-54573866D02*
X250900595Y-54764342D01*
X250900595Y-54764342D02*
X250948214Y-54859580D01*
X250948214Y-54859580D02*
X250995833Y-54907200D01*
X250995833Y-54907200D02*
X251091071Y-54954819D01*
X251091071Y-54954819D02*
X251186309Y-54954819D01*
X251186309Y-54954819D02*
X251281547Y-54907200D01*
X251281547Y-54907200D02*
X251329166Y-54859580D01*
X251329166Y-54859580D02*
X251376785Y-54764342D01*
X251376785Y-54764342D02*
X251424404Y-54573866D01*
X251424404Y-54573866D02*
X251424404Y-54335771D01*
X251424404Y-54335771D02*
X251376785Y-54145295D01*
X251376785Y-54145295D02*
X251329166Y-54050057D01*
X251329166Y-54050057D02*
X251281547Y-54002438D01*
X251281547Y-54002438D02*
X251186309Y-53954819D01*
X249995833Y-54288152D02*
X249995833Y-54954819D01*
X250233928Y-53907200D02*
X250472023Y-54621485D01*
X250472023Y-54621485D02*
X249852976Y-54621485D01*
X249281547Y-53954819D02*
X249186309Y-53954819D01*
X249186309Y-53954819D02*
X249091071Y-54002438D01*
X249091071Y-54002438D02*
X249043452Y-54050057D01*
X249043452Y-54050057D02*
X248995833Y-54145295D01*
X248995833Y-54145295D02*
X248948214Y-54335771D01*
X248948214Y-54335771D02*
X248948214Y-54573866D01*
X248948214Y-54573866D02*
X248995833Y-54764342D01*
X248995833Y-54764342D02*
X249043452Y-54859580D01*
X249043452Y-54859580D02*
X249091071Y-54907200D01*
X249091071Y-54907200D02*
X249186309Y-54954819D01*
X249186309Y-54954819D02*
X249281547Y-54954819D01*
X249281547Y-54954819D02*
X249376785Y-54907200D01*
X249376785Y-54907200D02*
X249424404Y-54859580D01*
X249424404Y-54859580D02*
X249472023Y-54764342D01*
X249472023Y-54764342D02*
X249519642Y-54573866D01*
X249519642Y-54573866D02*
X249519642Y-54335771D01*
X249519642Y-54335771D02*
X249472023Y-54145295D01*
X249472023Y-54145295D02*
X249424404Y-54050057D01*
X249424404Y-54050057D02*
X249376785Y-54002438D01*
X249376785Y-54002438D02*
X249281547Y-53954819D01*
X248176785Y-71550057D02*
X248129166Y-71502438D01*
X248129166Y-71502438D02*
X248033928Y-71454819D01*
X248033928Y-71454819D02*
X247795833Y-71454819D01*
X247795833Y-71454819D02*
X247700595Y-71502438D01*
X247700595Y-71502438D02*
X247652976Y-71550057D01*
X247652976Y-71550057D02*
X247605357Y-71645295D01*
X247605357Y-71645295D02*
X247605357Y-71740533D01*
X247605357Y-71740533D02*
X247652976Y-71883390D01*
X247652976Y-71883390D02*
X248224404Y-72454819D01*
X248224404Y-72454819D02*
X247605357Y-72454819D01*
X246986309Y-71454819D02*
X246891071Y-71454819D01*
X246891071Y-71454819D02*
X246795833Y-71502438D01*
X246795833Y-71502438D02*
X246748214Y-71550057D01*
X246748214Y-71550057D02*
X246700595Y-71645295D01*
X246700595Y-71645295D02*
X246652976Y-71835771D01*
X246652976Y-71835771D02*
X246652976Y-72073866D01*
X246652976Y-72073866D02*
X246700595Y-72264342D01*
X246700595Y-72264342D02*
X246748214Y-72359580D01*
X246748214Y-72359580D02*
X246795833Y-72407200D01*
X246795833Y-72407200D02*
X246891071Y-72454819D01*
X246891071Y-72454819D02*
X246986309Y-72454819D01*
X246986309Y-72454819D02*
X247081547Y-72407200D01*
X247081547Y-72407200D02*
X247129166Y-72359580D01*
X247129166Y-72359580D02*
X247176785Y-72264342D01*
X247176785Y-72264342D02*
X247224404Y-72073866D01*
X247224404Y-72073866D02*
X247224404Y-71835771D01*
X247224404Y-71835771D02*
X247176785Y-71645295D01*
X247176785Y-71645295D02*
X247129166Y-71550057D01*
X247129166Y-71550057D02*
X247081547Y-71502438D01*
X247081547Y-71502438D02*
X246986309Y-71454819D01*
X245700595Y-72454819D02*
X246272023Y-72454819D01*
X245986309Y-72454819D02*
X245986309Y-71454819D01*
X245986309Y-71454819D02*
X246081547Y-71597676D01*
X246081547Y-71597676D02*
X246176785Y-71692914D01*
X246176785Y-71692914D02*
X246272023Y-71740533D01*
X245081547Y-71454819D02*
X244986309Y-71454819D01*
X244986309Y-71454819D02*
X244891071Y-71502438D01*
X244891071Y-71502438D02*
X244843452Y-71550057D01*
X244843452Y-71550057D02*
X244795833Y-71645295D01*
X244795833Y-71645295D02*
X244748214Y-71835771D01*
X244748214Y-71835771D02*
X244748214Y-72073866D01*
X244748214Y-72073866D02*
X244795833Y-72264342D01*
X244795833Y-72264342D02*
X244843452Y-72359580D01*
X244843452Y-72359580D02*
X244891071Y-72407200D01*
X244891071Y-72407200D02*
X244986309Y-72454819D01*
X244986309Y-72454819D02*
X245081547Y-72454819D01*
X245081547Y-72454819D02*
X245176785Y-72407200D01*
X245176785Y-72407200D02*
X245224404Y-72359580D01*
X245224404Y-72359580D02*
X245272023Y-72264342D01*
X245272023Y-72264342D02*
X245319642Y-72073866D01*
X245319642Y-72073866D02*
X245319642Y-71835771D01*
X245319642Y-71835771D02*
X245272023Y-71645295D01*
X245272023Y-71645295D02*
X245224404Y-71550057D01*
X245224404Y-71550057D02*
X245176785Y-71502438D01*
X245176785Y-71502438D02*
X245081547Y-71454819D01*
X249605357Y-68954819D02*
X250176785Y-68954819D01*
X249891071Y-68954819D02*
X249891071Y-67954819D01*
X249891071Y-67954819D02*
X249986309Y-68097676D01*
X249986309Y-68097676D02*
X250081547Y-68192914D01*
X250081547Y-68192914D02*
X250176785Y-68240533D01*
X249224404Y-68050057D02*
X249176785Y-68002438D01*
X249176785Y-68002438D02*
X249081547Y-67954819D01*
X249081547Y-67954819D02*
X248843452Y-67954819D01*
X248843452Y-67954819D02*
X248748214Y-68002438D01*
X248748214Y-68002438D02*
X248700595Y-68050057D01*
X248700595Y-68050057D02*
X248652976Y-68145295D01*
X248652976Y-68145295D02*
X248652976Y-68240533D01*
X248652976Y-68240533D02*
X248700595Y-68383390D01*
X248700595Y-68383390D02*
X249272023Y-68954819D01*
X249272023Y-68954819D02*
X248652976Y-68954819D01*
X247700595Y-68954819D02*
X248272023Y-68954819D01*
X247986309Y-68954819D02*
X247986309Y-67954819D01*
X247986309Y-67954819D02*
X248081547Y-68097676D01*
X248081547Y-68097676D02*
X248176785Y-68192914D01*
X248176785Y-68192914D02*
X248272023Y-68240533D01*
X247081547Y-67954819D02*
X246986309Y-67954819D01*
X246986309Y-67954819D02*
X246891071Y-68002438D01*
X246891071Y-68002438D02*
X246843452Y-68050057D01*
X246843452Y-68050057D02*
X246795833Y-68145295D01*
X246795833Y-68145295D02*
X246748214Y-68335771D01*
X246748214Y-68335771D02*
X246748214Y-68573866D01*
X246748214Y-68573866D02*
X246795833Y-68764342D01*
X246795833Y-68764342D02*
X246843452Y-68859580D01*
X246843452Y-68859580D02*
X246891071Y-68907200D01*
X246891071Y-68907200D02*
X246986309Y-68954819D01*
X246986309Y-68954819D02*
X247081547Y-68954819D01*
X247081547Y-68954819D02*
X247176785Y-68907200D01*
X247176785Y-68907200D02*
X247224404Y-68859580D01*
X247224404Y-68859580D02*
X247272023Y-68764342D01*
X247272023Y-68764342D02*
X247319642Y-68573866D01*
X247319642Y-68573866D02*
X247319642Y-68335771D01*
X247319642Y-68335771D02*
X247272023Y-68145295D01*
X247272023Y-68145295D02*
X247224404Y-68050057D01*
X247224404Y-68050057D02*
X247176785Y-68002438D01*
X247176785Y-68002438D02*
X247081547Y-67954819D01*
X249605357Y-65954819D02*
X250176785Y-65954819D01*
X249891071Y-65954819D02*
X249891071Y-64954819D01*
X249891071Y-64954819D02*
X249986309Y-65097676D01*
X249986309Y-65097676D02*
X250081547Y-65192914D01*
X250081547Y-65192914D02*
X250176785Y-65240533D01*
X249224404Y-65050057D02*
X249176785Y-65002438D01*
X249176785Y-65002438D02*
X249081547Y-64954819D01*
X249081547Y-64954819D02*
X248843452Y-64954819D01*
X248843452Y-64954819D02*
X248748214Y-65002438D01*
X248748214Y-65002438D02*
X248700595Y-65050057D01*
X248700595Y-65050057D02*
X248652976Y-65145295D01*
X248652976Y-65145295D02*
X248652976Y-65240533D01*
X248652976Y-65240533D02*
X248700595Y-65383390D01*
X248700595Y-65383390D02*
X249272023Y-65954819D01*
X249272023Y-65954819D02*
X248652976Y-65954819D01*
X248033928Y-64954819D02*
X247938690Y-64954819D01*
X247938690Y-64954819D02*
X247843452Y-65002438D01*
X247843452Y-65002438D02*
X247795833Y-65050057D01*
X247795833Y-65050057D02*
X247748214Y-65145295D01*
X247748214Y-65145295D02*
X247700595Y-65335771D01*
X247700595Y-65335771D02*
X247700595Y-65573866D01*
X247700595Y-65573866D02*
X247748214Y-65764342D01*
X247748214Y-65764342D02*
X247795833Y-65859580D01*
X247795833Y-65859580D02*
X247843452Y-65907200D01*
X247843452Y-65907200D02*
X247938690Y-65954819D01*
X247938690Y-65954819D02*
X248033928Y-65954819D01*
X248033928Y-65954819D02*
X248129166Y-65907200D01*
X248129166Y-65907200D02*
X248176785Y-65859580D01*
X248176785Y-65859580D02*
X248224404Y-65764342D01*
X248224404Y-65764342D02*
X248272023Y-65573866D01*
X248272023Y-65573866D02*
X248272023Y-65335771D01*
X248272023Y-65335771D02*
X248224404Y-65145295D01*
X248224404Y-65145295D02*
X248176785Y-65050057D01*
X248176785Y-65050057D02*
X248129166Y-65002438D01*
X248129166Y-65002438D02*
X248033928Y-64954819D01*
X246843452Y-64954819D02*
X247033928Y-64954819D01*
X247033928Y-64954819D02*
X247129166Y-65002438D01*
X247129166Y-65002438D02*
X247176785Y-65050057D01*
X247176785Y-65050057D02*
X247272023Y-65192914D01*
X247272023Y-65192914D02*
X247319642Y-65383390D01*
X247319642Y-65383390D02*
X247319642Y-65764342D01*
X247319642Y-65764342D02*
X247272023Y-65859580D01*
X247272023Y-65859580D02*
X247224404Y-65907200D01*
X247224404Y-65907200D02*
X247129166Y-65954819D01*
X247129166Y-65954819D02*
X246938690Y-65954819D01*
X246938690Y-65954819D02*
X246843452Y-65907200D01*
X246843452Y-65907200D02*
X246795833Y-65859580D01*
X246795833Y-65859580D02*
X246748214Y-65764342D01*
X246748214Y-65764342D02*
X246748214Y-65526247D01*
X246748214Y-65526247D02*
X246795833Y-65431009D01*
X246795833Y-65431009D02*
X246843452Y-65383390D01*
X246843452Y-65383390D02*
X246938690Y-65335771D01*
X246938690Y-65335771D02*
X247129166Y-65335771D01*
X247129166Y-65335771D02*
X247224404Y-65383390D01*
X247224404Y-65383390D02*
X247272023Y-65431009D01*
X247272023Y-65431009D02*
X247319642Y-65526247D01*
X250938690Y-62454819D02*
X250843452Y-62454819D01*
X250843452Y-62454819D02*
X250748214Y-62502438D01*
X250748214Y-62502438D02*
X250700595Y-62550057D01*
X250700595Y-62550057D02*
X250652976Y-62645295D01*
X250652976Y-62645295D02*
X250605357Y-62835771D01*
X250605357Y-62835771D02*
X250605357Y-63073866D01*
X250605357Y-63073866D02*
X250652976Y-63264342D01*
X250652976Y-63264342D02*
X250700595Y-63359580D01*
X250700595Y-63359580D02*
X250748214Y-63407200D01*
X250748214Y-63407200D02*
X250843452Y-63454819D01*
X250843452Y-63454819D02*
X250938690Y-63454819D01*
X250938690Y-63454819D02*
X251033928Y-63407200D01*
X251033928Y-63407200D02*
X251081547Y-63359580D01*
X251081547Y-63359580D02*
X251129166Y-63264342D01*
X251129166Y-63264342D02*
X251176785Y-63073866D01*
X251176785Y-63073866D02*
X251176785Y-62835771D01*
X251176785Y-62835771D02*
X251129166Y-62645295D01*
X251129166Y-62645295D02*
X251081547Y-62550057D01*
X251081547Y-62550057D02*
X251033928Y-62502438D01*
X251033928Y-62502438D02*
X250938690Y-62454819D01*
X250033928Y-62883390D02*
X250129166Y-62835771D01*
X250129166Y-62835771D02*
X250176785Y-62788152D01*
X250176785Y-62788152D02*
X250224404Y-62692914D01*
X250224404Y-62692914D02*
X250224404Y-62645295D01*
X250224404Y-62645295D02*
X250176785Y-62550057D01*
X250176785Y-62550057D02*
X250129166Y-62502438D01*
X250129166Y-62502438D02*
X250033928Y-62454819D01*
X250033928Y-62454819D02*
X249843452Y-62454819D01*
X249843452Y-62454819D02*
X249748214Y-62502438D01*
X249748214Y-62502438D02*
X249700595Y-62550057D01*
X249700595Y-62550057D02*
X249652976Y-62645295D01*
X249652976Y-62645295D02*
X249652976Y-62692914D01*
X249652976Y-62692914D02*
X249700595Y-62788152D01*
X249700595Y-62788152D02*
X249748214Y-62835771D01*
X249748214Y-62835771D02*
X249843452Y-62883390D01*
X249843452Y-62883390D02*
X250033928Y-62883390D01*
X250033928Y-62883390D02*
X250129166Y-62931009D01*
X250129166Y-62931009D02*
X250176785Y-62978628D01*
X250176785Y-62978628D02*
X250224404Y-63073866D01*
X250224404Y-63073866D02*
X250224404Y-63264342D01*
X250224404Y-63264342D02*
X250176785Y-63359580D01*
X250176785Y-63359580D02*
X250129166Y-63407200D01*
X250129166Y-63407200D02*
X250033928Y-63454819D01*
X250033928Y-63454819D02*
X249843452Y-63454819D01*
X249843452Y-63454819D02*
X249748214Y-63407200D01*
X249748214Y-63407200D02*
X249700595Y-63359580D01*
X249700595Y-63359580D02*
X249652976Y-63264342D01*
X249652976Y-63264342D02*
X249652976Y-63073866D01*
X249652976Y-63073866D02*
X249700595Y-62978628D01*
X249700595Y-62978628D02*
X249748214Y-62931009D01*
X249748214Y-62931009D02*
X249843452Y-62883390D01*
X249033928Y-62454819D02*
X248938690Y-62454819D01*
X248938690Y-62454819D02*
X248843452Y-62502438D01*
X248843452Y-62502438D02*
X248795833Y-62550057D01*
X248795833Y-62550057D02*
X248748214Y-62645295D01*
X248748214Y-62645295D02*
X248700595Y-62835771D01*
X248700595Y-62835771D02*
X248700595Y-63073866D01*
X248700595Y-63073866D02*
X248748214Y-63264342D01*
X248748214Y-63264342D02*
X248795833Y-63359580D01*
X248795833Y-63359580D02*
X248843452Y-63407200D01*
X248843452Y-63407200D02*
X248938690Y-63454819D01*
X248938690Y-63454819D02*
X249033928Y-63454819D01*
X249033928Y-63454819D02*
X249129166Y-63407200D01*
X249129166Y-63407200D02*
X249176785Y-63359580D01*
X249176785Y-63359580D02*
X249224404Y-63264342D01*
X249224404Y-63264342D02*
X249272023Y-63073866D01*
X249272023Y-63073866D02*
X249272023Y-62835771D01*
X249272023Y-62835771D02*
X249224404Y-62645295D01*
X249224404Y-62645295D02*
X249176785Y-62550057D01*
X249176785Y-62550057D02*
X249129166Y-62502438D01*
X249129166Y-62502438D02*
X249033928Y-62454819D01*
X247795833Y-62454819D02*
X248272023Y-62454819D01*
X248272023Y-62454819D02*
X248319642Y-62931009D01*
X248319642Y-62931009D02*
X248272023Y-62883390D01*
X248272023Y-62883390D02*
X248176785Y-62835771D01*
X248176785Y-62835771D02*
X247938690Y-62835771D01*
X247938690Y-62835771D02*
X247843452Y-62883390D01*
X247843452Y-62883390D02*
X247795833Y-62931009D01*
X247795833Y-62931009D02*
X247748214Y-63026247D01*
X247748214Y-63026247D02*
X247748214Y-63264342D01*
X247748214Y-63264342D02*
X247795833Y-63359580D01*
X247795833Y-63359580D02*
X247843452Y-63407200D01*
X247843452Y-63407200D02*
X247938690Y-63454819D01*
X247938690Y-63454819D02*
X248176785Y-63454819D01*
X248176785Y-63454819D02*
X248272023Y-63407200D01*
X248272023Y-63407200D02*
X248319642Y-63359580D01*
X251438690Y-60454819D02*
X251343452Y-60454819D01*
X251343452Y-60454819D02*
X251248214Y-60502438D01*
X251248214Y-60502438D02*
X251200595Y-60550057D01*
X251200595Y-60550057D02*
X251152976Y-60645295D01*
X251152976Y-60645295D02*
X251105357Y-60835771D01*
X251105357Y-60835771D02*
X251105357Y-61073866D01*
X251105357Y-61073866D02*
X251152976Y-61264342D01*
X251152976Y-61264342D02*
X251200595Y-61359580D01*
X251200595Y-61359580D02*
X251248214Y-61407200D01*
X251248214Y-61407200D02*
X251343452Y-61454819D01*
X251343452Y-61454819D02*
X251438690Y-61454819D01*
X251438690Y-61454819D02*
X251533928Y-61407200D01*
X251533928Y-61407200D02*
X251581547Y-61359580D01*
X251581547Y-61359580D02*
X251629166Y-61264342D01*
X251629166Y-61264342D02*
X251676785Y-61073866D01*
X251676785Y-61073866D02*
X251676785Y-60835771D01*
X251676785Y-60835771D02*
X251629166Y-60645295D01*
X251629166Y-60645295D02*
X251581547Y-60550057D01*
X251581547Y-60550057D02*
X251533928Y-60502438D01*
X251533928Y-60502438D02*
X251438690Y-60454819D01*
X250248214Y-60454819D02*
X250438690Y-60454819D01*
X250438690Y-60454819D02*
X250533928Y-60502438D01*
X250533928Y-60502438D02*
X250581547Y-60550057D01*
X250581547Y-60550057D02*
X250676785Y-60692914D01*
X250676785Y-60692914D02*
X250724404Y-60883390D01*
X250724404Y-60883390D02*
X250724404Y-61264342D01*
X250724404Y-61264342D02*
X250676785Y-61359580D01*
X250676785Y-61359580D02*
X250629166Y-61407200D01*
X250629166Y-61407200D02*
X250533928Y-61454819D01*
X250533928Y-61454819D02*
X250343452Y-61454819D01*
X250343452Y-61454819D02*
X250248214Y-61407200D01*
X250248214Y-61407200D02*
X250200595Y-61359580D01*
X250200595Y-61359580D02*
X250152976Y-61264342D01*
X250152976Y-61264342D02*
X250152976Y-61026247D01*
X250152976Y-61026247D02*
X250200595Y-60931009D01*
X250200595Y-60931009D02*
X250248214Y-60883390D01*
X250248214Y-60883390D02*
X250343452Y-60835771D01*
X250343452Y-60835771D02*
X250533928Y-60835771D01*
X250533928Y-60835771D02*
X250629166Y-60883390D01*
X250629166Y-60883390D02*
X250676785Y-60931009D01*
X250676785Y-60931009D02*
X250724404Y-61026247D01*
X249533928Y-60454819D02*
X249438690Y-60454819D01*
X249438690Y-60454819D02*
X249343452Y-60502438D01*
X249343452Y-60502438D02*
X249295833Y-60550057D01*
X249295833Y-60550057D02*
X249248214Y-60645295D01*
X249248214Y-60645295D02*
X249200595Y-60835771D01*
X249200595Y-60835771D02*
X249200595Y-61073866D01*
X249200595Y-61073866D02*
X249248214Y-61264342D01*
X249248214Y-61264342D02*
X249295833Y-61359580D01*
X249295833Y-61359580D02*
X249343452Y-61407200D01*
X249343452Y-61407200D02*
X249438690Y-61454819D01*
X249438690Y-61454819D02*
X249533928Y-61454819D01*
X249533928Y-61454819D02*
X249629166Y-61407200D01*
X249629166Y-61407200D02*
X249676785Y-61359580D01*
X249676785Y-61359580D02*
X249724404Y-61264342D01*
X249724404Y-61264342D02*
X249772023Y-61073866D01*
X249772023Y-61073866D02*
X249772023Y-60835771D01*
X249772023Y-60835771D02*
X249724404Y-60645295D01*
X249724404Y-60645295D02*
X249676785Y-60550057D01*
X249676785Y-60550057D02*
X249629166Y-60502438D01*
X249629166Y-60502438D02*
X249533928Y-60454819D01*
X248867261Y-60454819D02*
X248248214Y-60454819D01*
X248248214Y-60454819D02*
X248581547Y-60835771D01*
X248581547Y-60835771D02*
X248438690Y-60835771D01*
X248438690Y-60835771D02*
X248343452Y-60883390D01*
X248343452Y-60883390D02*
X248295833Y-60931009D01*
X248295833Y-60931009D02*
X248248214Y-61026247D01*
X248248214Y-61026247D02*
X248248214Y-61264342D01*
X248248214Y-61264342D02*
X248295833Y-61359580D01*
X248295833Y-61359580D02*
X248343452Y-61407200D01*
X248343452Y-61407200D02*
X248438690Y-61454819D01*
X248438690Y-61454819D02*
X248724404Y-61454819D01*
X248724404Y-61454819D02*
X248819642Y-61407200D01*
X248819642Y-61407200D02*
X248867261Y-61359580D01*
X251958690Y-58954819D02*
X251863452Y-58954819D01*
X251863452Y-58954819D02*
X251768214Y-59002438D01*
X251768214Y-59002438D02*
X251720595Y-59050057D01*
X251720595Y-59050057D02*
X251672976Y-59145295D01*
X251672976Y-59145295D02*
X251625357Y-59335771D01*
X251625357Y-59335771D02*
X251625357Y-59573866D01*
X251625357Y-59573866D02*
X251672976Y-59764342D01*
X251672976Y-59764342D02*
X251720595Y-59859580D01*
X251720595Y-59859580D02*
X251768214Y-59907200D01*
X251768214Y-59907200D02*
X251863452Y-59954819D01*
X251863452Y-59954819D02*
X251958690Y-59954819D01*
X251958690Y-59954819D02*
X252053928Y-59907200D01*
X252053928Y-59907200D02*
X252101547Y-59859580D01*
X252101547Y-59859580D02*
X252149166Y-59764342D01*
X252149166Y-59764342D02*
X252196785Y-59573866D01*
X252196785Y-59573866D02*
X252196785Y-59335771D01*
X252196785Y-59335771D02*
X252149166Y-59145295D01*
X252149166Y-59145295D02*
X252101547Y-59050057D01*
X252101547Y-59050057D02*
X252053928Y-59002438D01*
X252053928Y-59002438D02*
X251958690Y-58954819D01*
X250768214Y-59288152D02*
X250768214Y-59954819D01*
X251006309Y-58907200D02*
X251244404Y-59621485D01*
X251244404Y-59621485D02*
X250625357Y-59621485D01*
X250053928Y-58954819D02*
X249958690Y-58954819D01*
X249958690Y-58954819D02*
X249863452Y-59002438D01*
X249863452Y-59002438D02*
X249815833Y-59050057D01*
X249815833Y-59050057D02*
X249768214Y-59145295D01*
X249768214Y-59145295D02*
X249720595Y-59335771D01*
X249720595Y-59335771D02*
X249720595Y-59573866D01*
X249720595Y-59573866D02*
X249768214Y-59764342D01*
X249768214Y-59764342D02*
X249815833Y-59859580D01*
X249815833Y-59859580D02*
X249863452Y-59907200D01*
X249863452Y-59907200D02*
X249958690Y-59954819D01*
X249958690Y-59954819D02*
X250053928Y-59954819D01*
X250053928Y-59954819D02*
X250149166Y-59907200D01*
X250149166Y-59907200D02*
X250196785Y-59859580D01*
X250196785Y-59859580D02*
X250244404Y-59764342D01*
X250244404Y-59764342D02*
X250292023Y-59573866D01*
X250292023Y-59573866D02*
X250292023Y-59335771D01*
X250292023Y-59335771D02*
X250244404Y-59145295D01*
X250244404Y-59145295D02*
X250196785Y-59050057D01*
X250196785Y-59050057D02*
X250149166Y-59002438D01*
X250149166Y-59002438D02*
X250053928Y-58954819D01*
X249339642Y-59050057D02*
X249292023Y-59002438D01*
X249292023Y-59002438D02*
X249196785Y-58954819D01*
X249196785Y-58954819D02*
X248958690Y-58954819D01*
X248958690Y-58954819D02*
X248863452Y-59002438D01*
X248863452Y-59002438D02*
X248815833Y-59050057D01*
X248815833Y-59050057D02*
X248768214Y-59145295D01*
X248768214Y-59145295D02*
X248768214Y-59240533D01*
X248768214Y-59240533D02*
X248815833Y-59383390D01*
X248815833Y-59383390D02*
X249387261Y-59954819D01*
X249387261Y-59954819D02*
X248768214Y-59954819D01*
X252283690Y-57454819D02*
X252188452Y-57454819D01*
X252188452Y-57454819D02*
X252093214Y-57502438D01*
X252093214Y-57502438D02*
X252045595Y-57550057D01*
X252045595Y-57550057D02*
X251997976Y-57645295D01*
X251997976Y-57645295D02*
X251950357Y-57835771D01*
X251950357Y-57835771D02*
X251950357Y-58073866D01*
X251950357Y-58073866D02*
X251997976Y-58264342D01*
X251997976Y-58264342D02*
X252045595Y-58359580D01*
X252045595Y-58359580D02*
X252093214Y-58407200D01*
X252093214Y-58407200D02*
X252188452Y-58454819D01*
X252188452Y-58454819D02*
X252283690Y-58454819D01*
X252283690Y-58454819D02*
X252378928Y-58407200D01*
X252378928Y-58407200D02*
X252426547Y-58359580D01*
X252426547Y-58359580D02*
X252474166Y-58264342D01*
X252474166Y-58264342D02*
X252521785Y-58073866D01*
X252521785Y-58073866D02*
X252521785Y-57835771D01*
X252521785Y-57835771D02*
X252474166Y-57645295D01*
X252474166Y-57645295D02*
X252426547Y-57550057D01*
X252426547Y-57550057D02*
X252378928Y-57502438D01*
X252378928Y-57502438D02*
X252283690Y-57454819D01*
X251569404Y-57550057D02*
X251521785Y-57502438D01*
X251521785Y-57502438D02*
X251426547Y-57454819D01*
X251426547Y-57454819D02*
X251188452Y-57454819D01*
X251188452Y-57454819D02*
X251093214Y-57502438D01*
X251093214Y-57502438D02*
X251045595Y-57550057D01*
X251045595Y-57550057D02*
X250997976Y-57645295D01*
X250997976Y-57645295D02*
X250997976Y-57740533D01*
X250997976Y-57740533D02*
X251045595Y-57883390D01*
X251045595Y-57883390D02*
X251617023Y-58454819D01*
X251617023Y-58454819D02*
X250997976Y-58454819D01*
X250378928Y-57454819D02*
X250283690Y-57454819D01*
X250283690Y-57454819D02*
X250188452Y-57502438D01*
X250188452Y-57502438D02*
X250140833Y-57550057D01*
X250140833Y-57550057D02*
X250093214Y-57645295D01*
X250093214Y-57645295D02*
X250045595Y-57835771D01*
X250045595Y-57835771D02*
X250045595Y-58073866D01*
X250045595Y-58073866D02*
X250093214Y-58264342D01*
X250093214Y-58264342D02*
X250140833Y-58359580D01*
X250140833Y-58359580D02*
X250188452Y-58407200D01*
X250188452Y-58407200D02*
X250283690Y-58454819D01*
X250283690Y-58454819D02*
X250378928Y-58454819D01*
X250378928Y-58454819D02*
X250474166Y-58407200D01*
X250474166Y-58407200D02*
X250521785Y-58359580D01*
X250521785Y-58359580D02*
X250569404Y-58264342D01*
X250569404Y-58264342D02*
X250617023Y-58073866D01*
X250617023Y-58073866D02*
X250617023Y-57835771D01*
X250617023Y-57835771D02*
X250569404Y-57645295D01*
X250569404Y-57645295D02*
X250521785Y-57550057D01*
X250521785Y-57550057D02*
X250474166Y-57502438D01*
X250474166Y-57502438D02*
X250378928Y-57454819D01*
X249093214Y-58454819D02*
X249664642Y-58454819D01*
X249378928Y-58454819D02*
X249378928Y-57454819D01*
X249378928Y-57454819D02*
X249474166Y-57597676D01*
X249474166Y-57597676D02*
X249569404Y-57692914D01*
X249569404Y-57692914D02*
X249664642Y-57740533D01*
D11*
%TO.C,U1*%
X255272500Y-48830000D02*
X255272500Y-49240000D01*
X255272500Y-55160000D02*
X255272500Y-55810000D01*
X254972500Y-48590000D02*
X254622500Y-48590000D01*
X255272500Y-55810000D02*
X254622500Y-55810000D01*
X248052500Y-48590000D02*
X248702500Y-48590000D01*
X248052500Y-55810000D02*
X248702500Y-55810000D01*
X248052500Y-49240000D02*
X248052500Y-48590000D01*
X248052500Y-55160000D02*
X248052500Y-55810000D01*
X255272500Y-48590000D02*
X255032500Y-48260000D01*
X255512500Y-48260000D01*
X255272500Y-48590000D01*
G36*
X255272500Y-48590000D02*
G01*
X255032500Y-48260000D01*
X255512500Y-48260000D01*
X255272500Y-48590000D01*
G37*
%TO.C,R7*%
X250435436Y-70640000D02*
X253489564Y-70640000D01*
X250435436Y-73360000D02*
X253489564Y-73360000D01*
%TO.C,R6*%
X252238763Y-67145000D02*
X253686237Y-67145000D01*
X252238763Y-69855000D02*
X253686237Y-69855000D01*
%TO.C,R5*%
X252235436Y-64590000D02*
X253689564Y-64590000D01*
X252235436Y-66410000D02*
X253689564Y-66410000D01*
%TO.C,R4*%
X253147936Y-62265000D02*
X253602064Y-62265000D01*
X253147936Y-63735000D02*
X253602064Y-63735000D01*
%TO.C,R3*%
X253400242Y-60477500D02*
X253874758Y-60477500D01*
X253400242Y-61522500D02*
X253874758Y-61522500D01*
%TO.C,R2*%
X253818859Y-59120000D02*
X254126141Y-59120000D01*
X253818859Y-59880000D02*
X254126141Y-59880000D01*
%TD*%
M02*
