%TF.GenerationSoftware,KiCad,Pcbnew,9.0.7*%
%TF.CreationDate,2026-09-03T18:25:39+01:00*%
%TF.ProjectId,Ruler,52756c65-722e-46b6-9963-61645f706362,rev?*%
%TF.SameCoordinates,Original*%
%TF.FileFunction,Paste,Bot*%
%TF.FilePolarity,Positive*%
%FSLAX46Y46*%
G04 Gerber Fmt 4.6, Leading zero omitted, Abs format (unit mm)*
G04 Created by KiCad (PCBNEW 9.0.7) date 2026-09-03 18:25:39*
%MOMM*%
%LPD*%
G01*
G04 APERTURE LIST*
G04 Aperture macros list*
%AMRoundRect*
0 Rectangle with rounded corners*
0 $1 Rounding radius*
0 $2 $3 $4 $5 $6 $7 $8 $9 X,Y pos of 4 corners*
0 Add a 4 corners polygon primitive as box body*
4,1,4,$2,$3,$4,$5,$6,$7,$8,$9,$2,$3,0*
0 Add four circle primitives for the rounded corners*
1,1,$1+$1,$2,$3*
1,1,$1+$1,$4,$5*
1,1,$1+$1,$6,$7*
1,1,$1+$1,$8,$9*
0 Add four rect primitives between the rounded corners*
20,1,$1+$1,$2,$3,$4,$5,0*
20,1,$1+$1,$4,$5,$6,$7,0*
20,1,$1+$1,$6,$7,$8,$9,0*
20,1,$1+$1,$8,$9,$2,$3,0*%
G04 Aperture macros list end*
%ADD10RoundRect,0.250000X0.300000X-2.050000X0.300000X2.050000X-0.300000X2.050000X-0.300000X-2.050000X0*%
%ADD11RoundRect,0.250000X2.375000X-2.025000X2.375000X2.025000X-2.375000X2.025000X-2.375000X-2.025000X0*%
%ADD12RoundRect,0.075000X0.675000X0.075000X-0.675000X0.075000X-0.675000X-0.075000X0.675000X-0.075000X0*%
%ADD13RoundRect,0.075000X0.075000X0.675000X-0.075000X0.675000X-0.075000X-0.675000X0.075000X-0.675000X0*%
%ADD14RoundRect,0.200000X0.200000X0.275000X-0.200000X0.275000X-0.200000X-0.275000X0.200000X-0.275000X0*%
%ADD15RoundRect,0.075000X-0.662500X-0.075000X0.662500X-0.075000X0.662500X0.075000X-0.662500X0.075000X0*%
%ADD16C,2.000000*%
%ADD17RoundRect,0.250000X0.262500X0.450000X-0.262500X0.450000X-0.262500X-0.450000X0.262500X-0.450000X0*%
%ADD18RoundRect,0.135000X0.135000X0.185000X-0.135000X0.185000X-0.135000X-0.185000X0.135000X-0.185000X0*%
%ADD19RoundRect,0.250000X0.312500X0.625000X-0.312500X0.625000X-0.312500X-0.625000X0.312500X-0.625000X0*%
%ADD20RoundRect,0.075000X0.725000X0.075000X-0.725000X0.075000X-0.725000X-0.075000X0.725000X-0.075000X0*%
%ADD21RoundRect,0.075000X0.075000X0.725000X-0.075000X0.725000X-0.075000X-0.725000X0.075000X-0.725000X0*%
%ADD22RoundRect,0.150000X-0.587500X-0.150000X0.587500X-0.150000X0.587500X0.150000X-0.587500X0.150000X0*%
%ADD23RoundRect,0.250000X0.362500X1.075000X-0.362500X1.075000X-0.362500X-1.075000X0.362500X-1.075000X0*%
%ADD24RoundRect,0.079500X0.079500X0.100500X-0.079500X0.100500X-0.079500X-0.100500X0.079500X-0.100500X0*%
%ADD25RoundRect,0.125000X0.625000X0.125000X-0.625000X0.125000X-0.625000X-0.125000X0.625000X-0.125000X0*%
%ADD26RoundRect,0.125000X0.125000X0.625000X-0.125000X0.625000X-0.125000X-0.625000X0.125000X-0.625000X0*%
%ADD27RoundRect,0.249999X0.395001X0.395001X-0.395001X0.395001X-0.395001X-0.395001X0.395001X-0.395001X0*%
%ADD28RoundRect,0.050000X0.387500X0.050000X-0.387500X0.050000X-0.387500X-0.050000X0.387500X-0.050000X0*%
%ADD29RoundRect,0.050000X0.050000X0.387500X-0.050000X0.387500X-0.050000X-0.387500X0.050000X-0.387500X0*%
%ADD30RoundRect,0.250000X0.312500X1.075000X-0.312500X1.075000X-0.312500X-1.075000X0.312500X-1.075000X0*%
G04 APERTURE END LIST*
D10*
%TO.C,REF\u002A\u002A*%
X233886000Y-72904000D03*
X238966000Y-72904000D03*
D11*
X233651000Y-61329000D03*
X239201000Y-61329000D03*
X233651000Y-66179000D03*
X239201000Y-66179000D03*
%TD*%
D12*
%TO.C,U3*%
X231625000Y-51150000D03*
X231625000Y-51650000D03*
X231625000Y-52150000D03*
X231625000Y-52650000D03*
X231625000Y-53150000D03*
X231625000Y-53650000D03*
X231625000Y-54150000D03*
X231625000Y-54650000D03*
D13*
X230200000Y-56075000D03*
X229700000Y-56075000D03*
X229200000Y-56075000D03*
X228700000Y-56075000D03*
X228200000Y-56075000D03*
X227700000Y-56075000D03*
X227200000Y-56075000D03*
X226700000Y-56075000D03*
D12*
X225275000Y-54650000D03*
X225275000Y-54150000D03*
X225275000Y-53650000D03*
X225275000Y-53150000D03*
X225275000Y-52650000D03*
X225275000Y-52150000D03*
X225275000Y-51650000D03*
X225275000Y-51150000D03*
D13*
X226700000Y-49725000D03*
X227200000Y-49725000D03*
X227700000Y-49725000D03*
X228200000Y-49725000D03*
X228700000Y-49725000D03*
X229200000Y-49725000D03*
X229700000Y-49725000D03*
X230200000Y-49725000D03*
%TD*%
D14*
%TO.C,R3*%
X251525000Y-61800000D03*
X249875000Y-61800000D03*
%TD*%
D15*
%TO.C,REF\u002A\u002A*%
X221625500Y-74138000D03*
X221625500Y-73638000D03*
X221625500Y-73138000D03*
X221625500Y-72638000D03*
X221625500Y-72138000D03*
X221625500Y-71638000D03*
X221625500Y-71138000D03*
X221625500Y-70638000D03*
X221625500Y-70138000D03*
X221625500Y-69638000D03*
X227350500Y-69638000D03*
X227350500Y-70138000D03*
X227350500Y-70638000D03*
X227350500Y-71138000D03*
X227350500Y-71638000D03*
X227350500Y-72138000D03*
X227350500Y-72638000D03*
X227350500Y-73138000D03*
X227350500Y-73638000D03*
X227350500Y-74138000D03*
%TD*%
D16*
%TO.C,REF\u002A\u002A*%
X216308000Y-68622000D03*
X209808000Y-68622000D03*
X216308000Y-73122000D03*
X209808000Y-73122000D03*
%TD*%
D17*
%TO.C,R4*%
X251412500Y-63700000D03*
X249587500Y-63700000D03*
%TD*%
D18*
%TO.C,R2*%
X251810000Y-60300000D03*
X250790000Y-60300000D03*
%TD*%
D19*
%TO.C,R5*%
X251362500Y-66000000D03*
X248437500Y-66000000D03*
%TD*%
D20*
%TO.C,U4*%
X222425000Y-50250000D03*
X222425000Y-50750000D03*
X222425000Y-51250000D03*
X222425000Y-51750000D03*
X222425000Y-52250000D03*
X222425000Y-52750000D03*
X222425000Y-53250000D03*
X222425000Y-53750000D03*
X222425000Y-54250000D03*
X222425000Y-54750000D03*
X222425000Y-55250000D03*
X222425000Y-55750000D03*
X222425000Y-56250000D03*
X222425000Y-56750000D03*
X222425000Y-57250000D03*
X222425000Y-57750000D03*
X222425000Y-58250000D03*
X222425000Y-58750000D03*
X222425000Y-59250000D03*
X222425000Y-59750000D03*
X222425000Y-60250000D03*
X222425000Y-60750000D03*
X222425000Y-61250000D03*
X222425000Y-61750000D03*
X222425000Y-62250000D03*
D21*
X220750000Y-63925000D03*
X220250000Y-63925000D03*
X219750000Y-63925000D03*
X219250000Y-63925000D03*
X218750000Y-63925000D03*
X218250000Y-63925000D03*
X217750000Y-63925000D03*
X217250000Y-63925000D03*
X216750000Y-63925000D03*
X216250000Y-63925000D03*
X215750000Y-63925000D03*
X215250000Y-63925000D03*
X214750000Y-63925000D03*
X214250000Y-63925000D03*
X213750000Y-63925000D03*
X213250000Y-63925000D03*
X212750000Y-63925000D03*
X212250000Y-63925000D03*
X211750000Y-63925000D03*
X211250000Y-63925000D03*
X210750000Y-63925000D03*
X210250000Y-63925000D03*
X209750000Y-63925000D03*
X209250000Y-63925000D03*
X208750000Y-63925000D03*
D20*
X207075000Y-62250000D03*
X207075000Y-61750000D03*
X207075000Y-61250000D03*
X207075000Y-60750000D03*
X207075000Y-60250000D03*
X207075000Y-59750000D03*
X207075000Y-59250000D03*
X207075000Y-58750000D03*
X207075000Y-58250000D03*
X207075000Y-57750000D03*
X207075000Y-57250000D03*
X207075000Y-56750000D03*
X207075000Y-56250000D03*
X207075000Y-55750000D03*
X207075000Y-55250000D03*
X207075000Y-54750000D03*
X207075000Y-54250000D03*
X207075000Y-53750000D03*
X207075000Y-53250000D03*
X207075000Y-52750000D03*
X207075000Y-52250000D03*
X207075000Y-51750000D03*
X207075000Y-51250000D03*
X207075000Y-50750000D03*
X207075000Y-50250000D03*
D21*
X208750000Y-48575000D03*
X209250000Y-48575000D03*
X209750000Y-48575000D03*
X210250000Y-48575000D03*
X210750000Y-48575000D03*
X211250000Y-48575000D03*
X211750000Y-48575000D03*
X212250000Y-48575000D03*
X212750000Y-48575000D03*
X213250000Y-48575000D03*
X213750000Y-48575000D03*
X214250000Y-48575000D03*
X214750000Y-48575000D03*
X215250000Y-48575000D03*
X215750000Y-48575000D03*
X216250000Y-48575000D03*
X216750000Y-48575000D03*
X217250000Y-48575000D03*
X217750000Y-48575000D03*
X218250000Y-48575000D03*
X218750000Y-48575000D03*
X219250000Y-48575000D03*
X219750000Y-48575000D03*
X220250000Y-48575000D03*
X220750000Y-48575000D03*
%TD*%
D22*
%TO.C,REF\u002A\u002A*%
X225758000Y-64014000D03*
X225758000Y-62114000D03*
X227633000Y-63064000D03*
%TD*%
D23*
%TO.C,R7*%
X251312500Y-72500000D03*
X246687500Y-72500000D03*
%TD*%
D24*
%TO.C,R1*%
X251845000Y-58800000D03*
X251155000Y-58800000D03*
%TD*%
D25*
%TO.C,U2*%
X242825000Y-50025000D03*
X242825000Y-50825000D03*
X242825000Y-51625000D03*
X242825000Y-52425000D03*
X242825000Y-53225000D03*
X242825000Y-54025000D03*
X242825000Y-54825000D03*
X242825000Y-55625000D03*
D26*
X241450000Y-57000000D03*
X240650000Y-57000000D03*
X239850000Y-57000000D03*
X239050000Y-57000000D03*
X238250000Y-57000000D03*
X237450000Y-57000000D03*
X236650000Y-57000000D03*
X235850000Y-57000000D03*
D25*
X234475000Y-55625000D03*
X234475000Y-54825000D03*
X234475000Y-54025000D03*
X234475000Y-53225000D03*
X234475000Y-52425000D03*
X234475000Y-51625000D03*
X234475000Y-50825000D03*
X234475000Y-50025000D03*
D26*
X235850000Y-48650000D03*
X236650000Y-48650000D03*
X237450000Y-48650000D03*
X238250000Y-48650000D03*
X239050000Y-48650000D03*
X239850000Y-48650000D03*
X240650000Y-48650000D03*
X241450000Y-48650000D03*
%TD*%
D27*
%TO.C,U1*%
X249600000Y-53500000D03*
X249600000Y-51900000D03*
X248000000Y-53500000D03*
X248000000Y-51900000D03*
D28*
X252237500Y-50100000D03*
X252237500Y-50500000D03*
X252237500Y-50900000D03*
X252237500Y-51300000D03*
X252237500Y-51700000D03*
X252237500Y-52100000D03*
X252237500Y-52500000D03*
X252237500Y-52900000D03*
X252237500Y-53300000D03*
X252237500Y-53700000D03*
X252237500Y-54100000D03*
X252237500Y-54500000D03*
X252237500Y-54900000D03*
X252237500Y-55300000D03*
D29*
X251400000Y-56137500D03*
X251000000Y-56137500D03*
X250600000Y-56137500D03*
X250200000Y-56137500D03*
X249800000Y-56137500D03*
X249400000Y-56137500D03*
X249000000Y-56137500D03*
X248600000Y-56137500D03*
X248200000Y-56137500D03*
X247800000Y-56137500D03*
X247400000Y-56137500D03*
X247000000Y-56137500D03*
X246600000Y-56137500D03*
X246200000Y-56137500D03*
D28*
X245362500Y-55300000D03*
X245362500Y-54900000D03*
X245362500Y-54500000D03*
X245362500Y-54100000D03*
X245362500Y-53700000D03*
X245362500Y-53300000D03*
X245362500Y-52900000D03*
X245362500Y-52500000D03*
X245362500Y-52100000D03*
X245362500Y-51700000D03*
X245362500Y-51300000D03*
X245362500Y-50900000D03*
X245362500Y-50500000D03*
X245362500Y-50100000D03*
D29*
X246200000Y-49262500D03*
X246600000Y-49262500D03*
X247000000Y-49262500D03*
X247400000Y-49262500D03*
X247800000Y-49262500D03*
X248200000Y-49262500D03*
X248600000Y-49262500D03*
X249000000Y-49262500D03*
X249400000Y-49262500D03*
X249800000Y-49262500D03*
X250200000Y-49262500D03*
X250600000Y-49262500D03*
X251000000Y-49262500D03*
X251400000Y-49262500D03*
%TD*%
D30*
%TO.C,R6*%
X251362500Y-69000000D03*
X248437500Y-69000000D03*
%TD*%
M02*
