%TF.GenerationSoftware,KiCad,Pcbnew,9.0.7*%
%TF.CreationDate,2026-09-03T18:25:39+01:00*%
%TF.ProjectId,Ruler,52756c65-722e-46b6-9963-61645f706362,rev?*%
%TF.SameCoordinates,Original*%
%TF.FileFunction,Soldermask,Bot*%
%TF.FilePolarity,Negative*%
%FSLAX46Y46*%
G04 Gerber Fmt 4.6, Leading zero omitted, Abs format (unit mm)*
G04 Created by KiCad (PCBNEW 9.0.7) date 2026-09-03 18:25:39*
%MOMM*%
%LPD*%
G01*
G04 APERTURE LIST*
G04 Aperture macros list*
%AMRoundRect*
0 Rectangle with rounded corners*
0 $1 Rounding radius*
0 $2 $3 $4 $5 $6 $7 $8 $9 X,Y pos of 4 corners*
0 Add a 4 corners polygon primitive as box body*
4,1,4,$2,$3,$4,$5,$6,$7,$8,$9,$2,$3,0*
0 Add four circle primitives for the rounded corners*
1,1,$1+$1,$2,$3*
1,1,$1+$1,$4,$5*
1,1,$1+$1,$6,$7*
1,1,$1+$1,$8,$9*
0 Add four rect primitives between the rounded corners*
20,1,$1+$1,$2,$3,$4,$5,0*
20,1,$1+$1,$4,$5,$6,$7,0*
20,1,$1+$1,$6,$7,$8,$9,0*
20,1,$1+$1,$8,$9,$2,$3,0*%
G04 Aperture macros list end*
%ADD10C,0.000000*%
%ADD11C,0.200000*%
%ADD12C,0.250000*%
%ADD13C,0.450000*%
%ADD14C,0.350000*%
%ADD15C,0.700000*%
%ADD16C,0.300000*%
%ADD17C,0.500000*%
%ADD18C,0.800000*%
%ADD19C,0.600000*%
%ADD20C,0.150000*%
%ADD21C,0.400000*%
%ADD22C,0.760000*%
%ADD23RoundRect,0.250000X0.300000X-2.050000X0.300000X2.050000X-0.300000X2.050000X-0.300000X-2.050000X0*%
%ADD24RoundRect,0.250002X5.149998X-4.449998X5.149998X4.449998X-5.149998X4.449998X-5.149998X-4.449998X0*%
%ADD25RoundRect,0.075000X0.675000X0.075000X-0.675000X0.075000X-0.675000X-0.075000X0.675000X-0.075000X0*%
%ADD26RoundRect,0.075000X0.075000X0.675000X-0.075000X0.675000X-0.075000X-0.675000X0.075000X-0.675000X0*%
%ADD27RoundRect,0.200000X0.200000X0.275000X-0.200000X0.275000X-0.200000X-0.275000X0.200000X-0.275000X0*%
%ADD28RoundRect,0.075000X-0.662500X-0.075000X0.662500X-0.075000X0.662500X0.075000X-0.662500X0.075000X0*%
%ADD29C,2.000000*%
%ADD30RoundRect,0.250000X0.262500X0.450000X-0.262500X0.450000X-0.262500X-0.450000X0.262500X-0.450000X0*%
%ADD31RoundRect,0.135000X0.135000X0.185000X-0.135000X0.185000X-0.135000X-0.185000X0.135000X-0.185000X0*%
%ADD32RoundRect,0.250000X0.312500X0.625000X-0.312500X0.625000X-0.312500X-0.625000X0.312500X-0.625000X0*%
%ADD33RoundRect,0.075000X0.725000X0.075000X-0.725000X0.075000X-0.725000X-0.075000X0.725000X-0.075000X0*%
%ADD34RoundRect,0.075000X0.075000X0.725000X-0.075000X0.725000X-0.075000X-0.725000X0.075000X-0.725000X0*%
%ADD35RoundRect,0.150000X-0.587500X-0.150000X0.587500X-0.150000X0.587500X0.150000X-0.587500X0.150000X0*%
%ADD36RoundRect,0.250000X0.362500X1.075000X-0.362500X1.075000X-0.362500X-1.075000X0.362500X-1.075000X0*%
%ADD37RoundRect,0.100000X0.130000X0.100000X-0.130000X0.100000X-0.130000X-0.100000X0.130000X-0.100000X0*%
%ADD38RoundRect,0.125000X0.625000X0.125000X-0.625000X0.125000X-0.625000X-0.125000X0.625000X-0.125000X0*%
%ADD39RoundRect,0.125000X0.125000X0.625000X-0.125000X0.625000X-0.125000X-0.625000X0.125000X-0.625000X0*%
%ADD40RoundRect,0.050000X0.387500X0.050000X-0.387500X0.050000X-0.387500X-0.050000X0.387500X-0.050000X0*%
%ADD41RoundRect,0.050000X0.050000X0.387500X-0.050000X0.387500X-0.050000X-0.387500X0.050000X-0.387500X0*%
%ADD42R,3.200000X3.200000*%
%ADD43RoundRect,0.250000X0.312500X1.075000X-0.312500X1.075000X-0.312500X-1.075000X0.312500X-1.075000X0*%
G04 APERTURE END LIST*
D10*
G36*
X116770554Y-68696486D02*
G01*
X116770546Y-68696487D01*
X116770554Y-68696471D01*
X116770554Y-68696486D01*
G37*
G36*
X116526955Y-69187443D02*
G01*
X116251011Y-69654942D01*
X115944448Y-70097852D01*
X115608989Y-70515055D01*
X115246361Y-70905434D01*
X114858287Y-71267872D01*
X114446494Y-71601251D01*
X114012704Y-71904454D01*
X113558644Y-72176363D01*
X113086039Y-72415862D01*
X112596612Y-72621833D01*
X112092090Y-72793159D01*
X111574196Y-72928722D01*
X111044655Y-73027405D01*
X110505194Y-73088092D01*
X109957535Y-73109663D01*
X109717848Y-73105292D01*
X109479370Y-73093340D01*
X109242253Y-73073892D01*
X109006648Y-73047032D01*
X108540585Y-72971408D01*
X108082395Y-72867141D01*
X107633294Y-72734898D01*
X107194497Y-72575352D01*
X106767220Y-72389172D01*
X106352678Y-72177029D01*
X105952086Y-71939593D01*
X105566659Y-71677534D01*
X105197612Y-71391522D01*
X104846162Y-71082229D01*
X104513523Y-70750323D01*
X104200910Y-70396477D01*
X104052494Y-70211535D01*
X103909539Y-70021358D01*
X103772199Y-69826032D01*
X103640625Y-69625639D01*
X105173293Y-69631829D01*
X106743760Y-69605095D01*
X108340982Y-69545737D01*
X109953919Y-69454054D01*
X110837292Y-69389710D01*
X111715298Y-69316297D01*
X112586150Y-69234014D01*
X113448061Y-69143059D01*
X114299244Y-69043631D01*
X115137912Y-68935927D01*
X115962278Y-68820146D01*
X116770546Y-68696487D01*
X116526955Y-69187443D01*
G37*
G36*
X110234131Y-58115278D02*
G01*
X110508887Y-58130565D01*
X110781577Y-58155764D01*
X111051981Y-58190731D01*
X111319879Y-58235324D01*
X111585052Y-58289400D01*
X111847280Y-58352818D01*
X112106343Y-58425433D01*
X112362023Y-58507104D01*
X112614099Y-58597688D01*
X112862352Y-58697042D01*
X113106562Y-58805023D01*
X113346509Y-58921490D01*
X113581975Y-59046299D01*
X113812739Y-59179308D01*
X114038582Y-59320374D01*
X114259285Y-59469355D01*
X114474627Y-59626107D01*
X114684389Y-59790489D01*
X114888351Y-59962357D01*
X115086295Y-60141570D01*
X115278000Y-60327983D01*
X115463246Y-60521456D01*
X115641815Y-60721845D01*
X115813487Y-60929007D01*
X115978041Y-61142800D01*
X116135259Y-61363082D01*
X116284920Y-61589709D01*
X116426806Y-61822539D01*
X116560696Y-62061430D01*
X116686371Y-62306239D01*
X116803612Y-62556822D01*
X116897866Y-62777745D01*
X116984932Y-63001401D01*
X117064759Y-63227611D01*
X117137292Y-63456200D01*
X117202481Y-63686990D01*
X117260271Y-63919803D01*
X117310611Y-64154463D01*
X117353447Y-64390791D01*
X117377310Y-64542079D01*
X117398072Y-64693774D01*
X117415730Y-64845829D01*
X117430279Y-64998198D01*
X117441715Y-65150833D01*
X117450035Y-65303687D01*
X117455233Y-65456712D01*
X117457306Y-65609862D01*
X117452271Y-65733399D01*
X117445202Y-65856812D01*
X117436101Y-65980076D01*
X117424970Y-66103165D01*
X117411813Y-66226055D01*
X117396632Y-66348720D01*
X117379429Y-66471135D01*
X117360207Y-66593276D01*
X116646688Y-66752762D01*
X115868578Y-66901679D01*
X115033117Y-67039081D01*
X114147548Y-67164025D01*
X113219112Y-67275565D01*
X112255050Y-67372758D01*
X111262605Y-67454659D01*
X110249016Y-67520323D01*
X109172000Y-67570000D01*
X108115238Y-67599021D01*
X107087403Y-67607580D01*
X106097167Y-67595873D01*
X105153201Y-67564095D01*
X104264178Y-67512440D01*
X103438769Y-67441103D01*
X102685647Y-67350279D01*
X102634807Y-67136147D01*
X102590299Y-66920756D01*
X102552141Y-66704246D01*
X102520351Y-66486758D01*
X102494948Y-66268433D01*
X102475950Y-66049412D01*
X102463377Y-65829836D01*
X102457245Y-65609847D01*
X102464803Y-65513296D01*
X102473605Y-65416853D01*
X102483651Y-65320537D01*
X102494942Y-65224364D01*
X102511698Y-64992198D01*
X102535632Y-64760829D01*
X102566711Y-64530424D01*
X102604907Y-64301146D01*
X102650190Y-64073161D01*
X102702529Y-63846635D01*
X102761894Y-63621733D01*
X102828255Y-63398619D01*
X102924405Y-63108030D01*
X103031527Y-62823448D01*
X103277571Y-62273132D01*
X103564145Y-61749335D01*
X103889006Y-61253720D01*
X104249912Y-60787952D01*
X104644621Y-60353692D01*
X105070890Y-59952605D01*
X105526477Y-59586354D01*
X106009140Y-59256602D01*
X106516636Y-58965013D01*
X107046722Y-58713250D01*
X107597157Y-58502976D01*
X108165699Y-58335856D01*
X108750104Y-58213551D01*
X109348130Y-58137727D01*
X109651550Y-58117764D01*
X109957532Y-58110045D01*
X110234131Y-58115278D01*
G37*
G36*
X117925546Y-62624796D02*
G01*
X118927328Y-62685990D01*
X119876985Y-62763359D01*
X120772250Y-62856335D01*
X121610856Y-62964348D01*
X122390534Y-63086829D01*
X123109018Y-63223210D01*
X123764039Y-63372922D01*
X124353331Y-63535395D01*
X124622620Y-63621240D01*
X124874626Y-63710062D01*
X125109066Y-63801790D01*
X125325656Y-63896353D01*
X125524113Y-63993680D01*
X125704154Y-64093700D01*
X125865495Y-64196341D01*
X126007853Y-64301533D01*
X126130944Y-64409204D01*
X126234485Y-64519283D01*
X126318192Y-64631700D01*
X126381782Y-64746383D01*
X126424972Y-64863261D01*
X126447477Y-64982262D01*
X126446924Y-65107343D01*
X126423973Y-65233082D01*
X126378933Y-65359360D01*
X126312109Y-65486058D01*
X126114335Y-65740236D01*
X125833104Y-65994662D01*
X125470865Y-66248383D01*
X125030071Y-66500446D01*
X124513172Y-66749896D01*
X123922621Y-66995780D01*
X123260867Y-67237144D01*
X122530363Y-67473034D01*
X121733559Y-67702497D01*
X120872907Y-67924579D01*
X119950858Y-68138327D01*
X118969863Y-68342786D01*
X117932374Y-68537003D01*
X116840841Y-68720025D01*
X116032568Y-68843684D01*
X115208204Y-68959466D01*
X114369536Y-69067170D01*
X113518353Y-69166600D01*
X112656439Y-69257557D01*
X111785583Y-69339842D01*
X110907572Y-69413259D01*
X110024191Y-69477608D01*
X108411246Y-69569282D01*
X106814021Y-69628634D01*
X105243554Y-69655362D01*
X103710882Y-69649163D01*
X102542224Y-69621239D01*
X101426079Y-69573657D01*
X100365386Y-69507082D01*
X99363082Y-69422178D01*
X98422105Y-69319610D01*
X97545392Y-69200043D01*
X96735881Y-69064143D01*
X95996510Y-68912573D01*
X95330215Y-68746000D01*
X95025390Y-68657294D01*
X94739936Y-68565087D01*
X94474220Y-68469461D01*
X94228609Y-68370500D01*
X94003470Y-68268287D01*
X93799171Y-68162904D01*
X93616080Y-68054435D01*
X93454562Y-67942963D01*
X93314985Y-67828571D01*
X93197717Y-67711342D01*
X93103125Y-67591360D01*
X93031575Y-67468707D01*
X92983436Y-67343466D01*
X92959074Y-67215722D01*
X92959149Y-67088031D01*
X92982564Y-66959668D01*
X93028990Y-66830759D01*
X93098095Y-66701431D01*
X93303020Y-66442019D01*
X93594696Y-66182443D01*
X93970477Y-65923711D01*
X94427719Y-65666835D01*
X94963775Y-65412822D01*
X95576001Y-65162682D01*
X96261753Y-64917426D01*
X97018384Y-64678062D01*
X97843250Y-64445600D01*
X98733706Y-64221050D01*
X99687107Y-64005422D01*
X100700807Y-63799724D01*
X101772162Y-63604966D01*
X102898527Y-63422158D01*
X102832166Y-63645266D01*
X102772801Y-63870165D01*
X102720462Y-64096689D01*
X102675179Y-64324671D01*
X102636983Y-64553948D01*
X102605904Y-64784353D01*
X102581970Y-65015721D01*
X102565214Y-65247887D01*
X102295980Y-65319664D01*
X102043025Y-65392339D01*
X101806557Y-65465801D01*
X101586782Y-65539940D01*
X101383909Y-65614645D01*
X101288875Y-65652175D01*
X101198144Y-65689806D01*
X101111743Y-65727522D01*
X101029696Y-65765311D01*
X100952030Y-65803159D01*
X100878771Y-65841052D01*
X100809944Y-65878975D01*
X100745577Y-65916916D01*
X100685693Y-65954860D01*
X100630321Y-65992793D01*
X100579484Y-66030703D01*
X100533210Y-66068574D01*
X100491525Y-66106393D01*
X100454453Y-66144146D01*
X100422021Y-66181820D01*
X100394256Y-66219400D01*
X100371182Y-66256874D01*
X100352827Y-66294226D01*
X100339215Y-66331443D01*
X100330372Y-66368511D01*
X100326326Y-66405417D01*
X100327101Y-66442147D01*
X100345116Y-66514168D01*
X100382006Y-66584749D01*
X100437550Y-66653804D01*
X100511525Y-66721248D01*
X100603708Y-66786995D01*
X100713877Y-66850961D01*
X100841810Y-66913060D01*
X100987284Y-66973206D01*
X101150077Y-67031315D01*
X101329966Y-67087300D01*
X101526729Y-67141077D01*
X101740144Y-67192560D01*
X101969989Y-67241664D01*
X102216040Y-67288304D01*
X102478075Y-67332394D01*
X102755873Y-67373849D01*
X103508992Y-67464662D01*
X104334399Y-67535992D01*
X105223421Y-67587643D01*
X106167387Y-67619420D01*
X107157626Y-67631128D01*
X108185466Y-67622573D01*
X109242237Y-67593559D01*
X110319265Y-67543893D01*
X111332854Y-67478223D01*
X112325299Y-67396318D01*
X113289361Y-67299123D01*
X114217796Y-67187581D01*
X115103365Y-67062636D01*
X115938824Y-66925233D01*
X116716932Y-66776317D01*
X117430449Y-66616830D01*
X117730828Y-66541849D01*
X118013258Y-66465730D01*
X118277474Y-66388603D01*
X118523216Y-66310600D01*
X118750221Y-66231855D01*
X118856615Y-66192244D01*
X118958227Y-66152498D01*
X119055024Y-66112631D01*
X119146973Y-66072662D01*
X119234041Y-66032605D01*
X119316196Y-65992478D01*
X119393404Y-65952297D01*
X119465634Y-65912079D01*
X119532852Y-65871840D01*
X119595026Y-65831597D01*
X119652122Y-65791366D01*
X119704109Y-65751164D01*
X119750953Y-65711006D01*
X119792622Y-65670911D01*
X119829082Y-65630894D01*
X119860302Y-65590971D01*
X119886248Y-65551160D01*
X119906888Y-65511476D01*
X119922188Y-65471936D01*
X119932117Y-65432557D01*
X119936641Y-65393356D01*
X119935728Y-65354348D01*
X119916401Y-65281253D01*
X119877611Y-65209656D01*
X119819593Y-65139647D01*
X119742587Y-65071313D01*
X119646828Y-65004744D01*
X119532555Y-64940029D01*
X119400005Y-64877256D01*
X119249414Y-64816514D01*
X119081021Y-64757892D01*
X118895063Y-64701479D01*
X118691776Y-64647363D01*
X118471399Y-64595635D01*
X118234168Y-64546381D01*
X117980321Y-64499692D01*
X117710095Y-64455655D01*
X117423727Y-64414361D01*
X117380893Y-64178022D01*
X117330555Y-63943357D01*
X117272767Y-63710540D01*
X117207580Y-63479748D01*
X117135047Y-63251158D01*
X117055223Y-63024946D01*
X116968158Y-62801288D01*
X116873907Y-62580361D01*
X116873907Y-62580346D01*
X117925546Y-62624796D01*
G37*
D11*
X223980000Y-77730000D02*
X223980000Y-79000000D01*
X150320000Y-77730000D02*
X150320000Y-79000000D01*
D12*
X76000000Y-53625000D02*
X67500000Y-53625000D01*
D11*
X94440000Y-77730000D02*
X94440000Y-79000000D01*
X226520000Y-77730000D02*
X226520000Y-79000000D01*
X142700000Y-76460000D02*
X142700000Y-79000000D01*
X71580000Y-77730000D02*
X71580000Y-79000000D01*
X251920000Y-77730000D02*
X251920000Y-79000000D01*
X130000000Y-75190000D02*
X130000000Y-79000000D01*
D13*
X76000000Y-59625000D02*
X67500000Y-59625000D01*
D11*
X112220000Y-77730000D02*
X112220000Y-79000000D01*
X155400000Y-75190000D02*
X155400000Y-79000000D01*
X183340000Y-77730000D02*
X183340000Y-79000000D01*
X168100000Y-76460000D02*
X168100000Y-79000000D01*
D14*
X76000000Y-56625000D02*
X67500000Y-56625000D01*
D11*
X102060000Y-77730000D02*
X102060000Y-79000000D01*
X61420000Y-77730000D02*
X61420000Y-79000000D01*
D15*
X76000000Y-63875000D02*
X67500000Y-63875000D01*
D16*
X76000000Y-55125000D02*
X67500000Y-55125000D01*
D11*
X66500000Y-76460000D02*
X66500000Y-79000000D01*
X124920000Y-77730000D02*
X124920000Y-79000000D01*
X178260000Y-77730000D02*
X178260000Y-79000000D01*
X236680000Y-77730000D02*
X236680000Y-79000000D01*
X86820000Y-77730000D02*
X86820000Y-79000000D01*
X165560000Y-77730000D02*
X165560000Y-79000000D01*
X185880000Y-77730000D02*
X185880000Y-79000000D01*
X91900000Y-76460000D02*
X91900000Y-79000000D01*
X96980000Y-77730000D02*
X96980000Y-79000000D01*
X180800000Y-75190000D02*
X180800000Y-79000000D01*
X74120000Y-77730000D02*
X74120000Y-79000000D01*
X107140000Y-77730000D02*
X107140000Y-79000000D01*
X163020000Y-77730000D02*
X163020000Y-79000000D01*
X147780000Y-77730000D02*
X147780000Y-79000000D01*
X201120000Y-77730000D02*
X201120000Y-79000000D01*
X198580000Y-77730000D02*
X198580000Y-79000000D01*
X84280000Y-77730000D02*
X84280000Y-79000000D01*
X218900000Y-76460000D02*
X218900000Y-79000000D01*
X175720000Y-77730000D02*
X175720000Y-79000000D01*
X79200000Y-75190000D02*
X79200000Y-79000000D01*
X81740000Y-77730000D02*
X81740000Y-79000000D01*
D17*
X76000000Y-60875000D02*
X67500000Y-60875000D01*
D11*
X188420000Y-77730000D02*
X188420000Y-79000000D01*
X193500000Y-76460000D02*
X193500000Y-79000000D01*
X173180000Y-77730000D02*
X173180000Y-79000000D01*
X203660000Y-77730000D02*
X203660000Y-79000000D01*
X249380000Y-77730000D02*
X249380000Y-79000000D01*
X196040000Y-77730000D02*
X196040000Y-79000000D01*
X114760000Y-77730000D02*
X114760000Y-79000000D01*
X109680000Y-77730000D02*
X109680000Y-79000000D01*
X99520000Y-77730000D02*
X99520000Y-79000000D01*
X67500000Y-52375000D02*
X76000000Y-52375000D01*
X132540000Y-77730000D02*
X132540000Y-79000000D01*
X229060000Y-77730000D02*
X229060000Y-79000000D01*
X239220000Y-77730000D02*
X239220000Y-79000000D01*
X69040000Y-77730000D02*
X69040000Y-79000000D01*
X208740000Y-77730000D02*
X208740000Y-79000000D01*
X246840000Y-77730000D02*
X246840000Y-79000000D01*
X221440000Y-77730000D02*
X221440000Y-79000000D01*
X160480000Y-77730000D02*
X160480000Y-79000000D01*
X211280000Y-77730000D02*
X211280000Y-79000000D01*
X76660000Y-77730000D02*
X76660000Y-79000000D01*
X119840000Y-77730000D02*
X119840000Y-79000000D01*
X254460000Y-77730000D02*
X254460000Y-79000000D01*
X213820000Y-77730000D02*
X213820000Y-79000000D01*
D18*
X76000000Y-66875000D02*
X67500000Y-66875000D01*
D19*
X76000000Y-62375000D02*
X67500000Y-62375000D01*
D11*
X58880000Y-77730000D02*
X58880000Y-79000000D01*
X190960000Y-77730000D02*
X190960000Y-79000000D01*
X130000000Y-77730000D02*
X130000000Y-79000000D01*
X206200000Y-75190000D02*
X206200000Y-79000000D01*
X117300000Y-76460000D02*
X117300000Y-79000000D01*
X135080000Y-77730000D02*
X135080000Y-79000000D01*
X241760000Y-77730000D02*
X241760000Y-79000000D01*
X234140000Y-77730000D02*
X234140000Y-79000000D01*
X53800000Y-75190000D02*
X53800000Y-79000000D01*
X137620000Y-77730000D02*
X137620000Y-79000000D01*
X127460000Y-77730000D02*
X127460000Y-79000000D01*
X140160000Y-77730000D02*
X140160000Y-79000000D01*
X216360000Y-77730000D02*
X216360000Y-79000000D01*
X244300000Y-76460000D02*
X244300000Y-79000000D01*
D20*
X67500000Y-50875000D02*
X76000000Y-50875000D01*
D11*
X231600000Y-75190000D02*
X231600000Y-79000000D01*
X122380000Y-77730000D02*
X122380000Y-79000000D01*
D21*
X76000000Y-58125000D02*
X67500000Y-58125000D01*
D11*
X56340000Y-77730000D02*
X56340000Y-79000000D01*
X104600000Y-75190000D02*
X104600000Y-79000000D01*
X63960000Y-77730000D02*
X63960000Y-79000000D01*
D22*
X67500000Y-65375000D02*
X76000000Y-65375000D01*
D11*
X157940000Y-77730000D02*
X157940000Y-79000000D01*
X89360000Y-77730000D02*
X89360000Y-79000000D01*
X170640000Y-77730000D02*
X170640000Y-79000000D01*
X152860000Y-77730000D02*
X152860000Y-79000000D01*
X145240000Y-77730000D02*
X145240000Y-79000000D01*
D23*
%TO.C,REF\u002A\u002A*%
X233886000Y-72904000D03*
D24*
X236426000Y-63754000D03*
D23*
X238966000Y-72904000D03*
%TD*%
D25*
%TO.C,U3*%
X231625000Y-51150000D03*
X231625000Y-51650000D03*
X231625000Y-52150000D03*
X231625000Y-52650000D03*
X231625000Y-53150000D03*
X231625000Y-53650000D03*
X231625000Y-54150000D03*
X231625000Y-54650000D03*
D26*
X230200000Y-56075000D03*
X229700000Y-56075000D03*
X229200000Y-56075000D03*
X228700000Y-56075000D03*
X228200000Y-56075000D03*
X227700000Y-56075000D03*
X227200000Y-56075000D03*
X226700000Y-56075000D03*
D25*
X225275000Y-54650000D03*
X225275000Y-54150000D03*
X225275000Y-53650000D03*
X225275000Y-53150000D03*
X225275000Y-52650000D03*
X225275000Y-52150000D03*
X225275000Y-51650000D03*
X225275000Y-51150000D03*
D26*
X226700000Y-49725000D03*
X227200000Y-49725000D03*
X227700000Y-49725000D03*
X228200000Y-49725000D03*
X228700000Y-49725000D03*
X229200000Y-49725000D03*
X229700000Y-49725000D03*
X230200000Y-49725000D03*
%TD*%
D27*
%TO.C,R3*%
X251525000Y-61800000D03*
X249875000Y-61800000D03*
%TD*%
D28*
%TO.C,REF\u002A\u002A*%
X221625500Y-74138000D03*
X221625500Y-73638000D03*
X221625500Y-73138000D03*
X221625500Y-72638000D03*
X221625500Y-72138000D03*
X221625500Y-71638000D03*
X221625500Y-71138000D03*
X221625500Y-70638000D03*
X221625500Y-70138000D03*
X221625500Y-69638000D03*
X227350500Y-69638000D03*
X227350500Y-70138000D03*
X227350500Y-70638000D03*
X227350500Y-71138000D03*
X227350500Y-71638000D03*
X227350500Y-72138000D03*
X227350500Y-72638000D03*
X227350500Y-73138000D03*
X227350500Y-73638000D03*
X227350500Y-74138000D03*
%TD*%
D29*
%TO.C,REF\u002A\u002A*%
X216308000Y-68622000D03*
X209808000Y-68622000D03*
X216308000Y-73122000D03*
X209808000Y-73122000D03*
%TD*%
D30*
%TO.C,R4*%
X251412500Y-63700000D03*
X249587500Y-63700000D03*
%TD*%
D31*
%TO.C,R2*%
X251810000Y-60300000D03*
X250790000Y-60300000D03*
%TD*%
D32*
%TO.C,R5*%
X251362500Y-66000000D03*
X248437500Y-66000000D03*
%TD*%
D33*
%TO.C,U4*%
X222425000Y-50250000D03*
X222425000Y-50750000D03*
X222425000Y-51250000D03*
X222425000Y-51750000D03*
X222425000Y-52250000D03*
X222425000Y-52750000D03*
X222425000Y-53250000D03*
X222425000Y-53750000D03*
X222425000Y-54250000D03*
X222425000Y-54750000D03*
X222425000Y-55250000D03*
X222425000Y-55750000D03*
X222425000Y-56250000D03*
X222425000Y-56750000D03*
X222425000Y-57250000D03*
X222425000Y-57750000D03*
X222425000Y-58250000D03*
X222425000Y-58750000D03*
X222425000Y-59250000D03*
X222425000Y-59750000D03*
X222425000Y-60250000D03*
X222425000Y-60750000D03*
X222425000Y-61250000D03*
X222425000Y-61750000D03*
X222425000Y-62250000D03*
D34*
X220750000Y-63925000D03*
X220250000Y-63925000D03*
X219750000Y-63925000D03*
X219250000Y-63925000D03*
X218750000Y-63925000D03*
X218250000Y-63925000D03*
X217750000Y-63925000D03*
X217250000Y-63925000D03*
X216750000Y-63925000D03*
X216250000Y-63925000D03*
X215750000Y-63925000D03*
X215250000Y-63925000D03*
X214750000Y-63925000D03*
X214250000Y-63925000D03*
X213750000Y-63925000D03*
X213250000Y-63925000D03*
X212750000Y-63925000D03*
X212250000Y-63925000D03*
X211750000Y-63925000D03*
X211250000Y-63925000D03*
X210750000Y-63925000D03*
X210250000Y-63925000D03*
X209750000Y-63925000D03*
X209250000Y-63925000D03*
X208750000Y-63925000D03*
D33*
X207075000Y-62250000D03*
X207075000Y-61750000D03*
X207075000Y-61250000D03*
X207075000Y-60750000D03*
X207075000Y-60250000D03*
X207075000Y-59750000D03*
X207075000Y-59250000D03*
X207075000Y-58750000D03*
X207075000Y-58250000D03*
X207075000Y-57750000D03*
X207075000Y-57250000D03*
X207075000Y-56750000D03*
X207075000Y-56250000D03*
X207075000Y-55750000D03*
X207075000Y-55250000D03*
X207075000Y-54750000D03*
X207075000Y-54250000D03*
X207075000Y-53750000D03*
X207075000Y-53250000D03*
X207075000Y-52750000D03*
X207075000Y-52250000D03*
X207075000Y-51750000D03*
X207075000Y-51250000D03*
X207075000Y-50750000D03*
X207075000Y-50250000D03*
D34*
X208750000Y-48575000D03*
X209250000Y-48575000D03*
X209750000Y-48575000D03*
X210250000Y-48575000D03*
X210750000Y-48575000D03*
X211250000Y-48575000D03*
X211750000Y-48575000D03*
X212250000Y-48575000D03*
X212750000Y-48575000D03*
X213250000Y-48575000D03*
X213750000Y-48575000D03*
X214250000Y-48575000D03*
X214750000Y-48575000D03*
X215250000Y-48575000D03*
X215750000Y-48575000D03*
X216250000Y-48575000D03*
X216750000Y-48575000D03*
X217250000Y-48575000D03*
X217750000Y-48575000D03*
X218250000Y-48575000D03*
X218750000Y-48575000D03*
X219250000Y-48575000D03*
X219750000Y-48575000D03*
X220250000Y-48575000D03*
X220750000Y-48575000D03*
%TD*%
D35*
%TO.C,REF\u002A\u002A*%
X225758000Y-64014000D03*
X225758000Y-62114000D03*
X227633000Y-63064000D03*
%TD*%
D36*
%TO.C,R7*%
X251312500Y-72500000D03*
X246687500Y-72500000D03*
%TD*%
D37*
%TO.C,R1*%
X251820000Y-58800000D03*
X251180000Y-58800000D03*
%TD*%
D38*
%TO.C,U2*%
X242825000Y-50025000D03*
X242825000Y-50825000D03*
X242825000Y-51625000D03*
X242825000Y-52425000D03*
X242825000Y-53225000D03*
X242825000Y-54025000D03*
X242825000Y-54825000D03*
X242825000Y-55625000D03*
D39*
X241450000Y-57000000D03*
X240650000Y-57000000D03*
X239850000Y-57000000D03*
X239050000Y-57000000D03*
X238250000Y-57000000D03*
X237450000Y-57000000D03*
X236650000Y-57000000D03*
X235850000Y-57000000D03*
D38*
X234475000Y-55625000D03*
X234475000Y-54825000D03*
X234475000Y-54025000D03*
X234475000Y-53225000D03*
X234475000Y-52425000D03*
X234475000Y-51625000D03*
X234475000Y-50825000D03*
X234475000Y-50025000D03*
D39*
X235850000Y-48650000D03*
X236650000Y-48650000D03*
X237450000Y-48650000D03*
X238250000Y-48650000D03*
X239050000Y-48650000D03*
X239850000Y-48650000D03*
X240650000Y-48650000D03*
X241450000Y-48650000D03*
%TD*%
D40*
%TO.C,U1*%
X252237500Y-50100000D03*
X252237500Y-50500000D03*
X252237500Y-50900000D03*
X252237500Y-51300000D03*
X252237500Y-51700000D03*
X252237500Y-52100000D03*
X252237500Y-52500000D03*
X252237500Y-52900000D03*
X252237500Y-53300000D03*
X252237500Y-53700000D03*
X252237500Y-54100000D03*
X252237500Y-54500000D03*
X252237500Y-54900000D03*
X252237500Y-55300000D03*
D41*
X251400000Y-56137500D03*
X251000000Y-56137500D03*
X250600000Y-56137500D03*
X250200000Y-56137500D03*
X249800000Y-56137500D03*
X249400000Y-56137500D03*
X249000000Y-56137500D03*
X248600000Y-56137500D03*
X248200000Y-56137500D03*
X247800000Y-56137500D03*
X247400000Y-56137500D03*
X247000000Y-56137500D03*
X246600000Y-56137500D03*
X246200000Y-56137500D03*
D40*
X245362500Y-55300000D03*
X245362500Y-54900000D03*
X245362500Y-54500000D03*
X245362500Y-54100000D03*
X245362500Y-53700000D03*
X245362500Y-53300000D03*
X245362500Y-52900000D03*
X245362500Y-52500000D03*
X245362500Y-52100000D03*
X245362500Y-51700000D03*
X245362500Y-51300000D03*
X245362500Y-50900000D03*
X245362500Y-50500000D03*
X245362500Y-50100000D03*
D41*
X246200000Y-49262500D03*
X246600000Y-49262500D03*
X247000000Y-49262500D03*
X247400000Y-49262500D03*
X247800000Y-49262500D03*
X248200000Y-49262500D03*
X248600000Y-49262500D03*
X249000000Y-49262500D03*
X249400000Y-49262500D03*
X249800000Y-49262500D03*
X250200000Y-49262500D03*
X250600000Y-49262500D03*
X251000000Y-49262500D03*
X251400000Y-49262500D03*
D42*
X248800000Y-52700000D03*
%TD*%
D43*
%TO.C,R6*%
X251362500Y-69000000D03*
X248437500Y-69000000D03*
%TD*%
M02*
