%TF.GenerationSoftware,KiCad,Pcbnew,9.0.7*%
%TF.CreationDate,2026-09-03T18:25:39+01:00*%
%TF.ProjectId,Ruler,52756c65-722e-46b6-9963-61645f706362,rev?*%
%TF.SameCoordinates,Original*%
%TF.FileFunction,Copper,L1,Top*%
%TF.FilePolarity,Positive*%
%FSLAX46Y46*%
G04 Gerber Fmt 4.6, Leading zero omitted, Abs format (unit mm)*
G04 Created by KiCad (PCBNEW 9.0.7) date 2026-09-03 18:25:39*
%MOMM*%
%LPD*%
G01*
G04 APERTURE LIST*
%TA.AperFunction,NonConductor*%
%ADD10C,0.049591*%
%TD*%
%TA.AperFunction,NonConductor*%
%ADD11C,0.013264*%
%TD*%
%TA.AperFunction,NonConductor*%
%ADD12C,0.100000*%
%TD*%
%TA.AperFunction,NonConductor*%
%ADD13C,0.093118*%
%TD*%
%TA.AperFunction,NonConductor*%
%ADD14C,0.093353*%
%TD*%
%TA.AperFunction,NonConductor*%
%ADD15C,0.083593*%
%TD*%
%TA.AperFunction,NonConductor*%
%ADD16C,0.046601*%
%TD*%
%TA.AperFunction,NonConductor*%
%ADD17C,0.065099*%
%TD*%
%TA.AperFunction,NonConductor*%
%ADD18C,0.089849*%
%TD*%
%TA.AperFunction,NonConductor*%
%ADD19C,0.032443*%
%TD*%
%TA.AperFunction,NonConductor*%
%ADD20C,0.092896*%
%TD*%
%TA.AperFunction,NonConductor*%
%ADD21C,0.059325*%
%TD*%
%TA.AperFunction,NonConductor*%
%ADD22C,0.109577*%
%TD*%
%TA.AperFunction,NonConductor*%
%ADD23C,0.030099*%
%TD*%
%TA.AperFunction,NonConductor*%
%ADD24C,0.095355*%
%TD*%
%TA.AperFunction,NonConductor*%
%ADD25C,0.085790*%
%TD*%
%TA.AperFunction,NonConductor*%
%ADD26C,0.042152*%
%TD*%
%TA.AperFunction,NonConductor*%
%ADD27C,0.078553*%
%TD*%
%TA.AperFunction,NonConductor*%
%ADD28C,0.069779*%
%TD*%
%TA.AperFunction,NonConductor*%
%ADD29C,0.097748*%
%TD*%
%TA.AperFunction,NonConductor*%
%ADD30C,0.044891*%
%TD*%
%TA.AperFunction,NonConductor*%
%ADD31C,0.097009*%
%TD*%
%TA.AperFunction,NonConductor*%
%ADD32C,0.023587*%
%TD*%
%TA.AperFunction,NonConductor*%
%ADD33C,0.044011*%
%TD*%
%TA.AperFunction,NonConductor*%
%ADD34C,0.090719*%
%TD*%
%TA.AperFunction,NonConductor*%
%ADD35C,0.066783*%
%TD*%
%ADD36C,0.158750*%
%TA.AperFunction,NonConductor*%
%ADD37C,0.158750*%
%TD*%
%TA.AperFunction,Conductor*%
%ADD38C,0.200000*%
%TD*%
G04 APERTURE END LIST*
D10*
X138181458Y-57428482D02*
X138212576Y-57430282D01*
X138243426Y-57433585D01*
X138273989Y-57438390D01*
X138304250Y-57444694D01*
X138334190Y-57452496D01*
X138363791Y-57461795D01*
X138393038Y-57472588D01*
X138421911Y-57484874D01*
X138450394Y-57498651D01*
X138478470Y-57513918D01*
X138506120Y-57530672D01*
X138533328Y-57548912D01*
X138560076Y-57568637D01*
X138586346Y-57589844D01*
X138612122Y-57612531D01*
X138599362Y-57621787D01*
X138591832Y-57627793D01*
X138583700Y-57634869D01*
X138575090Y-57643130D01*
X138566125Y-57652690D01*
X138556929Y-57663663D01*
X138547625Y-57676163D01*
X138538336Y-57690304D01*
X138529186Y-57706200D01*
X138520299Y-57723965D01*
X138511797Y-57743714D01*
X138503805Y-57765560D01*
X138496446Y-57789618D01*
X138489843Y-57816001D01*
X138484120Y-57844825D01*
X138471159Y-57826621D01*
X138456819Y-57809099D01*
X138441149Y-57792333D01*
X138424199Y-57776395D01*
X138406019Y-57761361D01*
X138386660Y-57747303D01*
X138366171Y-57734295D01*
X138344603Y-57722412D01*
X138322005Y-57711727D01*
X138298427Y-57702313D01*
X138273921Y-57694245D01*
X138248534Y-57687595D01*
X138222319Y-57682439D01*
X138195325Y-57678850D01*
X138167601Y-57676901D01*
X138139199Y-57676667D01*
X138104942Y-57678991D01*
X138070190Y-57684422D01*
X138035301Y-57692937D01*
X138000637Y-57704513D01*
X137966557Y-57719129D01*
X137949850Y-57727569D01*
X137933423Y-57736761D01*
X137917323Y-57746701D01*
X137901595Y-57757387D01*
X137886283Y-57768816D01*
X137871433Y-57780985D01*
X137857089Y-57793891D01*
X137843297Y-57807532D01*
X137830102Y-57821904D01*
X137817549Y-57837006D01*
X137805682Y-57852833D01*
X137794548Y-57869384D01*
X137784190Y-57886656D01*
X137774654Y-57904645D01*
X137765986Y-57923349D01*
X137758229Y-57942764D01*
X137751430Y-57962890D01*
X137745633Y-57983721D01*
X137740883Y-58005257D01*
X137737226Y-58027493D01*
X137734706Y-58050427D01*
X137733368Y-58074056D01*
X137733937Y-58108396D01*
X137737703Y-58143829D01*
X137744679Y-58179920D01*
X137754876Y-58216231D01*
X137768307Y-58252328D01*
X137776238Y-58270160D01*
X137784982Y-58287774D01*
X137794540Y-58305116D01*
X137804913Y-58322132D01*
X137816104Y-58338767D01*
X137828113Y-58354967D01*
X137840942Y-58370676D01*
X137854593Y-58385841D01*
X137869067Y-58400408D01*
X137884365Y-58414320D01*
X137900489Y-58427525D01*
X137917440Y-58439967D01*
X137935220Y-58451592D01*
X137953831Y-58462346D01*
X137973273Y-58472173D01*
X137993549Y-58481020D01*
X138014659Y-58488831D01*
X138036605Y-58495553D01*
X138059390Y-58501131D01*
X138083013Y-58505510D01*
X138107477Y-58508635D01*
X138132782Y-58510453D01*
X138147091Y-58510859D01*
X138161303Y-58510806D01*
X138175410Y-58510301D01*
X138189398Y-58509353D01*
X138203257Y-58507971D01*
X138216975Y-58506164D01*
X138230540Y-58503939D01*
X138243943Y-58501307D01*
X138257170Y-58498274D01*
X138270211Y-58494851D01*
X138283054Y-58491045D01*
X138295688Y-58486866D01*
X138308102Y-58482321D01*
X138320284Y-58477419D01*
X138332223Y-58472170D01*
X138343907Y-58466581D01*
X138355325Y-58460661D01*
X138366466Y-58454419D01*
X138377318Y-58447863D01*
X138387870Y-58441002D01*
X138398110Y-58433845D01*
X138408027Y-58426400D01*
X138417611Y-58418676D01*
X138426848Y-58410682D01*
X138435729Y-58402425D01*
X138444241Y-58393915D01*
X138452373Y-58385160D01*
X138460114Y-58376169D01*
X138467453Y-58366951D01*
X138474377Y-58357513D01*
X138480876Y-58347866D01*
X138486939Y-58338016D01*
X138490358Y-58365627D01*
X138493865Y-58390132D01*
X138497574Y-58411876D01*
X138501601Y-58431202D01*
X138503769Y-58440066D01*
X138506059Y-58448455D01*
X138508486Y-58456412D01*
X138511063Y-58463980D01*
X138513805Y-58471201D01*
X138516727Y-58478119D01*
X138519842Y-58484778D01*
X138523165Y-58491219D01*
X138526710Y-58497486D01*
X138530492Y-58503622D01*
X138534525Y-58509670D01*
X138538822Y-58515673D01*
X138548270Y-58527716D01*
X138558949Y-58540095D01*
X138570974Y-58553156D01*
X138584459Y-58567240D01*
X138616269Y-58599861D01*
X138573313Y-58634676D01*
X138529198Y-58665377D01*
X138484090Y-58692049D01*
X138438154Y-58714775D01*
X138391555Y-58733640D01*
X138344459Y-58748730D01*
X138297032Y-58760127D01*
X138249438Y-58767917D01*
X138201843Y-58772185D01*
X138154413Y-58773014D01*
X138107312Y-58770489D01*
X138060708Y-58764694D01*
X138014764Y-58755715D01*
X137969646Y-58743635D01*
X137925520Y-58728540D01*
X137882551Y-58710512D01*
X137840905Y-58689638D01*
X137800746Y-58666001D01*
X137762241Y-58639686D01*
X137725555Y-58610778D01*
X137690853Y-58579360D01*
X137658301Y-58545517D01*
X137628064Y-58509335D01*
X137600307Y-58470896D01*
X137575197Y-58430287D01*
X137552897Y-58387590D01*
X137533575Y-58342892D01*
X137517395Y-58296275D01*
X137504522Y-58247825D01*
X137495122Y-58197627D01*
X137489361Y-58145763D01*
X137487404Y-58092320D01*
X137488395Y-58057045D01*
X137491324Y-58022384D01*
X137496124Y-57988370D01*
X137502729Y-57955036D01*
X137511072Y-57922412D01*
X137521086Y-57890532D01*
X137532705Y-57859428D01*
X137545863Y-57829131D01*
X137560493Y-57799675D01*
X137576527Y-57771092D01*
X137593901Y-57743413D01*
X137612546Y-57716670D01*
X137632397Y-57690897D01*
X137653387Y-57666125D01*
X137675450Y-57642387D01*
X137698518Y-57619714D01*
X137722526Y-57598140D01*
X137747406Y-57577695D01*
X137773093Y-57558413D01*
X137799519Y-57540326D01*
X137826618Y-57523465D01*
X137854324Y-57507864D01*
X137882569Y-57493554D01*
X137911288Y-57480567D01*
X137940413Y-57468936D01*
X137969879Y-57458693D01*
X137999618Y-57449870D01*
X138029565Y-57442500D01*
X138059652Y-57436614D01*
X138089813Y-57432245D01*
X138119981Y-57429426D01*
X138150090Y-57428187D01*
X138181458Y-57428482D01*
%TA.AperFunction,NonConductor*%
G36*
X138181458Y-57428482D02*
G01*
X138212576Y-57430282D01*
X138243426Y-57433585D01*
X138273989Y-57438390D01*
X138304250Y-57444694D01*
X138334190Y-57452496D01*
X138363791Y-57461795D01*
X138393038Y-57472588D01*
X138421911Y-57484874D01*
X138450394Y-57498651D01*
X138478470Y-57513918D01*
X138506120Y-57530672D01*
X138533328Y-57548912D01*
X138560076Y-57568637D01*
X138586346Y-57589844D01*
X138612122Y-57612531D01*
X138599362Y-57621787D01*
X138591832Y-57627793D01*
X138583700Y-57634869D01*
X138575090Y-57643130D01*
X138566125Y-57652690D01*
X138556929Y-57663663D01*
X138547625Y-57676163D01*
X138538336Y-57690304D01*
X138529186Y-57706200D01*
X138520299Y-57723965D01*
X138511797Y-57743714D01*
X138503805Y-57765560D01*
X138496446Y-57789618D01*
X138489843Y-57816001D01*
X138484120Y-57844825D01*
X138471159Y-57826621D01*
X138456819Y-57809099D01*
X138441149Y-57792333D01*
X138424199Y-57776395D01*
X138406019Y-57761361D01*
X138386660Y-57747303D01*
X138366171Y-57734295D01*
X138344603Y-57722412D01*
X138322005Y-57711727D01*
X138298427Y-57702313D01*
X138273921Y-57694245D01*
X138248534Y-57687595D01*
X138222319Y-57682439D01*
X138195325Y-57678850D01*
X138167601Y-57676901D01*
X138139199Y-57676667D01*
X138104942Y-57678991D01*
X138070190Y-57684422D01*
X138035301Y-57692937D01*
X138000637Y-57704513D01*
X137966557Y-57719129D01*
X137949850Y-57727569D01*
X137933423Y-57736761D01*
X137917323Y-57746701D01*
X137901595Y-57757387D01*
X137886283Y-57768816D01*
X137871433Y-57780985D01*
X137857089Y-57793891D01*
X137843297Y-57807532D01*
X137830102Y-57821904D01*
X137817549Y-57837006D01*
X137805682Y-57852833D01*
X137794548Y-57869384D01*
X137784190Y-57886656D01*
X137774654Y-57904645D01*
X137765986Y-57923349D01*
X137758229Y-57942764D01*
X137751430Y-57962890D01*
X137745633Y-57983721D01*
X137740883Y-58005257D01*
X137737226Y-58027493D01*
X137734706Y-58050427D01*
X137733368Y-58074056D01*
X137733937Y-58108396D01*
X137737703Y-58143829D01*
X137744679Y-58179920D01*
X137754876Y-58216231D01*
X137768307Y-58252328D01*
X137776238Y-58270160D01*
X137784982Y-58287774D01*
X137794540Y-58305116D01*
X137804913Y-58322132D01*
X137816104Y-58338767D01*
X137828113Y-58354967D01*
X137840942Y-58370676D01*
X137854593Y-58385841D01*
X137869067Y-58400408D01*
X137884365Y-58414320D01*
X137900489Y-58427525D01*
X137917440Y-58439967D01*
X137935220Y-58451592D01*
X137953831Y-58462346D01*
X137973273Y-58472173D01*
X137993549Y-58481020D01*
X138014659Y-58488831D01*
X138036605Y-58495553D01*
X138059390Y-58501131D01*
X138083013Y-58505510D01*
X138107477Y-58508635D01*
X138132782Y-58510453D01*
X138147091Y-58510859D01*
X138161303Y-58510806D01*
X138175410Y-58510301D01*
X138189398Y-58509353D01*
X138203257Y-58507971D01*
X138216975Y-58506164D01*
X138230540Y-58503939D01*
X138243943Y-58501307D01*
X138257170Y-58498274D01*
X138270211Y-58494851D01*
X138283054Y-58491045D01*
X138295688Y-58486866D01*
X138308102Y-58482321D01*
X138320284Y-58477419D01*
X138332223Y-58472170D01*
X138343907Y-58466581D01*
X138355325Y-58460661D01*
X138366466Y-58454419D01*
X138377318Y-58447863D01*
X138387870Y-58441002D01*
X138398110Y-58433845D01*
X138408027Y-58426400D01*
X138417611Y-58418676D01*
X138426848Y-58410682D01*
X138435729Y-58402425D01*
X138444241Y-58393915D01*
X138452373Y-58385160D01*
X138460114Y-58376169D01*
X138467453Y-58366951D01*
X138474377Y-58357513D01*
X138480876Y-58347866D01*
X138486939Y-58338016D01*
X138490358Y-58365627D01*
X138493865Y-58390132D01*
X138497574Y-58411876D01*
X138501601Y-58431202D01*
X138503769Y-58440066D01*
X138506059Y-58448455D01*
X138508486Y-58456412D01*
X138511063Y-58463980D01*
X138513805Y-58471201D01*
X138516727Y-58478119D01*
X138519842Y-58484778D01*
X138523165Y-58491219D01*
X138526710Y-58497486D01*
X138530492Y-58503622D01*
X138534525Y-58509670D01*
X138538822Y-58515673D01*
X138548270Y-58527716D01*
X138558949Y-58540095D01*
X138570974Y-58553156D01*
X138584459Y-58567240D01*
X138616269Y-58599861D01*
X138573313Y-58634676D01*
X138529198Y-58665377D01*
X138484090Y-58692049D01*
X138438154Y-58714775D01*
X138391555Y-58733640D01*
X138344459Y-58748730D01*
X138297032Y-58760127D01*
X138249438Y-58767917D01*
X138201843Y-58772185D01*
X138154413Y-58773014D01*
X138107312Y-58770489D01*
X138060708Y-58764694D01*
X138014764Y-58755715D01*
X137969646Y-58743635D01*
X137925520Y-58728540D01*
X137882551Y-58710512D01*
X137840905Y-58689638D01*
X137800746Y-58666001D01*
X137762241Y-58639686D01*
X137725555Y-58610778D01*
X137690853Y-58579360D01*
X137658301Y-58545517D01*
X137628064Y-58509335D01*
X137600307Y-58470896D01*
X137575197Y-58430287D01*
X137552897Y-58387590D01*
X137533575Y-58342892D01*
X137517395Y-58296275D01*
X137504522Y-58247825D01*
X137495122Y-58197627D01*
X137489361Y-58145763D01*
X137487404Y-58092320D01*
X137488395Y-58057045D01*
X137491324Y-58022384D01*
X137496124Y-57988370D01*
X137502729Y-57955036D01*
X137511072Y-57922412D01*
X137521086Y-57890532D01*
X137532705Y-57859428D01*
X137545863Y-57829131D01*
X137560493Y-57799675D01*
X137576527Y-57771092D01*
X137593901Y-57743413D01*
X137612546Y-57716670D01*
X137632397Y-57690897D01*
X137653387Y-57666125D01*
X137675450Y-57642387D01*
X137698518Y-57619714D01*
X137722526Y-57598140D01*
X137747406Y-57577695D01*
X137773093Y-57558413D01*
X137799519Y-57540326D01*
X137826618Y-57523465D01*
X137854324Y-57507864D01*
X137882569Y-57493554D01*
X137911288Y-57480567D01*
X137940413Y-57468936D01*
X137969879Y-57458693D01*
X137999618Y-57449870D01*
X138029565Y-57442500D01*
X138059652Y-57436614D01*
X138089813Y-57432245D01*
X138119981Y-57429426D01*
X138150090Y-57428187D01*
X138181458Y-57428482D01*
G37*
%TD.AperFunction*%
D11*
X162095686Y-57899264D02*
X161968626Y-57899264D01*
X161968626Y-57890568D01*
X162095686Y-57890568D01*
X162095686Y-57899264D01*
%TA.AperFunction,NonConductor*%
G36*
X162095686Y-57899264D02*
G01*
X161968626Y-57899264D01*
X161968626Y-57890568D01*
X162095686Y-57890568D01*
X162095686Y-57899264D01*
G37*
%TD.AperFunction*%
D12*
X168509045Y-56705806D02*
X168514472Y-56706163D01*
X168519822Y-56706792D01*
X168525088Y-56707685D01*
X168530261Y-56708835D01*
X168535337Y-56710236D01*
X168540306Y-56711881D01*
X168545163Y-56713763D01*
X168549901Y-56715874D01*
X168554512Y-56718209D01*
X168558990Y-56720760D01*
X168563328Y-56723520D01*
X168567518Y-56726483D01*
X168571554Y-56729641D01*
X168575429Y-56732988D01*
X168579135Y-56736516D01*
X168582666Y-56740219D01*
X168586015Y-56744090D01*
X168589175Y-56748123D01*
X168592139Y-56752309D01*
X168594900Y-56756642D01*
X168597451Y-56761116D01*
X168599785Y-56765723D01*
X168601895Y-56770457D01*
X168603774Y-56775311D01*
X168605415Y-56780277D01*
X168606811Y-56785349D01*
X168607956Y-56790520D01*
X168608842Y-56795783D01*
X168609462Y-56801131D01*
X168609809Y-56806557D01*
X168609877Y-56812055D01*
X168609877Y-57550444D01*
X168609509Y-57555721D01*
X168608887Y-57560920D01*
X168608016Y-57566035D01*
X168606904Y-57571059D01*
X168605556Y-57575986D01*
X168603978Y-57580809D01*
X168602177Y-57585523D01*
X168600160Y-57590121D01*
X168597932Y-57594596D01*
X168595500Y-57598941D01*
X168592870Y-57603152D01*
X168590048Y-57607220D01*
X168587040Y-57611141D01*
X168583854Y-57614907D01*
X168580495Y-57618511D01*
X168576969Y-57621949D01*
X168573283Y-57625212D01*
X168569443Y-57628295D01*
X168565455Y-57631192D01*
X168561326Y-57633896D01*
X168557062Y-57636400D01*
X168552669Y-57638698D01*
X168548153Y-57640784D01*
X168543521Y-57642652D01*
X168538779Y-57644295D01*
X168533933Y-57645706D01*
X168528990Y-57646879D01*
X168523955Y-57647809D01*
X168518836Y-57648487D01*
X168513638Y-57648909D01*
X168508368Y-57649067D01*
X168503031Y-57648956D01*
X167770545Y-57645996D01*
X167670634Y-57544543D01*
X167670634Y-56812055D01*
X167670630Y-56812047D01*
X167670753Y-56807183D01*
X167671118Y-56802382D01*
X167671719Y-56797648D01*
X167672550Y-56792987D01*
X167673606Y-56788403D01*
X167674880Y-56783902D01*
X167676366Y-56779487D01*
X167678058Y-56775164D01*
X167679951Y-56770939D01*
X167682038Y-56766814D01*
X167684314Y-56762796D01*
X167686773Y-56758890D01*
X167689408Y-56755100D01*
X167692215Y-56751431D01*
X167695185Y-56747887D01*
X167698315Y-56744475D01*
X167701598Y-56741198D01*
X167705027Y-56738062D01*
X167708598Y-56735071D01*
X167712304Y-56732230D01*
X167716139Y-56729544D01*
X167720097Y-56727018D01*
X167724173Y-56724658D01*
X167728360Y-56722466D01*
X167732652Y-56720450D01*
X167737044Y-56718612D01*
X167741529Y-56716959D01*
X167746102Y-56715495D01*
X167750756Y-56714225D01*
X167755487Y-56713154D01*
X167760287Y-56712286D01*
X167765151Y-56711627D01*
X168503546Y-56705727D01*
X168509045Y-56705806D01*
%TA.AperFunction,NonConductor*%
G36*
X168509045Y-56705806D02*
G01*
X168514472Y-56706163D01*
X168519822Y-56706792D01*
X168525088Y-56707685D01*
X168530261Y-56708835D01*
X168535337Y-56710236D01*
X168540306Y-56711881D01*
X168545163Y-56713763D01*
X168549901Y-56715874D01*
X168554512Y-56718209D01*
X168558990Y-56720760D01*
X168563328Y-56723520D01*
X168567518Y-56726483D01*
X168571554Y-56729641D01*
X168575429Y-56732988D01*
X168579135Y-56736516D01*
X168582666Y-56740219D01*
X168586015Y-56744090D01*
X168589175Y-56748123D01*
X168592139Y-56752309D01*
X168594900Y-56756642D01*
X168597451Y-56761116D01*
X168599785Y-56765723D01*
X168601895Y-56770457D01*
X168603774Y-56775311D01*
X168605415Y-56780277D01*
X168606811Y-56785349D01*
X168607956Y-56790520D01*
X168608842Y-56795783D01*
X168609462Y-56801131D01*
X168609809Y-56806557D01*
X168609877Y-56812055D01*
X168609877Y-57550444D01*
X168609509Y-57555721D01*
X168608887Y-57560920D01*
X168608016Y-57566035D01*
X168606904Y-57571059D01*
X168605556Y-57575986D01*
X168603978Y-57580809D01*
X168602177Y-57585523D01*
X168600160Y-57590121D01*
X168597932Y-57594596D01*
X168595500Y-57598941D01*
X168592870Y-57603152D01*
X168590048Y-57607220D01*
X168587040Y-57611141D01*
X168583854Y-57614907D01*
X168580495Y-57618511D01*
X168576969Y-57621949D01*
X168573283Y-57625212D01*
X168569443Y-57628295D01*
X168565455Y-57631192D01*
X168561326Y-57633896D01*
X168557062Y-57636400D01*
X168552669Y-57638698D01*
X168548153Y-57640784D01*
X168543521Y-57642652D01*
X168538779Y-57644295D01*
X168533933Y-57645706D01*
X168528990Y-57646879D01*
X168523955Y-57647809D01*
X168518836Y-57648487D01*
X168513638Y-57648909D01*
X168508368Y-57649067D01*
X168503031Y-57648956D01*
X167770545Y-57645996D01*
X167670634Y-57544543D01*
X167670634Y-56812055D01*
X167670630Y-56812047D01*
X167670753Y-56807183D01*
X167671118Y-56802382D01*
X167671719Y-56797648D01*
X167672550Y-56792987D01*
X167673606Y-56788403D01*
X167674880Y-56783902D01*
X167676366Y-56779487D01*
X167678058Y-56775164D01*
X167679951Y-56770939D01*
X167682038Y-56766814D01*
X167684314Y-56762796D01*
X167686773Y-56758890D01*
X167689408Y-56755100D01*
X167692215Y-56751431D01*
X167695185Y-56747887D01*
X167698315Y-56744475D01*
X167701598Y-56741198D01*
X167705027Y-56738062D01*
X167708598Y-56735071D01*
X167712304Y-56732230D01*
X167716139Y-56729544D01*
X167720097Y-56727018D01*
X167724173Y-56724658D01*
X167728360Y-56722466D01*
X167732652Y-56720450D01*
X167737044Y-56718612D01*
X167741529Y-56716959D01*
X167746102Y-56715495D01*
X167750756Y-56714225D01*
X167755487Y-56713154D01*
X167760287Y-56712286D01*
X167765151Y-56711627D01*
X168503546Y-56705727D01*
X168509045Y-56705806D01*
G37*
%TD.AperFunction*%
D13*
X162126158Y-56555866D02*
X162023119Y-56555866D01*
X162023119Y-56027410D01*
X162126158Y-56027410D01*
X162126158Y-56555866D01*
%TA.AperFunction,NonConductor*%
G36*
X162126158Y-56555866D02*
G01*
X162023119Y-56555866D01*
X162023119Y-56027410D01*
X162126158Y-56027410D01*
X162126158Y-56555866D01*
G37*
%TD.AperFunction*%
D14*
X162123610Y-60250230D02*
X162023234Y-60250230D01*
X162023234Y-59705015D01*
X162123610Y-59705015D01*
X162123610Y-60250230D01*
%TA.AperFunction,NonConductor*%
G36*
X162123610Y-60250230D02*
G01*
X162023234Y-60250230D01*
X162023234Y-59705015D01*
X162123610Y-59705015D01*
X162123610Y-60250230D01*
G37*
%TD.AperFunction*%
D15*
X159548579Y-57025124D02*
X159601032Y-57028158D01*
X159653033Y-57033726D01*
X159704552Y-57041825D01*
X159755560Y-57052452D01*
X159806028Y-57065604D01*
X159855926Y-57081278D01*
X159905224Y-57099471D01*
X159953894Y-57120181D01*
X160001907Y-57143404D01*
X160049232Y-57169138D01*
X160095840Y-57197379D01*
X160141702Y-57228126D01*
X160186789Y-57261374D01*
X160231071Y-57297121D01*
X160274519Y-57335364D01*
X160253009Y-57350965D01*
X160240316Y-57361089D01*
X160226608Y-57373017D01*
X160212095Y-57386942D01*
X160196983Y-57403056D01*
X160181481Y-57421552D01*
X160165798Y-57442622D01*
X160150140Y-57466459D01*
X160134717Y-57493254D01*
X160119736Y-57523200D01*
X160105406Y-57556489D01*
X160091935Y-57593313D01*
X160079530Y-57633865D01*
X160068400Y-57678338D01*
X160058753Y-57726923D01*
X160036678Y-57696285D01*
X160011857Y-57666879D01*
X159984435Y-57638819D01*
X159954556Y-57612216D01*
X159922364Y-57587183D01*
X159888004Y-57563832D01*
X159851619Y-57542276D01*
X159813355Y-57522626D01*
X159773355Y-57504996D01*
X159731765Y-57489498D01*
X159688727Y-57476243D01*
X159644388Y-57465345D01*
X159598890Y-57456916D01*
X159552379Y-57451067D01*
X159504998Y-57447913D01*
X159456892Y-57447563D01*
X159399543Y-57451436D01*
X159342071Y-57460463D01*
X159284979Y-57474618D01*
X159228769Y-57493873D01*
X159201151Y-57505406D01*
X159173941Y-57518205D01*
X159147202Y-57532265D01*
X159120998Y-57547585D01*
X159095389Y-57564160D01*
X159070440Y-57581988D01*
X159046213Y-57601064D01*
X159022770Y-57621387D01*
X159000175Y-57642952D01*
X158978490Y-57665757D01*
X158957777Y-57689798D01*
X158938099Y-57715072D01*
X158919520Y-57741575D01*
X158902101Y-57769304D01*
X158885906Y-57798257D01*
X158870997Y-57828429D01*
X158857437Y-57859817D01*
X158845288Y-57892419D01*
X158834614Y-57926231D01*
X158825476Y-57961249D01*
X158817938Y-57997471D01*
X158812062Y-58034892D01*
X158807911Y-58073511D01*
X158805548Y-58113323D01*
X158806414Y-58163467D01*
X158812502Y-58216779D01*
X158823857Y-58272411D01*
X158840522Y-58329512D01*
X158862541Y-58387233D01*
X158889957Y-58444726D01*
X158905703Y-58473122D01*
X158922815Y-58501142D01*
X158941298Y-58528680D01*
X158961158Y-58555631D01*
X158982401Y-58581887D01*
X159005030Y-58607344D01*
X159029054Y-58631894D01*
X159054475Y-58655431D01*
X159081301Y-58677851D01*
X159109537Y-58699045D01*
X159139188Y-58718909D01*
X159170259Y-58737335D01*
X159202756Y-58754219D01*
X159236685Y-58769453D01*
X159272051Y-58782932D01*
X159308859Y-58794549D01*
X159347115Y-58804199D01*
X159386824Y-58811774D01*
X159427993Y-58817170D01*
X159470625Y-58820280D01*
X159494708Y-58820976D01*
X159518563Y-58820920D01*
X159542176Y-58820124D01*
X159565530Y-58818601D01*
X159588613Y-58816364D01*
X159611409Y-58813427D01*
X159633904Y-58809802D01*
X159656082Y-58805502D01*
X159677930Y-58800540D01*
X159699432Y-58794930D01*
X159720573Y-58788684D01*
X159741340Y-58781815D01*
X159761717Y-58774337D01*
X159781690Y-58766262D01*
X159801244Y-58757603D01*
X159820364Y-58748373D01*
X159839036Y-58738586D01*
X159857245Y-58728254D01*
X159874976Y-58717391D01*
X159892215Y-58706009D01*
X159908946Y-58694121D01*
X159925156Y-58681741D01*
X159940829Y-58668881D01*
X159955951Y-58655555D01*
X159970507Y-58641775D01*
X159984482Y-58627554D01*
X159997862Y-58612906D01*
X160010632Y-58597843D01*
X160022778Y-58582379D01*
X160034284Y-58566526D01*
X160045136Y-58550298D01*
X160055319Y-58533707D01*
X160061082Y-58580295D01*
X160066993Y-58621732D01*
X160073247Y-58658585D01*
X160080035Y-58691424D01*
X160083690Y-58706516D01*
X160087551Y-58720816D01*
X160091642Y-58734398D01*
X160095986Y-58747331D01*
X160100609Y-58759686D01*
X160105534Y-58771535D01*
X160110786Y-58782948D01*
X160116388Y-58793997D01*
X160122364Y-58804752D01*
X160128739Y-58815285D01*
X160135537Y-58825667D01*
X160142781Y-58835969D01*
X160158707Y-58856615D01*
X160176709Y-58877792D01*
X160196979Y-58900068D01*
X160219711Y-58924012D01*
X160273329Y-58979174D01*
X160200945Y-59037919D01*
X160126652Y-59089840D01*
X160050727Y-59135075D01*
X159973445Y-59173756D01*
X159895081Y-59206019D01*
X159815913Y-59232000D01*
X159736216Y-59251833D01*
X159656265Y-59265652D01*
X159576337Y-59273593D01*
X159496708Y-59275791D01*
X159417652Y-59272380D01*
X159339447Y-59263496D01*
X159262367Y-59249273D01*
X159186689Y-59229847D01*
X159112689Y-59205351D01*
X159040642Y-59175922D01*
X158970825Y-59141693D01*
X158903513Y-59102801D01*
X158838981Y-59059379D01*
X158777507Y-59011562D01*
X158719365Y-58959487D01*
X158664832Y-58903286D01*
X158614184Y-58843096D01*
X158567695Y-58779052D01*
X158525643Y-58711287D01*
X158488303Y-58639937D01*
X158455950Y-58565138D01*
X158428862Y-58487023D01*
X158407313Y-58405728D01*
X158391579Y-58321387D01*
X158381936Y-58234136D01*
X158378661Y-58144109D01*
X158380331Y-58084648D01*
X158385268Y-58026223D01*
X158393359Y-57968888D01*
X158404493Y-57912698D01*
X158418556Y-57857707D01*
X158435436Y-57803969D01*
X158455022Y-57751539D01*
X158477201Y-57700471D01*
X158501861Y-57650819D01*
X158528889Y-57602637D01*
X158558175Y-57555981D01*
X158589604Y-57510903D01*
X158623066Y-57467459D01*
X158658447Y-57425703D01*
X158695637Y-57385689D01*
X158734521Y-57347472D01*
X158774989Y-57311105D01*
X158816929Y-57276643D01*
X158860226Y-57244141D01*
X158904771Y-57213652D01*
X158950450Y-57185231D01*
X158997152Y-57158933D01*
X159044763Y-57134811D01*
X159093172Y-57112921D01*
X159142267Y-57093315D01*
X159191935Y-57076049D01*
X159242065Y-57061177D01*
X159292543Y-57048753D01*
X159343259Y-57038832D01*
X159394098Y-57031468D01*
X159444951Y-57026715D01*
X159495703Y-57024627D01*
X159548579Y-57025124D01*
%TA.AperFunction,NonConductor*%
G36*
X159548579Y-57025124D02*
G01*
X159601032Y-57028158D01*
X159653033Y-57033726D01*
X159704552Y-57041825D01*
X159755560Y-57052452D01*
X159806028Y-57065604D01*
X159855926Y-57081278D01*
X159905224Y-57099471D01*
X159953894Y-57120181D01*
X160001907Y-57143404D01*
X160049232Y-57169138D01*
X160095840Y-57197379D01*
X160141702Y-57228126D01*
X160186789Y-57261374D01*
X160231071Y-57297121D01*
X160274519Y-57335364D01*
X160253009Y-57350965D01*
X160240316Y-57361089D01*
X160226608Y-57373017D01*
X160212095Y-57386942D01*
X160196983Y-57403056D01*
X160181481Y-57421552D01*
X160165798Y-57442622D01*
X160150140Y-57466459D01*
X160134717Y-57493254D01*
X160119736Y-57523200D01*
X160105406Y-57556489D01*
X160091935Y-57593313D01*
X160079530Y-57633865D01*
X160068400Y-57678338D01*
X160058753Y-57726923D01*
X160036678Y-57696285D01*
X160011857Y-57666879D01*
X159984435Y-57638819D01*
X159954556Y-57612216D01*
X159922364Y-57587183D01*
X159888004Y-57563832D01*
X159851619Y-57542276D01*
X159813355Y-57522626D01*
X159773355Y-57504996D01*
X159731765Y-57489498D01*
X159688727Y-57476243D01*
X159644388Y-57465345D01*
X159598890Y-57456916D01*
X159552379Y-57451067D01*
X159504998Y-57447913D01*
X159456892Y-57447563D01*
X159399543Y-57451436D01*
X159342071Y-57460463D01*
X159284979Y-57474618D01*
X159228769Y-57493873D01*
X159201151Y-57505406D01*
X159173941Y-57518205D01*
X159147202Y-57532265D01*
X159120998Y-57547585D01*
X159095389Y-57564160D01*
X159070440Y-57581988D01*
X159046213Y-57601064D01*
X159022770Y-57621387D01*
X159000175Y-57642952D01*
X158978490Y-57665757D01*
X158957777Y-57689798D01*
X158938099Y-57715072D01*
X158919520Y-57741575D01*
X158902101Y-57769304D01*
X158885906Y-57798257D01*
X158870997Y-57828429D01*
X158857437Y-57859817D01*
X158845288Y-57892419D01*
X158834614Y-57926231D01*
X158825476Y-57961249D01*
X158817938Y-57997471D01*
X158812062Y-58034892D01*
X158807911Y-58073511D01*
X158805548Y-58113323D01*
X158806414Y-58163467D01*
X158812502Y-58216779D01*
X158823857Y-58272411D01*
X158840522Y-58329512D01*
X158862541Y-58387233D01*
X158889957Y-58444726D01*
X158905703Y-58473122D01*
X158922815Y-58501142D01*
X158941298Y-58528680D01*
X158961158Y-58555631D01*
X158982401Y-58581887D01*
X159005030Y-58607344D01*
X159029054Y-58631894D01*
X159054475Y-58655431D01*
X159081301Y-58677851D01*
X159109537Y-58699045D01*
X159139188Y-58718909D01*
X159170259Y-58737335D01*
X159202756Y-58754219D01*
X159236685Y-58769453D01*
X159272051Y-58782932D01*
X159308859Y-58794549D01*
X159347115Y-58804199D01*
X159386824Y-58811774D01*
X159427993Y-58817170D01*
X159470625Y-58820280D01*
X159494708Y-58820976D01*
X159518563Y-58820920D01*
X159542176Y-58820124D01*
X159565530Y-58818601D01*
X159588613Y-58816364D01*
X159611409Y-58813427D01*
X159633904Y-58809802D01*
X159656082Y-58805502D01*
X159677930Y-58800540D01*
X159699432Y-58794930D01*
X159720573Y-58788684D01*
X159741340Y-58781815D01*
X159761717Y-58774337D01*
X159781690Y-58766262D01*
X159801244Y-58757603D01*
X159820364Y-58748373D01*
X159839036Y-58738586D01*
X159857245Y-58728254D01*
X159874976Y-58717391D01*
X159892215Y-58706009D01*
X159908946Y-58694121D01*
X159925156Y-58681741D01*
X159940829Y-58668881D01*
X159955951Y-58655555D01*
X159970507Y-58641775D01*
X159984482Y-58627554D01*
X159997862Y-58612906D01*
X160010632Y-58597843D01*
X160022778Y-58582379D01*
X160034284Y-58566526D01*
X160045136Y-58550298D01*
X160055319Y-58533707D01*
X160061082Y-58580295D01*
X160066993Y-58621732D01*
X160073247Y-58658585D01*
X160080035Y-58691424D01*
X160083690Y-58706516D01*
X160087551Y-58720816D01*
X160091642Y-58734398D01*
X160095986Y-58747331D01*
X160100609Y-58759686D01*
X160105534Y-58771535D01*
X160110786Y-58782948D01*
X160116388Y-58793997D01*
X160122364Y-58804752D01*
X160128739Y-58815285D01*
X160135537Y-58825667D01*
X160142781Y-58835969D01*
X160158707Y-58856615D01*
X160176709Y-58877792D01*
X160196979Y-58900068D01*
X160219711Y-58924012D01*
X160273329Y-58979174D01*
X160200945Y-59037919D01*
X160126652Y-59089840D01*
X160050727Y-59135075D01*
X159973445Y-59173756D01*
X159895081Y-59206019D01*
X159815913Y-59232000D01*
X159736216Y-59251833D01*
X159656265Y-59265652D01*
X159576337Y-59273593D01*
X159496708Y-59275791D01*
X159417652Y-59272380D01*
X159339447Y-59263496D01*
X159262367Y-59249273D01*
X159186689Y-59229847D01*
X159112689Y-59205351D01*
X159040642Y-59175922D01*
X158970825Y-59141693D01*
X158903513Y-59102801D01*
X158838981Y-59059379D01*
X158777507Y-59011562D01*
X158719365Y-58959487D01*
X158664832Y-58903286D01*
X158614184Y-58843096D01*
X158567695Y-58779052D01*
X158525643Y-58711287D01*
X158488303Y-58639937D01*
X158455950Y-58565138D01*
X158428862Y-58487023D01*
X158407313Y-58405728D01*
X158391579Y-58321387D01*
X158381936Y-58234136D01*
X158378661Y-58144109D01*
X158380331Y-58084648D01*
X158385268Y-58026223D01*
X158393359Y-57968888D01*
X158404493Y-57912698D01*
X158418556Y-57857707D01*
X158435436Y-57803969D01*
X158455022Y-57751539D01*
X158477201Y-57700471D01*
X158501861Y-57650819D01*
X158528889Y-57602637D01*
X158558175Y-57555981D01*
X158589604Y-57510903D01*
X158623066Y-57467459D01*
X158658447Y-57425703D01*
X158695637Y-57385689D01*
X158734521Y-57347472D01*
X158774989Y-57311105D01*
X158816929Y-57276643D01*
X158860226Y-57244141D01*
X158904771Y-57213652D01*
X158950450Y-57185231D01*
X158997152Y-57158933D01*
X159044763Y-57134811D01*
X159093172Y-57112921D01*
X159142267Y-57093315D01*
X159191935Y-57076049D01*
X159242065Y-57061177D01*
X159292543Y-57048753D01*
X159343259Y-57038832D01*
X159394098Y-57031468D01*
X159444951Y-57026715D01*
X159495703Y-57024627D01*
X159548579Y-57025124D01*
G37*
%TD.AperFunction*%
D12*
X160987929Y-58518471D02*
X160788809Y-58518471D01*
X160788809Y-58302184D01*
X160987929Y-58302184D01*
X160987929Y-58518471D01*
D16*
X138797013Y-57707033D02*
X138790841Y-58510993D01*
X138686444Y-58510340D01*
X138675593Y-58501580D01*
X138665482Y-58492088D01*
X138656101Y-58481875D01*
X138647439Y-58470948D01*
X138639485Y-58459318D01*
X138632228Y-58446993D01*
X138625656Y-58433984D01*
X138619760Y-58420298D01*
X138614528Y-58405946D01*
X138609948Y-58390936D01*
X138606011Y-58375278D01*
X138602705Y-58358982D01*
X138600019Y-58342055D01*
X138597943Y-58324508D01*
X138596465Y-58306349D01*
X138595574Y-58287589D01*
X138596409Y-57920006D01*
X138596425Y-57920000D01*
X138597504Y-57902610D01*
X138599252Y-57885641D01*
X138601667Y-57869114D01*
X138604746Y-57853048D01*
X138608489Y-57837466D01*
X138612893Y-57822388D01*
X138617957Y-57807835D01*
X138623678Y-57793827D01*
X138630055Y-57780387D01*
X138637085Y-57767534D01*
X138644768Y-57755290D01*
X138653102Y-57743676D01*
X138662084Y-57732711D01*
X138671712Y-57722419D01*
X138681986Y-57712818D01*
X138692902Y-57703931D01*
X138797013Y-57707033D01*
%TA.AperFunction,NonConductor*%
G36*
X138797013Y-57707033D02*
G01*
X138790841Y-58510993D01*
X138686444Y-58510340D01*
X138675593Y-58501580D01*
X138665482Y-58492088D01*
X138656101Y-58481875D01*
X138647439Y-58470948D01*
X138639485Y-58459318D01*
X138632228Y-58446993D01*
X138625656Y-58433984D01*
X138619760Y-58420298D01*
X138614528Y-58405946D01*
X138609948Y-58390936D01*
X138606011Y-58375278D01*
X138602705Y-58358982D01*
X138600019Y-58342055D01*
X138597943Y-58324508D01*
X138596465Y-58306349D01*
X138595574Y-58287589D01*
X138596409Y-57920006D01*
X138596425Y-57920000D01*
X138597504Y-57902610D01*
X138599252Y-57885641D01*
X138601667Y-57869114D01*
X138604746Y-57853048D01*
X138608489Y-57837466D01*
X138612893Y-57822388D01*
X138617957Y-57807835D01*
X138623678Y-57793827D01*
X138630055Y-57780387D01*
X138637085Y-57767534D01*
X138644768Y-57755290D01*
X138653102Y-57743676D01*
X138662084Y-57732711D01*
X138671712Y-57722419D01*
X138681986Y-57712818D01*
X138692902Y-57703931D01*
X138797013Y-57707033D01*
G37*
%TD.AperFunction*%
D17*
X162475630Y-60082144D02*
X162346999Y-60082144D01*
X162346999Y-59875242D01*
X162475630Y-59875242D01*
X162475630Y-60082144D01*
%TA.AperFunction,NonConductor*%
G36*
X162475630Y-60082144D02*
G01*
X162346999Y-60082144D01*
X162346999Y-59875242D01*
X162475630Y-59875242D01*
X162475630Y-60082144D01*
G37*
%TD.AperFunction*%
D18*
X160972819Y-60217971D02*
X160868937Y-60217971D01*
X160868937Y-59729943D01*
X160972819Y-59729943D01*
X160972819Y-60217971D01*
%TA.AperFunction,NonConductor*%
G36*
X160972819Y-60217971D02*
G01*
X160868937Y-60217971D01*
X160868937Y-59729943D01*
X160972819Y-59729943D01*
X160972819Y-60217971D01*
G37*
%TD.AperFunction*%
D19*
X172157389Y-60280590D02*
X172146613Y-60280590D01*
X172146613Y-59667183D01*
X172157389Y-59667183D01*
X172157389Y-60280590D01*
%TA.AperFunction,NonConductor*%
G36*
X172157389Y-60280590D02*
G01*
X172146613Y-60280590D01*
X172146613Y-59667183D01*
X172157389Y-59667183D01*
X172157389Y-60280590D01*
G37*
%TD.AperFunction*%
D20*
X138997403Y-59649843D02*
X138980000Y-59649843D01*
X138980000Y-56535759D01*
X138997403Y-56535759D01*
X138997403Y-59649843D01*
%TA.AperFunction,NonConductor*%
G36*
X138997403Y-59649843D02*
G01*
X138980000Y-59649843D01*
X138980000Y-56535759D01*
X138997403Y-56535759D01*
X138997403Y-59649843D01*
G37*
%TD.AperFunction*%
D21*
X139037781Y-58336260D02*
X138919652Y-58336260D01*
X138919652Y-58207947D01*
X139037781Y-58207947D01*
X139037781Y-58336260D01*
D22*
X167006899Y-57942174D02*
X166254477Y-57942174D01*
X166254477Y-57586821D01*
X167006899Y-57586821D01*
X167006899Y-57942174D01*
%TA.AperFunction,NonConductor*%
G36*
X167006899Y-57942174D02*
G01*
X166254477Y-57942174D01*
X166254477Y-57586821D01*
X167006899Y-57586821D01*
X167006899Y-57942174D01*
G37*
%TD.AperFunction*%
D15*
X185701350Y-57014571D02*
X185753803Y-57017605D01*
X185805804Y-57023173D01*
X185857323Y-57031272D01*
X185908331Y-57041899D01*
X185958799Y-57055051D01*
X186008697Y-57070725D01*
X186057995Y-57088918D01*
X186106665Y-57109628D01*
X186154678Y-57132851D01*
X186202003Y-57158585D01*
X186248611Y-57186826D01*
X186294473Y-57217573D01*
X186339560Y-57250821D01*
X186383842Y-57286568D01*
X186427290Y-57324811D01*
X186405780Y-57340412D01*
X186393087Y-57350536D01*
X186379379Y-57362464D01*
X186364866Y-57376389D01*
X186349754Y-57392503D01*
X186334252Y-57410999D01*
X186318569Y-57432069D01*
X186302911Y-57455906D01*
X186287488Y-57482701D01*
X186272507Y-57512646D01*
X186258177Y-57545935D01*
X186244706Y-57582760D01*
X186232301Y-57623312D01*
X186221171Y-57667785D01*
X186211524Y-57716369D01*
X186189449Y-57685731D01*
X186164628Y-57656326D01*
X186137206Y-57628266D01*
X186107327Y-57601663D01*
X186075135Y-57576630D01*
X186040775Y-57553279D01*
X186004390Y-57531723D01*
X185966126Y-57512073D01*
X185926126Y-57494443D01*
X185884536Y-57478945D01*
X185841498Y-57465690D01*
X185797159Y-57454792D01*
X185751661Y-57446363D01*
X185705150Y-57440515D01*
X185657769Y-57437360D01*
X185609663Y-57437011D01*
X185552314Y-57440884D01*
X185494842Y-57449910D01*
X185437750Y-57464065D01*
X185381540Y-57483321D01*
X185353922Y-57494853D01*
X185326712Y-57507652D01*
X185299973Y-57521712D01*
X185273769Y-57537032D01*
X185248160Y-57553607D01*
X185223211Y-57571434D01*
X185198984Y-57590511D01*
X185175541Y-57610834D01*
X185152946Y-57632399D01*
X185131261Y-57655204D01*
X185110548Y-57679245D01*
X185090870Y-57704518D01*
X185072291Y-57731022D01*
X185054872Y-57758751D01*
X185038677Y-57787703D01*
X185023768Y-57817875D01*
X185010208Y-57849264D01*
X184998059Y-57881866D01*
X184987385Y-57915677D01*
X184978247Y-57950696D01*
X184970709Y-57986917D01*
X184964833Y-58024339D01*
X184960682Y-58062958D01*
X184958319Y-58102770D01*
X184959185Y-58152914D01*
X184965273Y-58206226D01*
X184976628Y-58261857D01*
X184993293Y-58318958D01*
X185015312Y-58376680D01*
X185042728Y-58434173D01*
X185058474Y-58462569D01*
X185075586Y-58490589D01*
X185094069Y-58518127D01*
X185113929Y-58545077D01*
X185135171Y-58571334D01*
X185157801Y-58596790D01*
X185181825Y-58621340D01*
X185207246Y-58644878D01*
X185234072Y-58667297D01*
X185262308Y-58688492D01*
X185291959Y-58708355D01*
X185323030Y-58726782D01*
X185355527Y-58743665D01*
X185389456Y-58758900D01*
X185424822Y-58772378D01*
X185461630Y-58783996D01*
X185499886Y-58793645D01*
X185539595Y-58801221D01*
X185580764Y-58806617D01*
X185623396Y-58809726D01*
X185647479Y-58810423D01*
X185671334Y-58810367D01*
X185694947Y-58809571D01*
X185718301Y-58808048D01*
X185741384Y-58805811D01*
X185764180Y-58802874D01*
X185786675Y-58799249D01*
X185808853Y-58794949D01*
X185830701Y-58789987D01*
X185852203Y-58784377D01*
X185873344Y-58778131D01*
X185894111Y-58771262D01*
X185914488Y-58763783D01*
X185934461Y-58755708D01*
X185954015Y-58747049D01*
X185973135Y-58737820D01*
X185991807Y-58728033D01*
X186010016Y-58717701D01*
X186027747Y-58706838D01*
X186044986Y-58695455D01*
X186061717Y-58683568D01*
X186077927Y-58671188D01*
X186093600Y-58658328D01*
X186108722Y-58645001D01*
X186123278Y-58631221D01*
X186137253Y-58617001D01*
X186150633Y-58602353D01*
X186163403Y-58587290D01*
X186175549Y-58571826D01*
X186187055Y-58555973D01*
X186197907Y-58539745D01*
X186208090Y-58523154D01*
X186213853Y-58569742D01*
X186219764Y-58611178D01*
X186226018Y-58648032D01*
X186232806Y-58680871D01*
X186236461Y-58695962D01*
X186240322Y-58710263D01*
X186244413Y-58723844D01*
X186248757Y-58736777D01*
X186253380Y-58749132D01*
X186258305Y-58760981D01*
X186263557Y-58772395D01*
X186269159Y-58783443D01*
X186275135Y-58794199D01*
X186281510Y-58804732D01*
X186288308Y-58815114D01*
X186295552Y-58825415D01*
X186311478Y-58846061D01*
X186329480Y-58867238D01*
X186349750Y-58889515D01*
X186372482Y-58913458D01*
X186426100Y-58968621D01*
X186353716Y-59027365D01*
X186279423Y-59079287D01*
X186203498Y-59124521D01*
X186126216Y-59163203D01*
X186047852Y-59195466D01*
X185968684Y-59221447D01*
X185888987Y-59241279D01*
X185809036Y-59255099D01*
X185729108Y-59263040D01*
X185649479Y-59265238D01*
X185570423Y-59261827D01*
X185492218Y-59252943D01*
X185415138Y-59238720D01*
X185339460Y-59219293D01*
X185265460Y-59194798D01*
X185193413Y-59165368D01*
X185123596Y-59131140D01*
X185056284Y-59092247D01*
X184991752Y-59048825D01*
X184930278Y-59001009D01*
X184872136Y-58948933D01*
X184817603Y-58892733D01*
X184766955Y-58832543D01*
X184720466Y-58768498D01*
X184678414Y-58700734D01*
X184641074Y-58629384D01*
X184608721Y-58554584D01*
X184581633Y-58476469D01*
X184560084Y-58395174D01*
X184544350Y-58310834D01*
X184534707Y-58223583D01*
X184531432Y-58133556D01*
X184533102Y-58074095D01*
X184538039Y-58015670D01*
X184546130Y-57958335D01*
X184557264Y-57902145D01*
X184571327Y-57847154D01*
X184588207Y-57793416D01*
X184607793Y-57740986D01*
X184629972Y-57689918D01*
X184654632Y-57640266D01*
X184681660Y-57592084D01*
X184710946Y-57545428D01*
X184742375Y-57500350D01*
X184775837Y-57456906D01*
X184811218Y-57415150D01*
X184848408Y-57375136D01*
X184887292Y-57336919D01*
X184927760Y-57300552D01*
X184969700Y-57266090D01*
X185012997Y-57233588D01*
X185057542Y-57203099D01*
X185103221Y-57174678D01*
X185149923Y-57148380D01*
X185197534Y-57124258D01*
X185245943Y-57102368D01*
X185295038Y-57082762D01*
X185344706Y-57065496D01*
X185394836Y-57050624D01*
X185445314Y-57038201D01*
X185496030Y-57028279D01*
X185546869Y-57020915D01*
X185597722Y-57016162D01*
X185648474Y-57014074D01*
X185701350Y-57014571D01*
%TA.AperFunction,NonConductor*%
G36*
X185701350Y-57014571D02*
G01*
X185753803Y-57017605D01*
X185805804Y-57023173D01*
X185857323Y-57031272D01*
X185908331Y-57041899D01*
X185958799Y-57055051D01*
X186008697Y-57070725D01*
X186057995Y-57088918D01*
X186106665Y-57109628D01*
X186154678Y-57132851D01*
X186202003Y-57158585D01*
X186248611Y-57186826D01*
X186294473Y-57217573D01*
X186339560Y-57250821D01*
X186383842Y-57286568D01*
X186427290Y-57324811D01*
X186405780Y-57340412D01*
X186393087Y-57350536D01*
X186379379Y-57362464D01*
X186364866Y-57376389D01*
X186349754Y-57392503D01*
X186334252Y-57410999D01*
X186318569Y-57432069D01*
X186302911Y-57455906D01*
X186287488Y-57482701D01*
X186272507Y-57512646D01*
X186258177Y-57545935D01*
X186244706Y-57582760D01*
X186232301Y-57623312D01*
X186221171Y-57667785D01*
X186211524Y-57716369D01*
X186189449Y-57685731D01*
X186164628Y-57656326D01*
X186137206Y-57628266D01*
X186107327Y-57601663D01*
X186075135Y-57576630D01*
X186040775Y-57553279D01*
X186004390Y-57531723D01*
X185966126Y-57512073D01*
X185926126Y-57494443D01*
X185884536Y-57478945D01*
X185841498Y-57465690D01*
X185797159Y-57454792D01*
X185751661Y-57446363D01*
X185705150Y-57440515D01*
X185657769Y-57437360D01*
X185609663Y-57437011D01*
X185552314Y-57440884D01*
X185494842Y-57449910D01*
X185437750Y-57464065D01*
X185381540Y-57483321D01*
X185353922Y-57494853D01*
X185326712Y-57507652D01*
X185299973Y-57521712D01*
X185273769Y-57537032D01*
X185248160Y-57553607D01*
X185223211Y-57571434D01*
X185198984Y-57590511D01*
X185175541Y-57610834D01*
X185152946Y-57632399D01*
X185131261Y-57655204D01*
X185110548Y-57679245D01*
X185090870Y-57704518D01*
X185072291Y-57731022D01*
X185054872Y-57758751D01*
X185038677Y-57787703D01*
X185023768Y-57817875D01*
X185010208Y-57849264D01*
X184998059Y-57881866D01*
X184987385Y-57915677D01*
X184978247Y-57950696D01*
X184970709Y-57986917D01*
X184964833Y-58024339D01*
X184960682Y-58062958D01*
X184958319Y-58102770D01*
X184959185Y-58152914D01*
X184965273Y-58206226D01*
X184976628Y-58261857D01*
X184993293Y-58318958D01*
X185015312Y-58376680D01*
X185042728Y-58434173D01*
X185058474Y-58462569D01*
X185075586Y-58490589D01*
X185094069Y-58518127D01*
X185113929Y-58545077D01*
X185135171Y-58571334D01*
X185157801Y-58596790D01*
X185181825Y-58621340D01*
X185207246Y-58644878D01*
X185234072Y-58667297D01*
X185262308Y-58688492D01*
X185291959Y-58708355D01*
X185323030Y-58726782D01*
X185355527Y-58743665D01*
X185389456Y-58758900D01*
X185424822Y-58772378D01*
X185461630Y-58783996D01*
X185499886Y-58793645D01*
X185539595Y-58801221D01*
X185580764Y-58806617D01*
X185623396Y-58809726D01*
X185647479Y-58810423D01*
X185671334Y-58810367D01*
X185694947Y-58809571D01*
X185718301Y-58808048D01*
X185741384Y-58805811D01*
X185764180Y-58802874D01*
X185786675Y-58799249D01*
X185808853Y-58794949D01*
X185830701Y-58789987D01*
X185852203Y-58784377D01*
X185873344Y-58778131D01*
X185894111Y-58771262D01*
X185914488Y-58763783D01*
X185934461Y-58755708D01*
X185954015Y-58747049D01*
X185973135Y-58737820D01*
X185991807Y-58728033D01*
X186010016Y-58717701D01*
X186027747Y-58706838D01*
X186044986Y-58695455D01*
X186061717Y-58683568D01*
X186077927Y-58671188D01*
X186093600Y-58658328D01*
X186108722Y-58645001D01*
X186123278Y-58631221D01*
X186137253Y-58617001D01*
X186150633Y-58602353D01*
X186163403Y-58587290D01*
X186175549Y-58571826D01*
X186187055Y-58555973D01*
X186197907Y-58539745D01*
X186208090Y-58523154D01*
X186213853Y-58569742D01*
X186219764Y-58611178D01*
X186226018Y-58648032D01*
X186232806Y-58680871D01*
X186236461Y-58695962D01*
X186240322Y-58710263D01*
X186244413Y-58723844D01*
X186248757Y-58736777D01*
X186253380Y-58749132D01*
X186258305Y-58760981D01*
X186263557Y-58772395D01*
X186269159Y-58783443D01*
X186275135Y-58794199D01*
X186281510Y-58804732D01*
X186288308Y-58815114D01*
X186295552Y-58825415D01*
X186311478Y-58846061D01*
X186329480Y-58867238D01*
X186349750Y-58889515D01*
X186372482Y-58913458D01*
X186426100Y-58968621D01*
X186353716Y-59027365D01*
X186279423Y-59079287D01*
X186203498Y-59124521D01*
X186126216Y-59163203D01*
X186047852Y-59195466D01*
X185968684Y-59221447D01*
X185888987Y-59241279D01*
X185809036Y-59255099D01*
X185729108Y-59263040D01*
X185649479Y-59265238D01*
X185570423Y-59261827D01*
X185492218Y-59252943D01*
X185415138Y-59238720D01*
X185339460Y-59219293D01*
X185265460Y-59194798D01*
X185193413Y-59165368D01*
X185123596Y-59131140D01*
X185056284Y-59092247D01*
X184991752Y-59048825D01*
X184930278Y-59001009D01*
X184872136Y-58948933D01*
X184817603Y-58892733D01*
X184766955Y-58832543D01*
X184720466Y-58768498D01*
X184678414Y-58700734D01*
X184641074Y-58629384D01*
X184608721Y-58554584D01*
X184581633Y-58476469D01*
X184560084Y-58395174D01*
X184544350Y-58310834D01*
X184534707Y-58223583D01*
X184531432Y-58133556D01*
X184533102Y-58074095D01*
X184538039Y-58015670D01*
X184546130Y-57958335D01*
X184557264Y-57902145D01*
X184571327Y-57847154D01*
X184588207Y-57793416D01*
X184607793Y-57740986D01*
X184629972Y-57689918D01*
X184654632Y-57640266D01*
X184681660Y-57592084D01*
X184710946Y-57545428D01*
X184742375Y-57500350D01*
X184775837Y-57456906D01*
X184811218Y-57415150D01*
X184848408Y-57375136D01*
X184887292Y-57336919D01*
X184927760Y-57300552D01*
X184969700Y-57266090D01*
X185012997Y-57233588D01*
X185057542Y-57203099D01*
X185103221Y-57174678D01*
X185149923Y-57148380D01*
X185197534Y-57124258D01*
X185245943Y-57102368D01*
X185295038Y-57082762D01*
X185344706Y-57065496D01*
X185394836Y-57050624D01*
X185445314Y-57038201D01*
X185496030Y-57028279D01*
X185546869Y-57020915D01*
X185597722Y-57016162D01*
X185648474Y-57014074D01*
X185701350Y-57014571D01*
G37*
%TD.AperFunction*%
D23*
X172158427Y-56611627D02*
X172145308Y-56611627D01*
X172145308Y-56177946D01*
X172158427Y-56177946D01*
X172158427Y-56611627D01*
%TA.AperFunction,NonConductor*%
G36*
X172158427Y-56611627D02*
G01*
X172145308Y-56611627D01*
X172145308Y-56177946D01*
X172158427Y-56177946D01*
X172158427Y-56611627D01*
G37*
%TD.AperFunction*%
D12*
X187140700Y-58507917D02*
X186941580Y-58507917D01*
X186941580Y-58291630D01*
X187140700Y-58291630D01*
X187140700Y-58507917D01*
D24*
X166501105Y-59659497D02*
X165955821Y-59659497D01*
X165955821Y-59342451D01*
X166501105Y-59342451D01*
X166501105Y-59659497D01*
%TA.AperFunction,NonConductor*%
G36*
X166501105Y-59659497D02*
G01*
X165955821Y-59659497D01*
X165955821Y-59342451D01*
X166501105Y-59342451D01*
X166501105Y-59659497D01*
G37*
%TD.AperFunction*%
D25*
X160997359Y-58050648D02*
X160787459Y-58050648D01*
X160787459Y-57830451D01*
X160997359Y-57830451D01*
X160997359Y-58050648D01*
%TA.AperFunction,NonConductor*%
G36*
X160997359Y-58050648D02*
G01*
X160787459Y-58050648D01*
X160787459Y-57830451D01*
X160997359Y-57830451D01*
X160997359Y-58050648D01*
G37*
%TD.AperFunction*%
D12*
X173352087Y-58492576D02*
X173152968Y-58492576D01*
X173152968Y-58276290D01*
X173352087Y-58276290D01*
X173352087Y-58492576D01*
D26*
X160609808Y-56408849D02*
X160565047Y-56408849D01*
X160565047Y-56159579D01*
X160609808Y-56159579D01*
X160609808Y-56408849D01*
%TA.AperFunction,NonConductor*%
G36*
X160609808Y-56408849D02*
G01*
X160565047Y-56408849D01*
X160565047Y-56159579D01*
X160609808Y-56159579D01*
X160609808Y-56408849D01*
G37*
%TD.AperFunction*%
D27*
X173764980Y-57470329D02*
X173782296Y-57486512D01*
X173798525Y-57503862D01*
X173813664Y-57522344D01*
X173827711Y-57541922D01*
X173840661Y-57562561D01*
X173852513Y-57584226D01*
X173863262Y-57606881D01*
X173872906Y-57630492D01*
X173881441Y-57655023D01*
X173888865Y-57680439D01*
X173895174Y-57706705D01*
X173900365Y-57733785D01*
X173904436Y-57761644D01*
X173907382Y-57790248D01*
X173909201Y-57819560D01*
X173909232Y-57819572D01*
X173910635Y-58439179D01*
X173909134Y-58470803D01*
X173906642Y-58501411D01*
X173903142Y-58530990D01*
X173898615Y-58559522D01*
X173893043Y-58586992D01*
X173886407Y-58613386D01*
X173878688Y-58638686D01*
X173869869Y-58662879D01*
X173859930Y-58685947D01*
X173848854Y-58707877D01*
X173836621Y-58728651D01*
X173823214Y-58748255D01*
X173808613Y-58766673D01*
X173792801Y-58783889D01*
X173775759Y-58799888D01*
X173757468Y-58814655D01*
X173581488Y-58815755D01*
X173571089Y-57460577D01*
X173746581Y-57455347D01*
X173764980Y-57470329D01*
%TA.AperFunction,NonConductor*%
G36*
X173764980Y-57470329D02*
G01*
X173782296Y-57486512D01*
X173798525Y-57503862D01*
X173813664Y-57522344D01*
X173827711Y-57541922D01*
X173840661Y-57562561D01*
X173852513Y-57584226D01*
X173863262Y-57606881D01*
X173872906Y-57630492D01*
X173881441Y-57655023D01*
X173888865Y-57680439D01*
X173895174Y-57706705D01*
X173900365Y-57733785D01*
X173904436Y-57761644D01*
X173907382Y-57790248D01*
X173909201Y-57819560D01*
X173909232Y-57819572D01*
X173910635Y-58439179D01*
X173909134Y-58470803D01*
X173906642Y-58501411D01*
X173903142Y-58530990D01*
X173898615Y-58559522D01*
X173893043Y-58586992D01*
X173886407Y-58613386D01*
X173878688Y-58638686D01*
X173869869Y-58662879D01*
X173859930Y-58685947D01*
X173848854Y-58707877D01*
X173836621Y-58728651D01*
X173823214Y-58748255D01*
X173808613Y-58766673D01*
X173792801Y-58783889D01*
X173775759Y-58799888D01*
X173757468Y-58814655D01*
X173581488Y-58815755D01*
X173571089Y-57460577D01*
X173746581Y-57455347D01*
X173764980Y-57470329D01*
G37*
%TD.AperFunction*%
D28*
X139010838Y-56368692D02*
X138970318Y-56368692D01*
X138970318Y-55614082D01*
X139010838Y-55614082D01*
X139010838Y-56368692D01*
%TA.AperFunction,NonConductor*%
G36*
X139010838Y-56368692D02*
G01*
X138970318Y-56368692D01*
X138970318Y-55614082D01*
X139010838Y-55614082D01*
X139010838Y-56368692D01*
G37*
%TD.AperFunction*%
D29*
X173289725Y-56553575D02*
X173176749Y-56553575D01*
X173176749Y-56022467D01*
X173289725Y-56022467D01*
X173289725Y-56553575D01*
%TA.AperFunction,NonConductor*%
G36*
X173289725Y-56553575D02*
G01*
X173176749Y-56553575D01*
X173176749Y-56022467D01*
X173289725Y-56022467D01*
X173289725Y-56553575D01*
G37*
%TD.AperFunction*%
D25*
X187149535Y-58487559D02*
X186939635Y-58487559D01*
X186939635Y-58267361D01*
X187149535Y-58267361D01*
X187149535Y-58487559D01*
%TA.AperFunction,NonConductor*%
G36*
X187149535Y-58487559D02*
G01*
X186939635Y-58487559D01*
X186939635Y-58267361D01*
X187149535Y-58267361D01*
X187149535Y-58487559D01*
G37*
%TD.AperFunction*%
X173353438Y-58024754D02*
X173143538Y-58024754D01*
X173143538Y-57804557D01*
X173353438Y-57804557D01*
X173353438Y-58024754D01*
%TA.AperFunction,NonConductor*%
G36*
X173353438Y-58024754D02*
G01*
X173143538Y-58024754D01*
X173143538Y-57804557D01*
X173353438Y-57804557D01*
X173353438Y-58024754D01*
G37*
%TD.AperFunction*%
X173354033Y-58472218D02*
X173144133Y-58472218D01*
X173144133Y-58252021D01*
X173354033Y-58252021D01*
X173354033Y-58472218D01*
%TA.AperFunction,NonConductor*%
G36*
X173354033Y-58472218D02*
G01*
X173144133Y-58472218D01*
X173144133Y-58252021D01*
X173354033Y-58252021D01*
X173354033Y-58472218D01*
G37*
%TD.AperFunction*%
D27*
X186722579Y-57475919D02*
X186712180Y-58831095D01*
X186536200Y-58829996D01*
X186517909Y-58815229D01*
X186500867Y-58799230D01*
X186485055Y-58782014D01*
X186470454Y-58763596D01*
X186457047Y-58743992D01*
X186444814Y-58723217D01*
X186433738Y-58701288D01*
X186423799Y-58678220D01*
X186414980Y-58654027D01*
X186407261Y-58628726D01*
X186400625Y-58602333D01*
X186395053Y-58574863D01*
X186390526Y-58546330D01*
X186387026Y-58516752D01*
X186384534Y-58486144D01*
X186383032Y-58454520D01*
X186384436Y-57834913D01*
X186384467Y-57834901D01*
X186386286Y-57805589D01*
X186389232Y-57776985D01*
X186393303Y-57749126D01*
X186398494Y-57722046D01*
X186404803Y-57695780D01*
X186412227Y-57670364D01*
X186420762Y-57645833D01*
X186430406Y-57622222D01*
X186441155Y-57599567D01*
X186453007Y-57577902D01*
X186465957Y-57557263D01*
X186480004Y-57537685D01*
X186495143Y-57519203D01*
X186511372Y-57501853D01*
X186528688Y-57485670D01*
X186547087Y-57470689D01*
X186722579Y-57475919D01*
%TA.AperFunction,NonConductor*%
G36*
X186722579Y-57475919D02*
G01*
X186712180Y-58831095D01*
X186536200Y-58829996D01*
X186517909Y-58815229D01*
X186500867Y-58799230D01*
X186485055Y-58782014D01*
X186470454Y-58763596D01*
X186457047Y-58743992D01*
X186444814Y-58723217D01*
X186433738Y-58701288D01*
X186423799Y-58678220D01*
X186414980Y-58654027D01*
X186407261Y-58628726D01*
X186400625Y-58602333D01*
X186395053Y-58574863D01*
X186390526Y-58546330D01*
X186387026Y-58516752D01*
X186384534Y-58486144D01*
X186383032Y-58454520D01*
X186384436Y-57834913D01*
X186384467Y-57834901D01*
X186386286Y-57805589D01*
X186389232Y-57776985D01*
X186393303Y-57749126D01*
X186398494Y-57722046D01*
X186404803Y-57695780D01*
X186412227Y-57670364D01*
X186420762Y-57645833D01*
X186430406Y-57622222D01*
X186441155Y-57599567D01*
X186453007Y-57577902D01*
X186465957Y-57557263D01*
X186480004Y-57537685D01*
X186495143Y-57519203D01*
X186511372Y-57501853D01*
X186528688Y-57485670D01*
X186547087Y-57470689D01*
X186722579Y-57475919D01*
G37*
%TD.AperFunction*%
D30*
X162075018Y-58177190D02*
X161984442Y-58177190D01*
X161984442Y-58037472D01*
X162075018Y-58037472D01*
X162075018Y-58177190D01*
%TA.AperFunction,NonConductor*%
G36*
X162075018Y-58177190D02*
G01*
X161984442Y-58177190D01*
X161984442Y-58037472D01*
X162075018Y-58037472D01*
X162075018Y-58177190D01*
G37*
%TD.AperFunction*%
D31*
X173294646Y-60236191D02*
X173180930Y-60236191D01*
X173180930Y-59716482D01*
X173294646Y-59716482D01*
X173294646Y-60236191D01*
%TA.AperFunction,NonConductor*%
G36*
X173294646Y-60236191D02*
G01*
X173180930Y-60236191D01*
X173180930Y-59716482D01*
X173294646Y-59716482D01*
X173294646Y-60236191D01*
G37*
%TD.AperFunction*%
D32*
X162088118Y-58360152D02*
X161971385Y-58360152D01*
X161971385Y-58330221D01*
X162088118Y-58330221D01*
X162088118Y-58360152D01*
%TA.AperFunction,NonConductor*%
G36*
X162088118Y-58360152D02*
G01*
X161971385Y-58360152D01*
X161971385Y-58330221D01*
X162088118Y-58330221D01*
X162088118Y-58360152D01*
G37*
%TD.AperFunction*%
D33*
X173598647Y-56412795D02*
X173550887Y-56412795D01*
X173550887Y-56158101D01*
X173598647Y-56158101D01*
X173598647Y-56412795D01*
%TA.AperFunction,NonConductor*%
G36*
X173598647Y-56412795D02*
G01*
X173550887Y-56412795D01*
X173550887Y-56158101D01*
X173598647Y-56158101D01*
X173598647Y-56412795D01*
G37*
%TD.AperFunction*%
D25*
X187150130Y-58040095D02*
X186940230Y-58040095D01*
X186940230Y-57819897D01*
X187150130Y-57819897D01*
X187150130Y-58040095D01*
%TA.AperFunction,NonConductor*%
G36*
X187150130Y-58040095D02*
G01*
X186940230Y-58040095D01*
X186940230Y-57819897D01*
X187150130Y-57819897D01*
X187150130Y-58040095D01*
G37*
%TD.AperFunction*%
D15*
X174695946Y-57000821D02*
X174746798Y-57005574D01*
X174797638Y-57012938D01*
X174848353Y-57022859D01*
X174898832Y-57035283D01*
X174948961Y-57050155D01*
X174998630Y-57067421D01*
X175047725Y-57087026D01*
X175096134Y-57108917D01*
X175143745Y-57133039D01*
X175190447Y-57159337D01*
X175236126Y-57187758D01*
X175280670Y-57218246D01*
X175323968Y-57250749D01*
X175365907Y-57285211D01*
X175406375Y-57321577D01*
X175445260Y-57359795D01*
X175482449Y-57399809D01*
X175517831Y-57441565D01*
X175551293Y-57485009D01*
X175582722Y-57530087D01*
X175612007Y-57576743D01*
X175639036Y-57624925D01*
X175663696Y-57674577D01*
X175685875Y-57725645D01*
X175705461Y-57778075D01*
X175722341Y-57831813D01*
X175736404Y-57886804D01*
X175747537Y-57942994D01*
X175755629Y-58000329D01*
X175760566Y-58058754D01*
X175762236Y-58118215D01*
X175758961Y-58208242D01*
X175749318Y-58295493D01*
X175733584Y-58379834D01*
X175712035Y-58461129D01*
X175684946Y-58539244D01*
X175652594Y-58614043D01*
X175615254Y-58685393D01*
X175573201Y-58753157D01*
X175526713Y-58817202D01*
X175476064Y-58877392D01*
X175421531Y-58933593D01*
X175363390Y-58985668D01*
X175301915Y-59033485D01*
X175237384Y-59076906D01*
X175170072Y-59115799D01*
X175100255Y-59150028D01*
X175028208Y-59179457D01*
X174954208Y-59203952D01*
X174878530Y-59223379D01*
X174801450Y-59237602D01*
X174723245Y-59246486D01*
X174644189Y-59249897D01*
X174564559Y-59247699D01*
X174484631Y-59239758D01*
X174404681Y-59225938D01*
X174324983Y-59206106D01*
X174245815Y-59180125D01*
X174167452Y-59147862D01*
X174090170Y-59109180D01*
X174014245Y-59063946D01*
X173939952Y-59012024D01*
X173867568Y-58953280D01*
X173921186Y-58898117D01*
X173943918Y-58874174D01*
X173964188Y-58851897D01*
X173982190Y-58830720D01*
X173998115Y-58810074D01*
X174005360Y-58799773D01*
X174012157Y-58789391D01*
X174018533Y-58778858D01*
X174024509Y-58768103D01*
X174030111Y-58757054D01*
X174035362Y-58745640D01*
X174040288Y-58733792D01*
X174044911Y-58721436D01*
X174049255Y-58708504D01*
X174053346Y-58694922D01*
X174057207Y-58680621D01*
X174060861Y-58665530D01*
X174067650Y-58632691D01*
X174073903Y-58595837D01*
X174079815Y-58554401D01*
X174085577Y-58507813D01*
X174095761Y-58524404D01*
X174106613Y-58540632D01*
X174118119Y-58556485D01*
X174130264Y-58571949D01*
X174143035Y-58587012D01*
X174156415Y-58601660D01*
X174170390Y-58615880D01*
X174184946Y-58629660D01*
X174200068Y-58642987D01*
X174215741Y-58655847D01*
X174231951Y-58668227D01*
X174248682Y-58680115D01*
X174265921Y-58691497D01*
X174283652Y-58702360D01*
X174301860Y-58712692D01*
X174320532Y-58722479D01*
X174339653Y-58731709D01*
X174359206Y-58740367D01*
X174379179Y-58748443D01*
X174399557Y-58755921D01*
X174420323Y-58762790D01*
X174441465Y-58769036D01*
X174462967Y-58774646D01*
X174484815Y-58779608D01*
X174506993Y-58783908D01*
X174529488Y-58787533D01*
X174552284Y-58790470D01*
X174575366Y-58792707D01*
X174598721Y-58794230D01*
X174622333Y-58795026D01*
X174646188Y-58795082D01*
X174670271Y-58794386D01*
X174712904Y-58791276D01*
X174754072Y-58785880D01*
X174793782Y-58778305D01*
X174832038Y-58768655D01*
X174868846Y-58757038D01*
X174904212Y-58743559D01*
X174938141Y-58728325D01*
X174970638Y-58711441D01*
X175001709Y-58693014D01*
X175031360Y-58673151D01*
X175059595Y-58651956D01*
X175086421Y-58629537D01*
X175111843Y-58606000D01*
X175135866Y-58581449D01*
X175158496Y-58555993D01*
X175179739Y-58529737D01*
X175199598Y-58502786D01*
X175218082Y-58475248D01*
X175235194Y-58447228D01*
X175250940Y-58418832D01*
X175278356Y-58361339D01*
X175300375Y-58303617D01*
X175317040Y-58246516D01*
X175328394Y-58190885D01*
X175334483Y-58137573D01*
X175335349Y-58087429D01*
X175332985Y-58047617D01*
X175328835Y-58008998D01*
X175322959Y-57971576D01*
X175315421Y-57935355D01*
X175306283Y-57900337D01*
X175295609Y-57866525D01*
X175283460Y-57833923D01*
X175269900Y-57802535D01*
X175254991Y-57772362D01*
X175238795Y-57743410D01*
X175221377Y-57715681D01*
X175202797Y-57689177D01*
X175183120Y-57663904D01*
X175162407Y-57639863D01*
X175140722Y-57617058D01*
X175118126Y-57595493D01*
X175094684Y-57575170D01*
X175070457Y-57556093D01*
X175045507Y-57538266D01*
X175019899Y-57521690D01*
X174993694Y-57506371D01*
X174966956Y-57492310D01*
X174939746Y-57479512D01*
X174912128Y-57467979D01*
X174855918Y-57448724D01*
X174798826Y-57434569D01*
X174741354Y-57425542D01*
X174684004Y-57421669D01*
X174635899Y-57422018D01*
X174588518Y-57425173D01*
X174542007Y-57431022D01*
X174496509Y-57439451D01*
X174452169Y-57450349D01*
X174409132Y-57463604D01*
X174367541Y-57479102D01*
X174327542Y-57496732D01*
X174289278Y-57516382D01*
X174252893Y-57537938D01*
X174218533Y-57561289D01*
X174186341Y-57586322D01*
X174156462Y-57612925D01*
X174129040Y-57640985D01*
X174104219Y-57670390D01*
X174082144Y-57701029D01*
X174072497Y-57652444D01*
X174061367Y-57607971D01*
X174048962Y-57567419D01*
X174035491Y-57530594D01*
X174021160Y-57497305D01*
X174006180Y-57467360D01*
X173990757Y-57440565D01*
X173975099Y-57416728D01*
X173959415Y-57395658D01*
X173943914Y-57377162D01*
X173928802Y-57361048D01*
X173914288Y-57347122D01*
X173900581Y-57335194D01*
X173887888Y-57325071D01*
X173866377Y-57309469D01*
X173909825Y-57271226D01*
X173954108Y-57235479D01*
X173999195Y-57202231D01*
X174045057Y-57171485D01*
X174091665Y-57143244D01*
X174138990Y-57117510D01*
X174187002Y-57094287D01*
X174235672Y-57073577D01*
X174284971Y-57055384D01*
X174334869Y-57039709D01*
X174385337Y-57026558D01*
X174436345Y-57015931D01*
X174487864Y-57007832D01*
X174539864Y-57002264D01*
X174592318Y-56999230D01*
X174645194Y-56998733D01*
X174695946Y-57000821D01*
%TA.AperFunction,NonConductor*%
G36*
X174695946Y-57000821D02*
G01*
X174746798Y-57005574D01*
X174797638Y-57012938D01*
X174848353Y-57022859D01*
X174898832Y-57035283D01*
X174948961Y-57050155D01*
X174998630Y-57067421D01*
X175047725Y-57087026D01*
X175096134Y-57108917D01*
X175143745Y-57133039D01*
X175190447Y-57159337D01*
X175236126Y-57187758D01*
X175280670Y-57218246D01*
X175323968Y-57250749D01*
X175365907Y-57285211D01*
X175406375Y-57321577D01*
X175445260Y-57359795D01*
X175482449Y-57399809D01*
X175517831Y-57441565D01*
X175551293Y-57485009D01*
X175582722Y-57530087D01*
X175612007Y-57576743D01*
X175639036Y-57624925D01*
X175663696Y-57674577D01*
X175685875Y-57725645D01*
X175705461Y-57778075D01*
X175722341Y-57831813D01*
X175736404Y-57886804D01*
X175747537Y-57942994D01*
X175755629Y-58000329D01*
X175760566Y-58058754D01*
X175762236Y-58118215D01*
X175758961Y-58208242D01*
X175749318Y-58295493D01*
X175733584Y-58379834D01*
X175712035Y-58461129D01*
X175684946Y-58539244D01*
X175652594Y-58614043D01*
X175615254Y-58685393D01*
X175573201Y-58753157D01*
X175526713Y-58817202D01*
X175476064Y-58877392D01*
X175421531Y-58933593D01*
X175363390Y-58985668D01*
X175301915Y-59033485D01*
X175237384Y-59076906D01*
X175170072Y-59115799D01*
X175100255Y-59150028D01*
X175028208Y-59179457D01*
X174954208Y-59203952D01*
X174878530Y-59223379D01*
X174801450Y-59237602D01*
X174723245Y-59246486D01*
X174644189Y-59249897D01*
X174564559Y-59247699D01*
X174484631Y-59239758D01*
X174404681Y-59225938D01*
X174324983Y-59206106D01*
X174245815Y-59180125D01*
X174167452Y-59147862D01*
X174090170Y-59109180D01*
X174014245Y-59063946D01*
X173939952Y-59012024D01*
X173867568Y-58953280D01*
X173921186Y-58898117D01*
X173943918Y-58874174D01*
X173964188Y-58851897D01*
X173982190Y-58830720D01*
X173998115Y-58810074D01*
X174005360Y-58799773D01*
X174012157Y-58789391D01*
X174018533Y-58778858D01*
X174024509Y-58768103D01*
X174030111Y-58757054D01*
X174035362Y-58745640D01*
X174040288Y-58733792D01*
X174044911Y-58721436D01*
X174049255Y-58708504D01*
X174053346Y-58694922D01*
X174057207Y-58680621D01*
X174060861Y-58665530D01*
X174067650Y-58632691D01*
X174073903Y-58595837D01*
X174079815Y-58554401D01*
X174085577Y-58507813D01*
X174095761Y-58524404D01*
X174106613Y-58540632D01*
X174118119Y-58556485D01*
X174130264Y-58571949D01*
X174143035Y-58587012D01*
X174156415Y-58601660D01*
X174170390Y-58615880D01*
X174184946Y-58629660D01*
X174200068Y-58642987D01*
X174215741Y-58655847D01*
X174231951Y-58668227D01*
X174248682Y-58680115D01*
X174265921Y-58691497D01*
X174283652Y-58702360D01*
X174301860Y-58712692D01*
X174320532Y-58722479D01*
X174339653Y-58731709D01*
X174359206Y-58740367D01*
X174379179Y-58748443D01*
X174399557Y-58755921D01*
X174420323Y-58762790D01*
X174441465Y-58769036D01*
X174462967Y-58774646D01*
X174484815Y-58779608D01*
X174506993Y-58783908D01*
X174529488Y-58787533D01*
X174552284Y-58790470D01*
X174575366Y-58792707D01*
X174598721Y-58794230D01*
X174622333Y-58795026D01*
X174646188Y-58795082D01*
X174670271Y-58794386D01*
X174712904Y-58791276D01*
X174754072Y-58785880D01*
X174793782Y-58778305D01*
X174832038Y-58768655D01*
X174868846Y-58757038D01*
X174904212Y-58743559D01*
X174938141Y-58728325D01*
X174970638Y-58711441D01*
X175001709Y-58693014D01*
X175031360Y-58673151D01*
X175059595Y-58651956D01*
X175086421Y-58629537D01*
X175111843Y-58606000D01*
X175135866Y-58581449D01*
X175158496Y-58555993D01*
X175179739Y-58529737D01*
X175199598Y-58502786D01*
X175218082Y-58475248D01*
X175235194Y-58447228D01*
X175250940Y-58418832D01*
X175278356Y-58361339D01*
X175300375Y-58303617D01*
X175317040Y-58246516D01*
X175328394Y-58190885D01*
X175334483Y-58137573D01*
X175335349Y-58087429D01*
X175332985Y-58047617D01*
X175328835Y-58008998D01*
X175322959Y-57971576D01*
X175315421Y-57935355D01*
X175306283Y-57900337D01*
X175295609Y-57866525D01*
X175283460Y-57833923D01*
X175269900Y-57802535D01*
X175254991Y-57772362D01*
X175238795Y-57743410D01*
X175221377Y-57715681D01*
X175202797Y-57689177D01*
X175183120Y-57663904D01*
X175162407Y-57639863D01*
X175140722Y-57617058D01*
X175118126Y-57595493D01*
X175094684Y-57575170D01*
X175070457Y-57556093D01*
X175045507Y-57538266D01*
X175019899Y-57521690D01*
X174993694Y-57506371D01*
X174966956Y-57492310D01*
X174939746Y-57479512D01*
X174912128Y-57467979D01*
X174855918Y-57448724D01*
X174798826Y-57434569D01*
X174741354Y-57425542D01*
X174684004Y-57421669D01*
X174635899Y-57422018D01*
X174588518Y-57425173D01*
X174542007Y-57431022D01*
X174496509Y-57439451D01*
X174452169Y-57450349D01*
X174409132Y-57463604D01*
X174367541Y-57479102D01*
X174327542Y-57496732D01*
X174289278Y-57516382D01*
X174252893Y-57537938D01*
X174218533Y-57561289D01*
X174186341Y-57586322D01*
X174156462Y-57612925D01*
X174129040Y-57640985D01*
X174104219Y-57670390D01*
X174082144Y-57701029D01*
X174072497Y-57652444D01*
X174061367Y-57607971D01*
X174048962Y-57567419D01*
X174035491Y-57530594D01*
X174021160Y-57497305D01*
X174006180Y-57467360D01*
X173990757Y-57440565D01*
X173975099Y-57416728D01*
X173959415Y-57395658D01*
X173943914Y-57377162D01*
X173928802Y-57361048D01*
X173914288Y-57347122D01*
X173900581Y-57335194D01*
X173887888Y-57325071D01*
X173866377Y-57309469D01*
X173909825Y-57271226D01*
X173954108Y-57235479D01*
X173999195Y-57202231D01*
X174045057Y-57171485D01*
X174091665Y-57143244D01*
X174138990Y-57117510D01*
X174187002Y-57094287D01*
X174235672Y-57073577D01*
X174284971Y-57055384D01*
X174334869Y-57039709D01*
X174385337Y-57026558D01*
X174436345Y-57015931D01*
X174487864Y-57007832D01*
X174539864Y-57002264D01*
X174592318Y-56999230D01*
X174645194Y-56998733D01*
X174695946Y-57000821D01*
G37*
%TD.AperFunction*%
D28*
X139014275Y-60585558D02*
X138973755Y-60585558D01*
X138973755Y-59830947D01*
X139014275Y-59830947D01*
X139014275Y-60585558D01*
%TA.AperFunction,NonConductor*%
G36*
X139014275Y-60585558D02*
G01*
X138973755Y-60585558D01*
X138973755Y-59830947D01*
X139014275Y-59830947D01*
X139014275Y-60585558D01*
G37*
%TD.AperFunction*%
D27*
X160569808Y-57486471D02*
X160559409Y-58841649D01*
X160383429Y-58840549D01*
X160365138Y-58825783D01*
X160348096Y-58809783D01*
X160332284Y-58792567D01*
X160317683Y-58774149D01*
X160304276Y-58754545D01*
X160292043Y-58733771D01*
X160280967Y-58711842D01*
X160271028Y-58688773D01*
X160262209Y-58664580D01*
X160254490Y-58639280D01*
X160247854Y-58612886D01*
X160242282Y-58585416D01*
X160237755Y-58556884D01*
X160234255Y-58527306D01*
X160231763Y-58496697D01*
X160230261Y-58465073D01*
X160231665Y-57845466D01*
X160231696Y-57845454D01*
X160233515Y-57816142D01*
X160236461Y-57787539D01*
X160240532Y-57759679D01*
X160245723Y-57732599D01*
X160252032Y-57706333D01*
X160259456Y-57680917D01*
X160267991Y-57656386D01*
X160277635Y-57632775D01*
X160288384Y-57610120D01*
X160300236Y-57588455D01*
X160313186Y-57567816D01*
X160327233Y-57548238D01*
X160342372Y-57529756D01*
X160358601Y-57512406D01*
X160375917Y-57496223D01*
X160394316Y-57481241D01*
X160569808Y-57486471D01*
%TA.AperFunction,NonConductor*%
G36*
X160569808Y-57486471D02*
G01*
X160559409Y-58841649D01*
X160383429Y-58840549D01*
X160365138Y-58825783D01*
X160348096Y-58809783D01*
X160332284Y-58792567D01*
X160317683Y-58774149D01*
X160304276Y-58754545D01*
X160292043Y-58733771D01*
X160280967Y-58711842D01*
X160271028Y-58688773D01*
X160262209Y-58664580D01*
X160254490Y-58639280D01*
X160247854Y-58612886D01*
X160242282Y-58585416D01*
X160237755Y-58556884D01*
X160234255Y-58527306D01*
X160231763Y-58496697D01*
X160230261Y-58465073D01*
X160231665Y-57845466D01*
X160231696Y-57845454D01*
X160233515Y-57816142D01*
X160236461Y-57787539D01*
X160240532Y-57759679D01*
X160245723Y-57732599D01*
X160252032Y-57706333D01*
X160259456Y-57680917D01*
X160267991Y-57656386D01*
X160277635Y-57632775D01*
X160288384Y-57610120D01*
X160300236Y-57588455D01*
X160313186Y-57567816D01*
X160327233Y-57548238D01*
X160342372Y-57529756D01*
X160358601Y-57512406D01*
X160375917Y-57496223D01*
X160394316Y-57481241D01*
X160569808Y-57486471D01*
G37*
%TD.AperFunction*%
D12*
X167723467Y-59931501D02*
X166946784Y-59931501D01*
X166946784Y-59149295D01*
X167723467Y-59149295D01*
X167723467Y-59931501D01*
%TA.AperFunction,NonConductor*%
G36*
X167723467Y-59931501D02*
G01*
X166946784Y-59931501D01*
X166946784Y-59149295D01*
X167723467Y-59149295D01*
X167723467Y-59931501D01*
G37*
%TD.AperFunction*%
D34*
X160974402Y-56537645D02*
X160871390Y-56537645D01*
X160871390Y-56035921D01*
X160974402Y-56035921D01*
X160974402Y-56537645D01*
%TA.AperFunction,NonConductor*%
G36*
X160974402Y-56537645D02*
G01*
X160871390Y-56537645D01*
X160871390Y-56035921D01*
X160974402Y-56035921D01*
X160974402Y-56537645D01*
G37*
%TD.AperFunction*%
D25*
X160996764Y-58498112D02*
X160786864Y-58498112D01*
X160786864Y-58277915D01*
X160996764Y-58277915D01*
X160996764Y-58498112D01*
%TA.AperFunction,NonConductor*%
G36*
X160996764Y-58498112D02*
G01*
X160786864Y-58498112D01*
X160786864Y-58277915D01*
X160996764Y-58277915D01*
X160996764Y-58498112D01*
G37*
%TD.AperFunction*%
D35*
X162503466Y-56403934D02*
X162371665Y-56403934D01*
X162371665Y-56191433D01*
X162503466Y-56191433D01*
X162503466Y-56403934D01*
%TA.AperFunction,NonConductor*%
G36*
X162503466Y-56403934D02*
G01*
X162371665Y-56403934D01*
X162371665Y-56191433D01*
X162503466Y-56191433D01*
X162503466Y-56403934D01*
G37*
%TD.AperFunction*%
D26*
X160600508Y-60098449D02*
X160555747Y-60098449D01*
X160555747Y-59849180D01*
X160600508Y-59849180D01*
X160600508Y-60098449D01*
%TA.AperFunction,NonConductor*%
G36*
X160600508Y-60098449D02*
G01*
X160555747Y-60098449D01*
X160555747Y-59849180D01*
X160600508Y-59849180D01*
X160600508Y-60098449D01*
G37*
%TD.AperFunction*%
D33*
X173598349Y-60119318D02*
X173550589Y-60119318D01*
X173550589Y-59864625D01*
X173598349Y-59864625D01*
X173598349Y-60119318D01*
%TA.AperFunction,NonConductor*%
G36*
X173598349Y-60119318D02*
G01*
X173550589Y-60119318D01*
X173550589Y-59864625D01*
X173598349Y-59864625D01*
X173598349Y-60119318D01*
G37*
%TD.AperFunction*%
D36*
D37*
X165801903Y-89739271D02*
X165076188Y-89739271D01*
X165439045Y-89739271D02*
X165439045Y-88469271D01*
X165439045Y-88469271D02*
X165318093Y-88650699D01*
X165318093Y-88650699D02*
X165197141Y-88771652D01*
X165197141Y-88771652D02*
X165076188Y-88832128D01*
X167313807Y-89739271D02*
X167313807Y-88469271D01*
X167313807Y-88953080D02*
X167434760Y-88892604D01*
X167434760Y-88892604D02*
X167676665Y-88892604D01*
X167676665Y-88892604D02*
X167797617Y-88953080D01*
X167797617Y-88953080D02*
X167858093Y-89013556D01*
X167858093Y-89013556D02*
X167918569Y-89134509D01*
X167918569Y-89134509D02*
X167918569Y-89497366D01*
X167918569Y-89497366D02*
X167858093Y-89618318D01*
X167858093Y-89618318D02*
X167797617Y-89678795D01*
X167797617Y-89678795D02*
X167676665Y-89739271D01*
X167676665Y-89739271D02*
X167434760Y-89739271D01*
X167434760Y-89739271D02*
X167313807Y-89678795D01*
X169007141Y-89739271D02*
X169007141Y-89074033D01*
X169007141Y-89074033D02*
X168946665Y-88953080D01*
X168946665Y-88953080D02*
X168825713Y-88892604D01*
X168825713Y-88892604D02*
X168583808Y-88892604D01*
X168583808Y-88892604D02*
X168462855Y-88953080D01*
X169007141Y-89678795D02*
X168886189Y-89739271D01*
X168886189Y-89739271D02*
X168583808Y-89739271D01*
X168583808Y-89739271D02*
X168462855Y-89678795D01*
X168462855Y-89678795D02*
X168402379Y-89557842D01*
X168402379Y-89557842D02*
X168402379Y-89436890D01*
X168402379Y-89436890D02*
X168462855Y-89315937D01*
X168462855Y-89315937D02*
X168583808Y-89255461D01*
X168583808Y-89255461D02*
X168886189Y-89255461D01*
X168886189Y-89255461D02*
X169007141Y-89194985D01*
X169611903Y-89739271D02*
X169611903Y-88892604D01*
X169611903Y-89134509D02*
X169672380Y-89013556D01*
X169672380Y-89013556D02*
X169732856Y-88953080D01*
X169732856Y-88953080D02*
X169853808Y-88892604D01*
X169853808Y-88892604D02*
X169974761Y-88892604D01*
X171365712Y-89074033D02*
X172333332Y-89074033D01*
X172333332Y-89436890D02*
X171365712Y-89436890D01*
X174570951Y-89739271D02*
X173845236Y-89739271D01*
X174208093Y-89739271D02*
X174208093Y-88469271D01*
X174208093Y-88469271D02*
X174087141Y-88650699D01*
X174087141Y-88650699D02*
X173966189Y-88771652D01*
X173966189Y-88771652D02*
X173845236Y-88832128D01*
X175357141Y-88469271D02*
X175478094Y-88469271D01*
X175478094Y-88469271D02*
X175599046Y-88529747D01*
X175599046Y-88529747D02*
X175659522Y-88590223D01*
X175659522Y-88590223D02*
X175719998Y-88711175D01*
X175719998Y-88711175D02*
X175780475Y-88953080D01*
X175780475Y-88953080D02*
X175780475Y-89255461D01*
X175780475Y-89255461D02*
X175719998Y-89497366D01*
X175719998Y-89497366D02*
X175659522Y-89618318D01*
X175659522Y-89618318D02*
X175599046Y-89678795D01*
X175599046Y-89678795D02*
X175478094Y-89739271D01*
X175478094Y-89739271D02*
X175357141Y-89739271D01*
X175357141Y-89739271D02*
X175236189Y-89678795D01*
X175236189Y-89678795D02*
X175175713Y-89618318D01*
X175175713Y-89618318D02*
X175115236Y-89497366D01*
X175115236Y-89497366D02*
X175054760Y-89255461D01*
X175054760Y-89255461D02*
X175054760Y-88953080D01*
X175054760Y-88953080D02*
X175115236Y-88711175D01*
X175115236Y-88711175D02*
X175175713Y-88590223D01*
X175175713Y-88590223D02*
X175236189Y-88529747D01*
X175236189Y-88529747D02*
X175357141Y-88469271D01*
X176566665Y-88469271D02*
X176687618Y-88469271D01*
X176687618Y-88469271D02*
X176808570Y-88529747D01*
X176808570Y-88529747D02*
X176869046Y-88590223D01*
X176869046Y-88590223D02*
X176929522Y-88711175D01*
X176929522Y-88711175D02*
X176989999Y-88953080D01*
X176989999Y-88953080D02*
X176989999Y-89255461D01*
X176989999Y-89255461D02*
X176929522Y-89497366D01*
X176929522Y-89497366D02*
X176869046Y-89618318D01*
X176869046Y-89618318D02*
X176808570Y-89678795D01*
X176808570Y-89678795D02*
X176687618Y-89739271D01*
X176687618Y-89739271D02*
X176566665Y-89739271D01*
X176566665Y-89739271D02*
X176445713Y-89678795D01*
X176445713Y-89678795D02*
X176385237Y-89618318D01*
X176385237Y-89618318D02*
X176324760Y-89497366D01*
X176324760Y-89497366D02*
X176264284Y-89255461D01*
X176264284Y-89255461D02*
X176264284Y-88953080D01*
X176264284Y-88953080D02*
X176324760Y-88711175D01*
X176324760Y-88711175D02*
X176385237Y-88590223D01*
X176385237Y-88590223D02*
X176445713Y-88529747D01*
X176445713Y-88529747D02*
X176566665Y-88469271D01*
X178501903Y-89739271D02*
X178501903Y-88469271D01*
X178622856Y-89255461D02*
X178985713Y-89739271D01*
X178985713Y-88892604D02*
X178501903Y-89376414D01*
X179529998Y-89739271D02*
X179529998Y-88469271D01*
X179529998Y-88469271D02*
X180013808Y-88469271D01*
X180013808Y-88469271D02*
X180134760Y-88529747D01*
X180134760Y-88529747D02*
X180195237Y-88590223D01*
X180195237Y-88590223D02*
X180255713Y-88711175D01*
X180255713Y-88711175D02*
X180255713Y-88892604D01*
X180255713Y-88892604D02*
X180195237Y-89013556D01*
X180195237Y-89013556D02*
X180134760Y-89074033D01*
X180134760Y-89074033D02*
X180013808Y-89134509D01*
X180013808Y-89134509D02*
X179529998Y-89134509D01*
X181344284Y-89739271D02*
X181344284Y-89074033D01*
X181344284Y-89074033D02*
X181283808Y-88953080D01*
X181283808Y-88953080D02*
X181162856Y-88892604D01*
X181162856Y-88892604D02*
X180920951Y-88892604D01*
X180920951Y-88892604D02*
X180799998Y-88953080D01*
X181344284Y-89678795D02*
X181223332Y-89739271D01*
X181223332Y-89739271D02*
X180920951Y-89739271D01*
X180920951Y-89739271D02*
X180799998Y-89678795D01*
X180799998Y-89678795D02*
X180739522Y-89557842D01*
X180739522Y-89557842D02*
X180739522Y-89436890D01*
X180739522Y-89436890D02*
X180799998Y-89315937D01*
X180799998Y-89315937D02*
X180920951Y-89255461D01*
X180920951Y-89255461D02*
X181223332Y-89255461D01*
X181223332Y-89255461D02*
X181344284Y-89194985D01*
X182916665Y-89074033D02*
X183884285Y-89074033D01*
X183884285Y-89436890D02*
X182916665Y-89436890D01*
X185698570Y-88469271D02*
X185819523Y-88469271D01*
X185819523Y-88469271D02*
X185940475Y-88529747D01*
X185940475Y-88529747D02*
X186000951Y-88590223D01*
X186000951Y-88590223D02*
X186061427Y-88711175D01*
X186061427Y-88711175D02*
X186121904Y-88953080D01*
X186121904Y-88953080D02*
X186121904Y-89255461D01*
X186121904Y-89255461D02*
X186061427Y-89497366D01*
X186061427Y-89497366D02*
X186000951Y-89618318D01*
X186000951Y-89618318D02*
X185940475Y-89678795D01*
X185940475Y-89678795D02*
X185819523Y-89739271D01*
X185819523Y-89739271D02*
X185698570Y-89739271D01*
X185698570Y-89739271D02*
X185577618Y-89678795D01*
X185577618Y-89678795D02*
X185517142Y-89618318D01*
X185517142Y-89618318D02*
X185456665Y-89497366D01*
X185456665Y-89497366D02*
X185396189Y-89255461D01*
X185396189Y-89255461D02*
X185396189Y-88953080D01*
X185396189Y-88953080D02*
X185456665Y-88711175D01*
X185456665Y-88711175D02*
X185517142Y-88590223D01*
X185517142Y-88590223D02*
X185577618Y-88529747D01*
X185577618Y-88529747D02*
X185698570Y-88469271D01*
X186666189Y-89618318D02*
X186726666Y-89678795D01*
X186726666Y-89678795D02*
X186666189Y-89739271D01*
X186666189Y-89739271D02*
X186605713Y-89678795D01*
X186605713Y-89678795D02*
X186666189Y-89618318D01*
X186666189Y-89618318D02*
X186666189Y-89739271D01*
X187936190Y-89739271D02*
X187210475Y-89739271D01*
X187573332Y-89739271D02*
X187573332Y-88469271D01*
X187573332Y-88469271D02*
X187452380Y-88650699D01*
X187452380Y-88650699D02*
X187331428Y-88771652D01*
X187331428Y-88771652D02*
X187210475Y-88832128D01*
X189448094Y-89739271D02*
X189448094Y-88469271D01*
X189448094Y-88469271D02*
X189871428Y-89376414D01*
X189871428Y-89376414D02*
X190294761Y-88469271D01*
X190294761Y-88469271D02*
X190294761Y-89739271D01*
X190899523Y-89739271D02*
X190899523Y-88469271D01*
X190899523Y-88469271D02*
X191383333Y-88469271D01*
X191383333Y-88469271D02*
X191504285Y-88529747D01*
X191504285Y-88529747D02*
X191564762Y-88590223D01*
X191564762Y-88590223D02*
X191625238Y-88711175D01*
X191625238Y-88711175D02*
X191625238Y-88892604D01*
X191625238Y-88892604D02*
X191564762Y-89013556D01*
X191564762Y-89013556D02*
X191504285Y-89074033D01*
X191504285Y-89074033D02*
X191383333Y-89134509D01*
X191383333Y-89134509D02*
X190899523Y-89134509D01*
X192713809Y-89739271D02*
X192713809Y-89074033D01*
X192713809Y-89074033D02*
X192653333Y-88953080D01*
X192653333Y-88953080D02*
X192532381Y-88892604D01*
X192532381Y-88892604D02*
X192290476Y-88892604D01*
X192290476Y-88892604D02*
X192169523Y-88953080D01*
X192713809Y-89678795D02*
X192592857Y-89739271D01*
X192592857Y-89739271D02*
X192290476Y-89739271D01*
X192290476Y-89739271D02*
X192169523Y-89678795D01*
X192169523Y-89678795D02*
X192109047Y-89557842D01*
X192109047Y-89557842D02*
X192109047Y-89436890D01*
X192109047Y-89436890D02*
X192169523Y-89315937D01*
X192169523Y-89315937D02*
X192290476Y-89255461D01*
X192290476Y-89255461D02*
X192592857Y-89255461D01*
X192592857Y-89255461D02*
X192713809Y-89194985D01*
X194286190Y-89436890D02*
X194346667Y-89376414D01*
X194346667Y-89376414D02*
X194528095Y-89315937D01*
X194528095Y-89315937D02*
X194709524Y-89376414D01*
X194709524Y-89376414D02*
X194830476Y-89497366D01*
X194830476Y-89497366D02*
X195011905Y-89557842D01*
X195011905Y-89557842D02*
X195193333Y-89497366D01*
X195193333Y-89497366D02*
X195253810Y-89436890D01*
X194286190Y-89074033D02*
X194346667Y-89013556D01*
X194346667Y-89013556D02*
X194528095Y-88953080D01*
X194528095Y-88953080D02*
X194709524Y-89013556D01*
X194709524Y-89013556D02*
X194830476Y-89134509D01*
X194830476Y-89134509D02*
X195011905Y-89194985D01*
X195011905Y-89194985D02*
X195193333Y-89134509D01*
X195193333Y-89134509D02*
X195253810Y-89074033D01*
X197491429Y-89739271D02*
X196765714Y-89739271D01*
X197128571Y-89739271D02*
X197128571Y-88469271D01*
X197128571Y-88469271D02*
X197007619Y-88650699D01*
X197007619Y-88650699D02*
X196886667Y-88771652D01*
X196886667Y-88771652D02*
X196765714Y-88832128D01*
X198580000Y-88892604D02*
X198580000Y-89739271D01*
X198277619Y-88408795D02*
X197975238Y-89315937D01*
X197975238Y-89315937D02*
X198761429Y-89315937D01*
X199245238Y-89618318D02*
X199305715Y-89678795D01*
X199305715Y-89678795D02*
X199245238Y-89739271D01*
X199245238Y-89739271D02*
X199184762Y-89678795D01*
X199184762Y-89678795D02*
X199245238Y-89618318D01*
X199245238Y-89618318D02*
X199245238Y-89739271D01*
X200454762Y-88469271D02*
X199850000Y-88469271D01*
X199850000Y-88469271D02*
X199789524Y-89074033D01*
X199789524Y-89074033D02*
X199850000Y-89013556D01*
X199850000Y-89013556D02*
X199970953Y-88953080D01*
X199970953Y-88953080D02*
X200273334Y-88953080D01*
X200273334Y-88953080D02*
X200394286Y-89013556D01*
X200394286Y-89013556D02*
X200454762Y-89074033D01*
X200454762Y-89074033D02*
X200515239Y-89194985D01*
X200515239Y-89194985D02*
X200515239Y-89497366D01*
X200515239Y-89497366D02*
X200454762Y-89618318D01*
X200454762Y-89618318D02*
X200394286Y-89678795D01*
X200394286Y-89678795D02*
X200273334Y-89739271D01*
X200273334Y-89739271D02*
X199970953Y-89739271D01*
X199970953Y-89739271D02*
X199850000Y-89678795D01*
X199850000Y-89678795D02*
X199789524Y-89618318D01*
X201301429Y-88469271D02*
X201422382Y-88469271D01*
X201422382Y-88469271D02*
X201543334Y-88529747D01*
X201543334Y-88529747D02*
X201603810Y-88590223D01*
X201603810Y-88590223D02*
X201664286Y-88711175D01*
X201664286Y-88711175D02*
X201724763Y-88953080D01*
X201724763Y-88953080D02*
X201724763Y-89255461D01*
X201724763Y-89255461D02*
X201664286Y-89497366D01*
X201664286Y-89497366D02*
X201603810Y-89618318D01*
X201603810Y-89618318D02*
X201543334Y-89678795D01*
X201543334Y-89678795D02*
X201422382Y-89739271D01*
X201422382Y-89739271D02*
X201301429Y-89739271D01*
X201301429Y-89739271D02*
X201180477Y-89678795D01*
X201180477Y-89678795D02*
X201120001Y-89618318D01*
X201120001Y-89618318D02*
X201059524Y-89497366D01*
X201059524Y-89497366D02*
X200999048Y-89255461D01*
X200999048Y-89255461D02*
X200999048Y-88953080D01*
X200999048Y-88953080D02*
X201059524Y-88711175D01*
X201059524Y-88711175D02*
X201120001Y-88590223D01*
X201120001Y-88590223D02*
X201180477Y-88529747D01*
X201180477Y-88529747D02*
X201301429Y-88469271D01*
X202813334Y-88892604D02*
X202813334Y-89739271D01*
X202510953Y-88408795D02*
X202208572Y-89315937D01*
X202208572Y-89315937D02*
X202994763Y-89315937D01*
X204446191Y-88892604D02*
X204446191Y-90162604D01*
X204446191Y-88953080D02*
X204567144Y-88892604D01*
X204567144Y-88892604D02*
X204809049Y-88892604D01*
X204809049Y-88892604D02*
X204930001Y-88953080D01*
X204930001Y-88953080D02*
X204990477Y-89013556D01*
X204990477Y-89013556D02*
X205050953Y-89134509D01*
X205050953Y-89134509D02*
X205050953Y-89497366D01*
X205050953Y-89497366D02*
X204990477Y-89618318D01*
X204990477Y-89618318D02*
X204930001Y-89678795D01*
X204930001Y-89678795D02*
X204809049Y-89739271D01*
X204809049Y-89739271D02*
X204567144Y-89739271D01*
X204567144Y-89739271D02*
X204446191Y-89678795D01*
X205534763Y-89678795D02*
X205655716Y-89739271D01*
X205655716Y-89739271D02*
X205897620Y-89739271D01*
X205897620Y-89739271D02*
X206018573Y-89678795D01*
X206018573Y-89678795D02*
X206079049Y-89557842D01*
X206079049Y-89557842D02*
X206079049Y-89497366D01*
X206079049Y-89497366D02*
X206018573Y-89376414D01*
X206018573Y-89376414D02*
X205897620Y-89315937D01*
X205897620Y-89315937D02*
X205716192Y-89315937D01*
X205716192Y-89315937D02*
X205595239Y-89255461D01*
X205595239Y-89255461D02*
X205534763Y-89134509D01*
X205534763Y-89134509D02*
X205534763Y-89074033D01*
X205534763Y-89074033D02*
X205595239Y-88953080D01*
X205595239Y-88953080D02*
X205716192Y-88892604D01*
X205716192Y-88892604D02*
X205897620Y-88892604D01*
X205897620Y-88892604D02*
X206018573Y-88953080D01*
X206623334Y-89739271D02*
X206623334Y-88892604D01*
X206623334Y-88469271D02*
X206562858Y-88529747D01*
X206562858Y-88529747D02*
X206623334Y-88590223D01*
X206623334Y-88590223D02*
X206683811Y-88529747D01*
X206683811Y-88529747D02*
X206623334Y-88469271D01*
X206623334Y-88469271D02*
X206623334Y-88590223D01*
D38*
%TO.N,*%
X222000000Y-75000000D02*
X222000000Y-78900000D01*
X252000000Y-75000000D02*
X252000000Y-78900000D01*
X142000000Y-75000000D02*
X142000000Y-78900000D01*
X87000000Y-76000000D02*
X87000000Y-78900000D01*
X233000000Y-77000000D02*
X233000000Y-78900000D01*
X174000000Y-77000000D02*
X174000000Y-78900000D01*
X221000000Y-77000000D02*
X221000000Y-78900000D01*
X189000000Y-77000000D02*
X189000000Y-78900000D01*
X163000000Y-77000000D02*
X163000000Y-78900000D01*
X107000000Y-76000000D02*
X107000000Y-78900000D01*
X185000000Y-77000000D02*
X185000000Y-78900000D01*
X143000000Y-77000000D02*
X143000000Y-78900000D01*
X103000000Y-77000000D02*
X103000000Y-78900000D01*
X251000000Y-77000000D02*
X251000000Y-78900000D01*
X171000000Y-77000000D02*
X171000000Y-78900000D01*
X119000000Y-77000000D02*
X119000000Y-78900000D01*
X97000000Y-76000000D02*
X97000000Y-78900000D01*
X131000000Y-77000000D02*
X131000000Y-78900000D01*
X193000000Y-77000000D02*
X193000000Y-78900000D01*
X92000000Y-75000000D02*
X92000000Y-78900000D01*
X225000000Y-77000000D02*
X225000000Y-78900000D01*
X212000000Y-75000000D02*
X212000000Y-78900000D01*
X214000000Y-77000000D02*
X214000000Y-78900000D01*
X200000000Y-77000000D02*
X200000000Y-78900000D01*
X60000000Y-77000000D02*
X60000000Y-78900000D01*
X129000000Y-77000000D02*
X129000000Y-78900000D01*
X147000000Y-76000000D02*
X147000000Y-78900000D01*
X77000000Y-76000000D02*
X77000000Y-78900000D01*
X232000000Y-75000000D02*
X232000000Y-78900000D01*
X116000000Y-77000000D02*
X116000000Y-78900000D01*
X183000000Y-77000000D02*
X183000000Y-78900000D01*
X170000000Y-77000000D02*
X170000000Y-78900000D01*
X204000000Y-77000000D02*
X204000000Y-78900000D01*
X88000000Y-77000000D02*
X88000000Y-78900000D01*
X152000000Y-75000000D02*
X152000000Y-78900000D01*
X255000000Y-77000000D02*
X255000000Y-78900000D01*
X146000000Y-77000000D02*
X146000000Y-78900000D01*
X130000000Y-77000000D02*
X130000000Y-78900000D01*
X56000000Y-77000000D02*
X56000000Y-78900000D01*
X169000000Y-77000000D02*
X169000000Y-78900000D01*
X166000000Y-77000000D02*
X166000000Y-78900000D01*
X122000000Y-75000000D02*
X122000000Y-78900000D01*
X240000000Y-77000000D02*
X240000000Y-78900000D01*
X153000000Y-77000000D02*
X153000000Y-78900000D01*
X63000000Y-77000000D02*
X63000000Y-78900000D01*
X218000000Y-77000000D02*
X218000000Y-78900000D01*
X168000000Y-77000000D02*
X168000000Y-78900000D01*
X154000000Y-77000000D02*
X154000000Y-78900000D01*
X194000000Y-77000000D02*
X194000000Y-78900000D01*
X108000000Y-77000000D02*
X108000000Y-78900000D01*
X72000000Y-75000000D02*
X72000000Y-78900000D01*
X159000000Y-77000000D02*
X159000000Y-78900000D01*
X220000000Y-77000000D02*
X220000000Y-78900000D01*
X125000000Y-77000000D02*
X125000000Y-78900000D01*
X132000000Y-75000000D02*
X132000000Y-78900000D01*
X158000000Y-77000000D02*
X158000000Y-78900000D01*
X223000000Y-77000000D02*
X223000000Y-78900000D01*
X207000000Y-76000000D02*
X207000000Y-78900000D01*
X109000000Y-77000000D02*
X109000000Y-78900000D01*
X144000000Y-77000000D02*
X144000000Y-78900000D01*
X121000000Y-77000000D02*
X121000000Y-78900000D01*
X247000000Y-76000000D02*
X247000000Y-78900000D01*
X79000000Y-77000000D02*
X79000000Y-78900000D01*
X66000000Y-77000000D02*
X66000000Y-78900000D01*
X244000000Y-77000000D02*
X244000000Y-78900000D01*
X124000000Y-77000000D02*
X124000000Y-78900000D01*
X254000000Y-77000000D02*
X254000000Y-78900000D01*
X179000000Y-77000000D02*
X179000000Y-78900000D01*
X71000000Y-77000000D02*
X71000000Y-78900000D01*
X202000000Y-75000000D02*
X202000000Y-78900000D01*
X249000000Y-77000000D02*
X249000000Y-78900000D01*
X127000000Y-76000000D02*
X127000000Y-78900000D01*
X150000000Y-77000000D02*
X150000000Y-78900000D01*
X106000000Y-77000000D02*
X106000000Y-78900000D01*
X182000000Y-75000000D02*
X182000000Y-78900000D01*
X91000000Y-77000000D02*
X91000000Y-78900000D01*
X82000000Y-75000000D02*
X82000000Y-78900000D01*
X186000000Y-77000000D02*
X186000000Y-78900000D01*
X199000000Y-77000000D02*
X199000000Y-78900000D01*
X128000000Y-77000000D02*
X128000000Y-78900000D01*
X113000000Y-77000000D02*
X113000000Y-78900000D01*
X188000000Y-77000000D02*
X188000000Y-78900000D01*
X70000000Y-77000000D02*
X70000000Y-78900000D01*
X145000000Y-77000000D02*
X145000000Y-78900000D01*
X164000000Y-77000000D02*
X164000000Y-78900000D01*
X161000000Y-77000000D02*
X161000000Y-78900000D01*
X68000000Y-77000000D02*
X68000000Y-78900000D01*
X205000000Y-77000000D02*
X205000000Y-78900000D01*
X176000000Y-77000000D02*
X176000000Y-78900000D01*
X196000000Y-77000000D02*
X196000000Y-78900000D01*
X75000000Y-77000000D02*
X75000000Y-78900000D01*
X206000000Y-77000000D02*
X206000000Y-78900000D01*
X162000000Y-75000000D02*
X162000000Y-78900000D01*
X190000000Y-77000000D02*
X190000000Y-78900000D01*
X165000000Y-77000000D02*
X165000000Y-78900000D01*
X250000000Y-77000000D02*
X250000000Y-78900000D01*
X93000000Y-77000000D02*
X93000000Y-78900000D01*
X216000000Y-77000000D02*
X216000000Y-78900000D01*
X61000000Y-77000000D02*
X61000000Y-78900000D01*
X230000000Y-77000000D02*
X230000000Y-78900000D01*
X123000000Y-77000000D02*
X123000000Y-78900000D01*
X118000000Y-77000000D02*
X118000000Y-78900000D01*
X245000000Y-77000000D02*
X245000000Y-78900000D01*
X149000000Y-77000000D02*
X149000000Y-78900000D01*
X148000000Y-77000000D02*
X148000000Y-78900000D01*
X78000000Y-77000000D02*
X78000000Y-78900000D01*
X98000000Y-77000000D02*
X98000000Y-78900000D01*
X227000000Y-76000000D02*
X227000000Y-78900000D01*
X191000000Y-77000000D02*
X191000000Y-78900000D01*
X167000000Y-76000000D02*
X167000000Y-78900000D01*
X208000000Y-77000000D02*
X208000000Y-78900000D01*
X203000000Y-77000000D02*
X203000000Y-78900000D01*
X55000000Y-77000000D02*
X55000000Y-78900000D01*
X100000000Y-77000000D02*
X100000000Y-78900000D01*
X64000000Y-77000000D02*
X64000000Y-78900000D01*
X243000000Y-77000000D02*
X243000000Y-78900000D01*
X84000000Y-77000000D02*
X84000000Y-78900000D01*
X177000000Y-76000000D02*
X177000000Y-78900000D01*
X241000000Y-77000000D02*
X241000000Y-78900000D01*
X235000000Y-77000000D02*
X235000000Y-78900000D01*
X242000000Y-75000000D02*
X242000000Y-78900000D01*
X215000000Y-77000000D02*
X215000000Y-78900000D01*
X210000000Y-77000000D02*
X210000000Y-78900000D01*
X181000000Y-77000000D02*
X181000000Y-78900000D01*
X99000000Y-77000000D02*
X99000000Y-78900000D01*
X141000000Y-77000000D02*
X141000000Y-78900000D01*
X94000000Y-77000000D02*
X94000000Y-78900000D01*
X236000000Y-77000000D02*
X236000000Y-78900000D01*
X197000000Y-76000000D02*
X197000000Y-78900000D01*
X114000000Y-77000000D02*
X114000000Y-78900000D01*
X111000000Y-77000000D02*
X111000000Y-78900000D01*
X69000000Y-77000000D02*
X69000000Y-78900000D01*
X229000000Y-77000000D02*
X229000000Y-78900000D01*
X155000000Y-77000000D02*
X155000000Y-78900000D01*
X134000000Y-77000000D02*
X134000000Y-78900000D01*
X139000000Y-77000000D02*
X139000000Y-78900000D01*
X74000000Y-77000000D02*
X74000000Y-78900000D01*
X89000000Y-77000000D02*
X89000000Y-78900000D01*
X137000000Y-76000000D02*
X137000000Y-78900000D01*
X112000000Y-75000000D02*
X112000000Y-78900000D01*
X248000000Y-77000000D02*
X248000000Y-78900000D01*
X201000000Y-77000000D02*
X201000000Y-78900000D01*
X224000000Y-77000000D02*
X224000000Y-78900000D01*
X172000000Y-75000000D02*
X172000000Y-78900000D01*
X238000000Y-77000000D02*
X238000000Y-78900000D01*
X219000000Y-77000000D02*
X219000000Y-78900000D01*
X101000000Y-77000000D02*
X101000000Y-78900000D01*
X117000000Y-76000000D02*
X117000000Y-78900000D01*
X198000000Y-77000000D02*
X198000000Y-78900000D01*
X115000000Y-77000000D02*
X115000000Y-78900000D01*
X175000000Y-77000000D02*
X175000000Y-78900000D01*
X180000000Y-77000000D02*
X180000000Y-78900000D01*
X73000000Y-77000000D02*
X73000000Y-78900000D01*
X81000000Y-77000000D02*
X81000000Y-78900000D01*
X239000000Y-77000000D02*
X239000000Y-78900000D01*
X83000000Y-77000000D02*
X83000000Y-78900000D01*
X57000000Y-76000000D02*
X57000000Y-78900000D01*
X217000000Y-76000000D02*
X217000000Y-78900000D01*
X237000000Y-76000000D02*
X237000000Y-78900000D01*
X76000000Y-77000000D02*
X76000000Y-78900000D01*
X151000000Y-77000000D02*
X151000000Y-78900000D01*
X256000000Y-77000000D02*
X256000000Y-78900000D01*
X104000000Y-77000000D02*
X104000000Y-78900000D01*
X62000000Y-75000000D02*
X62000000Y-78900000D01*
X102000000Y-75000000D02*
X102000000Y-78900000D01*
X253000000Y-77000000D02*
X253000000Y-78900000D01*
X246000000Y-77000000D02*
X246000000Y-78900000D01*
X228000000Y-77000000D02*
X228000000Y-78900000D01*
X53000000Y-77000000D02*
X53000000Y-78900000D01*
X96000000Y-77000000D02*
X96000000Y-78900000D01*
X178000000Y-77000000D02*
X178000000Y-78900000D01*
X67000000Y-76000000D02*
X67000000Y-78900000D01*
X54000000Y-77000000D02*
X54000000Y-78900000D01*
X80000000Y-77000000D02*
X80000000Y-78900000D01*
X160000000Y-77000000D02*
X160000000Y-78900000D01*
X58000000Y-77000000D02*
X58000000Y-78900000D01*
X226000000Y-77000000D02*
X226000000Y-78900000D01*
X59000000Y-77000000D02*
X59000000Y-78900000D01*
X211000000Y-77000000D02*
X211000000Y-78900000D01*
X120000000Y-77000000D02*
X120000000Y-78900000D01*
X209000000Y-77000000D02*
X209000000Y-78900000D01*
X85000000Y-77000000D02*
X85000000Y-78900000D01*
X138000000Y-77000000D02*
X138000000Y-78900000D01*
X110000000Y-77000000D02*
X110000000Y-78900000D01*
X65000000Y-77000000D02*
X65000000Y-78900000D01*
X135000000Y-77000000D02*
X135000000Y-78900000D01*
X156000000Y-77000000D02*
X156000000Y-78900000D01*
X184000000Y-77000000D02*
X184000000Y-78900000D01*
X86000000Y-77000000D02*
X86000000Y-78900000D01*
X187000000Y-76000000D02*
X187000000Y-78900000D01*
X126000000Y-77000000D02*
X126000000Y-78900000D01*
X133000000Y-77000000D02*
X133000000Y-78900000D01*
X136000000Y-77000000D02*
X136000000Y-78900000D01*
X157000000Y-76000000D02*
X157000000Y-78900000D01*
X231000000Y-77000000D02*
X231000000Y-78900000D01*
X140000000Y-77000000D02*
X140000000Y-78900000D01*
X90000000Y-77000000D02*
X90000000Y-78900000D01*
X95000000Y-77000000D02*
X95000000Y-78900000D01*
X195000000Y-77000000D02*
X195000000Y-78900000D01*
X234000000Y-77000000D02*
X234000000Y-78900000D01*
X105000000Y-77000000D02*
X105000000Y-78900000D01*
X213000000Y-77000000D02*
X213000000Y-78900000D01*
X192000000Y-75000000D02*
X192000000Y-78900000D01*
X173000000Y-77000000D02*
X173000000Y-78900000D01*
%TD*%
M02*
