%TF.GenerationSoftware,KiCad,Pcbnew,9.0.7*%
%TF.CreationDate,2026-09-03T18:25:39+01:00*%
%TF.ProjectId,Ruler,52756c65-722e-46b6-9963-61645f706362,rev?*%
%TF.SameCoordinates,Original*%
%TF.FileFunction,Soldermask,Top*%
%TF.FilePolarity,Negative*%
%FSLAX46Y46*%
G04 Gerber Fmt 4.6, Leading zero omitted, Abs format (unit mm)*
G04 Created by KiCad (PCBNEW 9.0.7) date 2026-09-03 18:25:39*
%MOMM*%
%LPD*%
G01*
G04 APERTURE LIST*
%ADD10C,0.100000*%
%ADD11C,0.046601*%
%ADD12C,0.085790*%
%ADD13C,0.013264*%
%ADD14C,0.030099*%
%ADD15C,0.097748*%
%ADD16C,0.032443*%
%ADD17C,0.042152*%
%ADD18C,0.044891*%
%ADD19C,0.097009*%
%ADD20C,0.083593*%
%ADD21C,0.093118*%
%ADD22C,0.093353*%
%ADD23C,0.078553*%
%ADD24C,0.066783*%
%ADD25C,0.166743*%
%ADD26C,0.089849*%
%ADD27C,0.069779*%
%ADD28C,0.090719*%
%ADD29C,0.044011*%
%ADD30C,0.095355*%
%ADD31C,0.049591*%
%ADD32C,0.109577*%
%ADD33C,0.065099*%
%ADD34C,0.023587*%
%ADD35C,0.120681*%
%ADD36C,0.092896*%
%ADD37C,0.059325*%
G04 APERTURE END LIST*
D10*
X129000000Y-77000000D02*
X129000000Y-79000000D01*
X76000000Y-77000000D02*
X76000000Y-79000000D01*
X124000000Y-77000000D02*
X124000000Y-79000000D01*
D11*
X138797014Y-57707032D02*
X138790842Y-58510992D01*
X138686445Y-58510339D01*
X138675594Y-58501579D01*
X138665483Y-58492087D01*
X138656102Y-58481874D01*
X138647440Y-58470947D01*
X138639486Y-58459317D01*
X138632229Y-58446993D01*
X138625658Y-58433983D01*
X138619761Y-58420298D01*
X138614529Y-58405946D01*
X138609950Y-58390936D01*
X138606012Y-58375278D01*
X138602706Y-58358981D01*
X138600021Y-58342054D01*
X138597944Y-58324507D01*
X138596466Y-58306348D01*
X138595575Y-58287588D01*
X138596410Y-57920006D01*
X138596411Y-57920006D01*
X138596412Y-57920005D01*
X138596413Y-57920005D01*
X138596414Y-57920004D01*
X138596416Y-57920003D01*
X138596418Y-57920002D01*
X138596422Y-57920000D01*
X138596424Y-57919999D01*
X138596426Y-57919999D01*
X138597505Y-57902609D01*
X138599253Y-57885640D01*
X138601668Y-57869112D01*
X138604748Y-57853047D01*
X138608490Y-57837465D01*
X138612894Y-57822387D01*
X138617958Y-57807834D01*
X138623679Y-57793827D01*
X138630056Y-57780386D01*
X138637087Y-57767534D01*
X138644770Y-57755289D01*
X138653103Y-57743675D01*
X138662085Y-57732711D01*
X138671713Y-57722418D01*
X138681987Y-57712817D01*
X138692903Y-57703929D01*
X138797014Y-57707032D01*
G36*
X138797014Y-57707032D02*
G01*
X138790842Y-58510992D01*
X138686445Y-58510339D01*
X138675594Y-58501579D01*
X138665483Y-58492087D01*
X138656102Y-58481874D01*
X138647440Y-58470947D01*
X138639486Y-58459317D01*
X138632229Y-58446993D01*
X138625658Y-58433983D01*
X138619761Y-58420298D01*
X138614529Y-58405946D01*
X138609950Y-58390936D01*
X138606012Y-58375278D01*
X138602706Y-58358981D01*
X138600021Y-58342054D01*
X138597944Y-58324507D01*
X138596466Y-58306348D01*
X138595575Y-58287588D01*
X138596410Y-57920006D01*
X138596411Y-57920006D01*
X138596412Y-57920005D01*
X138596413Y-57920005D01*
X138596414Y-57920004D01*
X138596416Y-57920003D01*
X138596418Y-57920002D01*
X138596422Y-57920000D01*
X138596424Y-57919999D01*
X138596426Y-57919999D01*
X138597505Y-57902609D01*
X138599253Y-57885640D01*
X138601668Y-57869112D01*
X138604748Y-57853047D01*
X138608490Y-57837465D01*
X138612894Y-57822387D01*
X138617958Y-57807834D01*
X138623679Y-57793827D01*
X138630056Y-57780386D01*
X138637087Y-57767534D01*
X138644770Y-57755289D01*
X138653103Y-57743675D01*
X138662085Y-57732711D01*
X138671713Y-57722418D01*
X138681987Y-57712817D01*
X138692903Y-57703929D01*
X138797014Y-57707032D01*
G37*
D10*
X160987928Y-58518470D02*
X160788809Y-58518470D01*
X160788809Y-58302184D01*
X160987928Y-58302184D01*
X160987928Y-58518470D01*
X70000000Y-77000000D02*
X70000000Y-79000000D01*
X85000000Y-77000000D02*
X85000000Y-79000000D01*
X92000000Y-75000000D02*
X92000000Y-79000000D01*
X187000000Y-76000000D02*
X187000000Y-79000000D01*
X197000000Y-76000000D02*
X197000000Y-79000000D01*
X112000000Y-75000000D02*
X112000000Y-79000000D01*
X125000000Y-77000000D02*
X125000000Y-79000000D01*
X168000000Y-77000000D02*
X168000000Y-79000000D01*
X65000000Y-77000000D02*
X65000000Y-79000000D01*
X229000000Y-77000000D02*
X229000000Y-79000000D01*
X179000000Y-77000000D02*
X179000000Y-79000000D01*
X213000000Y-77000000D02*
X213000000Y-79000000D01*
X77000000Y-76000000D02*
X77000000Y-79000000D01*
X115000000Y-77000000D02*
X115000000Y-79000000D01*
X160000000Y-77000000D02*
X160000000Y-79000000D01*
X128000000Y-77000000D02*
X128000000Y-79000000D01*
X254000000Y-77000000D02*
X254000000Y-79000000D01*
X136000000Y-77000000D02*
X136000000Y-79000000D01*
X91000000Y-77000000D02*
X91000000Y-79000000D01*
D12*
X160996763Y-58498112D02*
X160786863Y-58498112D01*
X160786863Y-58277915D01*
X160996763Y-58277915D01*
X160996763Y-58498112D01*
G36*
X160996763Y-58498112D02*
G01*
X160786863Y-58498112D01*
X160786863Y-58277915D01*
X160996763Y-58277915D01*
X160996763Y-58498112D01*
G37*
D10*
X133000000Y-77000000D02*
X133000000Y-79000000D01*
D12*
X173354028Y-58472218D02*
X173144129Y-58472218D01*
X173144129Y-58252020D01*
X173354028Y-58252020D01*
X173354028Y-58472218D01*
G36*
X173354028Y-58472218D02*
G01*
X173144129Y-58472218D01*
X173144129Y-58252020D01*
X173354028Y-58252020D01*
X173354028Y-58472218D01*
G37*
D10*
X222000000Y-75000000D02*
X222000000Y-79000000D01*
D13*
X162095617Y-57899264D02*
X161968557Y-57899264D01*
X161968557Y-57890568D01*
X162095617Y-57890568D01*
X162095617Y-57899264D01*
G36*
X162095617Y-57899264D02*
G01*
X161968557Y-57899264D01*
X161968557Y-57890568D01*
X162095617Y-57890568D01*
X162095617Y-57899264D01*
G37*
D14*
X172158361Y-56611627D02*
X172145242Y-56611627D01*
X172145242Y-56177946D01*
X172158361Y-56177946D01*
X172158361Y-56611627D01*
G36*
X172158361Y-56611627D02*
G01*
X172145242Y-56611627D01*
X172145242Y-56177946D01*
X172158361Y-56177946D01*
X172158361Y-56611627D01*
G37*
D10*
X195000000Y-77000000D02*
X195000000Y-79000000D01*
X193000000Y-77000000D02*
X193000000Y-79000000D01*
X217000000Y-76000000D02*
X217000000Y-79000000D01*
D15*
X173289659Y-56553575D02*
X173176683Y-56553575D01*
X173176683Y-56022466D01*
X173289659Y-56022466D01*
X173289659Y-56553575D01*
G36*
X173289659Y-56553575D02*
G01*
X173176683Y-56553575D01*
X173176683Y-56022466D01*
X173289659Y-56022466D01*
X173289659Y-56553575D01*
G37*
D10*
X209000000Y-77000000D02*
X209000000Y-79000000D01*
X158000000Y-77000000D02*
X158000000Y-79000000D01*
X121000000Y-77000000D02*
X121000000Y-79000000D01*
X206000000Y-77000000D02*
X206000000Y-79000000D01*
X166000000Y-77000000D02*
X166000000Y-79000000D01*
D16*
X172157320Y-60280590D02*
X172146543Y-60280590D01*
X172146543Y-59667182D01*
X172157320Y-59667182D01*
X172157320Y-60280590D01*
G36*
X172157320Y-60280590D02*
G01*
X172146543Y-60280590D01*
X172146543Y-59667182D01*
X172157320Y-59667182D01*
X172157320Y-60280590D01*
G37*
D10*
X207000000Y-76000000D02*
X207000000Y-79000000D01*
X116000000Y-77000000D02*
X116000000Y-79000000D01*
X165000000Y-77000000D02*
X165000000Y-79000000D01*
D17*
X160600439Y-60098449D02*
X160555677Y-60098449D01*
X160555677Y-59849180D01*
X160600439Y-59849180D01*
X160600439Y-60098449D01*
G36*
X160600439Y-60098449D02*
G01*
X160555677Y-60098449D01*
X160555677Y-59849180D01*
X160600439Y-59849180D01*
X160600439Y-60098449D01*
G37*
D10*
X249000000Y-77000000D02*
X249000000Y-79000000D01*
X135000000Y-77000000D02*
X135000000Y-79000000D01*
X248000000Y-77000000D02*
X248000000Y-79000000D01*
X173352083Y-58492576D02*
X173152963Y-58492576D01*
X173152963Y-58276289D01*
X173352083Y-58276289D01*
X173352083Y-58492576D01*
X99000000Y-77000000D02*
X99000000Y-79000000D01*
X226000000Y-77000000D02*
X226000000Y-79000000D01*
X155000000Y-77000000D02*
X155000000Y-79000000D01*
X53000000Y-77000000D02*
X53000000Y-79000000D01*
D18*
X162074949Y-58177189D02*
X161984373Y-58177189D01*
X161984373Y-58037472D01*
X162074949Y-58037472D01*
X162074949Y-58177189D01*
G36*
X162074949Y-58177189D02*
G01*
X161984373Y-58177189D01*
X161984373Y-58037472D01*
X162074949Y-58037472D01*
X162074949Y-58177189D01*
G37*
D10*
X122000000Y-75000000D02*
X122000000Y-79000000D01*
X123000000Y-77000000D02*
X123000000Y-79000000D01*
X200000000Y-77000000D02*
X200000000Y-79000000D01*
X102000000Y-75000000D02*
X102000000Y-79000000D01*
D19*
X173294580Y-60236192D02*
X173180864Y-60236192D01*
X173180864Y-59716483D01*
X173294580Y-59716483D01*
X173294580Y-60236192D01*
G36*
X173294580Y-60236192D02*
G01*
X173180864Y-60236192D01*
X173180864Y-59716483D01*
X173294580Y-59716483D01*
X173294580Y-60236192D01*
G37*
D10*
X153000000Y-77000000D02*
X153000000Y-79000000D01*
X210000000Y-77000000D02*
X210000000Y-79000000D01*
X69000000Y-77000000D02*
X69000000Y-79000000D01*
X219000000Y-77000000D02*
X219000000Y-79000000D01*
X177000000Y-76000000D02*
X177000000Y-79000000D01*
X189000000Y-77000000D02*
X189000000Y-79000000D01*
X134000000Y-77000000D02*
X134000000Y-79000000D01*
X167000000Y-76000000D02*
X167000000Y-79000000D01*
X93000000Y-77000000D02*
X93000000Y-79000000D01*
D20*
X185701361Y-57014571D02*
X185753814Y-57017605D01*
X185805815Y-57023173D01*
X185857334Y-57031271D01*
X185908342Y-57041898D01*
X185958810Y-57055050D01*
X186008707Y-57070724D01*
X186058006Y-57088918D01*
X186106676Y-57109627D01*
X186154688Y-57132851D01*
X186202013Y-57158584D01*
X186248622Y-57186826D01*
X186294484Y-57217572D01*
X186339571Y-57250820D01*
X186383853Y-57286567D01*
X186427301Y-57324810D01*
X186405790Y-57340412D01*
X186393097Y-57350535D01*
X186379390Y-57362463D01*
X186364876Y-57376388D01*
X186349765Y-57392503D01*
X186334263Y-57410999D01*
X186318579Y-57432069D01*
X186302922Y-57455905D01*
X186287499Y-57482700D01*
X186272518Y-57512646D01*
X186258188Y-57545935D01*
X186244716Y-57582760D01*
X186232311Y-57623312D01*
X186221181Y-57667784D01*
X186211534Y-57716369D01*
X186189459Y-57685731D01*
X186164639Y-57656325D01*
X186137217Y-57628265D01*
X186107338Y-57601662D01*
X186075146Y-57576629D01*
X186040785Y-57553278D01*
X186004401Y-57531722D01*
X185966137Y-57512073D01*
X185926137Y-57494443D01*
X185884546Y-57478944D01*
X185841509Y-57465690D01*
X185797169Y-57454792D01*
X185751672Y-57446362D01*
X185705160Y-57440514D01*
X185657780Y-57437359D01*
X185609674Y-57437010D01*
X185552324Y-57440883D01*
X185494853Y-57449910D01*
X185437761Y-57464064D01*
X185381550Y-57483320D01*
X185353932Y-57494853D01*
X185326723Y-57507651D01*
X185299984Y-57521711D01*
X185273779Y-57537031D01*
X185248171Y-57553606D01*
X185223222Y-57571434D01*
X185198995Y-57590511D01*
X185175552Y-57610834D01*
X185152957Y-57632399D01*
X185131271Y-57655204D01*
X185110559Y-57679244D01*
X185090881Y-57704518D01*
X185072302Y-57731021D01*
X185054883Y-57758751D01*
X185038688Y-57787703D01*
X185023779Y-57817875D01*
X185010219Y-57849264D01*
X184998070Y-57881866D01*
X184987395Y-57915677D01*
X184978258Y-57950695D01*
X184970720Y-57986917D01*
X184964844Y-58024339D01*
X184960693Y-58062957D01*
X184958330Y-58102769D01*
X184959196Y-58152914D01*
X184965284Y-58206226D01*
X184976639Y-58261857D01*
X184993304Y-58318958D01*
X185015322Y-58376680D01*
X185042739Y-58434173D01*
X185058485Y-58462568D01*
X185075597Y-58490588D01*
X185094080Y-58518127D01*
X185113940Y-58545077D01*
X185135182Y-58571334D01*
X185157812Y-58596790D01*
X185181835Y-58621340D01*
X185207257Y-58644878D01*
X185234083Y-58667297D01*
X185262319Y-58688491D01*
X185291969Y-58708355D01*
X185323041Y-58726782D01*
X185355538Y-58743665D01*
X185389467Y-58758899D01*
X185424832Y-58772378D01*
X185461640Y-58783996D01*
X185499897Y-58793645D01*
X185539606Y-58801221D01*
X185580774Y-58806617D01*
X185623407Y-58809726D01*
X185647490Y-58810423D01*
X185671345Y-58810367D01*
X185694957Y-58809570D01*
X185718312Y-58808048D01*
X185741395Y-58805811D01*
X185764191Y-58802874D01*
X185786685Y-58799248D01*
X185808864Y-58794948D01*
X185830711Y-58789987D01*
X185852213Y-58784376D01*
X185873355Y-58778130D01*
X185894122Y-58771262D01*
X185914499Y-58763783D01*
X185934472Y-58755708D01*
X185954026Y-58747049D01*
X185973146Y-58737820D01*
X185991818Y-58728033D01*
X186010027Y-58717701D01*
X186027758Y-58706837D01*
X186044996Y-58695455D01*
X186061728Y-58683568D01*
X186077937Y-58671187D01*
X186093611Y-58658328D01*
X186108732Y-58645001D01*
X186123288Y-58631221D01*
X186137264Y-58617000D01*
X186150644Y-58602352D01*
X186163414Y-58587290D01*
X186175559Y-58571826D01*
X186187066Y-58555973D01*
X186197918Y-58539745D01*
X186208101Y-58523154D01*
X186213863Y-58569741D01*
X186219775Y-58611178D01*
X186226029Y-58648032D01*
X186232817Y-58680870D01*
X186236472Y-58695962D01*
X186240333Y-58710263D01*
X186244423Y-58723844D01*
X186248768Y-58736777D01*
X186253391Y-58749132D01*
X186258316Y-58760981D01*
X186263568Y-58772394D01*
X186269170Y-58783443D01*
X186275146Y-58794199D01*
X186281521Y-58804732D01*
X186288319Y-58815114D01*
X186295563Y-58825415D01*
X186311489Y-58846061D01*
X186329490Y-58867238D01*
X186349761Y-58889514D01*
X186372492Y-58913458D01*
X186426111Y-58968621D01*
X186353727Y-59027365D01*
X186279434Y-59079287D01*
X186203508Y-59124521D01*
X186126226Y-59163202D01*
X186047863Y-59195466D01*
X185968695Y-59221446D01*
X185888998Y-59241279D01*
X185809047Y-59255098D01*
X185729119Y-59263040D01*
X185649489Y-59265237D01*
X185570434Y-59261827D01*
X185492228Y-59252943D01*
X185415149Y-59238720D01*
X185339471Y-59219293D01*
X185265471Y-59194798D01*
X185193424Y-59165368D01*
X185123607Y-59131140D01*
X185056294Y-59092247D01*
X184991763Y-59048825D01*
X184930289Y-59001009D01*
X184872147Y-58948933D01*
X184817614Y-58892733D01*
X184766965Y-58832543D01*
X184720477Y-58768498D01*
X184678425Y-58700733D01*
X184641085Y-58629384D01*
X184608732Y-58554584D01*
X184581643Y-58476469D01*
X184560094Y-58395174D01*
X184544360Y-58310834D01*
X184534718Y-58223583D01*
X184531442Y-58133556D01*
X184533113Y-58074095D01*
X184538050Y-58015670D01*
X184546141Y-57958335D01*
X184557274Y-57902145D01*
X184571337Y-57847154D01*
X184588218Y-57793416D01*
X184607804Y-57740986D01*
X184629983Y-57689917D01*
X184654642Y-57640265D01*
X184681671Y-57592084D01*
X184710956Y-57545427D01*
X184742386Y-57500350D01*
X184775848Y-57456906D01*
X184811229Y-57415150D01*
X184848418Y-57375136D01*
X184887303Y-57336918D01*
X184927771Y-57300551D01*
X184969710Y-57266089D01*
X185013008Y-57233587D01*
X185057553Y-57203098D01*
X185103232Y-57174678D01*
X185149933Y-57148379D01*
X185197545Y-57124258D01*
X185245954Y-57102367D01*
X185295049Y-57082762D01*
X185344717Y-57065496D01*
X185394846Y-57050624D01*
X185445325Y-57038200D01*
X185496040Y-57028279D01*
X185546880Y-57020914D01*
X185597732Y-57016161D01*
X185648485Y-57014073D01*
X185701361Y-57014571D01*
G36*
X185701361Y-57014571D02*
G01*
X185753814Y-57017605D01*
X185805815Y-57023173D01*
X185857334Y-57031271D01*
X185908342Y-57041898D01*
X185958810Y-57055050D01*
X186008707Y-57070724D01*
X186058006Y-57088918D01*
X186106676Y-57109627D01*
X186154688Y-57132851D01*
X186202013Y-57158584D01*
X186248622Y-57186826D01*
X186294484Y-57217572D01*
X186339571Y-57250820D01*
X186383853Y-57286567D01*
X186427301Y-57324810D01*
X186405790Y-57340412D01*
X186393097Y-57350535D01*
X186379390Y-57362463D01*
X186364876Y-57376388D01*
X186349765Y-57392503D01*
X186334263Y-57410999D01*
X186318579Y-57432069D01*
X186302922Y-57455905D01*
X186287499Y-57482700D01*
X186272518Y-57512646D01*
X186258188Y-57545935D01*
X186244716Y-57582760D01*
X186232311Y-57623312D01*
X186221181Y-57667784D01*
X186211534Y-57716369D01*
X186189459Y-57685731D01*
X186164639Y-57656325D01*
X186137217Y-57628265D01*
X186107338Y-57601662D01*
X186075146Y-57576629D01*
X186040785Y-57553278D01*
X186004401Y-57531722D01*
X185966137Y-57512073D01*
X185926137Y-57494443D01*
X185884546Y-57478944D01*
X185841509Y-57465690D01*
X185797169Y-57454792D01*
X185751672Y-57446362D01*
X185705160Y-57440514D01*
X185657780Y-57437359D01*
X185609674Y-57437010D01*
X185552324Y-57440883D01*
X185494853Y-57449910D01*
X185437761Y-57464064D01*
X185381550Y-57483320D01*
X185353932Y-57494853D01*
X185326723Y-57507651D01*
X185299984Y-57521711D01*
X185273779Y-57537031D01*
X185248171Y-57553606D01*
X185223222Y-57571434D01*
X185198995Y-57590511D01*
X185175552Y-57610834D01*
X185152957Y-57632399D01*
X185131271Y-57655204D01*
X185110559Y-57679244D01*
X185090881Y-57704518D01*
X185072302Y-57731021D01*
X185054883Y-57758751D01*
X185038688Y-57787703D01*
X185023779Y-57817875D01*
X185010219Y-57849264D01*
X184998070Y-57881866D01*
X184987395Y-57915677D01*
X184978258Y-57950695D01*
X184970720Y-57986917D01*
X184964844Y-58024339D01*
X184960693Y-58062957D01*
X184958330Y-58102769D01*
X184959196Y-58152914D01*
X184965284Y-58206226D01*
X184976639Y-58261857D01*
X184993304Y-58318958D01*
X185015322Y-58376680D01*
X185042739Y-58434173D01*
X185058485Y-58462568D01*
X185075597Y-58490588D01*
X185094080Y-58518127D01*
X185113940Y-58545077D01*
X185135182Y-58571334D01*
X185157812Y-58596790D01*
X185181835Y-58621340D01*
X185207257Y-58644878D01*
X185234083Y-58667297D01*
X185262319Y-58688491D01*
X185291969Y-58708355D01*
X185323041Y-58726782D01*
X185355538Y-58743665D01*
X185389467Y-58758899D01*
X185424832Y-58772378D01*
X185461640Y-58783996D01*
X185499897Y-58793645D01*
X185539606Y-58801221D01*
X185580774Y-58806617D01*
X185623407Y-58809726D01*
X185647490Y-58810423D01*
X185671345Y-58810367D01*
X185694957Y-58809570D01*
X185718312Y-58808048D01*
X185741395Y-58805811D01*
X185764191Y-58802874D01*
X185786685Y-58799248D01*
X185808864Y-58794948D01*
X185830711Y-58789987D01*
X185852213Y-58784376D01*
X185873355Y-58778130D01*
X185894122Y-58771262D01*
X185914499Y-58763783D01*
X185934472Y-58755708D01*
X185954026Y-58747049D01*
X185973146Y-58737820D01*
X185991818Y-58728033D01*
X186010027Y-58717701D01*
X186027758Y-58706837D01*
X186044996Y-58695455D01*
X186061728Y-58683568D01*
X186077937Y-58671187D01*
X186093611Y-58658328D01*
X186108732Y-58645001D01*
X186123288Y-58631221D01*
X186137264Y-58617000D01*
X186150644Y-58602352D01*
X186163414Y-58587290D01*
X186175559Y-58571826D01*
X186187066Y-58555973D01*
X186197918Y-58539745D01*
X186208101Y-58523154D01*
X186213863Y-58569741D01*
X186219775Y-58611178D01*
X186226029Y-58648032D01*
X186232817Y-58680870D01*
X186236472Y-58695962D01*
X186240333Y-58710263D01*
X186244423Y-58723844D01*
X186248768Y-58736777D01*
X186253391Y-58749132D01*
X186258316Y-58760981D01*
X186263568Y-58772394D01*
X186269170Y-58783443D01*
X186275146Y-58794199D01*
X186281521Y-58804732D01*
X186288319Y-58815114D01*
X186295563Y-58825415D01*
X186311489Y-58846061D01*
X186329490Y-58867238D01*
X186349761Y-58889514D01*
X186372492Y-58913458D01*
X186426111Y-58968621D01*
X186353727Y-59027365D01*
X186279434Y-59079287D01*
X186203508Y-59124521D01*
X186126226Y-59163202D01*
X186047863Y-59195466D01*
X185968695Y-59221446D01*
X185888998Y-59241279D01*
X185809047Y-59255098D01*
X185729119Y-59263040D01*
X185649489Y-59265237D01*
X185570434Y-59261827D01*
X185492228Y-59252943D01*
X185415149Y-59238720D01*
X185339471Y-59219293D01*
X185265471Y-59194798D01*
X185193424Y-59165368D01*
X185123607Y-59131140D01*
X185056294Y-59092247D01*
X184991763Y-59048825D01*
X184930289Y-59001009D01*
X184872147Y-58948933D01*
X184817614Y-58892733D01*
X184766965Y-58832543D01*
X184720477Y-58768498D01*
X184678425Y-58700733D01*
X184641085Y-58629384D01*
X184608732Y-58554584D01*
X184581643Y-58476469D01*
X184560094Y-58395174D01*
X184544360Y-58310834D01*
X184534718Y-58223583D01*
X184531442Y-58133556D01*
X184533113Y-58074095D01*
X184538050Y-58015670D01*
X184546141Y-57958335D01*
X184557274Y-57902145D01*
X184571337Y-57847154D01*
X184588218Y-57793416D01*
X184607804Y-57740986D01*
X184629983Y-57689917D01*
X184654642Y-57640265D01*
X184681671Y-57592084D01*
X184710956Y-57545427D01*
X184742386Y-57500350D01*
X184775848Y-57456906D01*
X184811229Y-57415150D01*
X184848418Y-57375136D01*
X184887303Y-57336918D01*
X184927771Y-57300551D01*
X184969710Y-57266089D01*
X185013008Y-57233587D01*
X185057553Y-57203098D01*
X185103232Y-57174678D01*
X185149933Y-57148379D01*
X185197545Y-57124258D01*
X185245954Y-57102367D01*
X185295049Y-57082762D01*
X185344717Y-57065496D01*
X185394846Y-57050624D01*
X185445325Y-57038200D01*
X185496040Y-57028279D01*
X185546880Y-57020914D01*
X185597732Y-57016161D01*
X185648485Y-57014073D01*
X185701361Y-57014571D01*
G37*
D10*
X242000000Y-75000000D02*
X242000000Y-79000000D01*
X162000000Y-75000000D02*
X162000000Y-79000000D01*
X175000000Y-77000000D02*
X175000000Y-79000000D01*
X216000000Y-77000000D02*
X216000000Y-79000000D01*
X98000000Y-77000000D02*
X98000000Y-79000000D01*
D21*
X162126089Y-56555866D02*
X162023050Y-56555866D01*
X162023050Y-56027410D01*
X162126089Y-56027410D01*
X162126089Y-56555866D01*
G36*
X162126089Y-56555866D02*
G01*
X162023050Y-56555866D01*
X162023050Y-56027410D01*
X162126089Y-56027410D01*
X162126089Y-56555866D01*
G37*
D10*
X75000000Y-77000000D02*
X75000000Y-79000000D01*
X151000000Y-77000000D02*
X151000000Y-79000000D01*
X90000000Y-77000000D02*
X90000000Y-79000000D01*
X208000000Y-77000000D02*
X208000000Y-79000000D01*
X106000000Y-77000000D02*
X106000000Y-79000000D01*
X196000000Y-77000000D02*
X196000000Y-79000000D01*
X68000000Y-77000000D02*
X68000000Y-79000000D01*
X87000000Y-76000000D02*
X87000000Y-79000000D01*
D22*
X162123541Y-60250229D02*
X162023164Y-60250229D01*
X162023164Y-59705015D01*
X162123541Y-59705015D01*
X162123541Y-60250229D01*
G36*
X162123541Y-60250229D02*
G01*
X162023164Y-60250229D01*
X162023164Y-59705015D01*
X162123541Y-59705015D01*
X162123541Y-60250229D01*
G37*
D10*
X215000000Y-77000000D02*
X215000000Y-79000000D01*
X139000000Y-77000000D02*
X139000000Y-79000000D01*
X113000000Y-77000000D02*
X113000000Y-79000000D01*
X218000000Y-77000000D02*
X218000000Y-79000000D01*
X212000000Y-75000000D02*
X212000000Y-79000000D01*
X119000000Y-77000000D02*
X119000000Y-79000000D01*
X81000000Y-77000000D02*
X81000000Y-79000000D01*
X234000000Y-77000000D02*
X234000000Y-79000000D01*
X67000000Y-76000000D02*
X67000000Y-79000000D01*
X164000000Y-77000000D02*
X164000000Y-79000000D01*
X235000000Y-77000000D02*
X235000000Y-79000000D01*
X107000000Y-76000000D02*
X107000000Y-79000000D01*
D23*
X160569807Y-57486471D02*
X160559408Y-58841649D01*
X160383428Y-58840549D01*
X160365137Y-58825782D01*
X160348095Y-58809783D01*
X160332283Y-58792567D01*
X160317682Y-58774149D01*
X160304275Y-58754545D01*
X160292042Y-58733771D01*
X160280966Y-58711841D01*
X160271027Y-58688773D01*
X160262208Y-58664580D01*
X160254489Y-58639280D01*
X160247853Y-58612886D01*
X160242281Y-58585416D01*
X160237754Y-58556884D01*
X160234254Y-58527305D01*
X160231762Y-58496697D01*
X160230261Y-58465073D01*
X160231664Y-57845466D01*
X160231695Y-57845454D01*
X160233514Y-57816142D01*
X160236460Y-57787538D01*
X160240531Y-57759679D01*
X160245722Y-57732599D01*
X160252031Y-57706333D01*
X160259455Y-57680917D01*
X160267990Y-57656386D01*
X160277634Y-57632775D01*
X160288384Y-57610119D01*
X160300235Y-57588454D01*
X160313185Y-57567815D01*
X160327232Y-57548237D01*
X160342371Y-57529755D01*
X160358600Y-57512405D01*
X160375916Y-57496222D01*
X160394315Y-57481241D01*
X160569807Y-57486471D01*
G36*
X160569807Y-57486471D02*
G01*
X160559408Y-58841649D01*
X160383428Y-58840549D01*
X160365137Y-58825782D01*
X160348095Y-58809783D01*
X160332283Y-58792567D01*
X160317682Y-58774149D01*
X160304275Y-58754545D01*
X160292042Y-58733771D01*
X160280966Y-58711841D01*
X160271027Y-58688773D01*
X160262208Y-58664580D01*
X160254489Y-58639280D01*
X160247853Y-58612886D01*
X160242281Y-58585416D01*
X160237754Y-58556884D01*
X160234254Y-58527305D01*
X160231762Y-58496697D01*
X160230261Y-58465073D01*
X160231664Y-57845466D01*
X160231695Y-57845454D01*
X160233514Y-57816142D01*
X160236460Y-57787538D01*
X160240531Y-57759679D01*
X160245722Y-57732599D01*
X160252031Y-57706333D01*
X160259455Y-57680917D01*
X160267990Y-57656386D01*
X160277634Y-57632775D01*
X160288384Y-57610119D01*
X160300235Y-57588454D01*
X160313185Y-57567815D01*
X160327232Y-57548237D01*
X160342371Y-57529755D01*
X160358600Y-57512405D01*
X160375916Y-57496222D01*
X160394315Y-57481241D01*
X160569807Y-57486471D01*
G37*
D10*
X172000000Y-75000000D02*
X172000000Y-79000000D01*
X185000000Y-77000000D02*
X185000000Y-79000000D01*
X236000000Y-77000000D02*
X236000000Y-79000000D01*
X202000000Y-75000000D02*
X202000000Y-79000000D01*
X132000000Y-75000000D02*
X132000000Y-79000000D01*
X239000000Y-77000000D02*
X239000000Y-79000000D01*
X232000000Y-75000000D02*
X232000000Y-79000000D01*
D24*
X162503397Y-56403933D02*
X162371595Y-56403933D01*
X162371595Y-56191432D01*
X162503397Y-56191432D01*
X162503397Y-56403933D01*
G36*
X162503397Y-56403933D02*
G01*
X162371595Y-56403933D01*
X162371595Y-56191432D01*
X162503397Y-56191432D01*
X162503397Y-56403933D01*
G37*
D10*
X117000000Y-76000000D02*
X117000000Y-79000000D01*
X146000000Y-77000000D02*
X146000000Y-79000000D01*
X95000000Y-77000000D02*
X95000000Y-79000000D01*
X127000000Y-76000000D02*
X127000000Y-79000000D01*
D25*
X187794496Y-60595838D02*
X187450823Y-60595838D01*
X187450823Y-55680891D01*
X187794496Y-55680891D01*
X187794496Y-60595838D01*
G36*
X187794496Y-60595838D02*
G01*
X187450823Y-60595838D01*
X187450823Y-55680891D01*
X187794496Y-55680891D01*
X187794496Y-60595838D01*
G37*
D10*
X245000000Y-77000000D02*
X245000000Y-79000000D01*
X171000000Y-77000000D02*
X171000000Y-79000000D01*
X220000000Y-77000000D02*
X220000000Y-79000000D01*
D26*
X160972749Y-60217971D02*
X160868868Y-60217971D01*
X160868868Y-59729943D01*
X160972749Y-59729943D01*
X160972749Y-60217971D01*
G36*
X160972749Y-60217971D02*
G01*
X160868868Y-60217971D01*
X160868868Y-59729943D01*
X160972749Y-59729943D01*
X160972749Y-60217971D01*
G37*
D10*
X54000000Y-77000000D02*
X54000000Y-79000000D01*
X256000000Y-77000000D02*
X256000000Y-79000000D01*
X56000000Y-77000000D02*
X56000000Y-79000000D01*
X108000000Y-77000000D02*
X108000000Y-79000000D01*
D27*
X139014276Y-60585557D02*
X138973757Y-60585557D01*
X138973757Y-59830946D01*
X139014276Y-59830946D01*
X139014276Y-60585557D01*
G36*
X139014276Y-60585557D02*
G01*
X138973757Y-60585557D01*
X138973757Y-59830946D01*
X139014276Y-59830946D01*
X139014276Y-60585557D01*
G37*
D28*
X160974329Y-56537644D02*
X160871320Y-56537644D01*
X160871320Y-56035921D01*
X160974329Y-56035921D01*
X160974329Y-56537644D01*
G36*
X160974329Y-56537644D02*
G01*
X160871320Y-56537644D01*
X160871320Y-56035921D01*
X160974329Y-56035921D01*
X160974329Y-56537644D01*
G37*
D17*
X160609739Y-56408847D02*
X160564977Y-56408847D01*
X160564977Y-56159578D01*
X160609739Y-56159578D01*
X160609739Y-56408847D01*
G36*
X160609739Y-56408847D02*
G01*
X160564977Y-56408847D01*
X160564977Y-56159578D01*
X160609739Y-56159578D01*
X160609739Y-56408847D01*
G37*
D10*
X62000000Y-75000000D02*
X62000000Y-79000000D01*
X194000000Y-77000000D02*
X194000000Y-79000000D01*
X243000000Y-77000000D02*
X243000000Y-79000000D01*
X86000000Y-77000000D02*
X86000000Y-79000000D01*
X250000000Y-77000000D02*
X250000000Y-79000000D01*
X180000000Y-77000000D02*
X180000000Y-79000000D01*
X227000000Y-76000000D02*
X227000000Y-79000000D01*
X130000000Y-77000000D02*
X130000000Y-79000000D01*
X147000000Y-76000000D02*
X147000000Y-79000000D01*
X111000000Y-77000000D02*
X111000000Y-79000000D01*
X105000000Y-77000000D02*
X105000000Y-79000000D01*
X221000000Y-77000000D02*
X221000000Y-79000000D01*
X199000000Y-77000000D02*
X199000000Y-79000000D01*
D29*
X173598581Y-56412794D02*
X173550821Y-56412794D01*
X173550821Y-56158101D01*
X173598581Y-56158101D01*
X173598581Y-56412794D01*
G36*
X173598581Y-56412794D02*
G01*
X173550821Y-56412794D01*
X173550821Y-56158101D01*
X173598581Y-56158101D01*
X173598581Y-56412794D01*
G37*
D30*
X166501104Y-59659497D02*
X165955820Y-59659497D01*
X165955820Y-59342451D01*
X166501104Y-59342451D01*
X166501104Y-59659497D01*
G36*
X166501104Y-59659497D02*
G01*
X165955820Y-59659497D01*
X165955820Y-59342451D01*
X166501104Y-59342451D01*
X166501104Y-59659497D01*
G37*
D10*
X253000000Y-77000000D02*
X253000000Y-79000000D01*
X60000000Y-77000000D02*
X60000000Y-79000000D01*
D31*
X138181460Y-57428481D02*
X138212577Y-57430281D01*
X138243427Y-57433584D01*
X138273991Y-57438389D01*
X138304251Y-57444693D01*
X138334191Y-57452496D01*
X138363793Y-57461794D01*
X138393039Y-57472588D01*
X138421912Y-57484874D01*
X138450396Y-57498651D01*
X138478471Y-57513918D01*
X138506121Y-57530672D01*
X138533329Y-57548912D01*
X138560077Y-57568637D01*
X138586348Y-57589844D01*
X138612123Y-57612531D01*
X138599363Y-57621787D01*
X138591833Y-57627793D01*
X138583701Y-57634869D01*
X138575091Y-57643130D01*
X138566126Y-57652690D01*
X138556930Y-57663663D01*
X138547626Y-57676163D01*
X138538337Y-57690303D01*
X138529187Y-57706199D01*
X138520300Y-57723965D01*
X138511798Y-57743713D01*
X138503806Y-57765560D01*
X138496447Y-57789617D01*
X138489844Y-57816000D01*
X138484121Y-57844823D01*
X138471161Y-57826620D01*
X138456820Y-57809098D01*
X138441150Y-57792332D01*
X138424200Y-57776394D01*
X138406021Y-57761360D01*
X138386661Y-57747302D01*
X138366172Y-57734294D01*
X138344604Y-57722411D01*
X138322006Y-57711725D01*
X138298428Y-57702312D01*
X138273922Y-57694243D01*
X138248536Y-57687594D01*
X138222320Y-57682438D01*
X138195326Y-57678849D01*
X138167602Y-57676900D01*
X138139200Y-57676666D01*
X138104944Y-57678990D01*
X138070191Y-57684421D01*
X138035302Y-57692936D01*
X138000638Y-57704513D01*
X137966558Y-57719128D01*
X137949851Y-57727568D01*
X137933424Y-57736760D01*
X137917324Y-57746700D01*
X137901596Y-57757386D01*
X137886284Y-57768815D01*
X137871434Y-57780984D01*
X137857090Y-57793890D01*
X137843298Y-57807531D01*
X137830103Y-57821904D01*
X137817550Y-57837005D01*
X137805683Y-57852833D01*
X137794549Y-57869384D01*
X137784191Y-57886655D01*
X137774656Y-57904644D01*
X137765987Y-57923348D01*
X137758231Y-57942764D01*
X137751431Y-57962889D01*
X137745634Y-57983721D01*
X137740885Y-58005256D01*
X137737227Y-58027492D01*
X137734707Y-58050427D01*
X137733370Y-58074056D01*
X137733938Y-58108396D01*
X137737704Y-58143829D01*
X137744680Y-58179919D01*
X137754878Y-58216231D01*
X137768308Y-58252327D01*
X137776239Y-58270159D01*
X137784983Y-58287773D01*
X137794541Y-58305115D01*
X137804914Y-58322131D01*
X137816105Y-58338766D01*
X137828114Y-58354966D01*
X137840943Y-58370676D01*
X137854594Y-58385841D01*
X137869068Y-58400407D01*
X137884366Y-58414320D01*
X137900490Y-58427524D01*
X137917441Y-58439966D01*
X137935222Y-58451592D01*
X137953832Y-58462345D01*
X137973274Y-58472172D01*
X137993550Y-58481019D01*
X138014660Y-58488830D01*
X138036607Y-58495552D01*
X138059391Y-58501130D01*
X138083014Y-58505509D01*
X138107478Y-58508634D01*
X138132784Y-58510452D01*
X138147092Y-58510858D01*
X138161305Y-58510805D01*
X138175411Y-58510300D01*
X138189399Y-58509352D01*
X138203258Y-58507970D01*
X138216976Y-58506163D01*
X138230542Y-58503939D01*
X138243944Y-58501306D01*
X138257171Y-58498274D01*
X138270212Y-58494850D01*
X138283055Y-58491045D01*
X138295690Y-58486865D01*
X138308103Y-58482320D01*
X138320285Y-58477419D01*
X138332224Y-58472169D01*
X138343908Y-58466580D01*
X138355326Y-58460660D01*
X138366467Y-58454418D01*
X138377319Y-58447862D01*
X138387871Y-58441001D01*
X138398111Y-58433844D01*
X138408028Y-58426399D01*
X138417612Y-58418675D01*
X138426849Y-58410680D01*
X138435730Y-58402424D01*
X138444242Y-58393914D01*
X138452374Y-58385159D01*
X138460115Y-58376168D01*
X138467454Y-58366950D01*
X138474378Y-58357512D01*
X138480878Y-58347865D01*
X138486940Y-58338015D01*
X138490359Y-58365626D01*
X138493866Y-58390131D01*
X138497575Y-58411875D01*
X138501602Y-58431201D01*
X138503770Y-58440066D01*
X138506060Y-58448455D01*
X138508487Y-58456411D01*
X138511064Y-58463979D01*
X138513806Y-58471200D01*
X138516728Y-58478119D01*
X138519843Y-58484777D01*
X138523166Y-58491218D01*
X138526712Y-58497485D01*
X138530493Y-58503621D01*
X138534526Y-58509669D01*
X138538823Y-58515672D01*
X138548271Y-58527715D01*
X138558950Y-58540094D01*
X138570975Y-58553154D01*
X138584460Y-58567239D01*
X138616270Y-58599860D01*
X138573314Y-58634675D01*
X138529199Y-58665376D01*
X138484091Y-58692048D01*
X138438155Y-58714774D01*
X138391556Y-58733639D01*
X138344460Y-58748729D01*
X138297033Y-58760126D01*
X138249439Y-58767916D01*
X138201844Y-58772184D01*
X138154414Y-58773013D01*
X138107314Y-58770488D01*
X138060709Y-58764693D01*
X138014765Y-58755714D01*
X137969647Y-58743634D01*
X137925521Y-58728539D01*
X137882552Y-58710512D01*
X137840906Y-58689637D01*
X137800748Y-58666001D01*
X137762243Y-58639686D01*
X137725556Y-58610777D01*
X137690855Y-58579359D01*
X137658302Y-58545517D01*
X137628065Y-58509334D01*
X137600309Y-58470896D01*
X137575198Y-58430286D01*
X137552899Y-58387590D01*
X137533576Y-58342891D01*
X137517396Y-58296275D01*
X137504523Y-58247825D01*
X137495124Y-58197626D01*
X137489363Y-58145763D01*
X137487405Y-58092320D01*
X137488397Y-58057045D01*
X137491325Y-58022384D01*
X137496126Y-57988370D01*
X137502730Y-57955035D01*
X137511073Y-57922411D01*
X137521087Y-57890531D01*
X137532707Y-57859427D01*
X137545864Y-57829131D01*
X137560494Y-57799675D01*
X137576529Y-57771091D01*
X137593902Y-57743412D01*
X137612547Y-57716670D01*
X137632399Y-57690897D01*
X137653389Y-57666125D01*
X137675451Y-57642386D01*
X137698519Y-57619714D01*
X137722527Y-57598139D01*
X137747407Y-57577695D01*
X137773094Y-57558413D01*
X137799520Y-57540325D01*
X137826619Y-57523465D01*
X137854325Y-57507863D01*
X137882570Y-57493553D01*
X137911289Y-57480566D01*
X137940414Y-57468935D01*
X137969880Y-57458692D01*
X137999620Y-57449870D01*
X138029566Y-57442499D01*
X138059653Y-57436613D01*
X138089814Y-57432244D01*
X138119982Y-57429425D01*
X138150091Y-57428186D01*
X138181460Y-57428481D01*
G36*
X138181460Y-57428481D02*
G01*
X138212577Y-57430281D01*
X138243427Y-57433584D01*
X138273991Y-57438389D01*
X138304251Y-57444693D01*
X138334191Y-57452496D01*
X138363793Y-57461794D01*
X138393039Y-57472588D01*
X138421912Y-57484874D01*
X138450396Y-57498651D01*
X138478471Y-57513918D01*
X138506121Y-57530672D01*
X138533329Y-57548912D01*
X138560077Y-57568637D01*
X138586348Y-57589844D01*
X138612123Y-57612531D01*
X138599363Y-57621787D01*
X138591833Y-57627793D01*
X138583701Y-57634869D01*
X138575091Y-57643130D01*
X138566126Y-57652690D01*
X138556930Y-57663663D01*
X138547626Y-57676163D01*
X138538337Y-57690303D01*
X138529187Y-57706199D01*
X138520300Y-57723965D01*
X138511798Y-57743713D01*
X138503806Y-57765560D01*
X138496447Y-57789617D01*
X138489844Y-57816000D01*
X138484121Y-57844823D01*
X138471161Y-57826620D01*
X138456820Y-57809098D01*
X138441150Y-57792332D01*
X138424200Y-57776394D01*
X138406021Y-57761360D01*
X138386661Y-57747302D01*
X138366172Y-57734294D01*
X138344604Y-57722411D01*
X138322006Y-57711725D01*
X138298428Y-57702312D01*
X138273922Y-57694243D01*
X138248536Y-57687594D01*
X138222320Y-57682438D01*
X138195326Y-57678849D01*
X138167602Y-57676900D01*
X138139200Y-57676666D01*
X138104944Y-57678990D01*
X138070191Y-57684421D01*
X138035302Y-57692936D01*
X138000638Y-57704513D01*
X137966558Y-57719128D01*
X137949851Y-57727568D01*
X137933424Y-57736760D01*
X137917324Y-57746700D01*
X137901596Y-57757386D01*
X137886284Y-57768815D01*
X137871434Y-57780984D01*
X137857090Y-57793890D01*
X137843298Y-57807531D01*
X137830103Y-57821904D01*
X137817550Y-57837005D01*
X137805683Y-57852833D01*
X137794549Y-57869384D01*
X137784191Y-57886655D01*
X137774656Y-57904644D01*
X137765987Y-57923348D01*
X137758231Y-57942764D01*
X137751431Y-57962889D01*
X137745634Y-57983721D01*
X137740885Y-58005256D01*
X137737227Y-58027492D01*
X137734707Y-58050427D01*
X137733370Y-58074056D01*
X137733938Y-58108396D01*
X137737704Y-58143829D01*
X137744680Y-58179919D01*
X137754878Y-58216231D01*
X137768308Y-58252327D01*
X137776239Y-58270159D01*
X137784983Y-58287773D01*
X137794541Y-58305115D01*
X137804914Y-58322131D01*
X137816105Y-58338766D01*
X137828114Y-58354966D01*
X137840943Y-58370676D01*
X137854594Y-58385841D01*
X137869068Y-58400407D01*
X137884366Y-58414320D01*
X137900490Y-58427524D01*
X137917441Y-58439966D01*
X137935222Y-58451592D01*
X137953832Y-58462345D01*
X137973274Y-58472172D01*
X137993550Y-58481019D01*
X138014660Y-58488830D01*
X138036607Y-58495552D01*
X138059391Y-58501130D01*
X138083014Y-58505509D01*
X138107478Y-58508634D01*
X138132784Y-58510452D01*
X138147092Y-58510858D01*
X138161305Y-58510805D01*
X138175411Y-58510300D01*
X138189399Y-58509352D01*
X138203258Y-58507970D01*
X138216976Y-58506163D01*
X138230542Y-58503939D01*
X138243944Y-58501306D01*
X138257171Y-58498274D01*
X138270212Y-58494850D01*
X138283055Y-58491045D01*
X138295690Y-58486865D01*
X138308103Y-58482320D01*
X138320285Y-58477419D01*
X138332224Y-58472169D01*
X138343908Y-58466580D01*
X138355326Y-58460660D01*
X138366467Y-58454418D01*
X138377319Y-58447862D01*
X138387871Y-58441001D01*
X138398111Y-58433844D01*
X138408028Y-58426399D01*
X138417612Y-58418675D01*
X138426849Y-58410680D01*
X138435730Y-58402424D01*
X138444242Y-58393914D01*
X138452374Y-58385159D01*
X138460115Y-58376168D01*
X138467454Y-58366950D01*
X138474378Y-58357512D01*
X138480878Y-58347865D01*
X138486940Y-58338015D01*
X138490359Y-58365626D01*
X138493866Y-58390131D01*
X138497575Y-58411875D01*
X138501602Y-58431201D01*
X138503770Y-58440066D01*
X138506060Y-58448455D01*
X138508487Y-58456411D01*
X138511064Y-58463979D01*
X138513806Y-58471200D01*
X138516728Y-58478119D01*
X138519843Y-58484777D01*
X138523166Y-58491218D01*
X138526712Y-58497485D01*
X138530493Y-58503621D01*
X138534526Y-58509669D01*
X138538823Y-58515672D01*
X138548271Y-58527715D01*
X138558950Y-58540094D01*
X138570975Y-58553154D01*
X138584460Y-58567239D01*
X138616270Y-58599860D01*
X138573314Y-58634675D01*
X138529199Y-58665376D01*
X138484091Y-58692048D01*
X138438155Y-58714774D01*
X138391556Y-58733639D01*
X138344460Y-58748729D01*
X138297033Y-58760126D01*
X138249439Y-58767916D01*
X138201844Y-58772184D01*
X138154414Y-58773013D01*
X138107314Y-58770488D01*
X138060709Y-58764693D01*
X138014765Y-58755714D01*
X137969647Y-58743634D01*
X137925521Y-58728539D01*
X137882552Y-58710512D01*
X137840906Y-58689637D01*
X137800748Y-58666001D01*
X137762243Y-58639686D01*
X137725556Y-58610777D01*
X137690855Y-58579359D01*
X137658302Y-58545517D01*
X137628065Y-58509334D01*
X137600309Y-58470896D01*
X137575198Y-58430286D01*
X137552899Y-58387590D01*
X137533576Y-58342891D01*
X137517396Y-58296275D01*
X137504523Y-58247825D01*
X137495124Y-58197626D01*
X137489363Y-58145763D01*
X137487405Y-58092320D01*
X137488397Y-58057045D01*
X137491325Y-58022384D01*
X137496126Y-57988370D01*
X137502730Y-57955035D01*
X137511073Y-57922411D01*
X137521087Y-57890531D01*
X137532707Y-57859427D01*
X137545864Y-57829131D01*
X137560494Y-57799675D01*
X137576529Y-57771091D01*
X137593902Y-57743412D01*
X137612547Y-57716670D01*
X137632399Y-57690897D01*
X137653389Y-57666125D01*
X137675451Y-57642386D01*
X137698519Y-57619714D01*
X137722527Y-57598139D01*
X137747407Y-57577695D01*
X137773094Y-57558413D01*
X137799520Y-57540325D01*
X137826619Y-57523465D01*
X137854325Y-57507863D01*
X137882570Y-57493553D01*
X137911289Y-57480566D01*
X137940414Y-57468935D01*
X137969880Y-57458692D01*
X137999620Y-57449870D01*
X138029566Y-57442499D01*
X138059653Y-57436613D01*
X138089814Y-57432244D01*
X138119982Y-57429425D01*
X138150091Y-57428186D01*
X138181460Y-57428481D01*
G37*
D10*
X163000000Y-77000000D02*
X163000000Y-79000000D01*
D12*
X160997358Y-58050648D02*
X160787458Y-58050648D01*
X160787458Y-57830451D01*
X160997358Y-57830451D01*
X160997358Y-58050648D01*
G36*
X160997358Y-58050648D02*
G01*
X160787458Y-58050648D01*
X160787458Y-57830451D01*
X160997358Y-57830451D01*
X160997358Y-58050648D01*
G37*
D10*
X238000000Y-77000000D02*
X238000000Y-79000000D01*
X120000000Y-77000000D02*
X120000000Y-79000000D01*
X61000000Y-77000000D02*
X61000000Y-79000000D01*
X201000000Y-77000000D02*
X201000000Y-79000000D01*
X224000000Y-77000000D02*
X224000000Y-79000000D01*
X252000000Y-75000000D02*
X252000000Y-79000000D01*
D32*
X167006899Y-57942174D02*
X166254476Y-57942174D01*
X166254476Y-57586821D01*
X167006899Y-57586821D01*
X167006899Y-57942174D01*
G36*
X167006899Y-57942174D02*
G01*
X166254476Y-57942174D01*
X166254476Y-57586821D01*
X167006899Y-57586821D01*
X167006899Y-57942174D01*
G37*
D10*
X137000000Y-76000000D02*
X137000000Y-79000000D01*
X71000000Y-77000000D02*
X71000000Y-79000000D01*
X188000000Y-77000000D02*
X188000000Y-79000000D01*
X88000000Y-77000000D02*
X88000000Y-79000000D01*
X190000000Y-77000000D02*
X190000000Y-79000000D01*
D25*
X188419786Y-60601775D02*
X188076112Y-60601775D01*
X188076112Y-55686827D01*
X188419786Y-55686827D01*
X188419786Y-60601775D01*
G36*
X188419786Y-60601775D02*
G01*
X188076112Y-60601775D01*
X188076112Y-55686827D01*
X188419786Y-55686827D01*
X188419786Y-60601775D01*
G37*
D10*
X192000000Y-75000000D02*
X192000000Y-79000000D01*
D25*
X172825609Y-60587252D02*
X172481935Y-60587252D01*
X172481935Y-55672304D01*
X172825609Y-55672304D01*
X172825609Y-60587252D01*
G36*
X172825609Y-60587252D02*
G01*
X172481935Y-60587252D01*
X172481935Y-55672304D01*
X172825609Y-55672304D01*
X172825609Y-60587252D01*
G37*
D10*
X237000000Y-76000000D02*
X237000000Y-79000000D01*
X143000000Y-77000000D02*
X143000000Y-79000000D01*
D12*
X187150140Y-58040095D02*
X186940241Y-58040095D01*
X186940241Y-57819897D01*
X187150140Y-57819897D01*
X187150140Y-58040095D01*
G36*
X187150140Y-58040095D02*
G01*
X186940241Y-58040095D01*
X186940241Y-57819897D01*
X187150140Y-57819897D01*
X187150140Y-58040095D01*
G37*
D10*
X214000000Y-77000000D02*
X214000000Y-79000000D01*
X97000000Y-76000000D02*
X97000000Y-79000000D01*
X203000000Y-77000000D02*
X203000000Y-79000000D01*
X58000000Y-77000000D02*
X58000000Y-79000000D01*
D33*
X162475561Y-60082143D02*
X162346929Y-60082143D01*
X162346929Y-59875242D01*
X162475561Y-59875242D01*
X162475561Y-60082143D01*
G36*
X162475561Y-60082143D02*
G01*
X162346929Y-60082143D01*
X162346929Y-59875242D01*
X162475561Y-59875242D01*
X162475561Y-60082143D01*
G37*
D10*
X178000000Y-77000000D02*
X178000000Y-79000000D01*
D25*
X197646806Y-60599039D02*
X197303133Y-60599039D01*
X197303133Y-55684092D01*
X197646806Y-55684092D01*
X197646806Y-60599039D01*
G36*
X197646806Y-60599039D02*
G01*
X197303133Y-60599039D01*
X197303133Y-55684092D01*
X197646806Y-55684092D01*
X197646806Y-60599039D01*
G37*
D23*
X186722589Y-57475918D02*
X186712190Y-58831095D01*
X186536211Y-58829996D01*
X186517920Y-58815229D01*
X186500878Y-58799230D01*
X186485065Y-58782013D01*
X186470465Y-58763596D01*
X186457057Y-58743992D01*
X186444825Y-58723217D01*
X186433748Y-58701288D01*
X186423810Y-58678219D01*
X186414990Y-58654027D01*
X186407272Y-58628726D01*
X186400636Y-58602333D01*
X186395063Y-58574862D01*
X186390536Y-58546330D01*
X186387036Y-58516752D01*
X186384545Y-58486143D01*
X186383043Y-58454520D01*
X186384447Y-57834913D01*
X186384477Y-57834900D01*
X186386297Y-57805588D01*
X186389243Y-57776985D01*
X186393313Y-57749126D01*
X186398505Y-57722046D01*
X186404814Y-57695780D01*
X186412238Y-57670364D01*
X186420773Y-57645833D01*
X186430417Y-57622222D01*
X186441166Y-57599566D01*
X186453017Y-57577901D01*
X186465968Y-57557262D01*
X186480014Y-57537684D01*
X186495154Y-57519203D01*
X186511383Y-57501852D01*
X186528699Y-57485669D01*
X186547098Y-57470688D01*
X186722589Y-57475918D01*
G36*
X186722589Y-57475918D02*
G01*
X186712190Y-58831095D01*
X186536211Y-58829996D01*
X186517920Y-58815229D01*
X186500878Y-58799230D01*
X186485065Y-58782013D01*
X186470465Y-58763596D01*
X186457057Y-58743992D01*
X186444825Y-58723217D01*
X186433748Y-58701288D01*
X186423810Y-58678219D01*
X186414990Y-58654027D01*
X186407272Y-58628726D01*
X186400636Y-58602333D01*
X186395063Y-58574862D01*
X186390536Y-58546330D01*
X186387036Y-58516752D01*
X186384545Y-58486143D01*
X186383043Y-58454520D01*
X186384447Y-57834913D01*
X186384477Y-57834900D01*
X186386297Y-57805588D01*
X186389243Y-57776985D01*
X186393313Y-57749126D01*
X186398505Y-57722046D01*
X186404814Y-57695780D01*
X186412238Y-57670364D01*
X186420773Y-57645833D01*
X186430417Y-57622222D01*
X186441166Y-57599566D01*
X186453017Y-57577901D01*
X186465968Y-57557262D01*
X186480014Y-57537684D01*
X186495154Y-57519203D01*
X186511383Y-57501852D01*
X186528699Y-57485669D01*
X186547098Y-57470688D01*
X186722589Y-57475918D01*
G37*
D34*
X162088049Y-58360152D02*
X161971315Y-58360152D01*
X161971315Y-58330221D01*
X162088049Y-58330221D01*
X162088049Y-58360152D01*
G36*
X162088049Y-58360152D02*
G01*
X161971315Y-58360152D01*
X161971315Y-58330221D01*
X162088049Y-58330221D01*
X162088049Y-58360152D01*
G37*
D10*
X148000000Y-77000000D02*
X148000000Y-79000000D01*
X231000000Y-77000000D02*
X231000000Y-79000000D01*
X150000000Y-77000000D02*
X150000000Y-79000000D01*
D35*
X203728243Y-60627215D02*
X203338510Y-60627215D01*
X203338510Y-58356944D01*
X203728243Y-58356944D01*
X203728243Y-60627215D01*
G36*
X203728243Y-60627215D02*
G01*
X203338510Y-60627215D01*
X203338510Y-58356944D01*
X203728243Y-58356944D01*
X203728243Y-60627215D01*
G37*
D20*
X174695941Y-57000820D02*
X174746794Y-57005573D01*
X174797634Y-57012937D01*
X174848349Y-57022859D01*
X174898827Y-57035282D01*
X174948957Y-57050154D01*
X174998625Y-57067420D01*
X175047720Y-57087026D01*
X175096129Y-57108916D01*
X175143741Y-57133038D01*
X175190442Y-57159336D01*
X175236121Y-57187757D01*
X175280666Y-57218246D01*
X175323964Y-57250748D01*
X175365903Y-57285210D01*
X175406371Y-57321577D01*
X175445256Y-57359794D01*
X175482445Y-57399808D01*
X175517826Y-57441565D01*
X175551288Y-57485009D01*
X175582718Y-57530086D01*
X175612003Y-57576743D01*
X175639031Y-57624924D01*
X175663691Y-57674576D01*
X175685870Y-57725645D01*
X175705456Y-57778075D01*
X175722337Y-57831813D01*
X175736400Y-57886804D01*
X175747533Y-57942994D01*
X175755624Y-58000329D01*
X175760561Y-58058754D01*
X175762232Y-58118215D01*
X175758956Y-58208242D01*
X175749313Y-58295493D01*
X175733580Y-58379833D01*
X175712030Y-58461128D01*
X175684942Y-58539243D01*
X175652589Y-58614043D01*
X175615249Y-58685393D01*
X175573197Y-58753157D01*
X175526708Y-58817202D01*
X175476060Y-58877392D01*
X175421527Y-58933592D01*
X175363385Y-58985668D01*
X175301911Y-59033484D01*
X175237380Y-59076906D01*
X175170067Y-59115799D01*
X175100250Y-59150027D01*
X175028203Y-59179457D01*
X174954203Y-59203952D01*
X174878525Y-59223379D01*
X174801446Y-59237602D01*
X174723240Y-59246486D01*
X174644185Y-59249897D01*
X174564555Y-59247699D01*
X174484627Y-59239758D01*
X174404676Y-59225938D01*
X174324979Y-59206106D01*
X174245811Y-59180125D01*
X174167448Y-59147862D01*
X174090166Y-59109180D01*
X174014240Y-59063946D01*
X173939947Y-59012024D01*
X173867563Y-58953280D01*
X173921182Y-58898117D01*
X173943913Y-58874174D01*
X173964184Y-58851897D01*
X173982185Y-58830720D01*
X173998111Y-58810074D01*
X174005355Y-58799773D01*
X174012153Y-58789391D01*
X174018528Y-58778858D01*
X174024504Y-58768102D01*
X174030106Y-58757054D01*
X174035358Y-58745640D01*
X174040283Y-58733791D01*
X174044906Y-58721436D01*
X174049251Y-58708503D01*
X174053341Y-58694922D01*
X174057202Y-58680621D01*
X174060857Y-58665530D01*
X174067645Y-58632691D01*
X174073899Y-58595837D01*
X174079810Y-58554401D01*
X174085573Y-58507813D01*
X174095756Y-58524404D01*
X174106608Y-58540632D01*
X174118114Y-58556485D01*
X174130260Y-58571949D01*
X174143030Y-58587012D01*
X174156410Y-58601660D01*
X174170386Y-58615880D01*
X174184941Y-58629660D01*
X174200063Y-58642987D01*
X174215736Y-58655847D01*
X174231946Y-58668227D01*
X174248678Y-58680114D01*
X174265916Y-58691497D01*
X174283647Y-58702360D01*
X174301856Y-58712692D01*
X174320528Y-58722479D01*
X174339648Y-58731708D01*
X174359202Y-58740367D01*
X174379175Y-58748442D01*
X174399552Y-58755921D01*
X174420319Y-58762790D01*
X174441461Y-58769036D01*
X174462963Y-58774646D01*
X174484810Y-58779608D01*
X174506988Y-58783908D01*
X174529483Y-58787533D01*
X174552279Y-58790470D01*
X174575362Y-58792707D01*
X174598717Y-58794230D01*
X174622329Y-58795026D01*
X174646184Y-58795082D01*
X174670267Y-58794385D01*
X174712900Y-58791276D01*
X174754068Y-58785880D01*
X174793777Y-58778304D01*
X174832033Y-58768655D01*
X174868842Y-58757037D01*
X174904207Y-58743559D01*
X174938136Y-58728324D01*
X174970633Y-58711441D01*
X175001705Y-58693014D01*
X175031355Y-58673151D01*
X175059591Y-58651956D01*
X175086417Y-58629537D01*
X175111839Y-58605999D01*
X175135862Y-58581449D01*
X175158492Y-58555993D01*
X175179734Y-58529736D01*
X175199594Y-58502786D01*
X175218077Y-58475248D01*
X175235189Y-58447228D01*
X175250935Y-58418832D01*
X175278352Y-58361339D01*
X175300370Y-58303617D01*
X175317035Y-58246516D01*
X175328390Y-58190885D01*
X175334478Y-58137573D01*
X175335344Y-58087429D01*
X175332981Y-58047617D01*
X175328830Y-58008998D01*
X175322954Y-57971576D01*
X175315416Y-57935355D01*
X175306279Y-57900336D01*
X175295604Y-57866525D01*
X175283455Y-57833923D01*
X175269895Y-57802534D01*
X175254986Y-57772362D01*
X175238791Y-57743410D01*
X175221372Y-57715680D01*
X175202793Y-57689177D01*
X175183115Y-57663903D01*
X175162403Y-57639863D01*
X175140717Y-57617058D01*
X175118122Y-57595493D01*
X175094679Y-57575170D01*
X175070452Y-57556093D01*
X175045503Y-57538265D01*
X175019895Y-57521690D01*
X174993690Y-57506370D01*
X174966951Y-57492310D01*
X174939742Y-57479511D01*
X174912124Y-57467979D01*
X174855913Y-57448723D01*
X174798821Y-57434568D01*
X174741350Y-57425542D01*
X174684000Y-57421669D01*
X174635894Y-57422018D01*
X174588514Y-57425173D01*
X174542002Y-57431021D01*
X174496505Y-57439450D01*
X174452165Y-57450348D01*
X174409127Y-57463603D01*
X174367537Y-57479101D01*
X174327537Y-57496732D01*
X174289273Y-57516381D01*
X174252889Y-57537937D01*
X174218528Y-57561288D01*
X174186336Y-57586321D01*
X174156457Y-57612924D01*
X174129035Y-57640985D01*
X174104214Y-57670390D01*
X174082140Y-57701028D01*
X174072493Y-57652443D01*
X174061363Y-57607971D01*
X174048958Y-57567418D01*
X174035486Y-57530594D01*
X174021156Y-57497305D01*
X174006175Y-57467359D01*
X173990752Y-57440564D01*
X173975095Y-57416728D01*
X173959411Y-57395658D01*
X173943909Y-57377161D01*
X173928797Y-57361047D01*
X173914284Y-57347122D01*
X173900576Y-57335194D01*
X173887883Y-57325070D01*
X173866373Y-57309469D01*
X173909821Y-57271226D01*
X173954103Y-57235479D01*
X173999190Y-57202231D01*
X174045052Y-57171484D01*
X174091661Y-57143243D01*
X174138986Y-57117509D01*
X174186998Y-57094286D01*
X174235668Y-57073576D01*
X174284967Y-57055383D01*
X174334864Y-57039709D01*
X174385332Y-57026557D01*
X174436340Y-57015930D01*
X174487859Y-57007831D01*
X174539860Y-57002263D01*
X174592313Y-56999229D01*
X174645189Y-56998732D01*
X174695941Y-57000820D01*
G36*
X174695941Y-57000820D02*
G01*
X174746794Y-57005573D01*
X174797634Y-57012937D01*
X174848349Y-57022859D01*
X174898827Y-57035282D01*
X174948957Y-57050154D01*
X174998625Y-57067420D01*
X175047720Y-57087026D01*
X175096129Y-57108916D01*
X175143741Y-57133038D01*
X175190442Y-57159336D01*
X175236121Y-57187757D01*
X175280666Y-57218246D01*
X175323964Y-57250748D01*
X175365903Y-57285210D01*
X175406371Y-57321577D01*
X175445256Y-57359794D01*
X175482445Y-57399808D01*
X175517826Y-57441565D01*
X175551288Y-57485009D01*
X175582718Y-57530086D01*
X175612003Y-57576743D01*
X175639031Y-57624924D01*
X175663691Y-57674576D01*
X175685870Y-57725645D01*
X175705456Y-57778075D01*
X175722337Y-57831813D01*
X175736400Y-57886804D01*
X175747533Y-57942994D01*
X175755624Y-58000329D01*
X175760561Y-58058754D01*
X175762232Y-58118215D01*
X175758956Y-58208242D01*
X175749313Y-58295493D01*
X175733580Y-58379833D01*
X175712030Y-58461128D01*
X175684942Y-58539243D01*
X175652589Y-58614043D01*
X175615249Y-58685393D01*
X175573197Y-58753157D01*
X175526708Y-58817202D01*
X175476060Y-58877392D01*
X175421527Y-58933592D01*
X175363385Y-58985668D01*
X175301911Y-59033484D01*
X175237380Y-59076906D01*
X175170067Y-59115799D01*
X175100250Y-59150027D01*
X175028203Y-59179457D01*
X174954203Y-59203952D01*
X174878525Y-59223379D01*
X174801446Y-59237602D01*
X174723240Y-59246486D01*
X174644185Y-59249897D01*
X174564555Y-59247699D01*
X174484627Y-59239758D01*
X174404676Y-59225938D01*
X174324979Y-59206106D01*
X174245811Y-59180125D01*
X174167448Y-59147862D01*
X174090166Y-59109180D01*
X174014240Y-59063946D01*
X173939947Y-59012024D01*
X173867563Y-58953280D01*
X173921182Y-58898117D01*
X173943913Y-58874174D01*
X173964184Y-58851897D01*
X173982185Y-58830720D01*
X173998111Y-58810074D01*
X174005355Y-58799773D01*
X174012153Y-58789391D01*
X174018528Y-58778858D01*
X174024504Y-58768102D01*
X174030106Y-58757054D01*
X174035358Y-58745640D01*
X174040283Y-58733791D01*
X174044906Y-58721436D01*
X174049251Y-58708503D01*
X174053341Y-58694922D01*
X174057202Y-58680621D01*
X174060857Y-58665530D01*
X174067645Y-58632691D01*
X174073899Y-58595837D01*
X174079810Y-58554401D01*
X174085573Y-58507813D01*
X174095756Y-58524404D01*
X174106608Y-58540632D01*
X174118114Y-58556485D01*
X174130260Y-58571949D01*
X174143030Y-58587012D01*
X174156410Y-58601660D01*
X174170386Y-58615880D01*
X174184941Y-58629660D01*
X174200063Y-58642987D01*
X174215736Y-58655847D01*
X174231946Y-58668227D01*
X174248678Y-58680114D01*
X174265916Y-58691497D01*
X174283647Y-58702360D01*
X174301856Y-58712692D01*
X174320528Y-58722479D01*
X174339648Y-58731708D01*
X174359202Y-58740367D01*
X174379175Y-58748442D01*
X174399552Y-58755921D01*
X174420319Y-58762790D01*
X174441461Y-58769036D01*
X174462963Y-58774646D01*
X174484810Y-58779608D01*
X174506988Y-58783908D01*
X174529483Y-58787533D01*
X174552279Y-58790470D01*
X174575362Y-58792707D01*
X174598717Y-58794230D01*
X174622329Y-58795026D01*
X174646184Y-58795082D01*
X174670267Y-58794385D01*
X174712900Y-58791276D01*
X174754068Y-58785880D01*
X174793777Y-58778304D01*
X174832033Y-58768655D01*
X174868842Y-58757037D01*
X174904207Y-58743559D01*
X174938136Y-58728324D01*
X174970633Y-58711441D01*
X175001705Y-58693014D01*
X175031355Y-58673151D01*
X175059591Y-58651956D01*
X175086417Y-58629537D01*
X175111839Y-58605999D01*
X175135862Y-58581449D01*
X175158492Y-58555993D01*
X175179734Y-58529736D01*
X175199594Y-58502786D01*
X175218077Y-58475248D01*
X175235189Y-58447228D01*
X175250935Y-58418832D01*
X175278352Y-58361339D01*
X175300370Y-58303617D01*
X175317035Y-58246516D01*
X175328390Y-58190885D01*
X175334478Y-58137573D01*
X175335344Y-58087429D01*
X175332981Y-58047617D01*
X175328830Y-58008998D01*
X175322954Y-57971576D01*
X175315416Y-57935355D01*
X175306279Y-57900336D01*
X175295604Y-57866525D01*
X175283455Y-57833923D01*
X175269895Y-57802534D01*
X175254986Y-57772362D01*
X175238791Y-57743410D01*
X175221372Y-57715680D01*
X175202793Y-57689177D01*
X175183115Y-57663903D01*
X175162403Y-57639863D01*
X175140717Y-57617058D01*
X175118122Y-57595493D01*
X175094679Y-57575170D01*
X175070452Y-57556093D01*
X175045503Y-57538265D01*
X175019895Y-57521690D01*
X174993690Y-57506370D01*
X174966951Y-57492310D01*
X174939742Y-57479511D01*
X174912124Y-57467979D01*
X174855913Y-57448723D01*
X174798821Y-57434568D01*
X174741350Y-57425542D01*
X174684000Y-57421669D01*
X174635894Y-57422018D01*
X174588514Y-57425173D01*
X174542002Y-57431021D01*
X174496505Y-57439450D01*
X174452165Y-57450348D01*
X174409127Y-57463603D01*
X174367537Y-57479101D01*
X174327537Y-57496732D01*
X174289273Y-57516381D01*
X174252889Y-57537937D01*
X174218528Y-57561288D01*
X174186336Y-57586321D01*
X174156457Y-57612924D01*
X174129035Y-57640985D01*
X174104214Y-57670390D01*
X174082140Y-57701028D01*
X174072493Y-57652443D01*
X174061363Y-57607971D01*
X174048958Y-57567418D01*
X174035486Y-57530594D01*
X174021156Y-57497305D01*
X174006175Y-57467359D01*
X173990752Y-57440564D01*
X173975095Y-57416728D01*
X173959411Y-57395658D01*
X173943909Y-57377161D01*
X173928797Y-57361047D01*
X173914284Y-57347122D01*
X173900576Y-57335194D01*
X173887883Y-57325070D01*
X173866373Y-57309469D01*
X173909821Y-57271226D01*
X173954103Y-57235479D01*
X173999190Y-57202231D01*
X174045052Y-57171484D01*
X174091661Y-57143243D01*
X174138986Y-57117509D01*
X174186998Y-57094286D01*
X174235668Y-57073576D01*
X174284967Y-57055383D01*
X174334864Y-57039709D01*
X174385332Y-57026557D01*
X174436340Y-57015930D01*
X174487859Y-57007831D01*
X174539860Y-57002263D01*
X174592313Y-56999229D01*
X174645189Y-56998732D01*
X174695941Y-57000820D01*
G37*
D10*
X230000000Y-77000000D02*
X230000000Y-79000000D01*
D12*
X187149545Y-58487559D02*
X186939645Y-58487559D01*
X186939645Y-58267361D01*
X187149545Y-58267361D01*
X187149545Y-58487559D01*
G36*
X187149545Y-58487559D02*
G01*
X186939645Y-58487559D01*
X186939645Y-58267361D01*
X187149545Y-58267361D01*
X187149545Y-58487559D01*
G37*
D10*
X109000000Y-77000000D02*
X109000000Y-79000000D01*
X72000000Y-75000000D02*
X72000000Y-79000000D01*
X240000000Y-77000000D02*
X240000000Y-79000000D01*
X55000000Y-77000000D02*
X55000000Y-79000000D01*
X83000000Y-77000000D02*
X83000000Y-79000000D01*
X183000000Y-77000000D02*
X183000000Y-79000000D01*
X149000000Y-77000000D02*
X149000000Y-79000000D01*
X182000000Y-75000000D02*
X182000000Y-79000000D01*
X126000000Y-77000000D02*
X126000000Y-79000000D01*
D29*
X173598283Y-60119318D02*
X173550523Y-60119318D01*
X173550523Y-59864625D01*
X173598283Y-59864625D01*
X173598283Y-60119318D01*
G36*
X173598283Y-60119318D02*
G01*
X173550523Y-60119318D01*
X173550523Y-59864625D01*
X173598283Y-59864625D01*
X173598283Y-60119318D01*
G37*
D10*
X142000000Y-75000000D02*
X142000000Y-79000000D01*
X89000000Y-77000000D02*
X89000000Y-79000000D01*
X211000000Y-77000000D02*
X211000000Y-79000000D01*
X174000000Y-77000000D02*
X174000000Y-79000000D01*
X140000000Y-77000000D02*
X140000000Y-79000000D01*
X161000000Y-77000000D02*
X161000000Y-79000000D01*
X159000000Y-77000000D02*
X159000000Y-79000000D01*
X94000000Y-77000000D02*
X94000000Y-79000000D01*
X82000000Y-75000000D02*
X82000000Y-79000000D01*
X78000000Y-77000000D02*
X78000000Y-79000000D01*
X156000000Y-77000000D02*
X156000000Y-79000000D01*
X246000000Y-77000000D02*
X246000000Y-79000000D01*
D25*
X161667043Y-60589274D02*
X161323370Y-60589274D01*
X161323370Y-55674326D01*
X161667043Y-55674326D01*
X161667043Y-60589274D01*
G36*
X161667043Y-60589274D02*
G01*
X161323370Y-60589274D01*
X161323370Y-55674326D01*
X161667043Y-55674326D01*
X161667043Y-60589274D01*
G37*
D10*
X152000000Y-75000000D02*
X152000000Y-79000000D01*
X223000000Y-77000000D02*
X223000000Y-79000000D01*
X57000000Y-76000000D02*
X57000000Y-79000000D01*
X251000000Y-77000000D02*
X251000000Y-79000000D01*
X184000000Y-77000000D02*
X184000000Y-79000000D01*
X131000000Y-77000000D02*
X131000000Y-79000000D01*
X228000000Y-77000000D02*
X228000000Y-79000000D01*
D23*
X173764975Y-57470328D02*
X173782291Y-57486511D01*
X173798520Y-57503861D01*
X173813660Y-57522343D01*
X173827706Y-57541921D01*
X173840657Y-57562560D01*
X173852508Y-57584225D01*
X173863257Y-57606881D01*
X173872901Y-57630492D01*
X173881436Y-57655023D01*
X173888860Y-57680439D01*
X173895169Y-57706705D01*
X173900361Y-57733785D01*
X173904431Y-57761644D01*
X173907377Y-57790248D01*
X173909197Y-57819560D01*
X173909227Y-57819572D01*
X173910631Y-58439179D01*
X173909129Y-58470803D01*
X173906638Y-58501411D01*
X173903138Y-58530989D01*
X173898611Y-58559522D01*
X173893038Y-58586992D01*
X173886402Y-58613385D01*
X173878684Y-58638686D01*
X173869864Y-58662879D01*
X173859926Y-58685947D01*
X173848849Y-58707876D01*
X173836616Y-58728651D01*
X173823209Y-58748255D01*
X173808609Y-58766673D01*
X173792796Y-58783889D01*
X173775754Y-58799888D01*
X173757463Y-58814655D01*
X173581484Y-58815754D01*
X173571085Y-57460577D01*
X173746576Y-57455347D01*
X173764975Y-57470328D01*
G36*
X173764975Y-57470328D02*
G01*
X173782291Y-57486511D01*
X173798520Y-57503861D01*
X173813660Y-57522343D01*
X173827706Y-57541921D01*
X173840657Y-57562560D01*
X173852508Y-57584225D01*
X173863257Y-57606881D01*
X173872901Y-57630492D01*
X173881436Y-57655023D01*
X173888860Y-57680439D01*
X173895169Y-57706705D01*
X173900361Y-57733785D01*
X173904431Y-57761644D01*
X173907377Y-57790248D01*
X173909197Y-57819560D01*
X173909227Y-57819572D01*
X173910631Y-58439179D01*
X173909129Y-58470803D01*
X173906638Y-58501411D01*
X173903138Y-58530989D01*
X173898611Y-58559522D01*
X173893038Y-58586992D01*
X173886402Y-58613385D01*
X173878684Y-58638686D01*
X173869864Y-58662879D01*
X173859926Y-58685947D01*
X173848849Y-58707876D01*
X173836616Y-58728651D01*
X173823209Y-58748255D01*
X173808609Y-58766673D01*
X173792796Y-58783889D01*
X173775754Y-58799888D01*
X173757463Y-58814655D01*
X173581484Y-58815754D01*
X173571085Y-57460577D01*
X173746576Y-57455347D01*
X173764975Y-57470328D01*
G37*
D10*
X101000000Y-77000000D02*
X101000000Y-79000000D01*
X198000000Y-77000000D02*
X198000000Y-79000000D01*
X73000000Y-77000000D02*
X73000000Y-79000000D01*
X74000000Y-77000000D02*
X74000000Y-79000000D01*
X168509048Y-56705806D02*
X168514475Y-56706163D01*
X168519825Y-56706792D01*
X168525091Y-56707684D01*
X168530265Y-56708835D01*
X168535340Y-56710236D01*
X168540309Y-56711881D01*
X168545167Y-56713763D01*
X168549904Y-56715874D01*
X168554515Y-56718209D01*
X168558993Y-56720760D01*
X168563331Y-56723520D01*
X168567521Y-56726483D01*
X168571557Y-56729641D01*
X168575432Y-56732988D01*
X168579138Y-56736516D01*
X168582669Y-56740219D01*
X168586018Y-56744090D01*
X168589178Y-56748122D01*
X168592142Y-56752309D01*
X168594903Y-56756642D01*
X168597454Y-56761116D01*
X168599788Y-56765723D01*
X168601898Y-56770457D01*
X168603777Y-56775310D01*
X168605418Y-56780277D01*
X168606814Y-56785349D01*
X168607959Y-56790520D01*
X168608845Y-56795783D01*
X168609465Y-56801131D01*
X168609812Y-56806557D01*
X168609880Y-56812055D01*
X168609880Y-57550444D01*
X168609512Y-57555721D01*
X168608890Y-57560920D01*
X168608019Y-57566034D01*
X168606907Y-57571058D01*
X168605559Y-57575986D01*
X168603981Y-57580809D01*
X168602180Y-57585523D01*
X168600163Y-57590120D01*
X168597935Y-57594595D01*
X168595503Y-57598941D01*
X168592873Y-57603152D01*
X168590051Y-57607220D01*
X168587044Y-57611141D01*
X168583857Y-57614906D01*
X168580498Y-57618511D01*
X168576972Y-57621948D01*
X168573286Y-57625212D01*
X168569446Y-57628295D01*
X168565458Y-57631192D01*
X168561329Y-57633895D01*
X168557065Y-57636400D01*
X168552672Y-57638698D01*
X168548156Y-57640784D01*
X168543524Y-57642652D01*
X168538782Y-57644295D01*
X168533936Y-57645706D01*
X168528993Y-57646879D01*
X168523958Y-57647809D01*
X168518839Y-57648487D01*
X168513641Y-57648909D01*
X168508371Y-57649067D01*
X168503034Y-57648956D01*
X167770548Y-57645996D01*
X167670637Y-57544543D01*
X167670637Y-56812055D01*
X167670633Y-56812047D01*
X167670756Y-56807183D01*
X167671121Y-56802382D01*
X167671722Y-56797648D01*
X167672553Y-56792987D01*
X167673609Y-56788403D01*
X167674883Y-56783902D01*
X167676369Y-56779487D01*
X167678061Y-56775164D01*
X167679954Y-56770938D01*
X167682042Y-56766814D01*
X167684318Y-56762796D01*
X167686776Y-56758890D01*
X167689411Y-56755100D01*
X167692218Y-56751430D01*
X167695188Y-56747887D01*
X167698318Y-56744475D01*
X167701601Y-56741198D01*
X167705031Y-56738061D01*
X167708601Y-56735070D01*
X167712307Y-56732230D01*
X167716142Y-56729544D01*
X167720100Y-56727018D01*
X167724176Y-56724657D01*
X167728363Y-56722466D01*
X167732655Y-56720449D01*
X167737047Y-56718612D01*
X167741532Y-56716959D01*
X167746105Y-56715495D01*
X167750760Y-56714225D01*
X167755490Y-56713154D01*
X167760290Y-56712286D01*
X167765154Y-56711627D01*
X168503549Y-56705727D01*
X168509048Y-56705806D01*
G36*
X168509048Y-56705806D02*
G01*
X168514475Y-56706163D01*
X168519825Y-56706792D01*
X168525091Y-56707684D01*
X168530265Y-56708835D01*
X168535340Y-56710236D01*
X168540309Y-56711881D01*
X168545167Y-56713763D01*
X168549904Y-56715874D01*
X168554515Y-56718209D01*
X168558993Y-56720760D01*
X168563331Y-56723520D01*
X168567521Y-56726483D01*
X168571557Y-56729641D01*
X168575432Y-56732988D01*
X168579138Y-56736516D01*
X168582669Y-56740219D01*
X168586018Y-56744090D01*
X168589178Y-56748122D01*
X168592142Y-56752309D01*
X168594903Y-56756642D01*
X168597454Y-56761116D01*
X168599788Y-56765723D01*
X168601898Y-56770457D01*
X168603777Y-56775310D01*
X168605418Y-56780277D01*
X168606814Y-56785349D01*
X168607959Y-56790520D01*
X168608845Y-56795783D01*
X168609465Y-56801131D01*
X168609812Y-56806557D01*
X168609880Y-56812055D01*
X168609880Y-57550444D01*
X168609512Y-57555721D01*
X168608890Y-57560920D01*
X168608019Y-57566034D01*
X168606907Y-57571058D01*
X168605559Y-57575986D01*
X168603981Y-57580809D01*
X168602180Y-57585523D01*
X168600163Y-57590120D01*
X168597935Y-57594595D01*
X168595503Y-57598941D01*
X168592873Y-57603152D01*
X168590051Y-57607220D01*
X168587044Y-57611141D01*
X168583857Y-57614906D01*
X168580498Y-57618511D01*
X168576972Y-57621948D01*
X168573286Y-57625212D01*
X168569446Y-57628295D01*
X168565458Y-57631192D01*
X168561329Y-57633895D01*
X168557065Y-57636400D01*
X168552672Y-57638698D01*
X168548156Y-57640784D01*
X168543524Y-57642652D01*
X168538782Y-57644295D01*
X168533936Y-57645706D01*
X168528993Y-57646879D01*
X168523958Y-57647809D01*
X168518839Y-57648487D01*
X168513641Y-57648909D01*
X168508371Y-57649067D01*
X168503034Y-57648956D01*
X167770548Y-57645996D01*
X167670637Y-57544543D01*
X167670637Y-56812055D01*
X167670633Y-56812047D01*
X167670756Y-56807183D01*
X167671121Y-56802382D01*
X167671722Y-56797648D01*
X167672553Y-56792987D01*
X167673609Y-56788403D01*
X167674883Y-56783902D01*
X167676369Y-56779487D01*
X167678061Y-56775164D01*
X167679954Y-56770938D01*
X167682042Y-56766814D01*
X167684318Y-56762796D01*
X167686776Y-56758890D01*
X167689411Y-56755100D01*
X167692218Y-56751430D01*
X167695188Y-56747887D01*
X167698318Y-56744475D01*
X167701601Y-56741198D01*
X167705031Y-56738061D01*
X167708601Y-56735070D01*
X167712307Y-56732230D01*
X167716142Y-56729544D01*
X167720100Y-56727018D01*
X167724176Y-56724657D01*
X167728363Y-56722466D01*
X167732655Y-56720449D01*
X167737047Y-56718612D01*
X167741532Y-56716959D01*
X167746105Y-56715495D01*
X167750760Y-56714225D01*
X167755490Y-56713154D01*
X167760290Y-56712286D01*
X167765154Y-56711627D01*
X168503549Y-56705727D01*
X168509048Y-56705806D01*
G37*
X84000000Y-77000000D02*
X84000000Y-79000000D01*
X138000000Y-77000000D02*
X138000000Y-79000000D01*
X173000000Y-77000000D02*
X173000000Y-79000000D01*
X247000000Y-76000000D02*
X247000000Y-79000000D01*
X244000000Y-77000000D02*
X244000000Y-79000000D01*
D27*
X139010839Y-56368691D02*
X138970319Y-56368691D01*
X138970319Y-55614081D01*
X139010839Y-55614081D01*
X139010839Y-56368691D01*
G36*
X139010839Y-56368691D02*
G01*
X138970319Y-56368691D01*
X138970319Y-55614081D01*
X139010839Y-55614081D01*
X139010839Y-56368691D01*
G37*
D10*
X141000000Y-77000000D02*
X141000000Y-79000000D01*
X181000000Y-77000000D02*
X181000000Y-79000000D01*
X118000000Y-77000000D02*
X118000000Y-79000000D01*
X59000000Y-77000000D02*
X59000000Y-79000000D01*
X110000000Y-77000000D02*
X110000000Y-79000000D01*
X191000000Y-77000000D02*
X191000000Y-79000000D01*
X80000000Y-77000000D02*
X80000000Y-79000000D01*
D36*
X138997404Y-59649843D02*
X138980001Y-59649843D01*
X138980001Y-56535758D01*
X138997404Y-56535758D01*
X138997404Y-59649843D01*
G36*
X138997404Y-59649843D02*
G01*
X138980001Y-59649843D01*
X138980001Y-56535758D01*
X138997404Y-56535758D01*
X138997404Y-59649843D01*
G37*
D10*
X79000000Y-77000000D02*
X79000000Y-79000000D01*
X103000000Y-77000000D02*
X103000000Y-79000000D01*
X145000000Y-77000000D02*
X145000000Y-79000000D01*
X205000000Y-77000000D02*
X205000000Y-79000000D01*
X255000000Y-77000000D02*
X255000000Y-79000000D01*
X204000000Y-77000000D02*
X204000000Y-79000000D01*
D12*
X173353433Y-58024754D02*
X173143533Y-58024754D01*
X173143533Y-57804556D01*
X173353433Y-57804556D01*
X173353433Y-58024754D01*
G36*
X173353433Y-58024754D02*
G01*
X173143533Y-58024754D01*
X173143533Y-57804556D01*
X173353433Y-57804556D01*
X173353433Y-58024754D01*
G37*
D10*
X144000000Y-77000000D02*
X144000000Y-79000000D01*
X157000000Y-76000000D02*
X157000000Y-79000000D01*
X176000000Y-77000000D02*
X176000000Y-79000000D01*
X233000000Y-77000000D02*
X233000000Y-79000000D01*
D37*
X139037782Y-58336258D02*
X138919653Y-58336258D01*
X138919653Y-58207946D01*
X139037782Y-58207946D01*
X139037782Y-58336258D01*
D10*
X66000000Y-77000000D02*
X66000000Y-79000000D01*
X63000000Y-77000000D02*
X63000000Y-79000000D01*
X186000000Y-77000000D02*
X186000000Y-79000000D01*
X154000000Y-77000000D02*
X154000000Y-79000000D01*
X241000000Y-77000000D02*
X241000000Y-79000000D01*
X169000000Y-77000000D02*
X169000000Y-79000000D01*
X170000000Y-77000000D02*
X170000000Y-79000000D01*
D35*
X203731394Y-57921264D02*
X203341661Y-57921264D01*
X203341661Y-55650993D01*
X203731394Y-55650993D01*
X203731394Y-57921264D01*
G36*
X203731394Y-57921264D02*
G01*
X203341661Y-57921264D01*
X203341661Y-55650993D01*
X203731394Y-55650993D01*
X203731394Y-57921264D01*
G37*
D10*
X64000000Y-77000000D02*
X64000000Y-79000000D01*
X114000000Y-77000000D02*
X114000000Y-79000000D01*
X187140711Y-58507917D02*
X186941591Y-58507917D01*
X186941591Y-58291630D01*
X187140711Y-58291630D01*
X187140711Y-58507917D01*
X225000000Y-77000000D02*
X225000000Y-79000000D01*
X104000000Y-77000000D02*
X104000000Y-79000000D01*
X167723467Y-59931500D02*
X166946783Y-59931500D01*
X166946783Y-59149294D01*
X167723467Y-59149294D01*
X167723467Y-59931500D01*
G36*
X167723467Y-59931500D02*
G01*
X166946783Y-59931500D01*
X166946783Y-59149294D01*
X167723467Y-59149294D01*
X167723467Y-59931500D01*
G37*
D20*
X159548578Y-57025124D02*
X159601032Y-57028158D01*
X159653032Y-57033725D01*
X159704551Y-57041824D01*
X159755559Y-57052451D01*
X159806027Y-57065603D01*
X159855925Y-57081277D01*
X159905224Y-57099470D01*
X159953894Y-57120180D01*
X160001906Y-57143403D01*
X160049231Y-57169137D01*
X160095839Y-57197379D01*
X160141702Y-57228125D01*
X160186788Y-57261373D01*
X160231071Y-57297120D01*
X160274519Y-57335363D01*
X160253008Y-57350965D01*
X160240315Y-57361088D01*
X160226608Y-57373016D01*
X160212094Y-57386941D01*
X160196982Y-57403056D01*
X160181481Y-57421552D01*
X160165797Y-57442622D01*
X160150140Y-57466458D01*
X160134716Y-57493253D01*
X160119736Y-57523199D01*
X160105405Y-57556488D01*
X160091934Y-57593313D01*
X160079529Y-57633865D01*
X160068399Y-57678338D01*
X160058752Y-57726923D01*
X160036677Y-57696284D01*
X160011856Y-57666879D01*
X159984434Y-57638818D01*
X159954555Y-57612215D01*
X159922363Y-57587182D01*
X159888003Y-57563831D01*
X159851618Y-57542275D01*
X159813354Y-57522626D01*
X159773355Y-57504996D01*
X159731764Y-57489497D01*
X159688727Y-57476243D01*
X159644387Y-57465345D01*
X159598889Y-57456915D01*
X159552378Y-57451067D01*
X159504997Y-57447912D01*
X159456892Y-57447563D01*
X159399542Y-57451436D01*
X159342070Y-57460463D01*
X159284978Y-57474617D01*
X159228768Y-57493873D01*
X159201150Y-57505406D01*
X159173940Y-57518204D01*
X159147202Y-57532265D01*
X159120997Y-57547584D01*
X159095389Y-57564159D01*
X159070439Y-57581987D01*
X159046212Y-57601064D01*
X159022770Y-57621387D01*
X159000174Y-57642952D01*
X158978489Y-57665757D01*
X158957776Y-57689798D01*
X158938099Y-57715071D01*
X158919519Y-57741574D01*
X158902101Y-57769304D01*
X158885906Y-57798256D01*
X158870996Y-57828428D01*
X158857436Y-57859817D01*
X158845287Y-57892419D01*
X158834613Y-57926231D01*
X158825475Y-57961249D01*
X158817937Y-57997470D01*
X158812061Y-58034892D01*
X158807911Y-58073511D01*
X158805547Y-58113323D01*
X158806413Y-58163467D01*
X158812502Y-58216779D01*
X158823856Y-58272410D01*
X158840521Y-58329511D01*
X158862540Y-58387233D01*
X158889956Y-58444726D01*
X158905702Y-58473122D01*
X158922814Y-58501142D01*
X158941298Y-58528680D01*
X158961158Y-58555631D01*
X158982400Y-58581887D01*
X159005030Y-58607343D01*
X159029053Y-58631894D01*
X159054475Y-58655431D01*
X159081301Y-58677850D01*
X159109536Y-58699045D01*
X159139187Y-58718908D01*
X159170258Y-58737335D01*
X159202755Y-58754219D01*
X159236684Y-58769453D01*
X159272050Y-58782932D01*
X159308858Y-58794549D01*
X159347114Y-58804198D01*
X159386824Y-58811774D01*
X159427992Y-58817170D01*
X159470625Y-58820280D01*
X159494708Y-58820976D01*
X159518563Y-58820920D01*
X159542175Y-58820124D01*
X159565530Y-58818601D01*
X159588613Y-58816364D01*
X159611408Y-58813427D01*
X159633903Y-58809802D01*
X159656081Y-58805502D01*
X159677929Y-58800540D01*
X159699431Y-58794930D01*
X159720573Y-58788684D01*
X159741339Y-58781815D01*
X159761717Y-58774337D01*
X159781690Y-58766261D01*
X159801243Y-58757603D01*
X159820364Y-58748373D01*
X159839036Y-58738586D01*
X159857244Y-58728254D01*
X159874975Y-58717391D01*
X159892214Y-58706009D01*
X159908945Y-58694121D01*
X159925155Y-58681741D01*
X159940828Y-58668881D01*
X159955950Y-58655554D01*
X159970506Y-58641774D01*
X159984481Y-58627554D01*
X159997861Y-58612906D01*
X160010632Y-58597843D01*
X160022777Y-58582379D01*
X160034283Y-58566526D01*
X160045135Y-58550298D01*
X160055319Y-58533707D01*
X160061081Y-58580295D01*
X160066993Y-58621731D01*
X160073246Y-58658585D01*
X160080035Y-58691424D01*
X160083689Y-58706515D01*
X160087550Y-58720816D01*
X160091641Y-58734398D01*
X160095986Y-58747330D01*
X160100608Y-58759686D01*
X160105534Y-58771534D01*
X160110785Y-58782948D01*
X160116387Y-58793997D01*
X160122364Y-58804752D01*
X160128739Y-58815285D01*
X160135536Y-58825667D01*
X160142781Y-58835968D01*
X160158706Y-58856614D01*
X160176708Y-58877791D01*
X160196978Y-58900068D01*
X160219710Y-58924011D01*
X160273329Y-58979174D01*
X160200944Y-59037918D01*
X160126651Y-59089840D01*
X160050726Y-59135074D01*
X159973444Y-59173756D01*
X159895081Y-59206019D01*
X159815913Y-59232000D01*
X159736215Y-59251832D01*
X159656265Y-59265652D01*
X159576337Y-59273593D01*
X159496707Y-59275791D01*
X159417651Y-59272380D01*
X159339446Y-59263496D01*
X159262366Y-59249273D01*
X159186688Y-59229846D01*
X159112688Y-59205351D01*
X159040642Y-59175922D01*
X158970824Y-59141693D01*
X158903512Y-59102800D01*
X158838981Y-59059379D01*
X158777506Y-59011562D01*
X158719365Y-58959487D01*
X158664832Y-58903286D01*
X158614183Y-58843096D01*
X158567695Y-58779051D01*
X158525642Y-58711287D01*
X158488302Y-58639937D01*
X158455950Y-58565138D01*
X158428861Y-58487023D01*
X158407312Y-58405727D01*
X158391578Y-58321387D01*
X158381935Y-58234136D01*
X158378660Y-58144109D01*
X158380331Y-58084648D01*
X158385268Y-58026223D01*
X158393359Y-57968888D01*
X158404492Y-57912698D01*
X158418555Y-57857707D01*
X158435435Y-57803969D01*
X158455021Y-57751539D01*
X158477200Y-57700470D01*
X158501860Y-57650818D01*
X158528889Y-57602637D01*
X158558174Y-57555980D01*
X158589603Y-57510903D01*
X158623065Y-57467459D01*
X158658447Y-57425703D01*
X158695636Y-57385689D01*
X158734521Y-57347471D01*
X158774989Y-57311104D01*
X158816928Y-57276642D01*
X158860226Y-57244140D01*
X158904770Y-57213651D01*
X158950449Y-57185231D01*
X158997151Y-57158932D01*
X159044762Y-57134811D01*
X159093171Y-57112920D01*
X159142266Y-57093314D01*
X159191935Y-57076049D01*
X159242064Y-57061177D01*
X159292543Y-57048753D01*
X159343258Y-57038832D01*
X159394098Y-57031467D01*
X159444950Y-57026714D01*
X159495702Y-57024626D01*
X159548578Y-57025124D01*
G36*
X159548578Y-57025124D02*
G01*
X159601032Y-57028158D01*
X159653032Y-57033725D01*
X159704551Y-57041824D01*
X159755559Y-57052451D01*
X159806027Y-57065603D01*
X159855925Y-57081277D01*
X159905224Y-57099470D01*
X159953894Y-57120180D01*
X160001906Y-57143403D01*
X160049231Y-57169137D01*
X160095839Y-57197379D01*
X160141702Y-57228125D01*
X160186788Y-57261373D01*
X160231071Y-57297120D01*
X160274519Y-57335363D01*
X160253008Y-57350965D01*
X160240315Y-57361088D01*
X160226608Y-57373016D01*
X160212094Y-57386941D01*
X160196982Y-57403056D01*
X160181481Y-57421552D01*
X160165797Y-57442622D01*
X160150140Y-57466458D01*
X160134716Y-57493253D01*
X160119736Y-57523199D01*
X160105405Y-57556488D01*
X160091934Y-57593313D01*
X160079529Y-57633865D01*
X160068399Y-57678338D01*
X160058752Y-57726923D01*
X160036677Y-57696284D01*
X160011856Y-57666879D01*
X159984434Y-57638818D01*
X159954555Y-57612215D01*
X159922363Y-57587182D01*
X159888003Y-57563831D01*
X159851618Y-57542275D01*
X159813354Y-57522626D01*
X159773355Y-57504996D01*
X159731764Y-57489497D01*
X159688727Y-57476243D01*
X159644387Y-57465345D01*
X159598889Y-57456915D01*
X159552378Y-57451067D01*
X159504997Y-57447912D01*
X159456892Y-57447563D01*
X159399542Y-57451436D01*
X159342070Y-57460463D01*
X159284978Y-57474617D01*
X159228768Y-57493873D01*
X159201150Y-57505406D01*
X159173940Y-57518204D01*
X159147202Y-57532265D01*
X159120997Y-57547584D01*
X159095389Y-57564159D01*
X159070439Y-57581987D01*
X159046212Y-57601064D01*
X159022770Y-57621387D01*
X159000174Y-57642952D01*
X158978489Y-57665757D01*
X158957776Y-57689798D01*
X158938099Y-57715071D01*
X158919519Y-57741574D01*
X158902101Y-57769304D01*
X158885906Y-57798256D01*
X158870996Y-57828428D01*
X158857436Y-57859817D01*
X158845287Y-57892419D01*
X158834613Y-57926231D01*
X158825475Y-57961249D01*
X158817937Y-57997470D01*
X158812061Y-58034892D01*
X158807911Y-58073511D01*
X158805547Y-58113323D01*
X158806413Y-58163467D01*
X158812502Y-58216779D01*
X158823856Y-58272410D01*
X158840521Y-58329511D01*
X158862540Y-58387233D01*
X158889956Y-58444726D01*
X158905702Y-58473122D01*
X158922814Y-58501142D01*
X158941298Y-58528680D01*
X158961158Y-58555631D01*
X158982400Y-58581887D01*
X159005030Y-58607343D01*
X159029053Y-58631894D01*
X159054475Y-58655431D01*
X159081301Y-58677850D01*
X159109536Y-58699045D01*
X159139187Y-58718908D01*
X159170258Y-58737335D01*
X159202755Y-58754219D01*
X159236684Y-58769453D01*
X159272050Y-58782932D01*
X159308858Y-58794549D01*
X159347114Y-58804198D01*
X159386824Y-58811774D01*
X159427992Y-58817170D01*
X159470625Y-58820280D01*
X159494708Y-58820976D01*
X159518563Y-58820920D01*
X159542175Y-58820124D01*
X159565530Y-58818601D01*
X159588613Y-58816364D01*
X159611408Y-58813427D01*
X159633903Y-58809802D01*
X159656081Y-58805502D01*
X159677929Y-58800540D01*
X159699431Y-58794930D01*
X159720573Y-58788684D01*
X159741339Y-58781815D01*
X159761717Y-58774337D01*
X159781690Y-58766261D01*
X159801243Y-58757603D01*
X159820364Y-58748373D01*
X159839036Y-58738586D01*
X159857244Y-58728254D01*
X159874975Y-58717391D01*
X159892214Y-58706009D01*
X159908945Y-58694121D01*
X159925155Y-58681741D01*
X159940828Y-58668881D01*
X159955950Y-58655554D01*
X159970506Y-58641774D01*
X159984481Y-58627554D01*
X159997861Y-58612906D01*
X160010632Y-58597843D01*
X160022777Y-58582379D01*
X160034283Y-58566526D01*
X160045135Y-58550298D01*
X160055319Y-58533707D01*
X160061081Y-58580295D01*
X160066993Y-58621731D01*
X160073246Y-58658585D01*
X160080035Y-58691424D01*
X160083689Y-58706515D01*
X160087550Y-58720816D01*
X160091641Y-58734398D01*
X160095986Y-58747330D01*
X160100608Y-58759686D01*
X160105534Y-58771534D01*
X160110785Y-58782948D01*
X160116387Y-58793997D01*
X160122364Y-58804752D01*
X160128739Y-58815285D01*
X160135536Y-58825667D01*
X160142781Y-58835968D01*
X160158706Y-58856614D01*
X160176708Y-58877791D01*
X160196978Y-58900068D01*
X160219710Y-58924011D01*
X160273329Y-58979174D01*
X160200944Y-59037918D01*
X160126651Y-59089840D01*
X160050726Y-59135074D01*
X159973444Y-59173756D01*
X159895081Y-59206019D01*
X159815913Y-59232000D01*
X159736215Y-59251832D01*
X159656265Y-59265652D01*
X159576337Y-59273593D01*
X159496707Y-59275791D01*
X159417651Y-59272380D01*
X159339446Y-59263496D01*
X159262366Y-59249273D01*
X159186688Y-59229846D01*
X159112688Y-59205351D01*
X159040642Y-59175922D01*
X158970824Y-59141693D01*
X158903512Y-59102800D01*
X158838981Y-59059379D01*
X158777506Y-59011562D01*
X158719365Y-58959487D01*
X158664832Y-58903286D01*
X158614183Y-58843096D01*
X158567695Y-58779051D01*
X158525642Y-58711287D01*
X158488302Y-58639937D01*
X158455950Y-58565138D01*
X158428861Y-58487023D01*
X158407312Y-58405727D01*
X158391578Y-58321387D01*
X158381935Y-58234136D01*
X158378660Y-58144109D01*
X158380331Y-58084648D01*
X158385268Y-58026223D01*
X158393359Y-57968888D01*
X158404492Y-57912698D01*
X158418555Y-57857707D01*
X158435435Y-57803969D01*
X158455021Y-57751539D01*
X158477200Y-57700470D01*
X158501860Y-57650818D01*
X158528889Y-57602637D01*
X158558174Y-57555980D01*
X158589603Y-57510903D01*
X158623065Y-57467459D01*
X158658447Y-57425703D01*
X158695636Y-57385689D01*
X158734521Y-57347471D01*
X158774989Y-57311104D01*
X158816928Y-57276642D01*
X158860226Y-57244140D01*
X158904770Y-57213651D01*
X158950449Y-57185231D01*
X158997151Y-57158932D01*
X159044762Y-57134811D01*
X159093171Y-57112920D01*
X159142266Y-57093314D01*
X159191935Y-57076049D01*
X159242064Y-57061177D01*
X159292543Y-57048753D01*
X159343258Y-57038832D01*
X159394098Y-57031467D01*
X159444950Y-57026714D01*
X159495702Y-57024626D01*
X159548578Y-57025124D01*
G37*
D10*
X96000000Y-77000000D02*
X96000000Y-79000000D01*
X100000000Y-77000000D02*
X100000000Y-79000000D01*
M02*
