%TF.GenerationSoftware,KiCad,Pcbnew,9.0.7*%
%TF.CreationDate,2026-09-03T18:25:39+01:00*%
%TF.ProjectId,Ruler,52756c65-722e-46b6-9963-61645f706362,rev?*%
%TF.SameCoordinates,Original*%
%TF.FileFunction,Profile,NP*%
%FSLAX46Y46*%
G04 Gerber Fmt 4.6, Leading zero omitted, Abs format (unit mm)*
G04 Created by KiCad (PCBNEW 9.0.7) date 2026-09-03 18:25:39*
%MOMM*%
%LPD*%
G01*
G04 APERTURE LIST*
%TA.AperFunction,Profile*%
%ADD10C,0.050000*%
%TD*%
G04 APERTURE END LIST*
D10*
X148700000Y-49950000D02*
G75*
G02*
X147800000Y-49950000I-450000J0D01*
G01*
X147800000Y-49950000D02*
G75*
G02*
X148700000Y-49950000I450000J0D01*
G01*
X144650000Y-50150000D02*
G75*
G02*
X143350000Y-50150000I-650000J0D01*
G01*
X143350000Y-50150000D02*
G75*
G02*
X144650000Y-50150000I650000J0D01*
G01*
X149900000Y-49900000D02*
G75*
G02*
X149100000Y-49900000I-400000J0D01*
G01*
X149100000Y-49900000D02*
G75*
G02*
X149900000Y-49900000I400000J0D01*
G01*
X150850000Y-49850000D02*
G75*
G02*
X150150000Y-49850000I-350000J0D01*
G01*
X150150000Y-49850000D02*
G75*
G02*
X150850000Y-49850000I350000J0D01*
G01*
X257000000Y-65500000D02*
G75*
G02*
X257000000Y-60500000I0J2500000D01*
G01*
X136000000Y-50500000D02*
G75*
G02*
X134000000Y-50500000I-1000000J0D01*
G01*
X134000000Y-50500000D02*
G75*
G02*
X136000000Y-50500000I1000000J0D01*
G01*
X257000000Y-79000000D02*
X257000000Y-65500000D01*
X147500000Y-50000000D02*
G75*
G02*
X146500000Y-50000000I-500000J0D01*
G01*
X146500000Y-50000000D02*
G75*
G02*
X147500000Y-50000000I500000J0D01*
G01*
X140800000Y-50300000D02*
G75*
G02*
X139200000Y-50300000I-800000J0D01*
G01*
X139200000Y-50300000D02*
G75*
G02*
X140800000Y-50300000I800000J0D01*
G01*
X154725000Y-49750000D02*
G75*
G02*
X154275000Y-49750000I-225000J0D01*
G01*
X154275000Y-49750000D02*
G75*
G02*
X154725000Y-49750000I225000J0D01*
G01*
X151800000Y-49800000D02*
G75*
G02*
X151200000Y-49800000I-300000J0D01*
G01*
X151200000Y-49800000D02*
G75*
G02*
X151800000Y-49800000I300000J0D01*
G01*
X142750000Y-50250000D02*
G75*
G02*
X141250000Y-50250000I-750000J0D01*
G01*
X141250000Y-50250000D02*
G75*
G02*
X142750000Y-50250000I750000J0D01*
G01*
X146100000Y-50100000D02*
G75*
G02*
X144900000Y-50100000I-600000J0D01*
G01*
X144900000Y-50100000D02*
G75*
G02*
X146100000Y-50100000I600000J0D01*
G01*
X114500000Y-52500000D02*
G75*
G02*
X108500000Y-52500000I-3000000J0D01*
G01*
X108500000Y-52500000D02*
G75*
G02*
X114500000Y-52500000I3000000J0D01*
G01*
X52000000Y-47000000D02*
X257000000Y-47000000D01*
X125500000Y-51500000D02*
G75*
G02*
X121500000Y-51500000I-2000000J0D01*
G01*
X121500000Y-51500000D02*
G75*
G02*
X125500000Y-51500000I2000000J0D01*
G01*
X257000000Y-47000000D02*
X257000000Y-60500000D01*
X133000000Y-50750000D02*
G75*
G02*
X130500000Y-50750000I-1250000J0D01*
G01*
X130500000Y-50750000D02*
G75*
G02*
X133000000Y-50750000I1250000J0D01*
G01*
X138500000Y-50400000D02*
G75*
G02*
X136700000Y-50400000I-900000J0D01*
G01*
X136700000Y-50400000D02*
G75*
G02*
X138500000Y-50400000I900000J0D01*
G01*
X129500000Y-51000000D02*
G75*
G02*
X126500000Y-51000000I-1500000J0D01*
G01*
X126500000Y-51000000D02*
G75*
G02*
X129500000Y-51000000I1500000J0D01*
G01*
X153755000Y-49750000D02*
G75*
G02*
X153245000Y-49750000I-255000J0D01*
G01*
X153245000Y-49750000D02*
G75*
G02*
X153755000Y-49750000I255000J0D01*
G01*
X257000000Y-79000000D02*
X52000000Y-79000000D01*
X152785000Y-49800000D02*
G75*
G02*
X152215000Y-49800000I-285000J0D01*
G01*
X152215000Y-49800000D02*
G75*
G02*
X152785000Y-49800000I285000J0D01*
G01*
X52000000Y-79000000D02*
X52000000Y-47000000D01*
X120500000Y-52000000D02*
G75*
G02*
X115500000Y-52000000I-2500000J0D01*
G01*
X115500000Y-52000000D02*
G75*
G02*
X120500000Y-52000000I2500000J0D01*
G01*
M02*
