%TF.GenerationSoftware,KiCad,Pcbnew,9.0.7*%
%TF.CreationDate,2026-09-03T18:25:39+01:00*%
%TF.ProjectId,Ruler,52756c65-722e-46b6-9963-61645f706362,rev?*%
%TF.SameCoordinates,Original*%
%TF.FileFunction,Copper,L2,Bot*%
%TF.FilePolarity,Positive*%
%FSLAX46Y46*%
G04 Gerber Fmt 4.6, Leading zero omitted, Abs format (unit mm)*
G04 Created by KiCad (PCBNEW 9.0.7) date 2026-09-03 18:25:39*
%MOMM*%
%LPD*%
G01*
G04 APERTURE LIST*
G04 Aperture macros list*
%AMRoundRect*
0 Rectangle with rounded corners*
0 $1 Rounding radius*
0 $2 $3 $4 $5 $6 $7 $8 $9 X,Y pos of 4 corners*
0 Add a 4 corners polygon primitive as box body*
4,1,4,$2,$3,$4,$5,$6,$7,$8,$9,$2,$3,0*
0 Add four circle primitives for the rounded corners*
1,1,$1+$1,$2,$3*
1,1,$1+$1,$4,$5*
1,1,$1+$1,$6,$7*
1,1,$1+$1,$8,$9*
0 Add four rect primitives between the rounded corners*
20,1,$1+$1,$2,$3,$4,$5,0*
20,1,$1+$1,$4,$5,$6,$7,0*
20,1,$1+$1,$6,$7,$8,$9,0*
20,1,$1+$1,$8,$9,$2,$3,0*%
G04 Aperture macros list end*
%TA.AperFunction,NonConductor*%
%ADD10C,0.000000*%
%TD*%
%TA.AperFunction,SMDPad,CuDef*%
%ADD11RoundRect,0.250000X0.300000X-2.050000X0.300000X2.050000X-0.300000X2.050000X-0.300000X-2.050000X0*%
%TD*%
%TA.AperFunction,SMDPad,CuDef*%
%ADD12RoundRect,0.250002X5.149998X-4.449998X5.149998X4.449998X-5.149998X4.449998X-5.149998X-4.449998X0*%
%TD*%
%TA.AperFunction,SMDPad,CuDef*%
%ADD13RoundRect,0.075000X0.675000X0.075000X-0.675000X0.075000X-0.675000X-0.075000X0.675000X-0.075000X0*%
%TD*%
%TA.AperFunction,SMDPad,CuDef*%
%ADD14RoundRect,0.075000X0.075000X0.675000X-0.075000X0.675000X-0.075000X-0.675000X0.075000X-0.675000X0*%
%TD*%
%TA.AperFunction,SMDPad,CuDef*%
%ADD15RoundRect,0.200000X0.200000X0.275000X-0.200000X0.275000X-0.200000X-0.275000X0.200000X-0.275000X0*%
%TD*%
%TA.AperFunction,SMDPad,CuDef*%
%ADD16RoundRect,0.075000X-0.662500X-0.075000X0.662500X-0.075000X0.662500X0.075000X-0.662500X0.075000X0*%
%TD*%
%TA.AperFunction,SMDPad,CuDef*%
%ADD17C,2.000000*%
%TD*%
%TA.AperFunction,SMDPad,CuDef*%
%ADD18RoundRect,0.250000X0.262500X0.450000X-0.262500X0.450000X-0.262500X-0.450000X0.262500X-0.450000X0*%
%TD*%
%TA.AperFunction,SMDPad,CuDef*%
%ADD19RoundRect,0.135000X0.135000X0.185000X-0.135000X0.185000X-0.135000X-0.185000X0.135000X-0.185000X0*%
%TD*%
%TA.AperFunction,SMDPad,CuDef*%
%ADD20RoundRect,0.250000X0.312500X0.625000X-0.312500X0.625000X-0.312500X-0.625000X0.312500X-0.625000X0*%
%TD*%
%TA.AperFunction,SMDPad,CuDef*%
%ADD21RoundRect,0.075000X0.725000X0.075000X-0.725000X0.075000X-0.725000X-0.075000X0.725000X-0.075000X0*%
%TD*%
%TA.AperFunction,SMDPad,CuDef*%
%ADD22RoundRect,0.075000X0.075000X0.725000X-0.075000X0.725000X-0.075000X-0.725000X0.075000X-0.725000X0*%
%TD*%
%TA.AperFunction,SMDPad,CuDef*%
%ADD23RoundRect,0.150000X-0.587500X-0.150000X0.587500X-0.150000X0.587500X0.150000X-0.587500X0.150000X0*%
%TD*%
%TA.AperFunction,SMDPad,CuDef*%
%ADD24RoundRect,0.250000X0.362500X1.075000X-0.362500X1.075000X-0.362500X-1.075000X0.362500X-1.075000X0*%
%TD*%
%TA.AperFunction,SMDPad,CuDef*%
%ADD25RoundRect,0.100000X0.130000X0.100000X-0.130000X0.100000X-0.130000X-0.100000X0.130000X-0.100000X0*%
%TD*%
%TA.AperFunction,SMDPad,CuDef*%
%ADD26RoundRect,0.125000X0.625000X0.125000X-0.625000X0.125000X-0.625000X-0.125000X0.625000X-0.125000X0*%
%TD*%
%TA.AperFunction,SMDPad,CuDef*%
%ADD27RoundRect,0.125000X0.125000X0.625000X-0.125000X0.625000X-0.125000X-0.625000X0.125000X-0.625000X0*%
%TD*%
%TA.AperFunction,SMDPad,CuDef*%
%ADD28RoundRect,0.050000X0.387500X0.050000X-0.387500X0.050000X-0.387500X-0.050000X0.387500X-0.050000X0*%
%TD*%
%TA.AperFunction,SMDPad,CuDef*%
%ADD29RoundRect,0.050000X0.050000X0.387500X-0.050000X0.387500X-0.050000X-0.387500X0.050000X-0.387500X0*%
%TD*%
%TA.AperFunction,HeatsinkPad*%
%ADD30R,3.200000X3.200000*%
%TD*%
%TA.AperFunction,SMDPad,CuDef*%
%ADD31RoundRect,0.250000X0.312500X1.075000X-0.312500X1.075000X-0.312500X-1.075000X0.312500X-1.075000X0*%
%TD*%
%TA.AperFunction,Conductor*%
%ADD32C,0.200000*%
%TD*%
%TA.AperFunction,Conductor*%
%ADD33C,0.250000*%
%TD*%
%TA.AperFunction,Conductor*%
%ADD34C,0.300000*%
%TD*%
%TA.AperFunction,Conductor*%
%ADD35C,0.400000*%
%TD*%
%TA.AperFunction,Conductor*%
%ADD36C,0.760000*%
%TD*%
%TA.AperFunction,Conductor*%
%ADD37C,0.800000*%
%TD*%
%TA.AperFunction,Conductor*%
%ADD38C,0.700000*%
%TD*%
%TA.AperFunction,Conductor*%
%ADD39C,0.350000*%
%TD*%
%TA.AperFunction,Conductor*%
%ADD40C,0.600000*%
%TD*%
%TA.AperFunction,Conductor*%
%ADD41C,0.450000*%
%TD*%
%TA.AperFunction,Conductor*%
%ADD42C,0.500000*%
%TD*%
%TA.AperFunction,Conductor*%
%ADD43C,0.150000*%
%TD*%
G04 APERTURE END LIST*
D10*
%TA.AperFunction,NonConductor*%
G36*
X117866914Y-62606289D02*
G01*
X118868696Y-62667483D01*
X119818353Y-62744852D01*
X120713618Y-62837828D01*
X121552224Y-62945841D01*
X122331902Y-63068322D01*
X123050386Y-63204703D01*
X123705407Y-63354415D01*
X124294699Y-63516888D01*
X124563988Y-63602733D01*
X124815994Y-63691555D01*
X125050434Y-63783283D01*
X125267024Y-63877846D01*
X125465481Y-63975173D01*
X125645522Y-64075193D01*
X125806863Y-64177834D01*
X125949221Y-64283026D01*
X126072312Y-64390697D01*
X126175853Y-64500776D01*
X126259560Y-64613193D01*
X126323150Y-64727876D01*
X126366340Y-64844754D01*
X126388845Y-64963755D01*
X126388292Y-65088836D01*
X126365341Y-65214575D01*
X126320301Y-65340853D01*
X126253477Y-65467551D01*
X126055703Y-65721729D01*
X125774472Y-65976155D01*
X125412233Y-66229876D01*
X124971439Y-66481939D01*
X124454540Y-66731389D01*
X123863989Y-66977273D01*
X123202235Y-67218637D01*
X122471731Y-67454527D01*
X121674927Y-67683990D01*
X120814275Y-67906072D01*
X119892226Y-68119820D01*
X118911231Y-68324279D01*
X117873742Y-68518496D01*
X116782209Y-68701518D01*
X115973936Y-68825177D01*
X115149572Y-68940959D01*
X114310904Y-69048663D01*
X113459721Y-69148093D01*
X112597807Y-69239050D01*
X111726951Y-69321335D01*
X110848940Y-69394752D01*
X109965559Y-69459101D01*
X108352614Y-69550775D01*
X106755389Y-69610127D01*
X105184922Y-69636855D01*
X103652250Y-69630656D01*
X102483592Y-69602732D01*
X101367447Y-69555150D01*
X100306754Y-69488575D01*
X99304450Y-69403671D01*
X98363473Y-69301103D01*
X97486760Y-69181536D01*
X96677249Y-69045636D01*
X95937878Y-68894066D01*
X95271583Y-68727493D01*
X94966758Y-68638787D01*
X94681304Y-68546580D01*
X94415588Y-68450954D01*
X94169977Y-68351993D01*
X93944838Y-68249780D01*
X93740539Y-68144397D01*
X93557448Y-68035928D01*
X93395930Y-67924456D01*
X93256353Y-67810064D01*
X93139085Y-67692835D01*
X93044493Y-67572853D01*
X92972943Y-67450200D01*
X92924804Y-67324959D01*
X92900442Y-67197215D01*
X92900517Y-67069524D01*
X92923932Y-66941161D01*
X92970358Y-66812252D01*
X93039463Y-66682924D01*
X93244388Y-66423512D01*
X93536064Y-66163936D01*
X93911845Y-65905204D01*
X94369087Y-65648328D01*
X94905143Y-65394315D01*
X95517369Y-65144175D01*
X96203121Y-64898919D01*
X96959752Y-64659555D01*
X97784618Y-64427093D01*
X98675074Y-64202543D01*
X99628475Y-63986915D01*
X100642175Y-63781217D01*
X101713530Y-63586459D01*
X102839895Y-63403651D01*
X102773534Y-63626759D01*
X102714169Y-63851658D01*
X102661830Y-64078182D01*
X102616547Y-64306164D01*
X102578351Y-64535441D01*
X102547272Y-64765846D01*
X102523338Y-64997214D01*
X102506582Y-65229380D01*
X102237348Y-65301157D01*
X101984393Y-65373832D01*
X101747925Y-65447294D01*
X101528150Y-65521433D01*
X101325277Y-65596138D01*
X101230243Y-65633668D01*
X101139512Y-65671299D01*
X101053111Y-65709015D01*
X100971064Y-65746804D01*
X100893398Y-65784652D01*
X100820139Y-65822545D01*
X100751312Y-65860468D01*
X100686945Y-65898409D01*
X100627061Y-65936353D01*
X100571689Y-65974286D01*
X100520852Y-66012196D01*
X100474578Y-66050067D01*
X100432893Y-66087886D01*
X100395821Y-66125639D01*
X100363389Y-66163313D01*
X100335624Y-66200893D01*
X100312550Y-66238367D01*
X100294195Y-66275719D01*
X100280583Y-66312936D01*
X100271740Y-66350004D01*
X100267694Y-66386910D01*
X100268469Y-66423640D01*
X100286484Y-66495661D01*
X100323374Y-66566242D01*
X100378918Y-66635297D01*
X100452893Y-66702741D01*
X100545076Y-66768488D01*
X100655245Y-66832454D01*
X100783178Y-66894553D01*
X100928652Y-66954699D01*
X101091445Y-67012808D01*
X101271334Y-67068793D01*
X101468097Y-67122570D01*
X101681512Y-67174053D01*
X101911357Y-67223157D01*
X102157408Y-67269797D01*
X102419443Y-67313887D01*
X102697241Y-67355342D01*
X103450360Y-67446155D01*
X104275767Y-67517485D01*
X105164789Y-67569136D01*
X106108755Y-67600913D01*
X107098994Y-67612621D01*
X108126834Y-67604066D01*
X109183605Y-67575052D01*
X110260633Y-67525386D01*
X111274222Y-67459716D01*
X112266667Y-67377811D01*
X113230729Y-67280616D01*
X114159164Y-67169074D01*
X115044733Y-67044129D01*
X115880192Y-66906726D01*
X116658300Y-66757810D01*
X117371817Y-66598323D01*
X117672196Y-66523342D01*
X117954626Y-66447223D01*
X118218842Y-66370096D01*
X118464584Y-66292093D01*
X118691589Y-66213348D01*
X118797983Y-66173737D01*
X118899595Y-66133991D01*
X118996392Y-66094124D01*
X119088341Y-66054155D01*
X119175409Y-66014098D01*
X119257564Y-65973971D01*
X119334772Y-65933790D01*
X119407002Y-65893572D01*
X119474220Y-65853333D01*
X119536394Y-65813090D01*
X119593490Y-65772859D01*
X119645477Y-65732657D01*
X119692321Y-65692499D01*
X119733990Y-65652404D01*
X119770450Y-65612387D01*
X119801670Y-65572464D01*
X119827616Y-65532653D01*
X119848256Y-65492969D01*
X119863556Y-65453429D01*
X119873485Y-65414050D01*
X119878009Y-65374849D01*
X119877096Y-65335841D01*
X119857769Y-65262746D01*
X119818979Y-65191149D01*
X119760961Y-65121140D01*
X119683955Y-65052806D01*
X119588196Y-64986237D01*
X119473923Y-64921522D01*
X119341373Y-64858749D01*
X119190782Y-64798007D01*
X119022389Y-64739385D01*
X118836431Y-64682972D01*
X118633144Y-64628856D01*
X118412767Y-64577128D01*
X118175536Y-64527874D01*
X117921689Y-64481185D01*
X117651463Y-64437148D01*
X117365095Y-64395854D01*
X117322261Y-64159515D01*
X117271923Y-63924850D01*
X117214135Y-63692033D01*
X117148948Y-63461241D01*
X117076415Y-63232651D01*
X116996591Y-63006439D01*
X116909526Y-62782781D01*
X116815275Y-62561854D01*
X116815275Y-62561839D01*
X117866914Y-62606289D01*
G37*
%TD.AperFunction*%
D11*
%TO.P,REF\u002A\u002A,3*%
%TO.N,N/C*%
X233886000Y-72904000D03*
D12*
%TO.P,REF\u002A\u002A,2*%
X236426000Y-63754000D03*
D11*
%TO.P,REF\u002A\u002A,1*%
X238966000Y-72904000D03*
%TD*%
D13*
%TO.P,U3,1,P0.0*%
%TO.N,unconnected-(U3-P0.0-Pad1)*%
X231625000Y-51150000D03*
%TO.P,U3,2,GND*%
%TO.N,unconnected-(U3-GND-Pad2)*%
X231625000Y-51650000D03*
%TO.P,U3,3,VIO*%
%TO.N,unconnected-(U3-VIO-Pad3)*%
X231625000Y-52150000D03*
%TO.P,U3,4,VDD*%
%TO.N,unconnected-(U3-VDD-Pad4)*%
X231625000Y-52650000D03*
%TO.P,U3,5,~{RST}*%
%TO.N,unconnected-(U3-~{RST}-Pad5)*%
X231625000Y-53150000D03*
%TO.P,U3,6,P3.7*%
%TO.N,unconnected-(U3-P3.7-Pad6)*%
X231625000Y-53650000D03*
%TO.P,U3,7,P3.3*%
%TO.N,unconnected-(U3-P3.3-Pad7)*%
X231625000Y-54150000D03*
%TO.P,U3,8,P3.2*%
%TO.N,unconnected-(U3-P3.2-Pad8)*%
X231625000Y-54650000D03*
D14*
%TO.P,U3,9,P3.1*%
%TO.N,unconnected-(U3-P3.1-Pad9)*%
X230200000Y-56075000D03*
%TO.P,U3,10,P3.0*%
%TO.N,unconnected-(U3-P3.0-Pad10)*%
X229700000Y-56075000D03*
%TO.P,U3,11,P2.6*%
%TO.N,unconnected-(U3-P2.6-Pad11)*%
X229200000Y-56075000D03*
%TO.P,U3,12,P2.5*%
%TO.N,unconnected-(U3-P2.5-Pad12)*%
X228700000Y-56075000D03*
%TO.P,U3,13,P2.4*%
%TO.N,unconnected-(U3-P2.4-Pad13)*%
X228200000Y-56075000D03*
%TO.P,U3,14,P2.3*%
%TO.N,unconnected-(U3-P2.3-Pad14)*%
X227700000Y-56075000D03*
%TO.P,U3,15,P2.2*%
%TO.N,unconnected-(U3-P2.2-Pad15)*%
X227200000Y-56075000D03*
%TO.P,U3,16,P2.1*%
%TO.N,unconnected-(U3-P2.1-Pad16)*%
X226700000Y-56075000D03*
D13*
%TO.P,U3,17,P2.0*%
%TO.N,unconnected-(U3-P2.0-Pad17)*%
X225275000Y-54650000D03*
%TO.P,U3,18,P1.7*%
%TO.N,unconnected-(U3-P1.7-Pad18)*%
X225275000Y-54150000D03*
%TO.P,U3,19,P1.6*%
%TO.N,unconnected-(U3-P1.6-Pad19)*%
X225275000Y-53650000D03*
%TO.P,U3,20,P1.5*%
%TO.N,unconnected-(U3-P1.5-Pad20)*%
X225275000Y-53150000D03*
%TO.P,U3,21,P1.4*%
%TO.N,unconnected-(U3-P1.4-Pad21)*%
X225275000Y-52650000D03*
%TO.P,U3,22,P1.3*%
%TO.N,unconnected-(U3-P1.3-Pad22)*%
X225275000Y-52150000D03*
%TO.P,U3,23,P1.2*%
%TO.N,unconnected-(U3-P1.2-Pad23)*%
X225275000Y-51650000D03*
%TO.P,U3,24,P1.1*%
%TO.N,unconnected-(U3-P1.1-Pad24)*%
X225275000Y-51150000D03*
D14*
%TO.P,U3,25,P1.0*%
%TO.N,unconnected-(U3-P1.0-Pad25)*%
X226700000Y-49725000D03*
%TO.P,U3,26,P0.7*%
%TO.N,unconnected-(U3-P0.7-Pad26)*%
X227200000Y-49725000D03*
%TO.P,U3,27,P0.6*%
%TO.N,unconnected-(U3-P0.6-Pad27)*%
X227700000Y-49725000D03*
%TO.P,U3,28,P0.5*%
%TO.N,unconnected-(U3-P0.5-Pad28)*%
X228200000Y-49725000D03*
%TO.P,U3,29,P0.4*%
%TO.N,unconnected-(U3-P0.4-Pad29)*%
X228700000Y-49725000D03*
%TO.P,U3,30,P0.3*%
%TO.N,unconnected-(U3-P0.3-Pad30)*%
X229200000Y-49725000D03*
%TO.P,U3,31,P0.2*%
%TO.N,unconnected-(U3-P0.2-Pad31)*%
X229700000Y-49725000D03*
%TO.P,U3,32,P0.1*%
%TO.N,unconnected-(U3-P0.1-Pad32)*%
X230200000Y-49725000D03*
%TD*%
D15*
%TO.P,R3,1*%
%TO.N,unconnected-(R3-Pad1)*%
X251525000Y-61800000D03*
%TO.P,R3,2*%
%TO.N,unconnected-(R3-Pad2)*%
X249875000Y-61800000D03*
%TD*%
D16*
%TO.P,REF\u002A\u002A,1*%
%TO.N,N/C*%
X221625500Y-74138000D03*
%TO.P,REF\u002A\u002A,2*%
X221625500Y-73638000D03*
%TO.P,REF\u002A\u002A,3*%
X221625500Y-73138000D03*
%TO.P,REF\u002A\u002A,4*%
X221625500Y-72638000D03*
%TO.P,REF\u002A\u002A,5*%
X221625500Y-72138000D03*
%TO.P,REF\u002A\u002A,6*%
X221625500Y-71638000D03*
%TO.P,REF\u002A\u002A,7*%
X221625500Y-71138000D03*
%TO.P,REF\u002A\u002A,8*%
X221625500Y-70638000D03*
%TO.P,REF\u002A\u002A,9*%
X221625500Y-70138000D03*
%TO.P,REF\u002A\u002A,10*%
X221625500Y-69638000D03*
%TO.P,REF\u002A\u002A,11*%
X227350500Y-69638000D03*
%TO.P,REF\u002A\u002A,12*%
X227350500Y-70138000D03*
%TO.P,REF\u002A\u002A,13*%
X227350500Y-70638000D03*
%TO.P,REF\u002A\u002A,14*%
X227350500Y-71138000D03*
%TO.P,REF\u002A\u002A,15*%
X227350500Y-71638000D03*
%TO.P,REF\u002A\u002A,16*%
X227350500Y-72138000D03*
%TO.P,REF\u002A\u002A,17*%
X227350500Y-72638000D03*
%TO.P,REF\u002A\u002A,18*%
X227350500Y-73138000D03*
%TO.P,REF\u002A\u002A,19*%
X227350500Y-73638000D03*
%TO.P,REF\u002A\u002A,20*%
X227350500Y-74138000D03*
%TD*%
D17*
%TO.P,REF\u002A\u002A,1*%
%TO.N,N/C*%
X216308000Y-68622000D03*
X209808000Y-68622000D03*
%TO.P,REF\u002A\u002A,2*%
X216308000Y-73122000D03*
X209808000Y-73122000D03*
%TD*%
D18*
%TO.P,R4,1*%
%TO.N,unconnected-(R4-Pad1)*%
X251412500Y-63700000D03*
%TO.P,R4,2*%
%TO.N,unconnected-(R4-Pad2)*%
X249587500Y-63700000D03*
%TD*%
D19*
%TO.P,R2,1*%
%TO.N,unconnected-(R2-Pad1)*%
X251810000Y-60300000D03*
%TO.P,R2,2*%
%TO.N,unconnected-(R2-Pad2)*%
X250790000Y-60300000D03*
%TD*%
D20*
%TO.P,R5,1*%
%TO.N,unconnected-(R5-Pad1)*%
X251362500Y-66000000D03*
%TO.P,R5,2*%
%TO.N,unconnected-(R5-Pad2)*%
X248437500Y-66000000D03*
%TD*%
D21*
%TO.P,U4,1,PE2*%
%TO.N,unconnected-(U4-PE2-Pad1)*%
X222425000Y-50250000D03*
%TO.P,U4,2,PE3*%
%TO.N,unconnected-(U4-PE3-Pad2)*%
X222425000Y-50750000D03*
%TO.P,U4,3,PE4*%
%TO.N,unconnected-(U4-PE4-Pad3)*%
X222425000Y-51250000D03*
%TO.P,U4,4,PE5*%
%TO.N,unconnected-(U4-PE5-Pad4)*%
X222425000Y-51750000D03*
%TO.P,U4,5,PE6*%
%TO.N,unconnected-(U4-PE6-Pad5)*%
X222425000Y-52250000D03*
%TO.P,U4,6,VBAT*%
%TO.N,unconnected-(U4-VBAT-Pad6)*%
X222425000Y-52750000D03*
%TO.P,U4,7,PC13*%
%TO.N,unconnected-(U4-PC13-Pad7)*%
X222425000Y-53250000D03*
%TO.P,U4,8,PC14*%
%TO.N,unconnected-(U4-PC14-Pad8)*%
X222425000Y-53750000D03*
%TO.P,U4,9,PC15*%
%TO.N,unconnected-(U4-PC15-Pad9)*%
X222425000Y-54250000D03*
%TO.P,U4,10,PF9*%
%TO.N,unconnected-(U4-PF9-Pad10)*%
X222425000Y-54750000D03*
%TO.P,U4,11,PF10*%
%TO.N,unconnected-(U4-PF10-Pad11)*%
X222425000Y-55250000D03*
%TO.P,U4,12,PF0*%
%TO.N,unconnected-(U4-PF0-Pad12)*%
X222425000Y-55750000D03*
%TO.P,U4,13,PF1*%
%TO.N,unconnected-(U4-PF1-Pad13)*%
X222425000Y-56250000D03*
%TO.P,U4,14,NRST*%
%TO.N,unconnected-(U4-NRST-Pad14)*%
X222425000Y-56750000D03*
%TO.P,U4,15,PC0*%
%TO.N,unconnected-(U4-PC0-Pad15)*%
X222425000Y-57250000D03*
%TO.P,U4,16,PC1*%
%TO.N,unconnected-(U4-PC1-Pad16)*%
X222425000Y-57750000D03*
%TO.P,U4,17,PC2*%
%TO.N,unconnected-(U4-PC2-Pad17)*%
X222425000Y-58250000D03*
%TO.P,U4,18,PC3*%
%TO.N,unconnected-(U4-PC3-Pad18)*%
X222425000Y-58750000D03*
%TO.P,U4,19,PF2*%
%TO.N,unconnected-(U4-PF2-Pad19)*%
X222425000Y-59250000D03*
%TO.P,U4,20,VSSA*%
%TO.N,unconnected-(U4-VSSA-Pad20)*%
X222425000Y-59750000D03*
%TO.P,U4,21,VDDA*%
%TO.N,unconnected-(U4-VDDA-Pad21)*%
X222425000Y-60250000D03*
%TO.P,U4,22,PF3*%
%TO.N,unconnected-(U4-PF3-Pad22)*%
X222425000Y-60750000D03*
%TO.P,U4,23,PA0*%
%TO.N,unconnected-(U4-PA0-Pad23)*%
X222425000Y-61250000D03*
%TO.P,U4,24,PA1*%
%TO.N,unconnected-(U4-PA1-Pad24)*%
X222425000Y-61750000D03*
%TO.P,U4,25,PA2*%
%TO.N,unconnected-(U4-PA2-Pad25)*%
X222425000Y-62250000D03*
D22*
%TO.P,U4,26,PA3*%
%TO.N,unconnected-(U4-PA3-Pad26)*%
X220750000Y-63925000D03*
%TO.P,U4,27,VSS*%
%TO.N,Net-(U4-VSS-Pad27)*%
X220250000Y-63925000D03*
%TO.P,U4,28,VDD*%
%TO.N,unconnected-(U4-VDD-Pad28)*%
X219750000Y-63925000D03*
%TO.P,U4,29,PA4*%
%TO.N,unconnected-(U4-PA4-Pad29)*%
X219250000Y-63925000D03*
%TO.P,U4,30,PA5*%
%TO.N,unconnected-(U4-PA5-Pad30)*%
X218750000Y-63925000D03*
%TO.P,U4,31,PA6*%
%TO.N,unconnected-(U4-PA6-Pad31)*%
X218250000Y-63925000D03*
%TO.P,U4,32,PA7*%
%TO.N,unconnected-(U4-PA7-Pad32)*%
X217750000Y-63925000D03*
%TO.P,U4,33,PC4*%
%TO.N,unconnected-(U4-PC4-Pad33)*%
X217250000Y-63925000D03*
%TO.P,U4,34,PC5*%
%TO.N,unconnected-(U4-PC5-Pad34)*%
X216750000Y-63925000D03*
%TO.P,U4,35,PB0*%
%TO.N,unconnected-(U4-PB0-Pad35)*%
X216250000Y-63925000D03*
%TO.P,U4,36,PB1*%
%TO.N,unconnected-(U4-PB1-Pad36)*%
X215750000Y-63925000D03*
%TO.P,U4,37,PB2*%
%TO.N,unconnected-(U4-PB2-Pad37)*%
X215250000Y-63925000D03*
%TO.P,U4,38,PE7*%
%TO.N,unconnected-(U4-PE7-Pad38)*%
X214750000Y-63925000D03*
%TO.P,U4,39,PE8*%
%TO.N,unconnected-(U4-PE8-Pad39)*%
X214250000Y-63925000D03*
%TO.P,U4,40,PE9*%
%TO.N,unconnected-(U4-PE9-Pad40)*%
X213750000Y-63925000D03*
%TO.P,U4,41,PE10*%
%TO.N,unconnected-(U4-PE10-Pad41)*%
X213250000Y-63925000D03*
%TO.P,U4,42,PE11*%
%TO.N,unconnected-(U4-PE11-Pad42)*%
X212750000Y-63925000D03*
%TO.P,U4,43,PE12*%
%TO.N,unconnected-(U4-PE12-Pad43)*%
X212250000Y-63925000D03*
%TO.P,U4,44,PE13*%
%TO.N,unconnected-(U4-PE13-Pad44)*%
X211750000Y-63925000D03*
%TO.P,U4,45,PE14*%
%TO.N,unconnected-(U4-PE14-Pad45)*%
X211250000Y-63925000D03*
%TO.P,U4,46,PE15*%
%TO.N,unconnected-(U4-PE15-Pad46)*%
X210750000Y-63925000D03*
%TO.P,U4,47,PB10*%
%TO.N,unconnected-(U4-PB10-Pad47)*%
X210250000Y-63925000D03*
%TO.P,U4,48,PB11*%
%TO.N,unconnected-(U4-PB11-Pad48)*%
X209750000Y-63925000D03*
%TO.P,U4,49,VSS*%
%TO.N,Net-(U4-VSS-Pad27)*%
X209250000Y-63925000D03*
%TO.P,U4,50,VDD*%
%TO.N,unconnected-(U4-VDD-Pad50)*%
X208750000Y-63925000D03*
D21*
%TO.P,U4,51,PB12*%
%TO.N,unconnected-(U4-PB12-Pad51)*%
X207075000Y-62250000D03*
%TO.P,U4,52,PB13*%
%TO.N,unconnected-(U4-PB13-Pad52)*%
X207075000Y-61750000D03*
%TO.P,U4,53,PB14*%
%TO.N,unconnected-(U4-PB14-Pad53)*%
X207075000Y-61250000D03*
%TO.P,U4,54,PB15*%
%TO.N,unconnected-(U4-PB15-Pad54)*%
X207075000Y-60750000D03*
%TO.P,U4,55,PD8*%
%TO.N,unconnected-(U4-PD8-Pad55)*%
X207075000Y-60250000D03*
%TO.P,U4,56,PD9*%
%TO.N,unconnected-(U4-PD9-Pad56)*%
X207075000Y-59750000D03*
%TO.P,U4,57,PD10*%
%TO.N,unconnected-(U4-PD10-Pad57)*%
X207075000Y-59250000D03*
%TO.P,U4,58,PD11*%
%TO.N,unconnected-(U4-PD11-Pad58)*%
X207075000Y-58750000D03*
%TO.P,U4,59,PD12*%
%TO.N,unconnected-(U4-PD12-Pad59)*%
X207075000Y-58250000D03*
%TO.P,U4,60,PD13*%
%TO.N,unconnected-(U4-PD13-Pad60)*%
X207075000Y-57750000D03*
%TO.P,U4,61,PD14*%
%TO.N,unconnected-(U4-PD14-Pad61)*%
X207075000Y-57250000D03*
%TO.P,U4,62,PD15*%
%TO.N,unconnected-(U4-PD15-Pad62)*%
X207075000Y-56750000D03*
%TO.P,U4,63,PC6*%
%TO.N,unconnected-(U4-PC6-Pad63)*%
X207075000Y-56250000D03*
%TO.P,U4,64,PC7*%
%TO.N,unconnected-(U4-PC7-Pad64)*%
X207075000Y-55750000D03*
%TO.P,U4,65,PC8*%
%TO.N,unconnected-(U4-PC8-Pad65)*%
X207075000Y-55250000D03*
%TO.P,U4,66,PC9*%
%TO.N,unconnected-(U4-PC9-Pad66)*%
X207075000Y-54750000D03*
%TO.P,U4,67,PA8*%
%TO.N,unconnected-(U4-PA8-Pad67)*%
X207075000Y-54250000D03*
%TO.P,U4,68,PA9*%
%TO.N,unconnected-(U4-PA9-Pad68)*%
X207075000Y-53750000D03*
%TO.P,U4,69,PA10*%
%TO.N,unconnected-(U4-PA10-Pad69)*%
X207075000Y-53250000D03*
%TO.P,U4,70,PA11*%
%TO.N,unconnected-(U4-PA11-Pad70)*%
X207075000Y-52750000D03*
%TO.P,U4,71,PA12*%
%TO.N,unconnected-(U4-PA12-Pad71)*%
X207075000Y-52250000D03*
%TO.P,U4,72,PA13*%
%TO.N,unconnected-(U4-PA13-Pad72)*%
X207075000Y-51750000D03*
%TO.P,U4,73,PF6*%
%TO.N,unconnected-(U4-PF6-Pad73)*%
X207075000Y-51250000D03*
%TO.P,U4,74,VSS*%
%TO.N,Net-(U4-VSS-Pad27)*%
X207075000Y-50750000D03*
%TO.P,U4,75,VDDIO2*%
%TO.N,unconnected-(U4-VDDIO2-Pad75)*%
X207075000Y-50250000D03*
D22*
%TO.P,U4,76,PA14*%
%TO.N,unconnected-(U4-PA14-Pad76)*%
X208750000Y-48575000D03*
%TO.P,U4,77,PA15*%
%TO.N,unconnected-(U4-PA15-Pad77)*%
X209250000Y-48575000D03*
%TO.P,U4,78,PC10*%
%TO.N,unconnected-(U4-PC10-Pad78)*%
X209750000Y-48575000D03*
%TO.P,U4,79,PC11*%
%TO.N,unconnected-(U4-PC11-Pad79)*%
X210250000Y-48575000D03*
%TO.P,U4,80,PC12*%
%TO.N,unconnected-(U4-PC12-Pad80)*%
X210750000Y-48575000D03*
%TO.P,U4,81,PD0*%
%TO.N,unconnected-(U4-PD0-Pad81)*%
X211250000Y-48575000D03*
%TO.P,U4,82,PD1*%
%TO.N,unconnected-(U4-PD1-Pad82)*%
X211750000Y-48575000D03*
%TO.P,U4,83,PD2*%
%TO.N,unconnected-(U4-PD2-Pad83)*%
X212250000Y-48575000D03*
%TO.P,U4,84,PD3*%
%TO.N,unconnected-(U4-PD3-Pad84)*%
X212750000Y-48575000D03*
%TO.P,U4,85,PD4*%
%TO.N,unconnected-(U4-PD4-Pad85)*%
X213250000Y-48575000D03*
%TO.P,U4,86,PD5*%
%TO.N,unconnected-(U4-PD5-Pad86)*%
X213750000Y-48575000D03*
%TO.P,U4,87,PD6*%
%TO.N,unconnected-(U4-PD6-Pad87)*%
X214250000Y-48575000D03*
%TO.P,U4,88,PD7*%
%TO.N,unconnected-(U4-PD7-Pad88)*%
X214750000Y-48575000D03*
%TO.P,U4,89,PB3*%
%TO.N,unconnected-(U4-PB3-Pad89)*%
X215250000Y-48575000D03*
%TO.P,U4,90,PB4*%
%TO.N,unconnected-(U4-PB4-Pad90)*%
X215750000Y-48575000D03*
%TO.P,U4,91,PB5*%
%TO.N,unconnected-(U4-PB5-Pad91)*%
X216250000Y-48575000D03*
%TO.P,U4,92,PB6*%
%TO.N,unconnected-(U4-PB6-Pad92)*%
X216750000Y-48575000D03*
%TO.P,U4,93,PB7*%
%TO.N,unconnected-(U4-PB7-Pad93)*%
X217250000Y-48575000D03*
%TO.P,U4,94,BOOT0*%
%TO.N,unconnected-(U4-BOOT0-Pad94)*%
X217750000Y-48575000D03*
%TO.P,U4,95,PB8*%
%TO.N,unconnected-(U4-PB8-Pad95)*%
X218250000Y-48575000D03*
%TO.P,U4,96,PB9*%
%TO.N,unconnected-(U4-PB9-Pad96)*%
X218750000Y-48575000D03*
%TO.P,U4,97,PE0*%
%TO.N,unconnected-(U4-PE0-Pad97)*%
X219250000Y-48575000D03*
%TO.P,U4,98,PE1*%
%TO.N,unconnected-(U4-PE1-Pad98)*%
X219750000Y-48575000D03*
%TO.P,U4,99,VSS*%
%TO.N,Net-(U4-VSS-Pad27)*%
X220250000Y-48575000D03*
%TO.P,U4,100,VDD*%
%TO.N,unconnected-(U4-VDD-Pad100)*%
X220750000Y-48575000D03*
%TD*%
D23*
%TO.P,REF\u002A\u002A,1*%
%TO.N,N/C*%
X225758000Y-64014000D03*
%TO.P,REF\u002A\u002A,2*%
X225758000Y-62114000D03*
%TO.P,REF\u002A\u002A,3*%
X227633000Y-63064000D03*
%TD*%
D24*
%TO.P,R7,1*%
%TO.N,unconnected-(R7-Pad1)*%
X251312500Y-72500000D03*
%TO.P,R7,2*%
%TO.N,unconnected-(R7-Pad2)*%
X246687500Y-72500000D03*
%TD*%
D25*
%TO.P,R1,1*%
%TO.N,unconnected-(R1-Pad1)*%
X251820000Y-58800000D03*
%TO.P,R1,2*%
%TO.N,unconnected-(R1-Pad2)*%
X251180000Y-58800000D03*
%TD*%
D26*
%TO.P,U2,1,P0.0*%
%TO.N,unconnected-(U2-P0.0-Pad1)*%
X242825000Y-50025000D03*
%TO.P,U2,2,GND*%
%TO.N,unconnected-(U2-GND-Pad2)*%
X242825000Y-50825000D03*
%TO.P,U2,3,VIO*%
%TO.N,unconnected-(U2-VIO-Pad3)*%
X242825000Y-51625000D03*
%TO.P,U2,4,VDD*%
%TO.N,unconnected-(U2-VDD-Pad4)*%
X242825000Y-52425000D03*
%TO.P,U2,5,~{RST}*%
%TO.N,unconnected-(U2-~{RST}-Pad5)*%
X242825000Y-53225000D03*
%TO.P,U2,6,P3.7*%
%TO.N,unconnected-(U2-P3.7-Pad6)*%
X242825000Y-54025000D03*
%TO.P,U2,7,P3.3*%
%TO.N,unconnected-(U2-P3.3-Pad7)*%
X242825000Y-54825000D03*
%TO.P,U2,8,P3.2*%
%TO.N,unconnected-(U2-P3.2-Pad8)*%
X242825000Y-55625000D03*
D27*
%TO.P,U2,9,P3.1*%
%TO.N,unconnected-(U2-P3.1-Pad9)*%
X241450000Y-57000000D03*
%TO.P,U2,10,P3.0*%
%TO.N,unconnected-(U2-P3.0-Pad10)*%
X240650000Y-57000000D03*
%TO.P,U2,11,P2.6*%
%TO.N,unconnected-(U2-P2.6-Pad11)*%
X239850000Y-57000000D03*
%TO.P,U2,12,P2.5*%
%TO.N,unconnected-(U2-P2.5-Pad12)*%
X239050000Y-57000000D03*
%TO.P,U2,13,P2.4*%
%TO.N,unconnected-(U2-P2.4-Pad13)*%
X238250000Y-57000000D03*
%TO.P,U2,14,P2.3*%
%TO.N,unconnected-(U2-P2.3-Pad14)*%
X237450000Y-57000000D03*
%TO.P,U2,15,P2.2*%
%TO.N,unconnected-(U2-P2.2-Pad15)*%
X236650000Y-57000000D03*
%TO.P,U2,16,P2.1*%
%TO.N,unconnected-(U2-P2.1-Pad16)*%
X235850000Y-57000000D03*
D26*
%TO.P,U2,17,P2.0*%
%TO.N,unconnected-(U2-P2.0-Pad17)*%
X234475000Y-55625000D03*
%TO.P,U2,18,P1.7*%
%TO.N,unconnected-(U2-P1.7-Pad18)*%
X234475000Y-54825000D03*
%TO.P,U2,19,P1.6*%
%TO.N,unconnected-(U2-P1.6-Pad19)*%
X234475000Y-54025000D03*
%TO.P,U2,20,P1.5*%
%TO.N,unconnected-(U2-P1.5-Pad20)*%
X234475000Y-53225000D03*
%TO.P,U2,21,P1.4*%
%TO.N,unconnected-(U2-P1.4-Pad21)*%
X234475000Y-52425000D03*
%TO.P,U2,22,P1.3*%
%TO.N,unconnected-(U2-P1.3-Pad22)*%
X234475000Y-51625000D03*
%TO.P,U2,23,P1.2*%
%TO.N,unconnected-(U2-P1.2-Pad23)*%
X234475000Y-50825000D03*
%TO.P,U2,24,P1.1*%
%TO.N,unconnected-(U2-P1.1-Pad24)*%
X234475000Y-50025000D03*
D27*
%TO.P,U2,25,P1.0*%
%TO.N,unconnected-(U2-P1.0-Pad25)*%
X235850000Y-48650000D03*
%TO.P,U2,26,P0.7*%
%TO.N,unconnected-(U2-P0.7-Pad26)*%
X236650000Y-48650000D03*
%TO.P,U2,27,P0.6*%
%TO.N,unconnected-(U2-P0.6-Pad27)*%
X237450000Y-48650000D03*
%TO.P,U2,28,P0.5*%
%TO.N,unconnected-(U2-P0.5-Pad28)*%
X238250000Y-48650000D03*
%TO.P,U2,29,P0.4*%
%TO.N,unconnected-(U2-P0.4-Pad29)*%
X239050000Y-48650000D03*
%TO.P,U2,30,P0.3*%
%TO.N,unconnected-(U2-P0.3-Pad30)*%
X239850000Y-48650000D03*
%TO.P,U2,31,P0.2*%
%TO.N,unconnected-(U2-P0.2-Pad31)*%
X240650000Y-48650000D03*
%TO.P,U2,32,P0.1*%
%TO.N,unconnected-(U2-P0.1-Pad32)*%
X241450000Y-48650000D03*
%TD*%
D28*
%TO.P,U1,1,IOVDD*%
%TO.N,Net-(U1-IOVDD-Pad1)*%
X252237500Y-50100000D03*
%TO.P,U1,2,GPIO0*%
%TO.N,unconnected-(U1-GPIO0-Pad2)*%
X252237500Y-50500000D03*
%TO.P,U1,3,GPIO1*%
%TO.N,unconnected-(U1-GPIO1-Pad3)*%
X252237500Y-50900000D03*
%TO.P,U1,4,GPIO2*%
%TO.N,unconnected-(U1-GPIO2-Pad4)*%
X252237500Y-51300000D03*
%TO.P,U1,5,GPIO3*%
%TO.N,unconnected-(U1-GPIO3-Pad5)*%
X252237500Y-51700000D03*
%TO.P,U1,6,GPIO4*%
%TO.N,unconnected-(U1-GPIO4-Pad6)*%
X252237500Y-52100000D03*
%TO.P,U1,7,GPIO5*%
%TO.N,unconnected-(U1-GPIO5-Pad7)*%
X252237500Y-52500000D03*
%TO.P,U1,8,GPIO6*%
%TO.N,unconnected-(U1-GPIO6-Pad8)*%
X252237500Y-52900000D03*
%TO.P,U1,9,GPIO7*%
%TO.N,unconnected-(U1-GPIO7-Pad9)*%
X252237500Y-53300000D03*
%TO.P,U1,10,IOVDD*%
%TO.N,Net-(U1-IOVDD-Pad1)*%
X252237500Y-53700000D03*
%TO.P,U1,11,GPIO8*%
%TO.N,unconnected-(U1-GPIO8-Pad11)*%
X252237500Y-54100000D03*
%TO.P,U1,12,GPIO9*%
%TO.N,unconnected-(U1-GPIO9-Pad12)*%
X252237500Y-54500000D03*
%TO.P,U1,13,GPIO10*%
%TO.N,unconnected-(U1-GPIO10-Pad13)*%
X252237500Y-54900000D03*
%TO.P,U1,14,GPIO11*%
%TO.N,unconnected-(U1-GPIO11-Pad14)*%
X252237500Y-55300000D03*
D29*
%TO.P,U1,15,GPIO12*%
%TO.N,unconnected-(U1-GPIO12-Pad15)*%
X251400000Y-56137500D03*
%TO.P,U1,16,GPIO13*%
%TO.N,unconnected-(U1-GPIO13-Pad16)*%
X251000000Y-56137500D03*
%TO.P,U1,17,GPIO14*%
%TO.N,unconnected-(U1-GPIO14-Pad17)*%
X250600000Y-56137500D03*
%TO.P,U1,18,GPIO15*%
%TO.N,unconnected-(U1-GPIO15-Pad18)*%
X250200000Y-56137500D03*
%TO.P,U1,19,TESTEN*%
%TO.N,unconnected-(U1-TESTEN-Pad19)*%
X249800000Y-56137500D03*
%TO.P,U1,20,XIN*%
%TO.N,unconnected-(U1-XIN-Pad20)*%
X249400000Y-56137500D03*
%TO.P,U1,21,XOUT*%
%TO.N,unconnected-(U1-XOUT-Pad21)*%
X249000000Y-56137500D03*
%TO.P,U1,22,IOVDD*%
%TO.N,Net-(U1-IOVDD-Pad1)*%
X248600000Y-56137500D03*
%TO.P,U1,23,DVDD*%
%TO.N,Net-(U1-DVDD-Pad23)*%
X248200000Y-56137500D03*
%TO.P,U1,24,SWCLK*%
%TO.N,unconnected-(U1-SWCLK-Pad24)*%
X247800000Y-56137500D03*
%TO.P,U1,25,SWD*%
%TO.N,unconnected-(U1-SWD-Pad25)*%
X247400000Y-56137500D03*
%TO.P,U1,26,RUN*%
%TO.N,unconnected-(U1-RUN-Pad26)*%
X247000000Y-56137500D03*
%TO.P,U1,27,GPIO16*%
%TO.N,unconnected-(U1-GPIO16-Pad27)*%
X246600000Y-56137500D03*
%TO.P,U1,28,GPIO17*%
%TO.N,unconnected-(U1-GPIO17-Pad28)*%
X246200000Y-56137500D03*
D28*
%TO.P,U1,29,GPIO18*%
%TO.N,unconnected-(U1-GPIO18-Pad29)*%
X245362500Y-55300000D03*
%TO.P,U1,30,GPIO19*%
%TO.N,unconnected-(U1-GPIO19-Pad30)*%
X245362500Y-54900000D03*
%TO.P,U1,31,GPIO20*%
%TO.N,unconnected-(U1-GPIO20-Pad31)*%
X245362500Y-54500000D03*
%TO.P,U1,32,GPIO21*%
%TO.N,unconnected-(U1-GPIO21-Pad32)*%
X245362500Y-54100000D03*
%TO.P,U1,33,IOVDD*%
%TO.N,Net-(U1-IOVDD-Pad1)*%
X245362500Y-53700000D03*
%TO.P,U1,34,GPIO22*%
%TO.N,unconnected-(U1-GPIO22-Pad34)*%
X245362500Y-53300000D03*
%TO.P,U1,35,GPIO23*%
%TO.N,unconnected-(U1-GPIO23-Pad35)*%
X245362500Y-52900000D03*
%TO.P,U1,36,GPIO24*%
%TO.N,unconnected-(U1-GPIO24-Pad36)*%
X245362500Y-52500000D03*
%TO.P,U1,37,GPIO25*%
%TO.N,unconnected-(U1-GPIO25-Pad37)*%
X245362500Y-52100000D03*
%TO.P,U1,38,GPIO26_ADC0*%
%TO.N,unconnected-(U1-GPIO26_ADC0-Pad38)*%
X245362500Y-51700000D03*
%TO.P,U1,39,GPIO27_ADC1*%
%TO.N,unconnected-(U1-GPIO27_ADC1-Pad39)*%
X245362500Y-51300000D03*
%TO.P,U1,40,GPIO28_ADC2*%
%TO.N,unconnected-(U1-GPIO28_ADC2-Pad40)*%
X245362500Y-50900000D03*
%TO.P,U1,41,GPIO29_ADC3*%
%TO.N,unconnected-(U1-GPIO29_ADC3-Pad41)*%
X245362500Y-50500000D03*
%TO.P,U1,42,IOVDD*%
%TO.N,Net-(U1-IOVDD-Pad1)*%
X245362500Y-50100000D03*
D29*
%TO.P,U1,43,ADC_AVDD*%
%TO.N,unconnected-(U1-ADC_AVDD-Pad43)*%
X246200000Y-49262500D03*
%TO.P,U1,44,VREG_IN*%
%TO.N,unconnected-(U1-VREG_IN-Pad44)*%
X246600000Y-49262500D03*
%TO.P,U1,45,VREG_VOUT*%
%TO.N,unconnected-(U1-VREG_VOUT-Pad45)*%
X247000000Y-49262500D03*
%TO.P,U1,46,USB_DM*%
%TO.N,unconnected-(U1-USB_DM-Pad46)*%
X247400000Y-49262500D03*
%TO.P,U1,47,USB_DP*%
%TO.N,unconnected-(U1-USB_DP-Pad47)*%
X247800000Y-49262500D03*
%TO.P,U1,48,USB_VDD*%
%TO.N,unconnected-(U1-USB_VDD-Pad48)*%
X248200000Y-49262500D03*
%TO.P,U1,49,IOVDD*%
%TO.N,Net-(U1-IOVDD-Pad1)*%
X248600000Y-49262500D03*
%TO.P,U1,50,DVDD*%
%TO.N,Net-(U1-DVDD-Pad23)*%
X249000000Y-49262500D03*
%TO.P,U1,51,QSPI_SD3*%
%TO.N,unconnected-(U1-QSPI_SD3-Pad51)*%
X249400000Y-49262500D03*
%TO.P,U1,52,QSPI_SCLK*%
%TO.N,unconnected-(U1-QSPI_SCLK-Pad52)*%
X249800000Y-49262500D03*
%TO.P,U1,53,QSPI_SD0*%
%TO.N,unconnected-(U1-QSPI_SD0-Pad53)*%
X250200000Y-49262500D03*
%TO.P,U1,54,QSPI_SD2*%
%TO.N,unconnected-(U1-QSPI_SD2-Pad54)*%
X250600000Y-49262500D03*
%TO.P,U1,55,QSPI_SD1*%
%TO.N,unconnected-(U1-QSPI_SD1-Pad55)*%
X251000000Y-49262500D03*
%TO.P,U1,56,QSPI_SS*%
%TO.N,unconnected-(U1-QSPI_SS-Pad56)*%
X251400000Y-49262500D03*
D30*
%TO.P,U1,57,GND*%
%TO.N,unconnected-(U1-GND-Pad57)*%
X248800000Y-52700000D03*
%TD*%
D31*
%TO.P,R6,1*%
%TO.N,unconnected-(R6-Pad1)*%
X251362500Y-69000000D03*
%TO.P,R6,2*%
%TO.N,unconnected-(R6-Pad2)*%
X248437500Y-69000000D03*
%TD*%
D32*
%TO.N,*%
X111966000Y-66808000D02*
X111712000Y-66554000D01*
X115268000Y-66046000D02*
X114506000Y-66808000D01*
X115522000Y-66046000D02*
X115268000Y-66046000D01*
X117300000Y-66046000D02*
X115522000Y-66046000D01*
X114506000Y-66808000D02*
X111966000Y-66808000D01*
X110442000Y-66808000D02*
X111966000Y-65284000D01*
X109426000Y-66808000D02*
X110442000Y-66808000D01*
X105362000Y-67062000D02*
X105870000Y-66554000D01*
X103584000Y-67062000D02*
X105362000Y-67062000D01*
X105870000Y-66554000D02*
X109172000Y-66554000D01*
X109172000Y-66554000D02*
X109426000Y-66808000D01*
X105362000Y-67062000D02*
X106378000Y-67062000D01*
X102568000Y-66046000D02*
X103584000Y-67062000D01*
X108918000Y-70110000D02*
X109090145Y-69937855D01*
X104092000Y-70110000D02*
X108918000Y-70110000D01*
X116538000Y-69348000D02*
X115014000Y-69348000D01*
X113236000Y-70618000D02*
X112474000Y-70618000D01*
X113871000Y-71253000D02*
X113236000Y-70618000D01*
X115268000Y-69856000D02*
X113871000Y-71253000D01*
X113236000Y-71888000D02*
X112474000Y-71888000D01*
X113871000Y-71253000D02*
X113236000Y-71888000D01*
X116030000Y-69856000D02*
X115268000Y-69856000D01*
X108918000Y-72650000D02*
X110188000Y-72650000D01*
X107648000Y-72142000D02*
X108156000Y-72650000D01*
X107648000Y-72142000D02*
X111712000Y-72142000D01*
X108156000Y-72650000D02*
X108918000Y-72650000D01*
X110188000Y-72650000D02*
X110315000Y-72777000D01*
X109426000Y-71126000D02*
X108156000Y-71126000D01*
X108156000Y-71126000D02*
X107902000Y-71126000D01*
X107902000Y-71126000D02*
X107648000Y-71380000D01*
X110061000Y-70491000D02*
X110950000Y-71380000D01*
X110061000Y-70491000D02*
X109426000Y-71126000D01*
X106886000Y-71126000D02*
X107394000Y-70618000D01*
X105108000Y-71126000D02*
X106886000Y-71126000D01*
X109680000Y-70110000D02*
X110061000Y-70491000D01*
X108918000Y-70110000D02*
X109680000Y-70110000D01*
X111712000Y-72142000D02*
X112474000Y-71380000D01*
X106378000Y-72142000D02*
X107648000Y-72142000D01*
X112220000Y-69856000D02*
X111204000Y-70872000D01*
X115268000Y-69856000D02*
X112220000Y-69856000D01*
X116538000Y-62998000D02*
X115014000Y-64522000D01*
X115014000Y-64522000D02*
X112982000Y-64522000D01*
X116030000Y-65284000D02*
X116538000Y-64776000D01*
X112728000Y-65284000D02*
X116030000Y-65284000D01*
X113490000Y-66046000D02*
X112728000Y-65284000D01*
X112728000Y-65284000D02*
X111966000Y-64522000D01*
X115522000Y-66046000D02*
X113490000Y-66046000D01*
X105108000Y-64522000D02*
X104854000Y-64268000D01*
X108918000Y-64522000D02*
X105108000Y-64522000D01*
X110188000Y-63252000D02*
X108918000Y-64522000D01*
X110823000Y-63887000D02*
X110188000Y-63252000D01*
X110188000Y-63252000D02*
X109680000Y-62744000D01*
X111585000Y-63887000D02*
X110823000Y-63887000D01*
X111966000Y-63506000D02*
X111585000Y-63887000D01*
X109172000Y-62236000D02*
X109426000Y-61982000D01*
X105362000Y-62998000D02*
X105870000Y-63506000D01*
X109426000Y-61982000D02*
X113236000Y-61982000D01*
X105362000Y-62236000D02*
X107140000Y-62236000D01*
X105870000Y-63506000D02*
X108410000Y-63506000D01*
X108664000Y-63252000D02*
X108664000Y-62998000D01*
X105362000Y-62236000D02*
X105362000Y-62998000D01*
X108664000Y-62998000D02*
X108664000Y-62744000D01*
X108410000Y-63506000D02*
X108664000Y-63252000D01*
X108664000Y-62744000D02*
X109172000Y-62236000D01*
X111585000Y-63887000D02*
X110188000Y-65284000D01*
X110188000Y-65284000D02*
X108156000Y-65284000D01*
X116030000Y-61220000D02*
X113998000Y-63252000D01*
X113998000Y-63252000D02*
X112220000Y-63252000D01*
X112220000Y-63252000D02*
X111966000Y-63506000D01*
X104854000Y-62236000D02*
X105362000Y-62236000D01*
X104346000Y-62744000D02*
X104854000Y-62236000D01*
X103584000Y-64522000D02*
X103584000Y-63506000D01*
X103584000Y-63506000D02*
X104346000Y-62744000D01*
X105161347Y-66099347D02*
X103584000Y-64522000D01*
X109644643Y-66099347D02*
X105161347Y-66099347D01*
X105616000Y-60204000D02*
X108156000Y-60204000D01*
X104600000Y-60458000D02*
X105362000Y-60458000D01*
X108156000Y-60204000D02*
X108410000Y-59950000D01*
X105362000Y-60458000D02*
X105616000Y-60204000D01*
X111966000Y-59188000D02*
X108664000Y-59188000D01*
X112474000Y-58680000D02*
X111966000Y-59188000D01*
X104092000Y-60966000D02*
X106124000Y-60966000D01*
X109172000Y-60458000D02*
X109680000Y-59950000D01*
X109680000Y-59950000D02*
X112982000Y-59950000D01*
X106124000Y-60966000D02*
X106632000Y-61474000D01*
X106632000Y-61474000D02*
X108156000Y-61474000D01*
X108156000Y-61474000D02*
X109172000Y-60458000D01*
X109426000Y-60966000D02*
X107648000Y-62744000D01*
X111966000Y-60966000D02*
X109426000Y-60966000D01*
X115268000Y-60204000D02*
X114506000Y-60966000D01*
X114506000Y-60966000D02*
X111966000Y-60966000D01*
X96980000Y-77730000D02*
X96980000Y-78900000D01*
X236680000Y-77730000D02*
X236680000Y-78900000D01*
X135080000Y-77730000D02*
X135080000Y-78900000D01*
X175720000Y-77730000D02*
X175720000Y-78900000D01*
X178260000Y-77730000D02*
X178260000Y-78900000D01*
D33*
X70000000Y-53625000D02*
X76000000Y-53625000D01*
D34*
X70000000Y-55125000D02*
X76000000Y-55125000D01*
D32*
X84280000Y-77730000D02*
X84280000Y-78900000D01*
X218900000Y-76460000D02*
X218900000Y-78900000D01*
D35*
X70000000Y-58125000D02*
X75750000Y-58125000D01*
D32*
X216360000Y-77730000D02*
X216360000Y-78900000D01*
X168100000Y-76460000D02*
X168100000Y-78900000D01*
D36*
X68000000Y-65375000D02*
X70000000Y-65375000D01*
D37*
X75750000Y-66875000D02*
X76000000Y-66875000D01*
D32*
X180800000Y-75190000D02*
X180800000Y-78900000D01*
X81740000Y-77730000D02*
X81740000Y-78900000D01*
X63960000Y-77730000D02*
X63960000Y-78900000D01*
D35*
X67500000Y-58125000D02*
X69750000Y-58125000D01*
D32*
X244300000Y-76460000D02*
X244300000Y-78900000D01*
X66500000Y-76460000D02*
X66500000Y-78900000D01*
X198580000Y-77730000D02*
X198580000Y-78900000D01*
D36*
X74250000Y-65375000D02*
X75750000Y-65375000D01*
D32*
X196040000Y-77730000D02*
X196040000Y-78900000D01*
D36*
X75750000Y-65375000D02*
X76000000Y-65375000D01*
D32*
X206200000Y-75190000D02*
X206200000Y-78900000D01*
X254460000Y-77730000D02*
X254460000Y-78900000D01*
X239220000Y-77730000D02*
X239220000Y-78900000D01*
D38*
X70000000Y-63875000D02*
X75750000Y-63875000D01*
D32*
X145240000Y-77730000D02*
X145240000Y-78900000D01*
D33*
X67500000Y-53625000D02*
X70000000Y-53625000D01*
D38*
X67500000Y-63875000D02*
X70000000Y-63875000D01*
D32*
X79200000Y-75190000D02*
X79200000Y-78900000D01*
D34*
X67500000Y-55125000D02*
X70000000Y-55125000D01*
D32*
X185880000Y-77730000D02*
X185880000Y-78900000D01*
X74120000Y-77730000D02*
X74120000Y-78900000D01*
X56340000Y-77730000D02*
X56340000Y-78900000D01*
X140160000Y-77730000D02*
X140160000Y-78900000D01*
X109680000Y-77730000D02*
X109680000Y-78900000D01*
X193500000Y-76460000D02*
X193500000Y-78900000D01*
X122380000Y-77730000D02*
X122380000Y-78900000D01*
D36*
X67500000Y-65375000D02*
X68000000Y-65375000D01*
D32*
X142700000Y-76460000D02*
X142700000Y-78900000D01*
X89360000Y-77730000D02*
X89360000Y-78900000D01*
X157940000Y-77730000D02*
X157940000Y-78900000D01*
D35*
X75750000Y-58125000D02*
X76000000Y-58125000D01*
D32*
X119840000Y-77730000D02*
X119840000Y-78900000D01*
X69040000Y-77730000D02*
X69040000Y-78900000D01*
X70000000Y-52375000D02*
X76000000Y-52375000D01*
X160480000Y-77730000D02*
X160480000Y-78900000D01*
X208740000Y-77730000D02*
X208740000Y-78900000D01*
X223980000Y-77730000D02*
X223980000Y-78900000D01*
X183340000Y-77730000D02*
X183340000Y-78900000D01*
X163020000Y-77730000D02*
X163020000Y-78900000D01*
D39*
X67500000Y-56625000D02*
X70000000Y-56625000D01*
D32*
X127460000Y-77730000D02*
X127460000Y-78900000D01*
X241760000Y-77730000D02*
X241760000Y-78900000D01*
X246840000Y-77730000D02*
X246840000Y-78900000D01*
D40*
X70000000Y-62375000D02*
X75750000Y-62375000D01*
D32*
X147780000Y-77730000D02*
X147780000Y-78900000D01*
D35*
X69750000Y-58125000D02*
X70000000Y-58125000D01*
D32*
X173180000Y-77730000D02*
X173180000Y-78900000D01*
X234140000Y-77730000D02*
X234140000Y-78900000D01*
X94440000Y-77730000D02*
X94440000Y-78900000D01*
X155400000Y-75190000D02*
X155400000Y-78900000D01*
X86820000Y-77730000D02*
X86820000Y-78900000D01*
D40*
X67500000Y-62375000D02*
X70000000Y-62375000D01*
D32*
X165560000Y-77730000D02*
X165560000Y-78900000D01*
X201120000Y-77730000D02*
X201120000Y-78900000D01*
X203660000Y-77730000D02*
X203660000Y-78900000D01*
X104600000Y-75190000D02*
X104600000Y-78900000D01*
D41*
X70000000Y-59625000D02*
X75750000Y-59625000D01*
D32*
X188420000Y-77730000D02*
X188420000Y-78900000D01*
X112220000Y-77730000D02*
X112220000Y-78900000D01*
X226520000Y-77730000D02*
X226520000Y-78900000D01*
X71580000Y-77730000D02*
X71580000Y-78900000D01*
X213820000Y-77730000D02*
X213820000Y-78900000D01*
X152860000Y-77730000D02*
X152860000Y-78900000D01*
X67500000Y-52375000D02*
X70000000Y-52375000D01*
X251920000Y-77730000D02*
X251920000Y-78900000D01*
X117300000Y-76460000D02*
X117300000Y-78900000D01*
X211280000Y-77730000D02*
X211280000Y-78900000D01*
X53800000Y-75190000D02*
X53800000Y-78900000D01*
X76660000Y-77730000D02*
X76660000Y-78900000D01*
X130000000Y-77730000D02*
X130000000Y-78900000D01*
X170640000Y-77730000D02*
X170640000Y-78900000D01*
D42*
X67500000Y-60875000D02*
X76000000Y-60875000D01*
D32*
X91900000Y-76460000D02*
X91900000Y-78900000D01*
D43*
X67500000Y-50875000D02*
X70000000Y-50875000D01*
D32*
X107140000Y-77730000D02*
X107140000Y-78900000D01*
X114760000Y-77730000D02*
X114760000Y-78900000D01*
X137620000Y-77730000D02*
X137620000Y-78900000D01*
X124920000Y-77730000D02*
X124920000Y-78900000D01*
D39*
X70000000Y-56625000D02*
X76000000Y-56625000D01*
D32*
X150320000Y-77730000D02*
X150320000Y-78900000D01*
X190960000Y-77730000D02*
X190960000Y-78900000D01*
X249380000Y-77730000D02*
X249380000Y-78900000D01*
X221440000Y-77730000D02*
X221440000Y-78900000D01*
X58880000Y-77730000D02*
X58880000Y-78900000D01*
D43*
X70000000Y-50875000D02*
X76000000Y-50875000D01*
D32*
X132540000Y-77730000D02*
X132540000Y-78900000D01*
X102060000Y-77730000D02*
X102060000Y-78900000D01*
D41*
X75750000Y-59625000D02*
X76000000Y-59625000D01*
D37*
X67500000Y-66875000D02*
X70000000Y-66875000D01*
D32*
X229060000Y-77730000D02*
X229060000Y-78900000D01*
D40*
X75750000Y-62375000D02*
X76000000Y-62375000D01*
D37*
X70000000Y-66875000D02*
X75750000Y-66875000D01*
D32*
X61420000Y-77730000D02*
X61420000Y-78900000D01*
X130000000Y-75190000D02*
X130000000Y-78900000D01*
D38*
X75750000Y-63875000D02*
X76000000Y-63875000D01*
D41*
X67500000Y-59625000D02*
X70000000Y-59625000D01*
D32*
X231600000Y-75190000D02*
X231600000Y-78900000D01*
X99520000Y-77730000D02*
X99520000Y-78900000D01*
D36*
X70000000Y-65375000D02*
X74250000Y-65375000D01*
%TD*%
M02*
