M48
; DRILL file {KiCad 7.0.10} date Sunday, July 28, 2024 at 12:35:20 PM
; FORMAT={-:-/ absolute / metric / decimal}
; #@! TF.CreationDate,2024-07-28T12:35:20+01:00
; #@! TF.GenerationSoftware,Kicad,Pcbnew,7.0.10
; #@! TF.FileFunction,Plated,1,2,PTH
FMAT,2
METRIC
; #@! TA.AperFunction,Plated,PTH,ComponentDrill
T1C1.000
; #@! TA.AperFunction,Plated,PTH,ComponentDrill
T2C1.020
%
G90
G05
T1
X40.64Y-17.78
X40.64Y-20.32
X40.64Y-22.86
X40.64Y-25.4
X40.64Y-27.94
X40.64Y-30.48
X40.64Y-33.02
X40.64Y-35.56
X40.64Y-38.1
X45.742Y-72.533
X45.742Y-97.933
X48.282Y-72.533
X48.282Y-97.933
X50.822Y-72.533
X50.822Y-97.933
X53.362Y-72.533
X53.362Y-97.933
X55.902Y-72.533
X55.902Y-97.933
X58.442Y-72.533
X60.982Y-72.533
X63.522Y-72.533
X66.062Y-72.533
T2
X46.99Y-19.05
X46.99Y-21.59
X46.99Y-24.13
X46.99Y-26.67
X46.99Y-29.21
X46.99Y-31.75
X46.99Y-34.29
X46.99Y-36.83
X46.99Y-39.37
X46.99Y-41.91
X46.99Y-44.45
X46.99Y-46.99
X46.99Y-49.53
X46.99Y-52.07
X46.99Y-54.61
X46.99Y-57.15
X46.99Y-59.69
X46.99Y-62.23
X46.99Y-64.77
X46.99Y-67.31
X53.34Y-67.08
X55.88Y-67.08
X58.42Y-67.08
X64.77Y-19.05
X64.77Y-21.59
X64.77Y-24.13
X64.77Y-26.67
X64.77Y-29.21
X64.77Y-31.75
X64.77Y-34.29
X64.77Y-36.83
X64.77Y-39.37
X64.77Y-41.91
X64.77Y-44.45
X64.77Y-46.99
X64.77Y-49.53
X64.77Y-52.07
X64.77Y-54.61
X64.77Y-57.15
X64.77Y-59.69
X64.77Y-62.23
X64.77Y-64.77
X64.77Y-67.31
X73.66Y-78.74
X73.66Y-81.28
M30
