%TF.GenerationSoftware,KiCad,Pcbnew,7.0.10*%
%TF.CreationDate,2024-07-28T12:35:24+01:00*%
%TF.ProjectId,CanSatv2,43616e53-6174-4763-922e-6b696361645f,rev?*%
%TF.SameCoordinates,Original*%
%TF.FileFunction,Copper,L2,Bot*%
%TF.FilePolarity,Positive*%
%FSLAX46Y46*%
G04 Gerber Fmt 4.6, Leading zero omitted, Abs format (unit mm)*
G04 Created by KiCad (PCBNEW 7.0.10) date 2024-07-28 12:35:24*
%MOMM*%
%LPD*%
G01*
G04 APERTURE LIST*
%TA.AperFunction,ComponentPad*%
%ADD10R,1.700000X1.700000*%
%TD*%
%TA.AperFunction,ComponentPad*%
%ADD11O,1.700000X1.700000*%
%TD*%
%TA.AperFunction,ComponentPad*%
%ADD12C,1.778000*%
%TD*%
%TA.AperFunction,Conductor*%
%ADD13C,0.250000*%
%TD*%
G04 APERTURE END LIST*
D10*
%TO.P,,38,GND*%
%TO.N,unconnected-(U3-GND-Pad38)*%
X73660000Y-81280000D03*
%TD*%
D11*
%TO.P,U3,1,GPIO0*%
%TO.N,unconnected-(U3-GPIO0-Pad1)*%
X46990000Y-19050000D03*
%TO.P,U3,2,GPIO1*%
%TO.N,unconnected-(U3-GPIO1-Pad2)*%
X46990000Y-21590000D03*
D10*
%TO.P,U3,3,GND*%
%TO.N,Net-(U1-GND)*%
X46990000Y-24130000D03*
D11*
%TO.P,U3,4,GPIO2*%
%TO.N,unconnected-(U3-GPIO2-Pad4)*%
X46990000Y-26670000D03*
%TO.P,U3,5,GPIO3*%
%TO.N,unconnected-(U3-GPIO3-Pad5)*%
X46990000Y-29210000D03*
%TO.P,U3,6,GPIO4*%
%TO.N,Net-(U1-RX)*%
X46990000Y-31750000D03*
%TO.P,U3,7,GPIO5*%
%TO.N,Net-(U1-TX)*%
X46990000Y-34290000D03*
D10*
%TO.P,U3,8,GND*%
%TO.N,unconnected-(U3-GND-Pad8)*%
X46990000Y-36830000D03*
D11*
%TO.P,U3,9,GPIO6*%
%TO.N,unconnected-(U3-GPIO6-Pad9)*%
X46990000Y-39370000D03*
%TO.P,U3,10,GPIO7*%
%TO.N,unconnected-(U3-GPIO7-Pad10)*%
X46990000Y-41910000D03*
%TO.P,U3,11,GPIO8*%
%TO.N,unconnected-(U3-GPIO8-Pad11)*%
X46990000Y-44450000D03*
%TO.P,U3,12,GPIO9*%
%TO.N,unconnected-(U3-GPIO9-Pad12)*%
X46990000Y-46990000D03*
D10*
%TO.P,U3,13,GND*%
%TO.N,unconnected-(U3-GND-Pad13)*%
X46990000Y-49530000D03*
D11*
%TO.P,U3,14,GPIO10*%
%TO.N,unconnected-(U3-GPIO10-Pad14)*%
X46990000Y-52070000D03*
%TO.P,U3,15,GPIO11*%
%TO.N,unconnected-(U3-GPIO11-Pad15)*%
X46990000Y-54610000D03*
%TO.P,U3,16,GPIO12*%
%TO.N,unconnected-(U3-GPIO12-Pad16)*%
X46990000Y-57150000D03*
%TO.P,U3,17,GPIO13*%
%TO.N,unconnected-(U3-GPIO13-Pad17)*%
X46990000Y-59690000D03*
D10*
%TO.P,U3,18,GND*%
%TO.N,unconnected-(U3-GND-Pad18)*%
X46990000Y-62230000D03*
D11*
%TO.P,U3,19,GPIO14*%
%TO.N,Net-(U2-CS)*%
X46990000Y-64770000D03*
%TO.P,U3,20,GPIO15*%
%TO.N,Net-(U2-RST)*%
X46990000Y-67310000D03*
%TO.P,U3,21,GPIO16*%
%TO.N,Net-(U2-MISO)*%
X64770000Y-67310000D03*
%TO.P,U3,22,GPIO17*%
%TO.N,unconnected-(U3-GPIO17-Pad22)*%
X64770000Y-64770000D03*
D10*
%TO.P,U3,23,GND*%
%TO.N,unconnected-(U3-GND-Pad23)*%
X64770000Y-62230000D03*
D11*
%TO.P,U3,24,GPIO18*%
%TO.N,Net-(U2-SCK)*%
X64770000Y-59690000D03*
%TO.P,U3,25,GPIO19*%
%TO.N,Net-(U2-MOSI)*%
X64770000Y-57150000D03*
%TO.P,U3,26,GPIO20*%
%TO.N,unconnected-(U3-GPIO20-Pad26)*%
X64770000Y-54610000D03*
%TO.P,U3,27,GPIO21*%
%TO.N,unconnected-(U3-GPIO21-Pad27)*%
X64770000Y-52070000D03*
D10*
%TO.P,U3,28,GND*%
%TO.N,Net-(U2-GND)*%
X64770000Y-49530000D03*
D11*
%TO.P,U3,29,GPIO22*%
%TO.N,unconnected-(U3-GPIO22-Pad29)*%
X64770000Y-46990000D03*
%TO.P,U3,30,RUN*%
%TO.N,unconnected-(U3-RUN-Pad30)*%
X64770000Y-44450000D03*
%TO.P,U3,31,GPIO26_ADC0*%
%TO.N,unconnected-(U3-GPIO26_ADC0-Pad31)*%
X64770000Y-41910000D03*
%TO.P,U3,32,GPIO27_ADC1*%
%TO.N,unconnected-(U3-GPIO27_ADC1-Pad32)*%
X64770000Y-39370000D03*
D10*
%TO.P,U3,33,AGND*%
%TO.N,unconnected-(U3-AGND-Pad33)*%
X64770000Y-36830000D03*
D11*
%TO.P,U3,34,GPIO28_ADC2*%
%TO.N,unconnected-(U3-GPIO28_ADC2-Pad34)*%
X64770000Y-34290000D03*
%TO.P,U3,35,ADC_VREF*%
%TO.N,unconnected-(U3-ADC_VREF-Pad35)*%
X64770000Y-31750000D03*
%TO.P,U3,36,3V3*%
%TO.N,Net-(U1-VIN)*%
X64770000Y-29210000D03*
%TO.P,U3,37,3V3_EN*%
%TO.N,unconnected-(U3-3V3_EN-Pad37)*%
X64770000Y-26670000D03*
D10*
%TO.P,U3,38,GND*%
%TO.N,unconnected-(U3-GND-Pad38)*%
X64770000Y-24130000D03*
D11*
%TO.P,U3,39,VSYS*%
%TO.N,unconnected-(U3-VSYS-Pad39)*%
X64770000Y-21590000D03*
%TO.P,U3,40,VBUS*%
%TO.N,unconnected-(U3-VBUS-Pad40)*%
X64770000Y-19050000D03*
%TO.P,U3,41,SWCLK*%
%TO.N,unconnected-(U3-SWCLK-Pad41)*%
X53340000Y-67080000D03*
D10*
%TO.P,U3,42,GND*%
%TO.N,unconnected-(U3-GND-Pad42)*%
X55880000Y-67080000D03*
D11*
%TO.P,U3,43,SWDIO*%
%TO.N,unconnected-(U3-SWDIO-Pad43)*%
X58420000Y-67080000D03*
%TD*%
%TO.P,,39,VSYS*%
%TO.N,unconnected-(U3-VSYS-Pad39)*%
X73660000Y-78740000D03*
%TD*%
D12*
%TO.P,U2,*%
%TO.N,*%
X45742200Y-97932900D03*
X48282200Y-97932900D03*
X50822200Y-97932900D03*
X53362200Y-97932900D03*
X55902200Y-97932900D03*
%TO.P,U2,1,VIN*%
%TO.N,Net-(U1-VIN)*%
X45742200Y-72532900D03*
%TO.P,U2,2,GND*%
%TO.N,Net-(U2-GND)*%
X48282200Y-72532900D03*
%TO.P,U2,3,EN*%
%TO.N,unconnected-(U2-EN-Pad3)*%
X50822200Y-72532900D03*
%TO.P,U2,4,G0*%
%TO.N,unconnected-(U2-G0-Pad4)*%
X53362200Y-72532900D03*
%TO.P,U2,5,SCK*%
%TO.N,Net-(U2-SCK)*%
X55902200Y-72532900D03*
%TO.P,U2,6,MISO*%
%TO.N,Net-(U2-MISO)*%
X58442200Y-72532900D03*
%TO.P,U2,7,MOSI*%
%TO.N,Net-(U2-MOSI)*%
X60982200Y-72532900D03*
%TO.P,U2,8,CS*%
%TO.N,Net-(U2-CS)*%
X63522200Y-72532900D03*
%TO.P,U2,9,RST*%
%TO.N,Net-(U2-RST)*%
X66062200Y-72532900D03*
%TD*%
%TO.P,U1,1,PPS*%
%TO.N,unconnected-(U1-PPS-Pad1)*%
X40640000Y-17780000D03*
%TO.P,U1,2,VIN*%
%TO.N,Net-(U1-VIN)*%
X40640000Y-20320000D03*
%TO.P,U1,3,GND*%
%TO.N,Net-(U1-GND)*%
X40640000Y-22860000D03*
%TO.P,U1,4,RX*%
%TO.N,Net-(U1-RX)*%
X40640000Y-25400000D03*
%TO.P,U1,5,TX*%
%TO.N,Net-(U1-TX)*%
X40640000Y-27940000D03*
%TO.P,U1,6,FIX*%
%TO.N,unconnected-(U1-FIX-Pad6)*%
X40640000Y-30480000D03*
%TO.P,U1,7,VBAT*%
%TO.N,unconnected-(U1-VBAT-Pad7)*%
X40640000Y-33020000D03*
%TO.P,U1,8,EN*%
%TO.N,unconnected-(U1-EN-Pad8)*%
X40640000Y-35560000D03*
%TO.P,U1,9,3.3V*%
%TO.N,unconnected-(U1-3.3V-Pad9)*%
X40640000Y-38100000D03*
%TD*%
D13*
%TO.N,unconnected-(U3-GND-Pad38)*%
X68455200Y-27815200D02*
X68455200Y-76075200D01*
X64770000Y-24130000D02*
X68455200Y-27815200D01*
X68455200Y-76075200D02*
X73660000Y-81280000D01*
%TO.N,unconnected-(U3-VSYS-Pad39)*%
X71905200Y-76985200D02*
X73660000Y-78740000D01*
X64770000Y-21590000D02*
X71905200Y-28725200D01*
X71905200Y-28725200D02*
X71905200Y-76985200D01*
%TO.N,Net-(U2-RST)*%
X66062200Y-72532900D02*
X61784300Y-68255000D01*
X61784300Y-68255000D02*
X47935000Y-68255000D01*
X47935000Y-68255000D02*
X46990000Y-67310000D01*
%TO.N,Net-(U2-MOSI)*%
X64834900Y-57150000D02*
X64770000Y-57150000D01*
%TD*%
M02*
