%TF.GenerationSoftware,KiCad,Pcbnew,7.0.10*%
%TF.CreationDate,2024-07-23T22:25:42+01:00*%
%TF.ProjectId,CanSatv2,43616e53-6174-4763-922e-6b696361645f,rev?*%
%TF.SameCoordinates,Original*%
%TF.FileFunction,Legend,Bot*%
%TF.FilePolarity,Positive*%
%FSLAX46Y46*%
G04 Gerber Fmt 4.6, Leading zero omitted, Abs format (unit mm)*
G04 Created by KiCad (PCBNEW 7.0.10) date 2024-07-23 22:25:42*
%MOMM*%
%LPD*%
G01*
G04 APERTURE LIST*
%ADD10C,0.150000*%
%ADD11C,0.190500*%
%ADD12C,0.160020*%
%ADD13C,0.152400*%
%ADD14C,0.406400*%
G04 APERTURE END LIST*
D10*
X36969819Y-48596779D02*
X37779342Y-48596779D01*
X37779342Y-48596779D02*
X37874580Y-48644398D01*
X37874580Y-48644398D02*
X37922200Y-48692017D01*
X37922200Y-48692017D02*
X37969819Y-48787255D01*
X37969819Y-48787255D02*
X37969819Y-48977731D01*
X37969819Y-48977731D02*
X37922200Y-49072969D01*
X37922200Y-49072969D02*
X37874580Y-49120588D01*
X37874580Y-49120588D02*
X37779342Y-49168207D01*
X37779342Y-49168207D02*
X36969819Y-49168207D01*
X37969819Y-50120588D02*
X37969819Y-49644398D01*
X37969819Y-49644398D02*
X36969819Y-49644398D01*
X37684104Y-50406303D02*
X37684104Y-50882493D01*
X37969819Y-50311065D02*
X36969819Y-50644398D01*
X36969819Y-50644398D02*
X37969819Y-50977731D01*
X37922200Y-51263446D02*
X37969819Y-51406303D01*
X37969819Y-51406303D02*
X37969819Y-51644398D01*
X37969819Y-51644398D02*
X37922200Y-51739636D01*
X37922200Y-51739636D02*
X37874580Y-51787255D01*
X37874580Y-51787255D02*
X37779342Y-51834874D01*
X37779342Y-51834874D02*
X37684104Y-51834874D01*
X37684104Y-51834874D02*
X37588866Y-51787255D01*
X37588866Y-51787255D02*
X37541247Y-51739636D01*
X37541247Y-51739636D02*
X37493628Y-51644398D01*
X37493628Y-51644398D02*
X37446009Y-51453922D01*
X37446009Y-51453922D02*
X37398390Y-51358684D01*
X37398390Y-51358684D02*
X37350771Y-51311065D01*
X37350771Y-51311065D02*
X37255533Y-51263446D01*
X37255533Y-51263446D02*
X37160295Y-51263446D01*
X37160295Y-51263446D02*
X37065057Y-51311065D01*
X37065057Y-51311065D02*
X37017438Y-51358684D01*
X37017438Y-51358684D02*
X36969819Y-51453922D01*
X36969819Y-51453922D02*
X36969819Y-51692017D01*
X36969819Y-51692017D02*
X37017438Y-51834874D01*
X37969819Y-53025351D02*
X36969819Y-53025351D01*
X37446009Y-53025351D02*
X37446009Y-53596779D01*
X37969819Y-53596779D02*
X36969819Y-53596779D01*
X37969819Y-54072970D02*
X37303152Y-54072970D01*
X36969819Y-54072970D02*
X37017438Y-54025351D01*
X37017438Y-54025351D02*
X37065057Y-54072970D01*
X37065057Y-54072970D02*
X37017438Y-54120589D01*
X37017438Y-54120589D02*
X36969819Y-54072970D01*
X36969819Y-54072970D02*
X37065057Y-54072970D01*
X37969819Y-54549160D02*
X36969819Y-54549160D01*
X36969819Y-54549160D02*
X36969819Y-54930112D01*
X36969819Y-54930112D02*
X37017438Y-55025350D01*
X37017438Y-55025350D02*
X37065057Y-55072969D01*
X37065057Y-55072969D02*
X37160295Y-55120588D01*
X37160295Y-55120588D02*
X37303152Y-55120588D01*
X37303152Y-55120588D02*
X37398390Y-55072969D01*
X37398390Y-55072969D02*
X37446009Y-55025350D01*
X37446009Y-55025350D02*
X37493628Y-54930112D01*
X37493628Y-54930112D02*
X37493628Y-54549160D01*
X37969819Y-56120588D02*
X37493628Y-55787255D01*
X37969819Y-55549160D02*
X36969819Y-55549160D01*
X36969819Y-55549160D02*
X36969819Y-55930112D01*
X36969819Y-55930112D02*
X37017438Y-56025350D01*
X37017438Y-56025350D02*
X37065057Y-56072969D01*
X37065057Y-56072969D02*
X37160295Y-56120588D01*
X37160295Y-56120588D02*
X37303152Y-56120588D01*
X37303152Y-56120588D02*
X37398390Y-56072969D01*
X37398390Y-56072969D02*
X37446009Y-56025350D01*
X37446009Y-56025350D02*
X37493628Y-55930112D01*
X37493628Y-55930112D02*
X37493628Y-55549160D01*
D11*
X43408137Y-21033516D02*
X43767970Y-19954016D01*
X43767970Y-19954016D02*
X44127804Y-21033516D01*
X44487637Y-19954016D02*
X44487637Y-21033516D01*
X45001685Y-19954016D02*
X45001685Y-21033516D01*
X45001685Y-21033516D02*
X45618542Y-19954016D01*
X45618542Y-19954016D02*
X45618542Y-21033516D01*
X43459542Y-38813516D02*
X44127804Y-38813516D01*
X44127804Y-38813516D02*
X43767970Y-38402278D01*
X43767970Y-38402278D02*
X43922185Y-38402278D01*
X43922185Y-38402278D02*
X44024994Y-38350873D01*
X44024994Y-38350873D02*
X44076399Y-38299468D01*
X44076399Y-38299468D02*
X44127804Y-38196659D01*
X44127804Y-38196659D02*
X44127804Y-37939635D01*
X44127804Y-37939635D02*
X44076399Y-37836825D01*
X44076399Y-37836825D02*
X44024994Y-37785421D01*
X44024994Y-37785421D02*
X43922185Y-37734016D01*
X43922185Y-37734016D02*
X43613756Y-37734016D01*
X43613756Y-37734016D02*
X43510947Y-37785421D01*
X43510947Y-37785421D02*
X43459542Y-37836825D01*
X44590446Y-37836825D02*
X44641851Y-37785421D01*
X44641851Y-37785421D02*
X44590446Y-37734016D01*
X44590446Y-37734016D02*
X44539042Y-37785421D01*
X44539042Y-37785421D02*
X44590446Y-37836825D01*
X44590446Y-37836825D02*
X44590446Y-37734016D01*
X45001685Y-38813516D02*
X45669947Y-38813516D01*
X45669947Y-38813516D02*
X45310113Y-38402278D01*
X45310113Y-38402278D02*
X45464328Y-38402278D01*
X45464328Y-38402278D02*
X45567137Y-38350873D01*
X45567137Y-38350873D02*
X45618542Y-38299468D01*
X45618542Y-38299468D02*
X45669947Y-38196659D01*
X45669947Y-38196659D02*
X45669947Y-37939635D01*
X45669947Y-37939635D02*
X45618542Y-37836825D01*
X45618542Y-37836825D02*
X45567137Y-37785421D01*
X45567137Y-37785421D02*
X45464328Y-37734016D01*
X45464328Y-37734016D02*
X45155899Y-37734016D01*
X45155899Y-37734016D02*
X45053090Y-37785421D01*
X45053090Y-37785421D02*
X45001685Y-37836825D01*
X45978375Y-38813516D02*
X46338208Y-37734016D01*
X46338208Y-37734016D02*
X46698042Y-38813516D01*
X43408137Y-28653516D02*
X44024994Y-28653516D01*
X43716566Y-27574016D02*
X43716566Y-28653516D01*
X44282018Y-28653516D02*
X45001684Y-27574016D01*
X45001684Y-28653516D02*
X44282018Y-27574016D01*
X43922185Y-30679468D02*
X43562351Y-30679468D01*
X43562351Y-30114016D02*
X43562351Y-31193516D01*
X43562351Y-31193516D02*
X44076399Y-31193516D01*
X44487637Y-30114016D02*
X44487637Y-31193516D01*
X44898876Y-31193516D02*
X45618542Y-30114016D01*
X45618542Y-31193516D02*
X44898876Y-30114016D01*
X44179208Y-25034016D02*
X43819375Y-25548063D01*
X43562351Y-25034016D02*
X43562351Y-26113516D01*
X43562351Y-26113516D02*
X43973589Y-26113516D01*
X43973589Y-26113516D02*
X44076399Y-26062111D01*
X44076399Y-26062111D02*
X44127804Y-26010706D01*
X44127804Y-26010706D02*
X44179208Y-25907897D01*
X44179208Y-25907897D02*
X44179208Y-25753682D01*
X44179208Y-25753682D02*
X44127804Y-25650873D01*
X44127804Y-25650873D02*
X44076399Y-25599468D01*
X44076399Y-25599468D02*
X43973589Y-25548063D01*
X43973589Y-25548063D02*
X43562351Y-25548063D01*
X44539042Y-26113516D02*
X45258708Y-25034016D01*
X45258708Y-26113516D02*
X44539042Y-25034016D01*
X42857804Y-23522111D02*
X42754994Y-23573516D01*
X42754994Y-23573516D02*
X42600780Y-23573516D01*
X42600780Y-23573516D02*
X42446566Y-23522111D01*
X42446566Y-23522111D02*
X42343756Y-23419301D01*
X42343756Y-23419301D02*
X42292351Y-23316492D01*
X42292351Y-23316492D02*
X42240947Y-23110873D01*
X42240947Y-23110873D02*
X42240947Y-22956659D01*
X42240947Y-22956659D02*
X42292351Y-22751040D01*
X42292351Y-22751040D02*
X42343756Y-22648230D01*
X42343756Y-22648230D02*
X42446566Y-22545421D01*
X42446566Y-22545421D02*
X42600780Y-22494016D01*
X42600780Y-22494016D02*
X42703589Y-22494016D01*
X42703589Y-22494016D02*
X42857804Y-22545421D01*
X42857804Y-22545421D02*
X42909208Y-22596825D01*
X42909208Y-22596825D02*
X42909208Y-22956659D01*
X42909208Y-22956659D02*
X42703589Y-22956659D01*
X43371851Y-22494016D02*
X43371851Y-23573516D01*
X43371851Y-23573516D02*
X43988708Y-22494016D01*
X43988708Y-22494016D02*
X43988708Y-23573516D01*
X44502756Y-22494016D02*
X44502756Y-23573516D01*
X44502756Y-23573516D02*
X44759780Y-23573516D01*
X44759780Y-23573516D02*
X44913994Y-23522111D01*
X44913994Y-23522111D02*
X45016804Y-23419301D01*
X45016804Y-23419301D02*
X45068209Y-23316492D01*
X45068209Y-23316492D02*
X45119613Y-23110873D01*
X45119613Y-23110873D02*
X45119613Y-22956659D01*
X45119613Y-22956659D02*
X45068209Y-22751040D01*
X45068209Y-22751040D02*
X45016804Y-22648230D01*
X45016804Y-22648230D02*
X44913994Y-22545421D01*
X44913994Y-22545421D02*
X44759780Y-22494016D01*
X44759780Y-22494016D02*
X44502756Y-22494016D01*
X72519316Y-35177648D02*
X71645435Y-35177648D01*
X71645435Y-35177648D02*
X71542625Y-35126243D01*
X71542625Y-35126243D02*
X71491221Y-35074838D01*
X71491221Y-35074838D02*
X71439816Y-34972029D01*
X71439816Y-34972029D02*
X71439816Y-34766410D01*
X71439816Y-34766410D02*
X71491221Y-34663600D01*
X71491221Y-34663600D02*
X71542625Y-34612195D01*
X71542625Y-34612195D02*
X71645435Y-34560791D01*
X71645435Y-34560791D02*
X72519316Y-34560791D01*
X71439816Y-33892528D02*
X71491221Y-33995338D01*
X71491221Y-33995338D02*
X71594030Y-34046743D01*
X71594030Y-34046743D02*
X72519316Y-34046743D01*
X72159482Y-33635505D02*
X72159482Y-33224267D01*
X72519316Y-33481291D02*
X71594030Y-33481291D01*
X71594030Y-33481291D02*
X71491221Y-33429886D01*
X71491221Y-33429886D02*
X71439816Y-33327076D01*
X71439816Y-33327076D02*
X71439816Y-33224267D01*
X71439816Y-32864434D02*
X72159482Y-32864434D01*
X72519316Y-32864434D02*
X72467911Y-32915838D01*
X72467911Y-32915838D02*
X72416506Y-32864434D01*
X72416506Y-32864434D02*
X72467911Y-32813029D01*
X72467911Y-32813029D02*
X72519316Y-32864434D01*
X72519316Y-32864434D02*
X72416506Y-32864434D01*
X71439816Y-32350386D02*
X72159482Y-32350386D01*
X72056673Y-32350386D02*
X72108078Y-32298981D01*
X72108078Y-32298981D02*
X72159482Y-32196171D01*
X72159482Y-32196171D02*
X72159482Y-32041957D01*
X72159482Y-32041957D02*
X72108078Y-31939148D01*
X72108078Y-31939148D02*
X72005268Y-31887743D01*
X72005268Y-31887743D02*
X71439816Y-31887743D01*
X72005268Y-31887743D02*
X72108078Y-31836338D01*
X72108078Y-31836338D02*
X72159482Y-31733529D01*
X72159482Y-31733529D02*
X72159482Y-31579314D01*
X72159482Y-31579314D02*
X72108078Y-31476505D01*
X72108078Y-31476505D02*
X72005268Y-31425100D01*
X72005268Y-31425100D02*
X71439816Y-31425100D01*
X71439816Y-30448410D02*
X72005268Y-30448410D01*
X72005268Y-30448410D02*
X72108078Y-30499815D01*
X72108078Y-30499815D02*
X72159482Y-30602624D01*
X72159482Y-30602624D02*
X72159482Y-30808243D01*
X72159482Y-30808243D02*
X72108078Y-30911053D01*
X71491221Y-30448410D02*
X71439816Y-30551219D01*
X71439816Y-30551219D02*
X71439816Y-30808243D01*
X71439816Y-30808243D02*
X71491221Y-30911053D01*
X71491221Y-30911053D02*
X71594030Y-30962457D01*
X71594030Y-30962457D02*
X71696840Y-30962457D01*
X71696840Y-30962457D02*
X71799649Y-30911053D01*
X71799649Y-30911053D02*
X71851054Y-30808243D01*
X71851054Y-30808243D02*
X71851054Y-30551219D01*
X71851054Y-30551219D02*
X71902459Y-30448410D01*
X72159482Y-30088577D02*
X72159482Y-29677339D01*
X72519316Y-29934363D02*
X71594030Y-29934363D01*
X71594030Y-29934363D02*
X71491221Y-29882958D01*
X71491221Y-29882958D02*
X71439816Y-29780148D01*
X71439816Y-29780148D02*
X71439816Y-29677339D01*
X71491221Y-28906268D02*
X71439816Y-29009077D01*
X71439816Y-29009077D02*
X71439816Y-29214696D01*
X71439816Y-29214696D02*
X71491221Y-29317506D01*
X71491221Y-29317506D02*
X71594030Y-29368910D01*
X71594030Y-29368910D02*
X72005268Y-29368910D01*
X72005268Y-29368910D02*
X72108078Y-29317506D01*
X72108078Y-29317506D02*
X72159482Y-29214696D01*
X72159482Y-29214696D02*
X72159482Y-29009077D01*
X72159482Y-29009077D02*
X72108078Y-28906268D01*
X72108078Y-28906268D02*
X72005268Y-28854863D01*
X72005268Y-28854863D02*
X71902459Y-28854863D01*
X71902459Y-28854863D02*
X71799649Y-29368910D01*
X72467911Y-27004291D02*
X72519316Y-27107101D01*
X72519316Y-27107101D02*
X72519316Y-27261315D01*
X72519316Y-27261315D02*
X72467911Y-27415529D01*
X72467911Y-27415529D02*
X72365101Y-27518339D01*
X72365101Y-27518339D02*
X72262292Y-27569744D01*
X72262292Y-27569744D02*
X72056673Y-27621148D01*
X72056673Y-27621148D02*
X71902459Y-27621148D01*
X71902459Y-27621148D02*
X71696840Y-27569744D01*
X71696840Y-27569744D02*
X71594030Y-27518339D01*
X71594030Y-27518339D02*
X71491221Y-27415529D01*
X71491221Y-27415529D02*
X71439816Y-27261315D01*
X71439816Y-27261315D02*
X71439816Y-27158506D01*
X71439816Y-27158506D02*
X71491221Y-27004291D01*
X71491221Y-27004291D02*
X71542625Y-26952887D01*
X71542625Y-26952887D02*
X71902459Y-26952887D01*
X71902459Y-26952887D02*
X71902459Y-27158506D01*
X71439816Y-26490244D02*
X72519316Y-26490244D01*
X72519316Y-26490244D02*
X72519316Y-26079006D01*
X72519316Y-26079006D02*
X72467911Y-25976196D01*
X72467911Y-25976196D02*
X72416506Y-25924791D01*
X72416506Y-25924791D02*
X72313697Y-25873387D01*
X72313697Y-25873387D02*
X72159482Y-25873387D01*
X72159482Y-25873387D02*
X72056673Y-25924791D01*
X72056673Y-25924791D02*
X72005268Y-25976196D01*
X72005268Y-25976196D02*
X71953863Y-26079006D01*
X71953863Y-26079006D02*
X71953863Y-26490244D01*
X71491221Y-25462148D02*
X71439816Y-25307934D01*
X71439816Y-25307934D02*
X71439816Y-25050910D01*
X71439816Y-25050910D02*
X71491221Y-24948101D01*
X71491221Y-24948101D02*
X71542625Y-24896696D01*
X71542625Y-24896696D02*
X71645435Y-24845291D01*
X71645435Y-24845291D02*
X71748244Y-24845291D01*
X71748244Y-24845291D02*
X71851054Y-24896696D01*
X71851054Y-24896696D02*
X71902459Y-24948101D01*
X71902459Y-24948101D02*
X71953863Y-25050910D01*
X71953863Y-25050910D02*
X72005268Y-25256529D01*
X72005268Y-25256529D02*
X72056673Y-25359339D01*
X72056673Y-25359339D02*
X72108078Y-25410744D01*
X72108078Y-25410744D02*
X72210887Y-25462148D01*
X72210887Y-25462148D02*
X72313697Y-25462148D01*
X72313697Y-25462148D02*
X72416506Y-25410744D01*
X72416506Y-25410744D02*
X72467911Y-25359339D01*
X72467911Y-25359339D02*
X72519316Y-25256529D01*
X72519316Y-25256529D02*
X72519316Y-24999506D01*
X72519316Y-24999506D02*
X72467911Y-24845291D01*
D12*
X43371636Y-33538074D02*
X43673896Y-32631294D01*
X43673896Y-32631294D02*
X43976156Y-33538074D01*
X44580676Y-33106274D02*
X44710216Y-33063094D01*
X44710216Y-33063094D02*
X44753396Y-33019914D01*
X44753396Y-33019914D02*
X44796576Y-32933554D01*
X44796576Y-32933554D02*
X44796576Y-32804014D01*
X44796576Y-32804014D02*
X44753396Y-32717654D01*
X44753396Y-32717654D02*
X44710216Y-32674474D01*
X44710216Y-32674474D02*
X44623856Y-32631294D01*
X44623856Y-32631294D02*
X44278416Y-32631294D01*
X44278416Y-32631294D02*
X44278416Y-33538074D01*
X44278416Y-33538074D02*
X44580676Y-33538074D01*
X44580676Y-33538074D02*
X44667036Y-33494894D01*
X44667036Y-33494894D02*
X44710216Y-33451714D01*
X44710216Y-33451714D02*
X44753396Y-33365354D01*
X44753396Y-33365354D02*
X44753396Y-33278994D01*
X44753396Y-33278994D02*
X44710216Y-33192634D01*
X44710216Y-33192634D02*
X44667036Y-33149454D01*
X44667036Y-33149454D02*
X44580676Y-33106274D01*
X44580676Y-33106274D02*
X44278416Y-33106274D01*
X45142016Y-32890374D02*
X45573816Y-32890374D01*
X45055656Y-32631294D02*
X45357916Y-33538074D01*
X45357916Y-33538074D02*
X45660176Y-32631294D01*
X45832896Y-33538074D02*
X46351056Y-33538074D01*
X46091976Y-32631294D02*
X46091976Y-33538074D01*
D11*
X43562351Y-17160016D02*
X43562351Y-18239516D01*
X43562351Y-18239516D02*
X43973589Y-18239516D01*
X43973589Y-18239516D02*
X44076399Y-18188111D01*
X44076399Y-18188111D02*
X44127804Y-18136706D01*
X44127804Y-18136706D02*
X44179208Y-18033897D01*
X44179208Y-18033897D02*
X44179208Y-17879682D01*
X44179208Y-17879682D02*
X44127804Y-17776873D01*
X44127804Y-17776873D02*
X44076399Y-17725468D01*
X44076399Y-17725468D02*
X43973589Y-17674063D01*
X43973589Y-17674063D02*
X43562351Y-17674063D01*
X44641851Y-17160016D02*
X44641851Y-18239516D01*
X44641851Y-18239516D02*
X45053089Y-18239516D01*
X45053089Y-18239516D02*
X45155899Y-18188111D01*
X45155899Y-18188111D02*
X45207304Y-18136706D01*
X45207304Y-18136706D02*
X45258708Y-18033897D01*
X45258708Y-18033897D02*
X45258708Y-17879682D01*
X45258708Y-17879682D02*
X45207304Y-17776873D01*
X45207304Y-17776873D02*
X45155899Y-17725468D01*
X45155899Y-17725468D02*
X45053089Y-17674063D01*
X45053089Y-17674063D02*
X44641851Y-17674063D01*
X45669947Y-17211421D02*
X45824161Y-17160016D01*
X45824161Y-17160016D02*
X46081185Y-17160016D01*
X46081185Y-17160016D02*
X46183994Y-17211421D01*
X46183994Y-17211421D02*
X46235399Y-17262825D01*
X46235399Y-17262825D02*
X46286804Y-17365635D01*
X46286804Y-17365635D02*
X46286804Y-17468444D01*
X46286804Y-17468444D02*
X46235399Y-17571254D01*
X46235399Y-17571254D02*
X46183994Y-17622659D01*
X46183994Y-17622659D02*
X46081185Y-17674063D01*
X46081185Y-17674063D02*
X45875566Y-17725468D01*
X45875566Y-17725468D02*
X45772756Y-17776873D01*
X45772756Y-17776873D02*
X45721351Y-17828278D01*
X45721351Y-17828278D02*
X45669947Y-17931087D01*
X45669947Y-17931087D02*
X45669947Y-18033897D01*
X45669947Y-18033897D02*
X45721351Y-18136706D01*
X45721351Y-18136706D02*
X45772756Y-18188111D01*
X45772756Y-18188111D02*
X45875566Y-18239516D01*
X45875566Y-18239516D02*
X46132589Y-18239516D01*
X46132589Y-18239516D02*
X46286804Y-18188111D01*
X43562351Y-35759468D02*
X43922185Y-35759468D01*
X44076399Y-35194016D02*
X43562351Y-35194016D01*
X43562351Y-35194016D02*
X43562351Y-36273516D01*
X43562351Y-36273516D02*
X44076399Y-36273516D01*
X44539041Y-35194016D02*
X44539041Y-36273516D01*
X44539041Y-36273516D02*
X45155898Y-35194016D01*
X45155898Y-35194016D02*
X45155898Y-36273516D01*
X70001968Y-34754314D02*
X69950563Y-34600100D01*
X69950563Y-34600100D02*
X69899159Y-34548695D01*
X69899159Y-34548695D02*
X69796349Y-34497291D01*
X69796349Y-34497291D02*
X69642135Y-34497291D01*
X69642135Y-34497291D02*
X69539325Y-34548695D01*
X69539325Y-34548695D02*
X69487921Y-34600100D01*
X69487921Y-34600100D02*
X69436516Y-34702910D01*
X69436516Y-34702910D02*
X69436516Y-35114148D01*
X69436516Y-35114148D02*
X70516016Y-35114148D01*
X70516016Y-35114148D02*
X70516016Y-34754314D01*
X70516016Y-34754314D02*
X70464611Y-34651505D01*
X70464611Y-34651505D02*
X70413206Y-34600100D01*
X70413206Y-34600100D02*
X70310397Y-34548695D01*
X70310397Y-34548695D02*
X70207587Y-34548695D01*
X70207587Y-34548695D02*
X70104778Y-34600100D01*
X70104778Y-34600100D02*
X70053373Y-34651505D01*
X70053373Y-34651505D02*
X70001968Y-34754314D01*
X70001968Y-34754314D02*
X70001968Y-35114148D01*
X69436516Y-34034648D02*
X70156182Y-34034648D01*
X69950563Y-34034648D02*
X70053373Y-33983243D01*
X70053373Y-33983243D02*
X70104778Y-33931838D01*
X70104778Y-33931838D02*
X70156182Y-33829029D01*
X70156182Y-33829029D02*
X70156182Y-33726219D01*
X69487921Y-32955148D02*
X69436516Y-33057957D01*
X69436516Y-33057957D02*
X69436516Y-33263576D01*
X69436516Y-33263576D02*
X69487921Y-33366386D01*
X69487921Y-33366386D02*
X69590730Y-33417790D01*
X69590730Y-33417790D02*
X70001968Y-33417790D01*
X70001968Y-33417790D02*
X70104778Y-33366386D01*
X70104778Y-33366386D02*
X70156182Y-33263576D01*
X70156182Y-33263576D02*
X70156182Y-33057957D01*
X70156182Y-33057957D02*
X70104778Y-32955148D01*
X70104778Y-32955148D02*
X70001968Y-32903743D01*
X70001968Y-32903743D02*
X69899159Y-32903743D01*
X69899159Y-32903743D02*
X69796349Y-33417790D01*
X69436516Y-31978457D02*
X70001968Y-31978457D01*
X70001968Y-31978457D02*
X70104778Y-32029862D01*
X70104778Y-32029862D02*
X70156182Y-32132671D01*
X70156182Y-32132671D02*
X70156182Y-32338290D01*
X70156182Y-32338290D02*
X70104778Y-32441100D01*
X69487921Y-31978457D02*
X69436516Y-32081266D01*
X69436516Y-32081266D02*
X69436516Y-32338290D01*
X69436516Y-32338290D02*
X69487921Y-32441100D01*
X69487921Y-32441100D02*
X69590730Y-32492504D01*
X69590730Y-32492504D02*
X69693540Y-32492504D01*
X69693540Y-32492504D02*
X69796349Y-32441100D01*
X69796349Y-32441100D02*
X69847754Y-32338290D01*
X69847754Y-32338290D02*
X69847754Y-32081266D01*
X69847754Y-32081266D02*
X69899159Y-31978457D01*
X69436516Y-31464410D02*
X70516016Y-31464410D01*
X69847754Y-31361600D02*
X69436516Y-31053172D01*
X70156182Y-31053172D02*
X69744944Y-31464410D01*
X69436516Y-30436314D02*
X69487921Y-30539124D01*
X69487921Y-30539124D02*
X69539325Y-30590529D01*
X69539325Y-30590529D02*
X69642135Y-30641933D01*
X69642135Y-30641933D02*
X69950563Y-30641933D01*
X69950563Y-30641933D02*
X70053373Y-30590529D01*
X70053373Y-30590529D02*
X70104778Y-30539124D01*
X70104778Y-30539124D02*
X70156182Y-30436314D01*
X70156182Y-30436314D02*
X70156182Y-30282100D01*
X70156182Y-30282100D02*
X70104778Y-30179291D01*
X70104778Y-30179291D02*
X70053373Y-30127886D01*
X70053373Y-30127886D02*
X69950563Y-30076481D01*
X69950563Y-30076481D02*
X69642135Y-30076481D01*
X69642135Y-30076481D02*
X69539325Y-30127886D01*
X69539325Y-30127886D02*
X69487921Y-30179291D01*
X69487921Y-30179291D02*
X69436516Y-30282100D01*
X69436516Y-30282100D02*
X69436516Y-30436314D01*
X70156182Y-29151196D02*
X69436516Y-29151196D01*
X70156182Y-29613839D02*
X69590730Y-29613839D01*
X69590730Y-29613839D02*
X69487921Y-29562434D01*
X69487921Y-29562434D02*
X69436516Y-29459624D01*
X69436516Y-29459624D02*
X69436516Y-29305410D01*
X69436516Y-29305410D02*
X69487921Y-29202601D01*
X69487921Y-29202601D02*
X69539325Y-29151196D01*
X70156182Y-28791363D02*
X70156182Y-28380125D01*
X70516016Y-28637149D02*
X69590730Y-28637149D01*
X69590730Y-28637149D02*
X69487921Y-28585744D01*
X69487921Y-28585744D02*
X69436516Y-28482934D01*
X69436516Y-28482934D02*
X69436516Y-28380125D01*
X70156182Y-27300625D02*
X69436516Y-27043601D01*
X69436516Y-27043601D02*
X70156182Y-26786578D01*
X70516016Y-26478149D02*
X70516016Y-25809887D01*
X70516016Y-25809887D02*
X70104778Y-26169721D01*
X70104778Y-26169721D02*
X70104778Y-26015506D01*
X70104778Y-26015506D02*
X70053373Y-25912697D01*
X70053373Y-25912697D02*
X70001968Y-25861292D01*
X70001968Y-25861292D02*
X69899159Y-25809887D01*
X69899159Y-25809887D02*
X69642135Y-25809887D01*
X69642135Y-25809887D02*
X69539325Y-25861292D01*
X69539325Y-25861292D02*
X69487921Y-25912697D01*
X69487921Y-25912697D02*
X69436516Y-26015506D01*
X69436516Y-26015506D02*
X69436516Y-26323935D01*
X69436516Y-26323935D02*
X69487921Y-26426744D01*
X69487921Y-26426744D02*
X69539325Y-26478149D01*
D13*
X71794446Y-64672266D02*
X71835570Y-64631142D01*
X71835570Y-64631142D02*
X71876693Y-64507771D01*
X71876693Y-64507771D02*
X71876693Y-64425523D01*
X71876693Y-64425523D02*
X71835570Y-64302152D01*
X71835570Y-64302152D02*
X71753322Y-64219904D01*
X71753322Y-64219904D02*
X71671074Y-64178781D01*
X71671074Y-64178781D02*
X71506579Y-64137657D01*
X71506579Y-64137657D02*
X71383208Y-64137657D01*
X71383208Y-64137657D02*
X71218712Y-64178781D01*
X71218712Y-64178781D02*
X71136465Y-64219904D01*
X71136465Y-64219904D02*
X71054217Y-64302152D01*
X71054217Y-64302152D02*
X71013093Y-64425523D01*
X71013093Y-64425523D02*
X71013093Y-64507771D01*
X71013093Y-64507771D02*
X71054217Y-64631142D01*
X71054217Y-64631142D02*
X71095341Y-64672266D01*
X71835570Y-65001257D02*
X71876693Y-65124628D01*
X71876693Y-65124628D02*
X71876693Y-65330247D01*
X71876693Y-65330247D02*
X71835570Y-65412495D01*
X71835570Y-65412495D02*
X71794446Y-65453619D01*
X71794446Y-65453619D02*
X71712198Y-65494742D01*
X71712198Y-65494742D02*
X71629950Y-65494742D01*
X71629950Y-65494742D02*
X71547703Y-65453619D01*
X71547703Y-65453619D02*
X71506579Y-65412495D01*
X71506579Y-65412495D02*
X71465455Y-65330247D01*
X71465455Y-65330247D02*
X71424331Y-65165752D01*
X71424331Y-65165752D02*
X71383208Y-65083504D01*
X71383208Y-65083504D02*
X71342084Y-65042381D01*
X71342084Y-65042381D02*
X71259836Y-65001257D01*
X71259836Y-65001257D02*
X71177589Y-65001257D01*
X71177589Y-65001257D02*
X71095341Y-65042381D01*
X71095341Y-65042381D02*
X71054217Y-65083504D01*
X71054217Y-65083504D02*
X71013093Y-65165752D01*
X71013093Y-65165752D02*
X71013093Y-65371371D01*
X71013093Y-65371371D02*
X71054217Y-65494742D01*
X45654217Y-51677142D02*
X45613093Y-51594895D01*
X45613093Y-51594895D02*
X45613093Y-51471523D01*
X45613093Y-51471523D02*
X45654217Y-51348152D01*
X45654217Y-51348152D02*
X45736465Y-51265904D01*
X45736465Y-51265904D02*
X45818712Y-51224781D01*
X45818712Y-51224781D02*
X45983208Y-51183657D01*
X45983208Y-51183657D02*
X46106579Y-51183657D01*
X46106579Y-51183657D02*
X46271074Y-51224781D01*
X46271074Y-51224781D02*
X46353322Y-51265904D01*
X46353322Y-51265904D02*
X46435570Y-51348152D01*
X46435570Y-51348152D02*
X46476693Y-51471523D01*
X46476693Y-51471523D02*
X46476693Y-51553771D01*
X46476693Y-51553771D02*
X46435570Y-51677142D01*
X46435570Y-51677142D02*
X46394446Y-51718266D01*
X46394446Y-51718266D02*
X46106579Y-51718266D01*
X46106579Y-51718266D02*
X46106579Y-51553771D01*
X45613093Y-52006133D02*
X45613093Y-52540742D01*
X45613093Y-52540742D02*
X45942084Y-52252876D01*
X45942084Y-52252876D02*
X45942084Y-52376247D01*
X45942084Y-52376247D02*
X45983208Y-52458495D01*
X45983208Y-52458495D02*
X46024331Y-52499619D01*
X46024331Y-52499619D02*
X46106579Y-52540742D01*
X46106579Y-52540742D02*
X46312198Y-52540742D01*
X46312198Y-52540742D02*
X46394446Y-52499619D01*
X46394446Y-52499619D02*
X46435570Y-52458495D01*
X46435570Y-52458495D02*
X46476693Y-52376247D01*
X46476693Y-52376247D02*
X46476693Y-52129504D01*
X46476693Y-52129504D02*
X46435570Y-52047257D01*
X46435570Y-52047257D02*
X46394446Y-52006133D01*
X71876693Y-58379115D02*
X71013093Y-58379115D01*
X71013093Y-58379115D02*
X71629950Y-58666981D01*
X71629950Y-58666981D02*
X71013093Y-58954848D01*
X71013093Y-58954848D02*
X71876693Y-58954848D01*
X71876693Y-59366086D02*
X71013093Y-59366086D01*
X71835570Y-59736200D02*
X71876693Y-59859571D01*
X71876693Y-59859571D02*
X71876693Y-60065190D01*
X71876693Y-60065190D02*
X71835570Y-60147438D01*
X71835570Y-60147438D02*
X71794446Y-60188562D01*
X71794446Y-60188562D02*
X71712198Y-60229685D01*
X71712198Y-60229685D02*
X71629950Y-60229685D01*
X71629950Y-60229685D02*
X71547703Y-60188562D01*
X71547703Y-60188562D02*
X71506579Y-60147438D01*
X71506579Y-60147438D02*
X71465455Y-60065190D01*
X71465455Y-60065190D02*
X71424331Y-59900695D01*
X71424331Y-59900695D02*
X71383208Y-59818447D01*
X71383208Y-59818447D02*
X71342084Y-59777324D01*
X71342084Y-59777324D02*
X71259836Y-59736200D01*
X71259836Y-59736200D02*
X71177589Y-59736200D01*
X71177589Y-59736200D02*
X71095341Y-59777324D01*
X71095341Y-59777324D02*
X71054217Y-59818447D01*
X71054217Y-59818447D02*
X71013093Y-59900695D01*
X71013093Y-59900695D02*
X71013093Y-60106314D01*
X71013093Y-60106314D02*
X71054217Y-60229685D01*
X71013093Y-60764295D02*
X71013093Y-60928790D01*
X71013093Y-60928790D02*
X71054217Y-61011038D01*
X71054217Y-61011038D02*
X71136465Y-61093285D01*
X71136465Y-61093285D02*
X71300960Y-61134409D01*
X71300960Y-61134409D02*
X71588827Y-61134409D01*
X71588827Y-61134409D02*
X71753322Y-61093285D01*
X71753322Y-61093285D02*
X71835570Y-61011038D01*
X71835570Y-61011038D02*
X71876693Y-60928790D01*
X71876693Y-60928790D02*
X71876693Y-60764295D01*
X71876693Y-60764295D02*
X71835570Y-60682047D01*
X71835570Y-60682047D02*
X71753322Y-60599800D01*
X71753322Y-60599800D02*
X71588827Y-60558676D01*
X71588827Y-60558676D02*
X71300960Y-60558676D01*
X71300960Y-60558676D02*
X71136465Y-60599800D01*
X71136465Y-60599800D02*
X71054217Y-60682047D01*
X71054217Y-60682047D02*
X71013093Y-60764295D01*
X67995331Y-51351781D02*
X67995331Y-51639647D01*
X68447693Y-51763019D02*
X68447693Y-51351781D01*
X68447693Y-51351781D02*
X67584093Y-51351781D01*
X67584093Y-51351781D02*
X67584093Y-51763019D01*
X68447693Y-52133133D02*
X67584093Y-52133133D01*
X67584093Y-52133133D02*
X68447693Y-52626618D01*
X68447693Y-52626618D02*
X67584093Y-52626618D01*
X45654217Y-54217142D02*
X45613093Y-54134895D01*
X45613093Y-54134895D02*
X45613093Y-54011523D01*
X45613093Y-54011523D02*
X45654217Y-53888152D01*
X45654217Y-53888152D02*
X45736465Y-53805904D01*
X45736465Y-53805904D02*
X45818712Y-53764781D01*
X45818712Y-53764781D02*
X45983208Y-53723657D01*
X45983208Y-53723657D02*
X46106579Y-53723657D01*
X46106579Y-53723657D02*
X46271074Y-53764781D01*
X46271074Y-53764781D02*
X46353322Y-53805904D01*
X46353322Y-53805904D02*
X46435570Y-53888152D01*
X46435570Y-53888152D02*
X46476693Y-54011523D01*
X46476693Y-54011523D02*
X46476693Y-54093771D01*
X46476693Y-54093771D02*
X46435570Y-54217142D01*
X46435570Y-54217142D02*
X46394446Y-54258266D01*
X46394446Y-54258266D02*
X46106579Y-54258266D01*
X46106579Y-54258266D02*
X46106579Y-54093771D01*
X45900960Y-54998495D02*
X46476693Y-54998495D01*
X45571970Y-54792876D02*
X46188827Y-54587257D01*
X46188827Y-54587257D02*
X46188827Y-55121866D01*
X71054217Y-54344142D02*
X71013093Y-54261895D01*
X71013093Y-54261895D02*
X71013093Y-54138523D01*
X71013093Y-54138523D02*
X71054217Y-54015152D01*
X71054217Y-54015152D02*
X71136465Y-53932904D01*
X71136465Y-53932904D02*
X71218712Y-53891781D01*
X71218712Y-53891781D02*
X71383208Y-53850657D01*
X71383208Y-53850657D02*
X71506579Y-53850657D01*
X71506579Y-53850657D02*
X71671074Y-53891781D01*
X71671074Y-53891781D02*
X71753322Y-53932904D01*
X71753322Y-53932904D02*
X71835570Y-54015152D01*
X71835570Y-54015152D02*
X71876693Y-54138523D01*
X71876693Y-54138523D02*
X71876693Y-54220771D01*
X71876693Y-54220771D02*
X71835570Y-54344142D01*
X71835570Y-54344142D02*
X71794446Y-54385266D01*
X71794446Y-54385266D02*
X71506579Y-54385266D01*
X71506579Y-54385266D02*
X71506579Y-54220771D01*
X71013093Y-54919876D02*
X71013093Y-55002123D01*
X71013093Y-55002123D02*
X71054217Y-55084371D01*
X71054217Y-55084371D02*
X71095341Y-55125495D01*
X71095341Y-55125495D02*
X71177589Y-55166619D01*
X71177589Y-55166619D02*
X71342084Y-55207742D01*
X71342084Y-55207742D02*
X71547703Y-55207742D01*
X71547703Y-55207742D02*
X71712198Y-55166619D01*
X71712198Y-55166619D02*
X71794446Y-55125495D01*
X71794446Y-55125495D02*
X71835570Y-55084371D01*
X71835570Y-55084371D02*
X71876693Y-55002123D01*
X71876693Y-55002123D02*
X71876693Y-54919876D01*
X71876693Y-54919876D02*
X71835570Y-54837628D01*
X71835570Y-54837628D02*
X71794446Y-54796504D01*
X71794446Y-54796504D02*
X71712198Y-54755381D01*
X71712198Y-54755381D02*
X71547703Y-54714257D01*
X71547703Y-54714257D02*
X71342084Y-54714257D01*
X71342084Y-54714257D02*
X71177589Y-54755381D01*
X71177589Y-54755381D02*
X71095341Y-54796504D01*
X71095341Y-54796504D02*
X71054217Y-54837628D01*
X71054217Y-54837628D02*
X71013093Y-54919876D01*
X68447693Y-60665115D02*
X67584093Y-60665115D01*
X67584093Y-60665115D02*
X68200950Y-60952981D01*
X68200950Y-60952981D02*
X67584093Y-61240848D01*
X67584093Y-61240848D02*
X68447693Y-61240848D01*
X67584093Y-61816581D02*
X67584093Y-61981076D01*
X67584093Y-61981076D02*
X67625217Y-62063324D01*
X67625217Y-62063324D02*
X67707465Y-62145571D01*
X67707465Y-62145571D02*
X67871960Y-62186695D01*
X67871960Y-62186695D02*
X68159827Y-62186695D01*
X68159827Y-62186695D02*
X68324322Y-62145571D01*
X68324322Y-62145571D02*
X68406570Y-62063324D01*
X68406570Y-62063324D02*
X68447693Y-61981076D01*
X68447693Y-61981076D02*
X68447693Y-61816581D01*
X68447693Y-61816581D02*
X68406570Y-61734333D01*
X68406570Y-61734333D02*
X68324322Y-61652086D01*
X68324322Y-61652086D02*
X68159827Y-61610962D01*
X68159827Y-61610962D02*
X67871960Y-61610962D01*
X67871960Y-61610962D02*
X67707465Y-61652086D01*
X67707465Y-61652086D02*
X67625217Y-61734333D01*
X67625217Y-61734333D02*
X67584093Y-61816581D01*
X68406570Y-62515686D02*
X68447693Y-62639057D01*
X68447693Y-62639057D02*
X68447693Y-62844676D01*
X68447693Y-62844676D02*
X68406570Y-62926924D01*
X68406570Y-62926924D02*
X68365446Y-62968048D01*
X68365446Y-62968048D02*
X68283198Y-63009171D01*
X68283198Y-63009171D02*
X68200950Y-63009171D01*
X68200950Y-63009171D02*
X68118703Y-62968048D01*
X68118703Y-62968048D02*
X68077579Y-62926924D01*
X68077579Y-62926924D02*
X68036455Y-62844676D01*
X68036455Y-62844676D02*
X67995331Y-62680181D01*
X67995331Y-62680181D02*
X67954208Y-62597933D01*
X67954208Y-62597933D02*
X67913084Y-62556810D01*
X67913084Y-62556810D02*
X67830836Y-62515686D01*
X67830836Y-62515686D02*
X67748589Y-62515686D01*
X67748589Y-62515686D02*
X67666341Y-62556810D01*
X67666341Y-62556810D02*
X67625217Y-62597933D01*
X67625217Y-62597933D02*
X67584093Y-62680181D01*
X67584093Y-62680181D02*
X67584093Y-62885800D01*
X67584093Y-62885800D02*
X67625217Y-63009171D01*
X68447693Y-63379286D02*
X67584093Y-63379286D01*
X68406570Y-55831857D02*
X68447693Y-55955228D01*
X68447693Y-55955228D02*
X68447693Y-56160847D01*
X68447693Y-56160847D02*
X68406570Y-56243095D01*
X68406570Y-56243095D02*
X68365446Y-56284219D01*
X68365446Y-56284219D02*
X68283198Y-56325342D01*
X68283198Y-56325342D02*
X68200950Y-56325342D01*
X68200950Y-56325342D02*
X68118703Y-56284219D01*
X68118703Y-56284219D02*
X68077579Y-56243095D01*
X68077579Y-56243095D02*
X68036455Y-56160847D01*
X68036455Y-56160847D02*
X67995331Y-55996352D01*
X67995331Y-55996352D02*
X67954208Y-55914104D01*
X67954208Y-55914104D02*
X67913084Y-55872981D01*
X67913084Y-55872981D02*
X67830836Y-55831857D01*
X67830836Y-55831857D02*
X67748589Y-55831857D01*
X67748589Y-55831857D02*
X67666341Y-55872981D01*
X67666341Y-55872981D02*
X67625217Y-55914104D01*
X67625217Y-55914104D02*
X67584093Y-55996352D01*
X67584093Y-55996352D02*
X67584093Y-56201971D01*
X67584093Y-56201971D02*
X67625217Y-56325342D01*
X68365446Y-57188942D02*
X68406570Y-57147818D01*
X68406570Y-57147818D02*
X68447693Y-57024447D01*
X68447693Y-57024447D02*
X68447693Y-56942199D01*
X68447693Y-56942199D02*
X68406570Y-56818828D01*
X68406570Y-56818828D02*
X68324322Y-56736580D01*
X68324322Y-56736580D02*
X68242074Y-56695457D01*
X68242074Y-56695457D02*
X68077579Y-56654333D01*
X68077579Y-56654333D02*
X67954208Y-56654333D01*
X67954208Y-56654333D02*
X67789712Y-56695457D01*
X67789712Y-56695457D02*
X67707465Y-56736580D01*
X67707465Y-56736580D02*
X67625217Y-56818828D01*
X67625217Y-56818828D02*
X67584093Y-56942199D01*
X67584093Y-56942199D02*
X67584093Y-57024447D01*
X67584093Y-57024447D02*
X67625217Y-57147818D01*
X67625217Y-57147818D02*
X67666341Y-57188942D01*
X68447693Y-57559057D02*
X67584093Y-57559057D01*
X68447693Y-58052542D02*
X67954208Y-57682428D01*
X67584093Y-58052542D02*
X68077579Y-57559057D01*
X71054217Y-48791218D02*
X71013093Y-48708971D01*
X71013093Y-48708971D02*
X71013093Y-48585599D01*
X71013093Y-48585599D02*
X71054217Y-48462228D01*
X71054217Y-48462228D02*
X71136465Y-48379980D01*
X71136465Y-48379980D02*
X71218712Y-48338857D01*
X71218712Y-48338857D02*
X71383208Y-48297733D01*
X71383208Y-48297733D02*
X71506579Y-48297733D01*
X71506579Y-48297733D02*
X71671074Y-48338857D01*
X71671074Y-48338857D02*
X71753322Y-48379980D01*
X71753322Y-48379980D02*
X71835570Y-48462228D01*
X71835570Y-48462228D02*
X71876693Y-48585599D01*
X71876693Y-48585599D02*
X71876693Y-48667847D01*
X71876693Y-48667847D02*
X71835570Y-48791218D01*
X71835570Y-48791218D02*
X71794446Y-48832342D01*
X71794446Y-48832342D02*
X71506579Y-48832342D01*
X71506579Y-48832342D02*
X71506579Y-48667847D01*
X71876693Y-49202457D02*
X71013093Y-49202457D01*
X71013093Y-49202457D02*
X71876693Y-49695942D01*
X71876693Y-49695942D02*
X71013093Y-49695942D01*
X71876693Y-50107181D02*
X71013093Y-50107181D01*
X71013093Y-50107181D02*
X71013093Y-50312800D01*
X71013093Y-50312800D02*
X71054217Y-50436171D01*
X71054217Y-50436171D02*
X71136465Y-50518419D01*
X71136465Y-50518419D02*
X71218712Y-50559542D01*
X71218712Y-50559542D02*
X71383208Y-50600666D01*
X71383208Y-50600666D02*
X71506579Y-50600666D01*
X71506579Y-50600666D02*
X71671074Y-50559542D01*
X71671074Y-50559542D02*
X71753322Y-50518419D01*
X71753322Y-50518419D02*
X71835570Y-50436171D01*
X71835570Y-50436171D02*
X71876693Y-50312800D01*
X71876693Y-50312800D02*
X71876693Y-50107181D01*
X67584093Y-45836352D02*
X68447693Y-46124219D01*
X68447693Y-46124219D02*
X67584093Y-46412085D01*
X68447693Y-46699953D02*
X67584093Y-46699953D01*
X68447693Y-47111191D02*
X67584093Y-47111191D01*
X67584093Y-47111191D02*
X68447693Y-47604676D01*
X68447693Y-47604676D02*
X67584093Y-47604676D01*
X68447693Y-66629276D02*
X68036455Y-66341410D01*
X68447693Y-66135791D02*
X67584093Y-66135791D01*
X67584093Y-66135791D02*
X67584093Y-66464781D01*
X67584093Y-66464781D02*
X67625217Y-66547029D01*
X67625217Y-66547029D02*
X67666341Y-66588152D01*
X67666341Y-66588152D02*
X67748589Y-66629276D01*
X67748589Y-66629276D02*
X67871960Y-66629276D01*
X67871960Y-66629276D02*
X67954208Y-66588152D01*
X67954208Y-66588152D02*
X67995331Y-66547029D01*
X67995331Y-66547029D02*
X68036455Y-66464781D01*
X68036455Y-66464781D02*
X68036455Y-66135791D01*
X68406570Y-66958267D02*
X68447693Y-67081638D01*
X68447693Y-67081638D02*
X68447693Y-67287257D01*
X68447693Y-67287257D02*
X68406570Y-67369505D01*
X68406570Y-67369505D02*
X68365446Y-67410629D01*
X68365446Y-67410629D02*
X68283198Y-67451752D01*
X68283198Y-67451752D02*
X68200950Y-67451752D01*
X68200950Y-67451752D02*
X68118703Y-67410629D01*
X68118703Y-67410629D02*
X68077579Y-67369505D01*
X68077579Y-67369505D02*
X68036455Y-67287257D01*
X68036455Y-67287257D02*
X67995331Y-67122762D01*
X67995331Y-67122762D02*
X67954208Y-67040514D01*
X67954208Y-67040514D02*
X67913084Y-66999391D01*
X67913084Y-66999391D02*
X67830836Y-66958267D01*
X67830836Y-66958267D02*
X67748589Y-66958267D01*
X67748589Y-66958267D02*
X67666341Y-66999391D01*
X67666341Y-66999391D02*
X67625217Y-67040514D01*
X67625217Y-67040514D02*
X67584093Y-67122762D01*
X67584093Y-67122762D02*
X67584093Y-67328381D01*
X67584093Y-67328381D02*
X67625217Y-67451752D01*
X67584093Y-67698495D02*
X67584093Y-68191981D01*
X68447693Y-67945238D02*
X67584093Y-67945238D01*
X45654217Y-56757142D02*
X45613093Y-56674895D01*
X45613093Y-56674895D02*
X45613093Y-56551523D01*
X45613093Y-56551523D02*
X45654217Y-56428152D01*
X45654217Y-56428152D02*
X45736465Y-56345904D01*
X45736465Y-56345904D02*
X45818712Y-56304781D01*
X45818712Y-56304781D02*
X45983208Y-56263657D01*
X45983208Y-56263657D02*
X46106579Y-56263657D01*
X46106579Y-56263657D02*
X46271074Y-56304781D01*
X46271074Y-56304781D02*
X46353322Y-56345904D01*
X46353322Y-56345904D02*
X46435570Y-56428152D01*
X46435570Y-56428152D02*
X46476693Y-56551523D01*
X46476693Y-56551523D02*
X46476693Y-56633771D01*
X46476693Y-56633771D02*
X46435570Y-56757142D01*
X46435570Y-56757142D02*
X46394446Y-56798266D01*
X46394446Y-56798266D02*
X46106579Y-56798266D01*
X46106579Y-56798266D02*
X46106579Y-56633771D01*
X45613093Y-57579619D02*
X45613093Y-57168381D01*
X45613093Y-57168381D02*
X46024331Y-57127257D01*
X46024331Y-57127257D02*
X45983208Y-57168381D01*
X45983208Y-57168381D02*
X45942084Y-57250628D01*
X45942084Y-57250628D02*
X45942084Y-57456247D01*
X45942084Y-57456247D02*
X45983208Y-57538495D01*
X45983208Y-57538495D02*
X46024331Y-57579619D01*
X46024331Y-57579619D02*
X46106579Y-57620742D01*
X46106579Y-57620742D02*
X46312198Y-57620742D01*
X46312198Y-57620742D02*
X46394446Y-57579619D01*
X46394446Y-57579619D02*
X46435570Y-57538495D01*
X46435570Y-57538495D02*
X46476693Y-57456247D01*
X46476693Y-57456247D02*
X46476693Y-57250628D01*
X46476693Y-57250628D02*
X46435570Y-57168381D01*
X46435570Y-57168381D02*
X46394446Y-57127257D01*
X45654217Y-49137142D02*
X45613093Y-49054895D01*
X45613093Y-49054895D02*
X45613093Y-48931523D01*
X45613093Y-48931523D02*
X45654217Y-48808152D01*
X45654217Y-48808152D02*
X45736465Y-48725904D01*
X45736465Y-48725904D02*
X45818712Y-48684781D01*
X45818712Y-48684781D02*
X45983208Y-48643657D01*
X45983208Y-48643657D02*
X46106579Y-48643657D01*
X46106579Y-48643657D02*
X46271074Y-48684781D01*
X46271074Y-48684781D02*
X46353322Y-48725904D01*
X46353322Y-48725904D02*
X46435570Y-48808152D01*
X46435570Y-48808152D02*
X46476693Y-48931523D01*
X46476693Y-48931523D02*
X46476693Y-49013771D01*
X46476693Y-49013771D02*
X46435570Y-49137142D01*
X46435570Y-49137142D02*
X46394446Y-49178266D01*
X46394446Y-49178266D02*
X46106579Y-49178266D01*
X46106579Y-49178266D02*
X46106579Y-49013771D01*
X45695341Y-49507257D02*
X45654217Y-49548381D01*
X45654217Y-49548381D02*
X45613093Y-49630628D01*
X45613093Y-49630628D02*
X45613093Y-49836247D01*
X45613093Y-49836247D02*
X45654217Y-49918495D01*
X45654217Y-49918495D02*
X45695341Y-49959619D01*
X45695341Y-49959619D02*
X45777589Y-50000742D01*
X45777589Y-50000742D02*
X45859836Y-50000742D01*
X45859836Y-50000742D02*
X45983208Y-49959619D01*
X45983208Y-49959619D02*
X46476693Y-49466133D01*
X46476693Y-49466133D02*
X46476693Y-50000742D01*
X45654217Y-46597142D02*
X45613093Y-46514895D01*
X45613093Y-46514895D02*
X45613093Y-46391523D01*
X45613093Y-46391523D02*
X45654217Y-46268152D01*
X45654217Y-46268152D02*
X45736465Y-46185904D01*
X45736465Y-46185904D02*
X45818712Y-46144781D01*
X45818712Y-46144781D02*
X45983208Y-46103657D01*
X45983208Y-46103657D02*
X46106579Y-46103657D01*
X46106579Y-46103657D02*
X46271074Y-46144781D01*
X46271074Y-46144781D02*
X46353322Y-46185904D01*
X46353322Y-46185904D02*
X46435570Y-46268152D01*
X46435570Y-46268152D02*
X46476693Y-46391523D01*
X46476693Y-46391523D02*
X46476693Y-46473771D01*
X46476693Y-46473771D02*
X46435570Y-46597142D01*
X46435570Y-46597142D02*
X46394446Y-46638266D01*
X46394446Y-46638266D02*
X46106579Y-46638266D01*
X46106579Y-46638266D02*
X46106579Y-46473771D01*
X46476693Y-47460742D02*
X46476693Y-46967257D01*
X46476693Y-47214000D02*
X45613093Y-47214000D01*
X45613093Y-47214000D02*
X45736465Y-47131752D01*
X45736465Y-47131752D02*
X45818712Y-47049504D01*
X45818712Y-47049504D02*
X45859836Y-46967257D01*
D14*
%TO.C,U1*%
X42672000Y-17272000D02*
X42672000Y-18288000D01*
X42164000Y-17780000D02*
X42672000Y-17272000D01*
X42672000Y-18288000D02*
X42164000Y-17780000D01*
X42164000Y-19812000D02*
X42672000Y-20320000D01*
X42672000Y-20320000D02*
X42164000Y-20828000D01*
X42164000Y-20828000D02*
X42164000Y-19812000D01*
X42164000Y-24892000D02*
X42672000Y-25400000D01*
X42672000Y-25400000D02*
X42164000Y-25908000D01*
X42164000Y-25908000D02*
X42164000Y-24892000D01*
X42672000Y-27432000D02*
X42672000Y-28448000D01*
X42164000Y-27940000D02*
X42672000Y-27432000D01*
X42672000Y-28448000D02*
X42164000Y-27940000D01*
X42672000Y-29972000D02*
X42672000Y-30988000D01*
X42164000Y-30480000D02*
X42672000Y-29972000D01*
X42672000Y-30988000D02*
X42164000Y-30480000D01*
X42164000Y-32512000D02*
X42672000Y-33020000D01*
X42672000Y-33020000D02*
X42164000Y-33528000D01*
X42164000Y-33528000D02*
X42164000Y-32512000D01*
X42164000Y-35052000D02*
X42672000Y-35560000D01*
X42672000Y-35560000D02*
X42164000Y-36068000D01*
X42164000Y-36068000D02*
X42164000Y-35052000D01*
X42672000Y-37592000D02*
X42672000Y-38608000D01*
X42164000Y-38100000D02*
X42672000Y-37592000D01*
X42672000Y-38608000D02*
X42164000Y-38100000D01*
%TD*%
M02*
