%TF.GenerationSoftware,KiCad,Pcbnew,7.0.10*%
%TF.CreationDate,2024-07-23T22:25:42+01:00*%
%TF.ProjectId,CanSatv2,43616e53-6174-4763-922e-6b696361645f,rev?*%
%TF.SameCoordinates,Original*%
%TF.FileFunction,Legend,Top*%
%TF.FilePolarity,Positive*%
%FSLAX46Y46*%
G04 Gerber Fmt 4.6, Leading zero omitted, Abs format (unit mm)*
G04 Created by KiCad (PCBNEW 7.0.10) date 2024-07-23 22:25:42*
%MOMM*%
%LPD*%
G01*
G04 APERTURE LIST*
%ADD10C,0.150000*%
%ADD11C,0.120000*%
G04 APERTURE END LIST*
D10*
X36969819Y-55543220D02*
X37779342Y-55543220D01*
X37779342Y-55543220D02*
X37874580Y-55495601D01*
X37874580Y-55495601D02*
X37922200Y-55447982D01*
X37922200Y-55447982D02*
X37969819Y-55352744D01*
X37969819Y-55352744D02*
X37969819Y-55162268D01*
X37969819Y-55162268D02*
X37922200Y-55067030D01*
X37922200Y-55067030D02*
X37874580Y-55019411D01*
X37874580Y-55019411D02*
X37779342Y-54971792D01*
X37779342Y-54971792D02*
X36969819Y-54971792D01*
X37969819Y-54019411D02*
X37969819Y-54495601D01*
X37969819Y-54495601D02*
X36969819Y-54495601D01*
X37684104Y-53733696D02*
X37684104Y-53257506D01*
X37969819Y-53828934D02*
X36969819Y-53495601D01*
X36969819Y-53495601D02*
X37969819Y-53162268D01*
X37922200Y-52876553D02*
X37969819Y-52733696D01*
X37969819Y-52733696D02*
X37969819Y-52495601D01*
X37969819Y-52495601D02*
X37922200Y-52400363D01*
X37922200Y-52400363D02*
X37874580Y-52352744D01*
X37874580Y-52352744D02*
X37779342Y-52305125D01*
X37779342Y-52305125D02*
X37684104Y-52305125D01*
X37684104Y-52305125D02*
X37588866Y-52352744D01*
X37588866Y-52352744D02*
X37541247Y-52400363D01*
X37541247Y-52400363D02*
X37493628Y-52495601D01*
X37493628Y-52495601D02*
X37446009Y-52686077D01*
X37446009Y-52686077D02*
X37398390Y-52781315D01*
X37398390Y-52781315D02*
X37350771Y-52828934D01*
X37350771Y-52828934D02*
X37255533Y-52876553D01*
X37255533Y-52876553D02*
X37160295Y-52876553D01*
X37160295Y-52876553D02*
X37065057Y-52828934D01*
X37065057Y-52828934D02*
X37017438Y-52781315D01*
X37017438Y-52781315D02*
X36969819Y-52686077D01*
X36969819Y-52686077D02*
X36969819Y-52447982D01*
X36969819Y-52447982D02*
X37017438Y-52305125D01*
X37969819Y-51114648D02*
X36969819Y-51114648D01*
X37446009Y-51114648D02*
X37446009Y-50543220D01*
X37969819Y-50543220D02*
X36969819Y-50543220D01*
X37969819Y-50067029D02*
X37303152Y-50067029D01*
X36969819Y-50067029D02*
X37017438Y-50114648D01*
X37017438Y-50114648D02*
X37065057Y-50067029D01*
X37065057Y-50067029D02*
X37017438Y-50019410D01*
X37017438Y-50019410D02*
X36969819Y-50067029D01*
X36969819Y-50067029D02*
X37065057Y-50067029D01*
X37969819Y-49590839D02*
X36969819Y-49590839D01*
X36969819Y-49590839D02*
X36969819Y-49209887D01*
X36969819Y-49209887D02*
X37017438Y-49114649D01*
X37017438Y-49114649D02*
X37065057Y-49067030D01*
X37065057Y-49067030D02*
X37160295Y-49019411D01*
X37160295Y-49019411D02*
X37303152Y-49019411D01*
X37303152Y-49019411D02*
X37398390Y-49067030D01*
X37398390Y-49067030D02*
X37446009Y-49114649D01*
X37446009Y-49114649D02*
X37493628Y-49209887D01*
X37493628Y-49209887D02*
X37493628Y-49590839D01*
X37969819Y-48019411D02*
X37493628Y-48352744D01*
X37969819Y-48590839D02*
X36969819Y-48590839D01*
X36969819Y-48590839D02*
X36969819Y-48209887D01*
X36969819Y-48209887D02*
X37017438Y-48114649D01*
X37017438Y-48114649D02*
X37065057Y-48067030D01*
X37065057Y-48067030D02*
X37160295Y-48019411D01*
X37160295Y-48019411D02*
X37303152Y-48019411D01*
X37303152Y-48019411D02*
X37398390Y-48067030D01*
X37398390Y-48067030D02*
X37446009Y-48114649D01*
X37446009Y-48114649D02*
X37493628Y-48209887D01*
X37493628Y-48209887D02*
X37493628Y-48590839D01*
X55118095Y-42634819D02*
X55118095Y-43444342D01*
X55118095Y-43444342D02*
X55165714Y-43539580D01*
X55165714Y-43539580D02*
X55213333Y-43587200D01*
X55213333Y-43587200D02*
X55308571Y-43634819D01*
X55308571Y-43634819D02*
X55499047Y-43634819D01*
X55499047Y-43634819D02*
X55594285Y-43587200D01*
X55594285Y-43587200D02*
X55641904Y-43539580D01*
X55641904Y-43539580D02*
X55689523Y-43444342D01*
X55689523Y-43444342D02*
X55689523Y-42634819D01*
X56070476Y-42634819D02*
X56689523Y-42634819D01*
X56689523Y-42634819D02*
X56356190Y-43015771D01*
X56356190Y-43015771D02*
X56499047Y-43015771D01*
X56499047Y-43015771D02*
X56594285Y-43063390D01*
X56594285Y-43063390D02*
X56641904Y-43111009D01*
X56641904Y-43111009D02*
X56689523Y-43206247D01*
X56689523Y-43206247D02*
X56689523Y-43444342D01*
X56689523Y-43444342D02*
X56641904Y-43539580D01*
X56641904Y-43539580D02*
X56594285Y-43587200D01*
X56594285Y-43587200D02*
X56499047Y-43634819D01*
X56499047Y-43634819D02*
X56213333Y-43634819D01*
X56213333Y-43634819D02*
X56118095Y-43587200D01*
X56118095Y-43587200D02*
X56070476Y-43539580D01*
X60246435Y-49678431D02*
X60165623Y-49705368D01*
X60165623Y-49705368D02*
X60084811Y-49786180D01*
X60084811Y-49786180D02*
X60030936Y-49893930D01*
X60030936Y-49893930D02*
X60030936Y-50001680D01*
X60030936Y-50001680D02*
X60057873Y-50082492D01*
X60057873Y-50082492D02*
X60138685Y-50217179D01*
X60138685Y-50217179D02*
X60219498Y-50297991D01*
X60219498Y-50297991D02*
X60354185Y-50378803D01*
X60354185Y-50378803D02*
X60434997Y-50405741D01*
X60434997Y-50405741D02*
X60542746Y-50405741D01*
X60542746Y-50405741D02*
X60650496Y-50351866D01*
X60650496Y-50351866D02*
X60704371Y-50297991D01*
X60704371Y-50297991D02*
X60758246Y-50190241D01*
X60758246Y-50190241D02*
X60758246Y-50136367D01*
X60758246Y-50136367D02*
X60569684Y-49947805D01*
X60569684Y-49947805D02*
X60461934Y-50055554D01*
X61054557Y-49947805D02*
X60488872Y-49382119D01*
X60488872Y-49382119D02*
X61377806Y-49624556D01*
X61377806Y-49624556D02*
X60812120Y-49058871D01*
X61647180Y-49355182D02*
X61081494Y-48789497D01*
X61081494Y-48789497D02*
X61216181Y-48654810D01*
X61216181Y-48654810D02*
X61323931Y-48600935D01*
X61323931Y-48600935D02*
X61431680Y-48600935D01*
X61431680Y-48600935D02*
X61512493Y-48627872D01*
X61512493Y-48627872D02*
X61647180Y-48708685D01*
X61647180Y-48708685D02*
X61727992Y-48789497D01*
X61727992Y-48789497D02*
X61808804Y-48924184D01*
X61808804Y-48924184D02*
X61835741Y-49004996D01*
X61835741Y-49004996D02*
X61835741Y-49112746D01*
X61835741Y-49112746D02*
X61781867Y-49220495D01*
X61781867Y-49220495D02*
X61647180Y-49355182D01*
X49843998Y-52460868D02*
X49763185Y-52487805D01*
X49763185Y-52487805D02*
X49682373Y-52568618D01*
X49682373Y-52568618D02*
X49628498Y-52676367D01*
X49628498Y-52676367D02*
X49628498Y-52784117D01*
X49628498Y-52784117D02*
X49655436Y-52864929D01*
X49655436Y-52864929D02*
X49736248Y-52999616D01*
X49736248Y-52999616D02*
X49817060Y-53080428D01*
X49817060Y-53080428D02*
X49951747Y-53161241D01*
X49951747Y-53161241D02*
X50032560Y-53188178D01*
X50032560Y-53188178D02*
X50140309Y-53188178D01*
X50140309Y-53188178D02*
X50248059Y-53134303D01*
X50248059Y-53134303D02*
X50301934Y-53080428D01*
X50301934Y-53080428D02*
X50355808Y-52972679D01*
X50355808Y-52972679D02*
X50355808Y-52918804D01*
X50355808Y-52918804D02*
X50167247Y-52730242D01*
X50167247Y-52730242D02*
X50059497Y-52837992D01*
X50652120Y-52730242D02*
X50086434Y-52164557D01*
X50086434Y-52164557D02*
X50301934Y-51949057D01*
X50301934Y-51949057D02*
X50382746Y-51922120D01*
X50382746Y-51922120D02*
X50436621Y-51922120D01*
X50436621Y-51922120D02*
X50517433Y-51949057D01*
X50517433Y-51949057D02*
X50598245Y-52029870D01*
X50598245Y-52029870D02*
X50625182Y-52110682D01*
X50625182Y-52110682D02*
X50625182Y-52164557D01*
X50625182Y-52164557D02*
X50598245Y-52245369D01*
X50598245Y-52245369D02*
X50382746Y-52460868D01*
X51514117Y-51868245D02*
X51190868Y-52191494D01*
X51352492Y-52029870D02*
X50786807Y-51464184D01*
X50786807Y-51464184D02*
X50813744Y-51598871D01*
X50813744Y-51598871D02*
X50813744Y-51706621D01*
X50813744Y-51706621D02*
X50786807Y-51787433D01*
X51298618Y-50952373D02*
X51352492Y-50898499D01*
X51352492Y-50898499D02*
X51433305Y-50871561D01*
X51433305Y-50871561D02*
X51487179Y-50871561D01*
X51487179Y-50871561D02*
X51567992Y-50898499D01*
X51567992Y-50898499D02*
X51702679Y-50979311D01*
X51702679Y-50979311D02*
X51837366Y-51113998D01*
X51837366Y-51113998D02*
X51918178Y-51248685D01*
X51918178Y-51248685D02*
X51945115Y-51329497D01*
X51945115Y-51329497D02*
X51945115Y-51383372D01*
X51945115Y-51383372D02*
X51918178Y-51464184D01*
X51918178Y-51464184D02*
X51864303Y-51518059D01*
X51864303Y-51518059D02*
X51783491Y-51544996D01*
X51783491Y-51544996D02*
X51729616Y-51544996D01*
X51729616Y-51544996D02*
X51648804Y-51518059D01*
X51648804Y-51518059D02*
X51514117Y-51437247D01*
X51514117Y-51437247D02*
X51379430Y-51302560D01*
X51379430Y-51302560D02*
X51298618Y-51167873D01*
X51298618Y-51167873D02*
X51271680Y-51087060D01*
X51271680Y-51087060D02*
X51271680Y-51033186D01*
X51271680Y-51033186D02*
X51298618Y-50952373D01*
X42366435Y-24278431D02*
X42285623Y-24305368D01*
X42285623Y-24305368D02*
X42204811Y-24386180D01*
X42204811Y-24386180D02*
X42150936Y-24493930D01*
X42150936Y-24493930D02*
X42150936Y-24601680D01*
X42150936Y-24601680D02*
X42177873Y-24682492D01*
X42177873Y-24682492D02*
X42258685Y-24817179D01*
X42258685Y-24817179D02*
X42339498Y-24897991D01*
X42339498Y-24897991D02*
X42474185Y-24978803D01*
X42474185Y-24978803D02*
X42554997Y-25005741D01*
X42554997Y-25005741D02*
X42662746Y-25005741D01*
X42662746Y-25005741D02*
X42770496Y-24951866D01*
X42770496Y-24951866D02*
X42824371Y-24897991D01*
X42824371Y-24897991D02*
X42878246Y-24790241D01*
X42878246Y-24790241D02*
X42878246Y-24736367D01*
X42878246Y-24736367D02*
X42689684Y-24547805D01*
X42689684Y-24547805D02*
X42581934Y-24655554D01*
X43174557Y-24547805D02*
X42608872Y-23982119D01*
X42608872Y-23982119D02*
X43497806Y-24224556D01*
X43497806Y-24224556D02*
X42932120Y-23658871D01*
X43767180Y-23955182D02*
X43201494Y-23389497D01*
X43201494Y-23389497D02*
X43336181Y-23254810D01*
X43336181Y-23254810D02*
X43443931Y-23200935D01*
X43443931Y-23200935D02*
X43551680Y-23200935D01*
X43551680Y-23200935D02*
X43632493Y-23227872D01*
X43632493Y-23227872D02*
X43767180Y-23308685D01*
X43767180Y-23308685D02*
X43847992Y-23389497D01*
X43847992Y-23389497D02*
X43928804Y-23524184D01*
X43928804Y-23524184D02*
X43955741Y-23604996D01*
X43955741Y-23604996D02*
X43955741Y-23712746D01*
X43955741Y-23712746D02*
X43901867Y-23820495D01*
X43901867Y-23820495D02*
X43767180Y-23955182D01*
X50086435Y-49678431D02*
X50005623Y-49705368D01*
X50005623Y-49705368D02*
X49924811Y-49786180D01*
X49924811Y-49786180D02*
X49870936Y-49893930D01*
X49870936Y-49893930D02*
X49870936Y-50001680D01*
X49870936Y-50001680D02*
X49897873Y-50082492D01*
X49897873Y-50082492D02*
X49978685Y-50217179D01*
X49978685Y-50217179D02*
X50059498Y-50297991D01*
X50059498Y-50297991D02*
X50194185Y-50378803D01*
X50194185Y-50378803D02*
X50274997Y-50405741D01*
X50274997Y-50405741D02*
X50382746Y-50405741D01*
X50382746Y-50405741D02*
X50490496Y-50351866D01*
X50490496Y-50351866D02*
X50544371Y-50297991D01*
X50544371Y-50297991D02*
X50598246Y-50190241D01*
X50598246Y-50190241D02*
X50598246Y-50136367D01*
X50598246Y-50136367D02*
X50409684Y-49947805D01*
X50409684Y-49947805D02*
X50301934Y-50055554D01*
X50894557Y-49947805D02*
X50328872Y-49382119D01*
X50328872Y-49382119D02*
X51217806Y-49624556D01*
X51217806Y-49624556D02*
X50652120Y-49058871D01*
X51487180Y-49355182D02*
X50921494Y-48789497D01*
X50921494Y-48789497D02*
X51056181Y-48654810D01*
X51056181Y-48654810D02*
X51163931Y-48600935D01*
X51163931Y-48600935D02*
X51271680Y-48600935D01*
X51271680Y-48600935D02*
X51352493Y-48627872D01*
X51352493Y-48627872D02*
X51487180Y-48708685D01*
X51487180Y-48708685D02*
X51567992Y-48789497D01*
X51567992Y-48789497D02*
X51648804Y-48924184D01*
X51648804Y-48924184D02*
X51675741Y-49004996D01*
X51675741Y-49004996D02*
X51675741Y-49112746D01*
X51675741Y-49112746D02*
X51621867Y-49220495D01*
X51621867Y-49220495D02*
X51487180Y-49355182D01*
X67977998Y-34426868D02*
X67897185Y-34453805D01*
X67897185Y-34453805D02*
X67816373Y-34534618D01*
X67816373Y-34534618D02*
X67762498Y-34642367D01*
X67762498Y-34642367D02*
X67762498Y-34750117D01*
X67762498Y-34750117D02*
X67789436Y-34830929D01*
X67789436Y-34830929D02*
X67870248Y-34965616D01*
X67870248Y-34965616D02*
X67951060Y-35046428D01*
X67951060Y-35046428D02*
X68085747Y-35127241D01*
X68085747Y-35127241D02*
X68166560Y-35154178D01*
X68166560Y-35154178D02*
X68274309Y-35154178D01*
X68274309Y-35154178D02*
X68382059Y-35100303D01*
X68382059Y-35100303D02*
X68435934Y-35046428D01*
X68435934Y-35046428D02*
X68489808Y-34938679D01*
X68489808Y-34938679D02*
X68489808Y-34884804D01*
X68489808Y-34884804D02*
X68301247Y-34696242D01*
X68301247Y-34696242D02*
X68193497Y-34803992D01*
X68786120Y-34696242D02*
X68220434Y-34130557D01*
X68220434Y-34130557D02*
X68435934Y-33915057D01*
X68435934Y-33915057D02*
X68516746Y-33888120D01*
X68516746Y-33888120D02*
X68570621Y-33888120D01*
X68570621Y-33888120D02*
X68651433Y-33915057D01*
X68651433Y-33915057D02*
X68732245Y-33995870D01*
X68732245Y-33995870D02*
X68759182Y-34076682D01*
X68759182Y-34076682D02*
X68759182Y-34130557D01*
X68759182Y-34130557D02*
X68732245Y-34211369D01*
X68732245Y-34211369D02*
X68516746Y-34426868D01*
X68813057Y-33645683D02*
X68813057Y-33591809D01*
X68813057Y-33591809D02*
X68839995Y-33510996D01*
X68839995Y-33510996D02*
X68974682Y-33376309D01*
X68974682Y-33376309D02*
X69055494Y-33349372D01*
X69055494Y-33349372D02*
X69109369Y-33349372D01*
X69109369Y-33349372D02*
X69190181Y-33376309D01*
X69190181Y-33376309D02*
X69244056Y-33430184D01*
X69244056Y-33430184D02*
X69297930Y-33537934D01*
X69297930Y-33537934D02*
X69297930Y-34184431D01*
X69297930Y-34184431D02*
X69648117Y-33834245D01*
X69648117Y-33187747D02*
X69567305Y-33214685D01*
X69567305Y-33214685D02*
X69513430Y-33214685D01*
X69513430Y-33214685D02*
X69432618Y-33187747D01*
X69432618Y-33187747D02*
X69405680Y-33160810D01*
X69405680Y-33160810D02*
X69378743Y-33079998D01*
X69378743Y-33079998D02*
X69378743Y-33026123D01*
X69378743Y-33026123D02*
X69405680Y-32945311D01*
X69405680Y-32945311D02*
X69513430Y-32837561D01*
X69513430Y-32837561D02*
X69594242Y-32810624D01*
X69594242Y-32810624D02*
X69648117Y-32810624D01*
X69648117Y-32810624D02*
X69728929Y-32837561D01*
X69728929Y-32837561D02*
X69755866Y-32864499D01*
X69755866Y-32864499D02*
X69782804Y-32945311D01*
X69782804Y-32945311D02*
X69782804Y-32999186D01*
X69782804Y-32999186D02*
X69755866Y-33079998D01*
X69755866Y-33079998D02*
X69648117Y-33187747D01*
X69648117Y-33187747D02*
X69621179Y-33268560D01*
X69621179Y-33268560D02*
X69621179Y-33322434D01*
X69621179Y-33322434D02*
X69648117Y-33403247D01*
X69648117Y-33403247D02*
X69755866Y-33510996D01*
X69755866Y-33510996D02*
X69836679Y-33537934D01*
X69836679Y-33537934D02*
X69890553Y-33537934D01*
X69890553Y-33537934D02*
X69971366Y-33510996D01*
X69971366Y-33510996D02*
X70079115Y-33403247D01*
X70079115Y-33403247D02*
X70106053Y-33322434D01*
X70106053Y-33322434D02*
X70106053Y-33268560D01*
X70106053Y-33268560D02*
X70079115Y-33187747D01*
X70079115Y-33187747D02*
X69971366Y-33079998D01*
X69971366Y-33079998D02*
X69890553Y-33053060D01*
X69890553Y-33053060D02*
X69836679Y-33053060D01*
X69836679Y-33053060D02*
X69755866Y-33079998D01*
X49843998Y-57540868D02*
X49763185Y-57567805D01*
X49763185Y-57567805D02*
X49682373Y-57648618D01*
X49682373Y-57648618D02*
X49628498Y-57756367D01*
X49628498Y-57756367D02*
X49628498Y-57864117D01*
X49628498Y-57864117D02*
X49655436Y-57944929D01*
X49655436Y-57944929D02*
X49736248Y-58079616D01*
X49736248Y-58079616D02*
X49817060Y-58160428D01*
X49817060Y-58160428D02*
X49951747Y-58241241D01*
X49951747Y-58241241D02*
X50032560Y-58268178D01*
X50032560Y-58268178D02*
X50140309Y-58268178D01*
X50140309Y-58268178D02*
X50248059Y-58214303D01*
X50248059Y-58214303D02*
X50301934Y-58160428D01*
X50301934Y-58160428D02*
X50355808Y-58052679D01*
X50355808Y-58052679D02*
X50355808Y-57998804D01*
X50355808Y-57998804D02*
X50167247Y-57810242D01*
X50167247Y-57810242D02*
X50059497Y-57917992D01*
X50652120Y-57810242D02*
X50086434Y-57244557D01*
X50086434Y-57244557D02*
X50301934Y-57029057D01*
X50301934Y-57029057D02*
X50382746Y-57002120D01*
X50382746Y-57002120D02*
X50436621Y-57002120D01*
X50436621Y-57002120D02*
X50517433Y-57029057D01*
X50517433Y-57029057D02*
X50598245Y-57109870D01*
X50598245Y-57109870D02*
X50625182Y-57190682D01*
X50625182Y-57190682D02*
X50625182Y-57244557D01*
X50625182Y-57244557D02*
X50598245Y-57325369D01*
X50598245Y-57325369D02*
X50382746Y-57540868D01*
X51514117Y-56948245D02*
X51190868Y-57271494D01*
X51352492Y-57109870D02*
X50786807Y-56544184D01*
X50786807Y-56544184D02*
X50813744Y-56678871D01*
X50813744Y-56678871D02*
X50813744Y-56786621D01*
X50813744Y-56786621D02*
X50786807Y-56867433D01*
X51217805Y-56220935D02*
X51217805Y-56167060D01*
X51217805Y-56167060D02*
X51244743Y-56086248D01*
X51244743Y-56086248D02*
X51379430Y-55951561D01*
X51379430Y-55951561D02*
X51460242Y-55924624D01*
X51460242Y-55924624D02*
X51514117Y-55924624D01*
X51514117Y-55924624D02*
X51594929Y-55951561D01*
X51594929Y-55951561D02*
X51648804Y-56005436D01*
X51648804Y-56005436D02*
X51702679Y-56113186D01*
X51702679Y-56113186D02*
X51702679Y-56759683D01*
X51702679Y-56759683D02*
X52052865Y-56409497D01*
X60003998Y-52470868D02*
X59923185Y-52497805D01*
X59923185Y-52497805D02*
X59842373Y-52578618D01*
X59842373Y-52578618D02*
X59788498Y-52686367D01*
X59788498Y-52686367D02*
X59788498Y-52794117D01*
X59788498Y-52794117D02*
X59815436Y-52874929D01*
X59815436Y-52874929D02*
X59896248Y-53009616D01*
X59896248Y-53009616D02*
X59977060Y-53090428D01*
X59977060Y-53090428D02*
X60111747Y-53171241D01*
X60111747Y-53171241D02*
X60192560Y-53198178D01*
X60192560Y-53198178D02*
X60300309Y-53198178D01*
X60300309Y-53198178D02*
X60408059Y-53144303D01*
X60408059Y-53144303D02*
X60461934Y-53090428D01*
X60461934Y-53090428D02*
X60515808Y-52982679D01*
X60515808Y-52982679D02*
X60515808Y-52928804D01*
X60515808Y-52928804D02*
X60327247Y-52740242D01*
X60327247Y-52740242D02*
X60219497Y-52847992D01*
X60812120Y-52740242D02*
X60246434Y-52174557D01*
X60246434Y-52174557D02*
X60461934Y-51959057D01*
X60461934Y-51959057D02*
X60542746Y-51932120D01*
X60542746Y-51932120D02*
X60596621Y-51932120D01*
X60596621Y-51932120D02*
X60677433Y-51959057D01*
X60677433Y-51959057D02*
X60758245Y-52039870D01*
X60758245Y-52039870D02*
X60785182Y-52120682D01*
X60785182Y-52120682D02*
X60785182Y-52174557D01*
X60785182Y-52174557D02*
X60758245Y-52255369D01*
X60758245Y-52255369D02*
X60542746Y-52470868D01*
X60839057Y-51689683D02*
X60839057Y-51635809D01*
X60839057Y-51635809D02*
X60865995Y-51554996D01*
X60865995Y-51554996D02*
X61000682Y-51420309D01*
X61000682Y-51420309D02*
X61081494Y-51393372D01*
X61081494Y-51393372D02*
X61135369Y-51393372D01*
X61135369Y-51393372D02*
X61216181Y-51420309D01*
X61216181Y-51420309D02*
X61270056Y-51474184D01*
X61270056Y-51474184D02*
X61323930Y-51581934D01*
X61323930Y-51581934D02*
X61323930Y-52228431D01*
X61323930Y-52228431D02*
X61674117Y-51878245D01*
X62212865Y-51339497D02*
X61889616Y-51662746D01*
X62051240Y-51501121D02*
X61485555Y-50935436D01*
X61485555Y-50935436D02*
X61512492Y-51070123D01*
X61512492Y-51070123D02*
X61512492Y-51177873D01*
X61512492Y-51177873D02*
X61485555Y-51258685D01*
X42293372Y-21701494D02*
X42212560Y-21728431D01*
X42212560Y-21728431D02*
X42131748Y-21809243D01*
X42131748Y-21809243D02*
X42077873Y-21916993D01*
X42077873Y-21916993D02*
X42077873Y-22024742D01*
X42077873Y-22024742D02*
X42104810Y-22105555D01*
X42104810Y-22105555D02*
X42185623Y-22240242D01*
X42185623Y-22240242D02*
X42266435Y-22321054D01*
X42266435Y-22321054D02*
X42401122Y-22401866D01*
X42401122Y-22401866D02*
X42481934Y-22428803D01*
X42481934Y-22428803D02*
X42589684Y-22428803D01*
X42589684Y-22428803D02*
X42697433Y-22374929D01*
X42697433Y-22374929D02*
X42751308Y-22321054D01*
X42751308Y-22321054D02*
X42805183Y-22213304D01*
X42805183Y-22213304D02*
X42805183Y-22159429D01*
X42805183Y-22159429D02*
X42616621Y-21970868D01*
X42616621Y-21970868D02*
X42508871Y-22078617D01*
X43101494Y-21970868D02*
X42535809Y-21405182D01*
X42535809Y-21405182D02*
X42751308Y-21189683D01*
X42751308Y-21189683D02*
X42832120Y-21162746D01*
X42832120Y-21162746D02*
X42885995Y-21162746D01*
X42885995Y-21162746D02*
X42966807Y-21189683D01*
X42966807Y-21189683D02*
X43047619Y-21270495D01*
X43047619Y-21270495D02*
X43074557Y-21351307D01*
X43074557Y-21351307D02*
X43074557Y-21405182D01*
X43074557Y-21405182D02*
X43047619Y-21485994D01*
X43047619Y-21485994D02*
X42832120Y-21701494D01*
X43963491Y-21108871D02*
X43640242Y-21432120D01*
X43801867Y-21270495D02*
X43236181Y-20704810D01*
X43236181Y-20704810D02*
X43263119Y-20839497D01*
X43263119Y-20839497D02*
X43263119Y-20947246D01*
X43263119Y-20947246D02*
X43236181Y-21028059D01*
X50113372Y-47111494D02*
X50032560Y-47138431D01*
X50032560Y-47138431D02*
X49951748Y-47219243D01*
X49951748Y-47219243D02*
X49897873Y-47326993D01*
X49897873Y-47326993D02*
X49897873Y-47434742D01*
X49897873Y-47434742D02*
X49924810Y-47515555D01*
X49924810Y-47515555D02*
X50005623Y-47650242D01*
X50005623Y-47650242D02*
X50086435Y-47731054D01*
X50086435Y-47731054D02*
X50221122Y-47811866D01*
X50221122Y-47811866D02*
X50301934Y-47838803D01*
X50301934Y-47838803D02*
X50409684Y-47838803D01*
X50409684Y-47838803D02*
X50517433Y-47784929D01*
X50517433Y-47784929D02*
X50571308Y-47731054D01*
X50571308Y-47731054D02*
X50625183Y-47623304D01*
X50625183Y-47623304D02*
X50625183Y-47569429D01*
X50625183Y-47569429D02*
X50436621Y-47380868D01*
X50436621Y-47380868D02*
X50328871Y-47488617D01*
X50921494Y-47380868D02*
X50355809Y-46815182D01*
X50355809Y-46815182D02*
X50571308Y-46599683D01*
X50571308Y-46599683D02*
X50652120Y-46572746D01*
X50652120Y-46572746D02*
X50705995Y-46572746D01*
X50705995Y-46572746D02*
X50786807Y-46599683D01*
X50786807Y-46599683D02*
X50867619Y-46680495D01*
X50867619Y-46680495D02*
X50894557Y-46761307D01*
X50894557Y-46761307D02*
X50894557Y-46815182D01*
X50894557Y-46815182D02*
X50867619Y-46895994D01*
X50867619Y-46895994D02*
X50652120Y-47111494D01*
X51514117Y-46788245D02*
X51621867Y-46680495D01*
X51621867Y-46680495D02*
X51648804Y-46599683D01*
X51648804Y-46599683D02*
X51648804Y-46545808D01*
X51648804Y-46545808D02*
X51621867Y-46411121D01*
X51621867Y-46411121D02*
X51541054Y-46276434D01*
X51541054Y-46276434D02*
X51325555Y-46060935D01*
X51325555Y-46060935D02*
X51244743Y-46033998D01*
X51244743Y-46033998D02*
X51190868Y-46033998D01*
X51190868Y-46033998D02*
X51110056Y-46060935D01*
X51110056Y-46060935D02*
X51002306Y-46168685D01*
X51002306Y-46168685D02*
X50975369Y-46249497D01*
X50975369Y-46249497D02*
X50975369Y-46303372D01*
X50975369Y-46303372D02*
X51002306Y-46384184D01*
X51002306Y-46384184D02*
X51136993Y-46518871D01*
X51136993Y-46518871D02*
X51217806Y-46545808D01*
X51217806Y-46545808D02*
X51271680Y-46545808D01*
X51271680Y-46545808D02*
X51352493Y-46518871D01*
X51352493Y-46518871D02*
X51460242Y-46411121D01*
X51460242Y-46411121D02*
X51487180Y-46330309D01*
X51487180Y-46330309D02*
X51487180Y-46276434D01*
X51487180Y-46276434D02*
X51460242Y-46195622D01*
X60003998Y-60080868D02*
X59923185Y-60107805D01*
X59923185Y-60107805D02*
X59842373Y-60188618D01*
X59842373Y-60188618D02*
X59788498Y-60296367D01*
X59788498Y-60296367D02*
X59788498Y-60404117D01*
X59788498Y-60404117D02*
X59815436Y-60484929D01*
X59815436Y-60484929D02*
X59896248Y-60619616D01*
X59896248Y-60619616D02*
X59977060Y-60700428D01*
X59977060Y-60700428D02*
X60111747Y-60781241D01*
X60111747Y-60781241D02*
X60192560Y-60808178D01*
X60192560Y-60808178D02*
X60300309Y-60808178D01*
X60300309Y-60808178D02*
X60408059Y-60754303D01*
X60408059Y-60754303D02*
X60461934Y-60700428D01*
X60461934Y-60700428D02*
X60515808Y-60592679D01*
X60515808Y-60592679D02*
X60515808Y-60538804D01*
X60515808Y-60538804D02*
X60327247Y-60350242D01*
X60327247Y-60350242D02*
X60219497Y-60457992D01*
X60812120Y-60350242D02*
X60246434Y-59784557D01*
X60246434Y-59784557D02*
X60461934Y-59569057D01*
X60461934Y-59569057D02*
X60542746Y-59542120D01*
X60542746Y-59542120D02*
X60596621Y-59542120D01*
X60596621Y-59542120D02*
X60677433Y-59569057D01*
X60677433Y-59569057D02*
X60758245Y-59649870D01*
X60758245Y-59649870D02*
X60785182Y-59730682D01*
X60785182Y-59730682D02*
X60785182Y-59784557D01*
X60785182Y-59784557D02*
X60758245Y-59865369D01*
X60758245Y-59865369D02*
X60542746Y-60080868D01*
X61674117Y-59488245D02*
X61350868Y-59811494D01*
X61512492Y-59649870D02*
X60946807Y-59084184D01*
X60946807Y-59084184D02*
X60973744Y-59218871D01*
X60973744Y-59218871D02*
X60973744Y-59326621D01*
X60973744Y-59326621D02*
X60946807Y-59407433D01*
X61674117Y-58841747D02*
X61593305Y-58868685D01*
X61593305Y-58868685D02*
X61539430Y-58868685D01*
X61539430Y-58868685D02*
X61458618Y-58841747D01*
X61458618Y-58841747D02*
X61431680Y-58814810D01*
X61431680Y-58814810D02*
X61404743Y-58733998D01*
X61404743Y-58733998D02*
X61404743Y-58680123D01*
X61404743Y-58680123D02*
X61431680Y-58599311D01*
X61431680Y-58599311D02*
X61539430Y-58491561D01*
X61539430Y-58491561D02*
X61620242Y-58464624D01*
X61620242Y-58464624D02*
X61674117Y-58464624D01*
X61674117Y-58464624D02*
X61754929Y-58491561D01*
X61754929Y-58491561D02*
X61781866Y-58518499D01*
X61781866Y-58518499D02*
X61808804Y-58599311D01*
X61808804Y-58599311D02*
X61808804Y-58653186D01*
X61808804Y-58653186D02*
X61781866Y-58733998D01*
X61781866Y-58733998D02*
X61674117Y-58841747D01*
X61674117Y-58841747D02*
X61647179Y-58922560D01*
X61647179Y-58922560D02*
X61647179Y-58976434D01*
X61647179Y-58976434D02*
X61674117Y-59057247D01*
X61674117Y-59057247D02*
X61781866Y-59164996D01*
X61781866Y-59164996D02*
X61862679Y-59191934D01*
X61862679Y-59191934D02*
X61916553Y-59191934D01*
X61916553Y-59191934D02*
X61997366Y-59164996D01*
X61997366Y-59164996D02*
X62105115Y-59057247D01*
X62105115Y-59057247D02*
X62132053Y-58976434D01*
X62132053Y-58976434D02*
X62132053Y-58922560D01*
X62132053Y-58922560D02*
X62105115Y-58841747D01*
X62105115Y-58841747D02*
X61997366Y-58733998D01*
X61997366Y-58733998D02*
X61916553Y-58707060D01*
X61916553Y-58707060D02*
X61862679Y-58707060D01*
X61862679Y-58707060D02*
X61781866Y-58733998D01*
X42366435Y-36978431D02*
X42285623Y-37005368D01*
X42285623Y-37005368D02*
X42204811Y-37086180D01*
X42204811Y-37086180D02*
X42150936Y-37193930D01*
X42150936Y-37193930D02*
X42150936Y-37301680D01*
X42150936Y-37301680D02*
X42177873Y-37382492D01*
X42177873Y-37382492D02*
X42258685Y-37517179D01*
X42258685Y-37517179D02*
X42339498Y-37597991D01*
X42339498Y-37597991D02*
X42474185Y-37678803D01*
X42474185Y-37678803D02*
X42554997Y-37705741D01*
X42554997Y-37705741D02*
X42662746Y-37705741D01*
X42662746Y-37705741D02*
X42770496Y-37651866D01*
X42770496Y-37651866D02*
X42824371Y-37597991D01*
X42824371Y-37597991D02*
X42878246Y-37490241D01*
X42878246Y-37490241D02*
X42878246Y-37436367D01*
X42878246Y-37436367D02*
X42689684Y-37247805D01*
X42689684Y-37247805D02*
X42581934Y-37355554D01*
X43174557Y-37247805D02*
X42608872Y-36682119D01*
X42608872Y-36682119D02*
X43497806Y-36924556D01*
X43497806Y-36924556D02*
X42932120Y-36358871D01*
X43767180Y-36655182D02*
X43201494Y-36089497D01*
X43201494Y-36089497D02*
X43336181Y-35954810D01*
X43336181Y-35954810D02*
X43443931Y-35900935D01*
X43443931Y-35900935D02*
X43551680Y-35900935D01*
X43551680Y-35900935D02*
X43632493Y-35927872D01*
X43632493Y-35927872D02*
X43767180Y-36008685D01*
X43767180Y-36008685D02*
X43847992Y-36089497D01*
X43847992Y-36089497D02*
X43928804Y-36224184D01*
X43928804Y-36224184D02*
X43955741Y-36304996D01*
X43955741Y-36304996D02*
X43955741Y-36412746D01*
X43955741Y-36412746D02*
X43901867Y-36520495D01*
X43901867Y-36520495D02*
X43767180Y-36655182D01*
X67800749Y-22250242D02*
X68554996Y-22627366D01*
X68554996Y-22627366D02*
X68177873Y-21873118D01*
X68878245Y-22250242D02*
X68985995Y-22196367D01*
X68985995Y-22196367D02*
X69120682Y-22061680D01*
X69120682Y-22061680D02*
X69147619Y-21980868D01*
X69147619Y-21980868D02*
X69147619Y-21926993D01*
X69147619Y-21926993D02*
X69120682Y-21846181D01*
X69120682Y-21846181D02*
X69066807Y-21792306D01*
X69066807Y-21792306D02*
X68985995Y-21765369D01*
X68985995Y-21765369D02*
X68932120Y-21765369D01*
X68932120Y-21765369D02*
X68851308Y-21792306D01*
X68851308Y-21792306D02*
X68716621Y-21873118D01*
X68716621Y-21873118D02*
X68635808Y-21900056D01*
X68635808Y-21900056D02*
X68581934Y-21900056D01*
X68581934Y-21900056D02*
X68501121Y-21873118D01*
X68501121Y-21873118D02*
X68447247Y-21819244D01*
X68447247Y-21819244D02*
X68420309Y-21738431D01*
X68420309Y-21738431D02*
X68420309Y-21684557D01*
X68420309Y-21684557D02*
X68447247Y-21603744D01*
X68447247Y-21603744D02*
X68581934Y-21469057D01*
X68581934Y-21469057D02*
X68689683Y-21415183D01*
X69309244Y-21334370D02*
X69578618Y-21603744D01*
X68824370Y-21226621D02*
X69309244Y-21334370D01*
X69309244Y-21334370D02*
X69201494Y-20849497D01*
X69901866Y-21226621D02*
X70009616Y-21172746D01*
X70009616Y-21172746D02*
X70144303Y-21038059D01*
X70144303Y-21038059D02*
X70171240Y-20957247D01*
X70171240Y-20957247D02*
X70171240Y-20903372D01*
X70171240Y-20903372D02*
X70144303Y-20822560D01*
X70144303Y-20822560D02*
X70090428Y-20768685D01*
X70090428Y-20768685D02*
X70009616Y-20741748D01*
X70009616Y-20741748D02*
X69955741Y-20741748D01*
X69955741Y-20741748D02*
X69874929Y-20768685D01*
X69874929Y-20768685D02*
X69740242Y-20849497D01*
X69740242Y-20849497D02*
X69659430Y-20876435D01*
X69659430Y-20876435D02*
X69605555Y-20876435D01*
X69605555Y-20876435D02*
X69524743Y-20849497D01*
X69524743Y-20849497D02*
X69470868Y-20795622D01*
X69470868Y-20795622D02*
X69443930Y-20714810D01*
X69443930Y-20714810D02*
X69443930Y-20660935D01*
X69443930Y-20660935D02*
X69470868Y-20580123D01*
X69470868Y-20580123D02*
X69605555Y-20445436D01*
X69605555Y-20445436D02*
X69713304Y-20391561D01*
X49843998Y-55000868D02*
X49763185Y-55027805D01*
X49763185Y-55027805D02*
X49682373Y-55108618D01*
X49682373Y-55108618D02*
X49628498Y-55216367D01*
X49628498Y-55216367D02*
X49628498Y-55324117D01*
X49628498Y-55324117D02*
X49655436Y-55404929D01*
X49655436Y-55404929D02*
X49736248Y-55539616D01*
X49736248Y-55539616D02*
X49817060Y-55620428D01*
X49817060Y-55620428D02*
X49951747Y-55701241D01*
X49951747Y-55701241D02*
X50032560Y-55728178D01*
X50032560Y-55728178D02*
X50140309Y-55728178D01*
X50140309Y-55728178D02*
X50248059Y-55674303D01*
X50248059Y-55674303D02*
X50301934Y-55620428D01*
X50301934Y-55620428D02*
X50355808Y-55512679D01*
X50355808Y-55512679D02*
X50355808Y-55458804D01*
X50355808Y-55458804D02*
X50167247Y-55270242D01*
X50167247Y-55270242D02*
X50059497Y-55377992D01*
X50652120Y-55270242D02*
X50086434Y-54704557D01*
X50086434Y-54704557D02*
X50301934Y-54489057D01*
X50301934Y-54489057D02*
X50382746Y-54462120D01*
X50382746Y-54462120D02*
X50436621Y-54462120D01*
X50436621Y-54462120D02*
X50517433Y-54489057D01*
X50517433Y-54489057D02*
X50598245Y-54569870D01*
X50598245Y-54569870D02*
X50625182Y-54650682D01*
X50625182Y-54650682D02*
X50625182Y-54704557D01*
X50625182Y-54704557D02*
X50598245Y-54785369D01*
X50598245Y-54785369D02*
X50382746Y-55000868D01*
X51514117Y-54408245D02*
X51190868Y-54731494D01*
X51352492Y-54569870D02*
X50786807Y-54004184D01*
X50786807Y-54004184D02*
X50813744Y-54138871D01*
X50813744Y-54138871D02*
X50813744Y-54246621D01*
X50813744Y-54246621D02*
X50786807Y-54327433D01*
X52052865Y-53869497D02*
X51729616Y-54192746D01*
X51891240Y-54031121D02*
X51325555Y-53465436D01*
X51325555Y-53465436D02*
X51352492Y-53600123D01*
X51352492Y-53600123D02*
X51352492Y-53707873D01*
X51352492Y-53707873D02*
X51325555Y-53788685D01*
X60003998Y-57540868D02*
X59923185Y-57567805D01*
X59923185Y-57567805D02*
X59842373Y-57648618D01*
X59842373Y-57648618D02*
X59788498Y-57756367D01*
X59788498Y-57756367D02*
X59788498Y-57864117D01*
X59788498Y-57864117D02*
X59815436Y-57944929D01*
X59815436Y-57944929D02*
X59896248Y-58079616D01*
X59896248Y-58079616D02*
X59977060Y-58160428D01*
X59977060Y-58160428D02*
X60111747Y-58241241D01*
X60111747Y-58241241D02*
X60192560Y-58268178D01*
X60192560Y-58268178D02*
X60300309Y-58268178D01*
X60300309Y-58268178D02*
X60408059Y-58214303D01*
X60408059Y-58214303D02*
X60461934Y-58160428D01*
X60461934Y-58160428D02*
X60515808Y-58052679D01*
X60515808Y-58052679D02*
X60515808Y-57998804D01*
X60515808Y-57998804D02*
X60327247Y-57810242D01*
X60327247Y-57810242D02*
X60219497Y-57917992D01*
X60812120Y-57810242D02*
X60246434Y-57244557D01*
X60246434Y-57244557D02*
X60461934Y-57029057D01*
X60461934Y-57029057D02*
X60542746Y-57002120D01*
X60542746Y-57002120D02*
X60596621Y-57002120D01*
X60596621Y-57002120D02*
X60677433Y-57029057D01*
X60677433Y-57029057D02*
X60758245Y-57109870D01*
X60758245Y-57109870D02*
X60785182Y-57190682D01*
X60785182Y-57190682D02*
X60785182Y-57244557D01*
X60785182Y-57244557D02*
X60758245Y-57325369D01*
X60758245Y-57325369D02*
X60542746Y-57540868D01*
X61674117Y-56948245D02*
X61350868Y-57271494D01*
X61512492Y-57109870D02*
X60946807Y-56544184D01*
X60946807Y-56544184D02*
X60973744Y-56678871D01*
X60973744Y-56678871D02*
X60973744Y-56786621D01*
X60973744Y-56786621D02*
X60946807Y-56867433D01*
X61943491Y-56678871D02*
X62051240Y-56571121D01*
X62051240Y-56571121D02*
X62078178Y-56490309D01*
X62078178Y-56490309D02*
X62078178Y-56436434D01*
X62078178Y-56436434D02*
X62051240Y-56301747D01*
X62051240Y-56301747D02*
X61970428Y-56167060D01*
X61970428Y-56167060D02*
X61754929Y-55951561D01*
X61754929Y-55951561D02*
X61674117Y-55924624D01*
X61674117Y-55924624D02*
X61620242Y-55924624D01*
X61620242Y-55924624D02*
X61539430Y-55951561D01*
X61539430Y-55951561D02*
X61431680Y-56059311D01*
X61431680Y-56059311D02*
X61404743Y-56140123D01*
X61404743Y-56140123D02*
X61404743Y-56193998D01*
X61404743Y-56193998D02*
X61431680Y-56274810D01*
X61431680Y-56274810D02*
X61566367Y-56409497D01*
X61566367Y-56409497D02*
X61647179Y-56436434D01*
X61647179Y-56436434D02*
X61701054Y-56436434D01*
X61701054Y-56436434D02*
X61781866Y-56409497D01*
X61781866Y-56409497D02*
X61889616Y-56301747D01*
X61889616Y-56301747D02*
X61916553Y-56220935D01*
X61916553Y-56220935D02*
X61916553Y-56167060D01*
X61916553Y-56167060D02*
X61889616Y-56086248D01*
X68035064Y-32714049D02*
X68304438Y-32444675D01*
X68142813Y-32929549D02*
X67765690Y-32175301D01*
X67765690Y-32175301D02*
X68519937Y-32552425D01*
X68708499Y-32363863D02*
X68142813Y-31798178D01*
X68142813Y-31798178D02*
X68277500Y-31663491D01*
X68277500Y-31663491D02*
X68385250Y-31609616D01*
X68385250Y-31609616D02*
X68492999Y-31609616D01*
X68492999Y-31609616D02*
X68573812Y-31636553D01*
X68573812Y-31636553D02*
X68708499Y-31717366D01*
X68708499Y-31717366D02*
X68789311Y-31798178D01*
X68789311Y-31798178D02*
X68870123Y-31932865D01*
X68870123Y-31932865D02*
X68897060Y-32013677D01*
X68897060Y-32013677D02*
X68897060Y-32121427D01*
X68897060Y-32121427D02*
X68843186Y-32229176D01*
X68843186Y-32229176D02*
X68708499Y-32363863D01*
X69543558Y-31421054D02*
X69543558Y-31474929D01*
X69543558Y-31474929D02*
X69489683Y-31582679D01*
X69489683Y-31582679D02*
X69435808Y-31636553D01*
X69435808Y-31636553D02*
X69328059Y-31690428D01*
X69328059Y-31690428D02*
X69220309Y-31690428D01*
X69220309Y-31690428D02*
X69139497Y-31663491D01*
X69139497Y-31663491D02*
X69004810Y-31582679D01*
X69004810Y-31582679D02*
X68923998Y-31501866D01*
X68923998Y-31501866D02*
X68843186Y-31367179D01*
X68843186Y-31367179D02*
X68816248Y-31286367D01*
X68816248Y-31286367D02*
X68816248Y-31178618D01*
X68816248Y-31178618D02*
X68870123Y-31070868D01*
X68870123Y-31070868D02*
X68923998Y-31016993D01*
X68923998Y-31016993D02*
X69031747Y-30963118D01*
X69031747Y-30963118D02*
X69085622Y-30963118D01*
X69759057Y-31421054D02*
X70190056Y-30990056D01*
X69624370Y-30316621D02*
X70378618Y-30693744D01*
X70378618Y-30693744D02*
X70001494Y-29939497D01*
X71078990Y-29993372D02*
X70621054Y-29912560D01*
X70755741Y-30316621D02*
X70190056Y-29750935D01*
X70190056Y-29750935D02*
X70405555Y-29535436D01*
X70405555Y-29535436D02*
X70486367Y-29508499D01*
X70486367Y-29508499D02*
X70540242Y-29508499D01*
X70540242Y-29508499D02*
X70621054Y-29535436D01*
X70621054Y-29535436D02*
X70701866Y-29616248D01*
X70701866Y-29616248D02*
X70728804Y-29697061D01*
X70728804Y-29697061D02*
X70728804Y-29750935D01*
X70728804Y-29750935D02*
X70701866Y-29831748D01*
X70701866Y-29831748D02*
X70486367Y-30047247D01*
X71025115Y-29454624D02*
X71213677Y-29266062D01*
X71590800Y-29481561D02*
X71321426Y-29750935D01*
X71321426Y-29750935D02*
X70755741Y-29185250D01*
X70755741Y-29185250D02*
X71025115Y-28915876D01*
X71725488Y-28754251D02*
X71536926Y-28942813D01*
X71833237Y-29239125D02*
X71267552Y-28673439D01*
X71267552Y-28673439D02*
X71536926Y-28404065D01*
X42366435Y-62378431D02*
X42285623Y-62405368D01*
X42285623Y-62405368D02*
X42204811Y-62486180D01*
X42204811Y-62486180D02*
X42150936Y-62593930D01*
X42150936Y-62593930D02*
X42150936Y-62701680D01*
X42150936Y-62701680D02*
X42177873Y-62782492D01*
X42177873Y-62782492D02*
X42258685Y-62917179D01*
X42258685Y-62917179D02*
X42339498Y-62997991D01*
X42339498Y-62997991D02*
X42474185Y-63078803D01*
X42474185Y-63078803D02*
X42554997Y-63105741D01*
X42554997Y-63105741D02*
X42662746Y-63105741D01*
X42662746Y-63105741D02*
X42770496Y-63051866D01*
X42770496Y-63051866D02*
X42824371Y-62997991D01*
X42824371Y-62997991D02*
X42878246Y-62890241D01*
X42878246Y-62890241D02*
X42878246Y-62836367D01*
X42878246Y-62836367D02*
X42689684Y-62647805D01*
X42689684Y-62647805D02*
X42581934Y-62755554D01*
X43174557Y-62647805D02*
X42608872Y-62082119D01*
X42608872Y-62082119D02*
X43497806Y-62324556D01*
X43497806Y-62324556D02*
X42932120Y-61758871D01*
X43767180Y-62055182D02*
X43201494Y-61489497D01*
X43201494Y-61489497D02*
X43336181Y-61354810D01*
X43336181Y-61354810D02*
X43443931Y-61300935D01*
X43443931Y-61300935D02*
X43551680Y-61300935D01*
X43551680Y-61300935D02*
X43632493Y-61327872D01*
X43632493Y-61327872D02*
X43767180Y-61408685D01*
X43767180Y-61408685D02*
X43847992Y-61489497D01*
X43847992Y-61489497D02*
X43928804Y-61624184D01*
X43928804Y-61624184D02*
X43955741Y-61704996D01*
X43955741Y-61704996D02*
X43955741Y-61812746D01*
X43955741Y-61812746D02*
X43901867Y-61920495D01*
X43901867Y-61920495D02*
X43767180Y-62055182D01*
X42493372Y-42001494D02*
X42412560Y-42028431D01*
X42412560Y-42028431D02*
X42331748Y-42109243D01*
X42331748Y-42109243D02*
X42277873Y-42216993D01*
X42277873Y-42216993D02*
X42277873Y-42324742D01*
X42277873Y-42324742D02*
X42304810Y-42405555D01*
X42304810Y-42405555D02*
X42385623Y-42540242D01*
X42385623Y-42540242D02*
X42466435Y-42621054D01*
X42466435Y-42621054D02*
X42601122Y-42701866D01*
X42601122Y-42701866D02*
X42681934Y-42728803D01*
X42681934Y-42728803D02*
X42789684Y-42728803D01*
X42789684Y-42728803D02*
X42897433Y-42674929D01*
X42897433Y-42674929D02*
X42951308Y-42621054D01*
X42951308Y-42621054D02*
X43005183Y-42513304D01*
X43005183Y-42513304D02*
X43005183Y-42459429D01*
X43005183Y-42459429D02*
X42816621Y-42270868D01*
X42816621Y-42270868D02*
X42708871Y-42378617D01*
X43301494Y-42270868D02*
X42735809Y-41705182D01*
X42735809Y-41705182D02*
X42951308Y-41489683D01*
X42951308Y-41489683D02*
X43032120Y-41462746D01*
X43032120Y-41462746D02*
X43085995Y-41462746D01*
X43085995Y-41462746D02*
X43166807Y-41489683D01*
X43166807Y-41489683D02*
X43247619Y-41570495D01*
X43247619Y-41570495D02*
X43274557Y-41651307D01*
X43274557Y-41651307D02*
X43274557Y-41705182D01*
X43274557Y-41705182D02*
X43247619Y-41785994D01*
X43247619Y-41785994D02*
X43032120Y-42001494D01*
X43247619Y-41193372D02*
X43624743Y-40816248D01*
X43624743Y-40816248D02*
X43947992Y-41624370D01*
X60003998Y-65160868D02*
X59923185Y-65187805D01*
X59923185Y-65187805D02*
X59842373Y-65268618D01*
X59842373Y-65268618D02*
X59788498Y-65376367D01*
X59788498Y-65376367D02*
X59788498Y-65484117D01*
X59788498Y-65484117D02*
X59815436Y-65564929D01*
X59815436Y-65564929D02*
X59896248Y-65699616D01*
X59896248Y-65699616D02*
X59977060Y-65780428D01*
X59977060Y-65780428D02*
X60111747Y-65861241D01*
X60111747Y-65861241D02*
X60192560Y-65888178D01*
X60192560Y-65888178D02*
X60300309Y-65888178D01*
X60300309Y-65888178D02*
X60408059Y-65834303D01*
X60408059Y-65834303D02*
X60461934Y-65780428D01*
X60461934Y-65780428D02*
X60515808Y-65672679D01*
X60515808Y-65672679D02*
X60515808Y-65618804D01*
X60515808Y-65618804D02*
X60327247Y-65430242D01*
X60327247Y-65430242D02*
X60219497Y-65537992D01*
X60812120Y-65430242D02*
X60246434Y-64864557D01*
X60246434Y-64864557D02*
X60461934Y-64649057D01*
X60461934Y-64649057D02*
X60542746Y-64622120D01*
X60542746Y-64622120D02*
X60596621Y-64622120D01*
X60596621Y-64622120D02*
X60677433Y-64649057D01*
X60677433Y-64649057D02*
X60758245Y-64729870D01*
X60758245Y-64729870D02*
X60785182Y-64810682D01*
X60785182Y-64810682D02*
X60785182Y-64864557D01*
X60785182Y-64864557D02*
X60758245Y-64945369D01*
X60758245Y-64945369D02*
X60542746Y-65160868D01*
X61674117Y-64568245D02*
X61350868Y-64891494D01*
X61512492Y-64729870D02*
X60946807Y-64164184D01*
X60946807Y-64164184D02*
X60973744Y-64298871D01*
X60973744Y-64298871D02*
X60973744Y-64406621D01*
X60973744Y-64406621D02*
X60946807Y-64487433D01*
X61296993Y-63813998D02*
X61674117Y-63436874D01*
X61674117Y-63436874D02*
X61997366Y-64244996D01*
X67977998Y-39770868D02*
X67897185Y-39797805D01*
X67897185Y-39797805D02*
X67816373Y-39878618D01*
X67816373Y-39878618D02*
X67762498Y-39986367D01*
X67762498Y-39986367D02*
X67762498Y-40094117D01*
X67762498Y-40094117D02*
X67789436Y-40174929D01*
X67789436Y-40174929D02*
X67870248Y-40309616D01*
X67870248Y-40309616D02*
X67951060Y-40390428D01*
X67951060Y-40390428D02*
X68085747Y-40471241D01*
X68085747Y-40471241D02*
X68166560Y-40498178D01*
X68166560Y-40498178D02*
X68274309Y-40498178D01*
X68274309Y-40498178D02*
X68382059Y-40444303D01*
X68382059Y-40444303D02*
X68435934Y-40390428D01*
X68435934Y-40390428D02*
X68489808Y-40282679D01*
X68489808Y-40282679D02*
X68489808Y-40228804D01*
X68489808Y-40228804D02*
X68301247Y-40040242D01*
X68301247Y-40040242D02*
X68193497Y-40147992D01*
X68786120Y-40040242D02*
X68220434Y-39474557D01*
X68220434Y-39474557D02*
X68435934Y-39259057D01*
X68435934Y-39259057D02*
X68516746Y-39232120D01*
X68516746Y-39232120D02*
X68570621Y-39232120D01*
X68570621Y-39232120D02*
X68651433Y-39259057D01*
X68651433Y-39259057D02*
X68732245Y-39339870D01*
X68732245Y-39339870D02*
X68759182Y-39420682D01*
X68759182Y-39420682D02*
X68759182Y-39474557D01*
X68759182Y-39474557D02*
X68732245Y-39555369D01*
X68732245Y-39555369D02*
X68516746Y-39770868D01*
X68813057Y-38989683D02*
X68813057Y-38935809D01*
X68813057Y-38935809D02*
X68839995Y-38854996D01*
X68839995Y-38854996D02*
X68974682Y-38720309D01*
X68974682Y-38720309D02*
X69055494Y-38693372D01*
X69055494Y-38693372D02*
X69109369Y-38693372D01*
X69109369Y-38693372D02*
X69190181Y-38720309D01*
X69190181Y-38720309D02*
X69244056Y-38774184D01*
X69244056Y-38774184D02*
X69297930Y-38881934D01*
X69297930Y-38881934D02*
X69297930Y-39528431D01*
X69297930Y-39528431D02*
X69648117Y-39178245D01*
X69270993Y-38423998D02*
X69648117Y-38046874D01*
X69648117Y-38046874D02*
X69971366Y-38854996D01*
X67833406Y-19707585D02*
X68587653Y-20084709D01*
X68587653Y-20084709D02*
X68210529Y-19330462D01*
X68857027Y-19222712D02*
X68964776Y-19168838D01*
X68964776Y-19168838D02*
X69018651Y-19168838D01*
X69018651Y-19168838D02*
X69099463Y-19195775D01*
X69099463Y-19195775D02*
X69180276Y-19276587D01*
X69180276Y-19276587D02*
X69207213Y-19357399D01*
X69207213Y-19357399D02*
X69207213Y-19411274D01*
X69207213Y-19411274D02*
X69180276Y-19492086D01*
X69180276Y-19492086D02*
X68964776Y-19707586D01*
X68964776Y-19707586D02*
X68399091Y-19141900D01*
X68399091Y-19141900D02*
X68587653Y-18953338D01*
X68587653Y-18953338D02*
X68668465Y-18926401D01*
X68668465Y-18926401D02*
X68722340Y-18926401D01*
X68722340Y-18926401D02*
X68803152Y-18953338D01*
X68803152Y-18953338D02*
X68857027Y-19007213D01*
X68857027Y-19007213D02*
X68883964Y-19088025D01*
X68883964Y-19088025D02*
X68883964Y-19141900D01*
X68883964Y-19141900D02*
X68857027Y-19222712D01*
X68857027Y-19222712D02*
X68668465Y-19411274D01*
X68964776Y-18576215D02*
X69422712Y-19034151D01*
X69422712Y-19034151D02*
X69503524Y-19061088D01*
X69503524Y-19061088D02*
X69557399Y-19061088D01*
X69557399Y-19061088D02*
X69638211Y-19034151D01*
X69638211Y-19034151D02*
X69745961Y-18926401D01*
X69745961Y-18926401D02*
X69772898Y-18845589D01*
X69772898Y-18845589D02*
X69772898Y-18791714D01*
X69772898Y-18791714D02*
X69745961Y-18710902D01*
X69745961Y-18710902D02*
X69288025Y-18252966D01*
X70069210Y-18549277D02*
X70176959Y-18495403D01*
X70176959Y-18495403D02*
X70311646Y-18360716D01*
X70311646Y-18360716D02*
X70338584Y-18279903D01*
X70338584Y-18279903D02*
X70338584Y-18226029D01*
X70338584Y-18226029D02*
X70311646Y-18145216D01*
X70311646Y-18145216D02*
X70257771Y-18091342D01*
X70257771Y-18091342D02*
X70176959Y-18064404D01*
X70176959Y-18064404D02*
X70123084Y-18064404D01*
X70123084Y-18064404D02*
X70042272Y-18091342D01*
X70042272Y-18091342D02*
X69907585Y-18172154D01*
X69907585Y-18172154D02*
X69826773Y-18199091D01*
X69826773Y-18199091D02*
X69772898Y-18199091D01*
X69772898Y-18199091D02*
X69692086Y-18172154D01*
X69692086Y-18172154D02*
X69638211Y-18118279D01*
X69638211Y-18118279D02*
X69611274Y-18037467D01*
X69611274Y-18037467D02*
X69611274Y-17983592D01*
X69611274Y-17983592D02*
X69638211Y-17902780D01*
X69638211Y-17902780D02*
X69772898Y-17768093D01*
X69772898Y-17768093D02*
X69880648Y-17714218D01*
X42393372Y-34411494D02*
X42312560Y-34438431D01*
X42312560Y-34438431D02*
X42231748Y-34519243D01*
X42231748Y-34519243D02*
X42177873Y-34626993D01*
X42177873Y-34626993D02*
X42177873Y-34734742D01*
X42177873Y-34734742D02*
X42204810Y-34815555D01*
X42204810Y-34815555D02*
X42285623Y-34950242D01*
X42285623Y-34950242D02*
X42366435Y-35031054D01*
X42366435Y-35031054D02*
X42501122Y-35111866D01*
X42501122Y-35111866D02*
X42581934Y-35138803D01*
X42581934Y-35138803D02*
X42689684Y-35138803D01*
X42689684Y-35138803D02*
X42797433Y-35084929D01*
X42797433Y-35084929D02*
X42851308Y-35031054D01*
X42851308Y-35031054D02*
X42905183Y-34923304D01*
X42905183Y-34923304D02*
X42905183Y-34869429D01*
X42905183Y-34869429D02*
X42716621Y-34680868D01*
X42716621Y-34680868D02*
X42608871Y-34788617D01*
X43201494Y-34680868D02*
X42635809Y-34115182D01*
X42635809Y-34115182D02*
X42851308Y-33899683D01*
X42851308Y-33899683D02*
X42932120Y-33872746D01*
X42932120Y-33872746D02*
X42985995Y-33872746D01*
X42985995Y-33872746D02*
X43066807Y-33899683D01*
X43066807Y-33899683D02*
X43147619Y-33980495D01*
X43147619Y-33980495D02*
X43174557Y-34061307D01*
X43174557Y-34061307D02*
X43174557Y-34115182D01*
X43174557Y-34115182D02*
X43147619Y-34195994D01*
X43147619Y-34195994D02*
X42932120Y-34411494D01*
X43470868Y-33280123D02*
X43201494Y-33549497D01*
X43201494Y-33549497D02*
X43443931Y-33845808D01*
X43443931Y-33845808D02*
X43443931Y-33791933D01*
X43443931Y-33791933D02*
X43470868Y-33711121D01*
X43470868Y-33711121D02*
X43605555Y-33576434D01*
X43605555Y-33576434D02*
X43686367Y-33549497D01*
X43686367Y-33549497D02*
X43740242Y-33549497D01*
X43740242Y-33549497D02*
X43821054Y-33576434D01*
X43821054Y-33576434D02*
X43955741Y-33711121D01*
X43955741Y-33711121D02*
X43982679Y-33791933D01*
X43982679Y-33791933D02*
X43982679Y-33845808D01*
X43982679Y-33845808D02*
X43955741Y-33926620D01*
X43955741Y-33926620D02*
X43821054Y-34061307D01*
X43821054Y-34061307D02*
X43740242Y-34088245D01*
X43740242Y-34088245D02*
X43686367Y-34088245D01*
X67770123Y-29670868D02*
X68120309Y-29320682D01*
X68120309Y-29320682D02*
X68147247Y-29724743D01*
X68147247Y-29724743D02*
X68228059Y-29643931D01*
X68228059Y-29643931D02*
X68308871Y-29616993D01*
X68308871Y-29616993D02*
X68362746Y-29616993D01*
X68362746Y-29616993D02*
X68443558Y-29643931D01*
X68443558Y-29643931D02*
X68578245Y-29778618D01*
X68578245Y-29778618D02*
X68605182Y-29859430D01*
X68605182Y-29859430D02*
X68605182Y-29913305D01*
X68605182Y-29913305D02*
X68578245Y-29994117D01*
X68578245Y-29994117D02*
X68416621Y-30155741D01*
X68416621Y-30155741D02*
X68335808Y-30182679D01*
X68335808Y-30182679D02*
X68281934Y-30182679D01*
X68281934Y-29159057D02*
X69036181Y-29536181D01*
X69036181Y-29536181D02*
X68659057Y-28781934D01*
X68793744Y-28647247D02*
X69143930Y-28297061D01*
X69143930Y-28297061D02*
X69170868Y-28701122D01*
X69170868Y-28701122D02*
X69251680Y-28620309D01*
X69251680Y-28620309D02*
X69332492Y-28593372D01*
X69332492Y-28593372D02*
X69386367Y-28593372D01*
X69386367Y-28593372D02*
X69467179Y-28620309D01*
X69467179Y-28620309D02*
X69601866Y-28754996D01*
X69601866Y-28754996D02*
X69628804Y-28835809D01*
X69628804Y-28835809D02*
X69628804Y-28889683D01*
X69628804Y-28889683D02*
X69601866Y-28970496D01*
X69601866Y-28970496D02*
X69440242Y-29132120D01*
X69440242Y-29132120D02*
X69359430Y-29159057D01*
X69359430Y-29159057D02*
X69305555Y-29159057D01*
X68718651Y-45123710D02*
X68260716Y-45042898D01*
X68395403Y-45446959D02*
X67829717Y-44881274D01*
X67829717Y-44881274D02*
X68045216Y-44665775D01*
X68045216Y-44665775D02*
X68126029Y-44638837D01*
X68126029Y-44638837D02*
X68179903Y-44638837D01*
X68179903Y-44638837D02*
X68260716Y-44665775D01*
X68260716Y-44665775D02*
X68341528Y-44746587D01*
X68341528Y-44746587D02*
X68368465Y-44827399D01*
X68368465Y-44827399D02*
X68368465Y-44881274D01*
X68368465Y-44881274D02*
X68341528Y-44962086D01*
X68341528Y-44962086D02*
X68126029Y-45177585D01*
X68395403Y-44315588D02*
X68853338Y-44773524D01*
X68853338Y-44773524D02*
X68934151Y-44800462D01*
X68934151Y-44800462D02*
X68988025Y-44800462D01*
X68988025Y-44800462D02*
X69068838Y-44773524D01*
X69068838Y-44773524D02*
X69176587Y-44665775D01*
X69176587Y-44665775D02*
X69203525Y-44584962D01*
X69203525Y-44584962D02*
X69203525Y-44531088D01*
X69203525Y-44531088D02*
X69176587Y-44450275D01*
X69176587Y-44450275D02*
X68718651Y-43992340D01*
X69553711Y-44288651D02*
X68988025Y-43722966D01*
X68988025Y-43722966D02*
X69876959Y-43965402D01*
X69876959Y-43965402D02*
X69311274Y-43399717D01*
X41823998Y-65160868D02*
X41743185Y-65187805D01*
X41743185Y-65187805D02*
X41662373Y-65268618D01*
X41662373Y-65268618D02*
X41608498Y-65376367D01*
X41608498Y-65376367D02*
X41608498Y-65484117D01*
X41608498Y-65484117D02*
X41635436Y-65564929D01*
X41635436Y-65564929D02*
X41716248Y-65699616D01*
X41716248Y-65699616D02*
X41797060Y-65780428D01*
X41797060Y-65780428D02*
X41931747Y-65861241D01*
X41931747Y-65861241D02*
X42012560Y-65888178D01*
X42012560Y-65888178D02*
X42120309Y-65888178D01*
X42120309Y-65888178D02*
X42228059Y-65834303D01*
X42228059Y-65834303D02*
X42281934Y-65780428D01*
X42281934Y-65780428D02*
X42335808Y-65672679D01*
X42335808Y-65672679D02*
X42335808Y-65618804D01*
X42335808Y-65618804D02*
X42147247Y-65430242D01*
X42147247Y-65430242D02*
X42039497Y-65537992D01*
X42632120Y-65430242D02*
X42066434Y-64864557D01*
X42066434Y-64864557D02*
X42281934Y-64649057D01*
X42281934Y-64649057D02*
X42362746Y-64622120D01*
X42362746Y-64622120D02*
X42416621Y-64622120D01*
X42416621Y-64622120D02*
X42497433Y-64649057D01*
X42497433Y-64649057D02*
X42578245Y-64729870D01*
X42578245Y-64729870D02*
X42605182Y-64810682D01*
X42605182Y-64810682D02*
X42605182Y-64864557D01*
X42605182Y-64864557D02*
X42578245Y-64945369D01*
X42578245Y-64945369D02*
X42362746Y-65160868D01*
X43494117Y-64568245D02*
X43170868Y-64891494D01*
X43332492Y-64729870D02*
X42766807Y-64164184D01*
X42766807Y-64164184D02*
X42793744Y-64298871D01*
X42793744Y-64298871D02*
X42793744Y-64406621D01*
X42793744Y-64406621D02*
X42766807Y-64487433D01*
X43601866Y-63706248D02*
X43978990Y-64083372D01*
X43251680Y-63625436D02*
X43521054Y-64164184D01*
X43521054Y-64164184D02*
X43871240Y-63813998D01*
X67802407Y-27138584D02*
X68152593Y-26788398D01*
X68152593Y-26788398D02*
X68179531Y-27192459D01*
X68179531Y-27192459D02*
X68260343Y-27111646D01*
X68260343Y-27111646D02*
X68341155Y-27084709D01*
X68341155Y-27084709D02*
X68395030Y-27084709D01*
X68395030Y-27084709D02*
X68475842Y-27111646D01*
X68475842Y-27111646D02*
X68610529Y-27246333D01*
X68610529Y-27246333D02*
X68637467Y-27327146D01*
X68637467Y-27327146D02*
X68637467Y-27381020D01*
X68637467Y-27381020D02*
X68610529Y-27461833D01*
X68610529Y-27461833D02*
X68448905Y-27623457D01*
X68448905Y-27623457D02*
X68368093Y-27650394D01*
X68368093Y-27650394D02*
X68314218Y-27650394D01*
X68314218Y-26626773D02*
X69068465Y-27003897D01*
X69068465Y-27003897D02*
X68691342Y-26249649D01*
X68826028Y-26114963D02*
X69176215Y-25764776D01*
X69176215Y-25764776D02*
X69203152Y-26168837D01*
X69203152Y-26168837D02*
X69283964Y-26088025D01*
X69283964Y-26088025D02*
X69364776Y-26061088D01*
X69364776Y-26061088D02*
X69418651Y-26061088D01*
X69418651Y-26061088D02*
X69499464Y-26088025D01*
X69499464Y-26088025D02*
X69634151Y-26222712D01*
X69634151Y-26222712D02*
X69661088Y-26303524D01*
X69661088Y-26303524D02*
X69661088Y-26357399D01*
X69661088Y-26357399D02*
X69634151Y-26438211D01*
X69634151Y-26438211D02*
X69472526Y-26599836D01*
X69472526Y-26599836D02*
X69391714Y-26626773D01*
X69391714Y-26626773D02*
X69337839Y-26626773D01*
X69903525Y-26276587D02*
X70334523Y-25845588D01*
X70119024Y-25360715D02*
X70307586Y-25172153D01*
X70684709Y-25387652D02*
X70415335Y-25657026D01*
X70415335Y-25657026D02*
X69849650Y-25091341D01*
X69849650Y-25091341D02*
X70119024Y-24821967D01*
X70927146Y-25145215D02*
X70361461Y-24579530D01*
X70361461Y-24579530D02*
X71250395Y-24821967D01*
X71250395Y-24821967D02*
X70684710Y-24256281D01*
X68031873Y-37921240D02*
X68301247Y-37651866D01*
X68139623Y-38136739D02*
X67762499Y-37382492D01*
X67762499Y-37382492D02*
X68516746Y-37759615D01*
X68462871Y-36735994D02*
X68382059Y-36762932D01*
X68382059Y-36762932D02*
X68301247Y-36843744D01*
X68301247Y-36843744D02*
X68247372Y-36951494D01*
X68247372Y-36951494D02*
X68247372Y-37059243D01*
X68247372Y-37059243D02*
X68274310Y-37140055D01*
X68274310Y-37140055D02*
X68355122Y-37274742D01*
X68355122Y-37274742D02*
X68435934Y-37355555D01*
X68435934Y-37355555D02*
X68570621Y-37436367D01*
X68570621Y-37436367D02*
X68651433Y-37463304D01*
X68651433Y-37463304D02*
X68759183Y-37463304D01*
X68759183Y-37463304D02*
X68866932Y-37409429D01*
X68866932Y-37409429D02*
X68920807Y-37355555D01*
X68920807Y-37355555D02*
X68974682Y-37247805D01*
X68974682Y-37247805D02*
X68974682Y-37193930D01*
X68974682Y-37193930D02*
X68786120Y-37005368D01*
X68786120Y-37005368D02*
X68678371Y-37113118D01*
X69270993Y-37005368D02*
X68705308Y-36439683D01*
X68705308Y-36439683D02*
X69594242Y-36682120D01*
X69594242Y-36682120D02*
X69028557Y-36116434D01*
X69863616Y-36412746D02*
X69297931Y-35847060D01*
X69297931Y-35847060D02*
X69432618Y-35712373D01*
X69432618Y-35712373D02*
X69540367Y-35658498D01*
X69540367Y-35658498D02*
X69648117Y-35658498D01*
X69648117Y-35658498D02*
X69728929Y-35685436D01*
X69728929Y-35685436D02*
X69863616Y-35766248D01*
X69863616Y-35766248D02*
X69944428Y-35847060D01*
X69944428Y-35847060D02*
X70025241Y-35981747D01*
X70025241Y-35981747D02*
X70052178Y-36062560D01*
X70052178Y-36062560D02*
X70052178Y-36170309D01*
X70052178Y-36170309D02*
X69998303Y-36278059D01*
X69998303Y-36278059D02*
X69863616Y-36412746D01*
X67977998Y-42300868D02*
X67897185Y-42327805D01*
X67897185Y-42327805D02*
X67816373Y-42408618D01*
X67816373Y-42408618D02*
X67762498Y-42516367D01*
X67762498Y-42516367D02*
X67762498Y-42624117D01*
X67762498Y-42624117D02*
X67789436Y-42704929D01*
X67789436Y-42704929D02*
X67870248Y-42839616D01*
X67870248Y-42839616D02*
X67951060Y-42920428D01*
X67951060Y-42920428D02*
X68085747Y-43001241D01*
X68085747Y-43001241D02*
X68166560Y-43028178D01*
X68166560Y-43028178D02*
X68274309Y-43028178D01*
X68274309Y-43028178D02*
X68382059Y-42974303D01*
X68382059Y-42974303D02*
X68435934Y-42920428D01*
X68435934Y-42920428D02*
X68489808Y-42812679D01*
X68489808Y-42812679D02*
X68489808Y-42758804D01*
X68489808Y-42758804D02*
X68301247Y-42570242D01*
X68301247Y-42570242D02*
X68193497Y-42677992D01*
X68786120Y-42570242D02*
X68220434Y-42004557D01*
X68220434Y-42004557D02*
X68435934Y-41789057D01*
X68435934Y-41789057D02*
X68516746Y-41762120D01*
X68516746Y-41762120D02*
X68570621Y-41762120D01*
X68570621Y-41762120D02*
X68651433Y-41789057D01*
X68651433Y-41789057D02*
X68732245Y-41869870D01*
X68732245Y-41869870D02*
X68759182Y-41950682D01*
X68759182Y-41950682D02*
X68759182Y-42004557D01*
X68759182Y-42004557D02*
X68732245Y-42085369D01*
X68732245Y-42085369D02*
X68516746Y-42300868D01*
X68813057Y-41519683D02*
X68813057Y-41465809D01*
X68813057Y-41465809D02*
X68839995Y-41384996D01*
X68839995Y-41384996D02*
X68974682Y-41250309D01*
X68974682Y-41250309D02*
X69055494Y-41223372D01*
X69055494Y-41223372D02*
X69109369Y-41223372D01*
X69109369Y-41223372D02*
X69190181Y-41250309D01*
X69190181Y-41250309D02*
X69244056Y-41304184D01*
X69244056Y-41304184D02*
X69297930Y-41411934D01*
X69297930Y-41411934D02*
X69297930Y-42058431D01*
X69297930Y-42058431D02*
X69648117Y-41708245D01*
X69567305Y-40657686D02*
X69459555Y-40765436D01*
X69459555Y-40765436D02*
X69432618Y-40846248D01*
X69432618Y-40846248D02*
X69432618Y-40900123D01*
X69432618Y-40900123D02*
X69459555Y-41034810D01*
X69459555Y-41034810D02*
X69540367Y-41169497D01*
X69540367Y-41169497D02*
X69755866Y-41384996D01*
X69755866Y-41384996D02*
X69836679Y-41411934D01*
X69836679Y-41411934D02*
X69890553Y-41411934D01*
X69890553Y-41411934D02*
X69971366Y-41384996D01*
X69971366Y-41384996D02*
X70079115Y-41277247D01*
X70079115Y-41277247D02*
X70106053Y-41196434D01*
X70106053Y-41196434D02*
X70106053Y-41142560D01*
X70106053Y-41142560D02*
X70079115Y-41061747D01*
X70079115Y-41061747D02*
X69944428Y-40927060D01*
X69944428Y-40927060D02*
X69863616Y-40900123D01*
X69863616Y-40900123D02*
X69809741Y-40900123D01*
X69809741Y-40900123D02*
X69728929Y-40927060D01*
X69728929Y-40927060D02*
X69621179Y-41034810D01*
X69621179Y-41034810D02*
X69594242Y-41115622D01*
X69594242Y-41115622D02*
X69594242Y-41169497D01*
X69594242Y-41169497D02*
X69621179Y-41250309D01*
X49843998Y-60080868D02*
X49763185Y-60107805D01*
X49763185Y-60107805D02*
X49682373Y-60188618D01*
X49682373Y-60188618D02*
X49628498Y-60296367D01*
X49628498Y-60296367D02*
X49628498Y-60404117D01*
X49628498Y-60404117D02*
X49655436Y-60484929D01*
X49655436Y-60484929D02*
X49736248Y-60619616D01*
X49736248Y-60619616D02*
X49817060Y-60700428D01*
X49817060Y-60700428D02*
X49951747Y-60781241D01*
X49951747Y-60781241D02*
X50032560Y-60808178D01*
X50032560Y-60808178D02*
X50140309Y-60808178D01*
X50140309Y-60808178D02*
X50248059Y-60754303D01*
X50248059Y-60754303D02*
X50301934Y-60700428D01*
X50301934Y-60700428D02*
X50355808Y-60592679D01*
X50355808Y-60592679D02*
X50355808Y-60538804D01*
X50355808Y-60538804D02*
X50167247Y-60350242D01*
X50167247Y-60350242D02*
X50059497Y-60457992D01*
X50652120Y-60350242D02*
X50086434Y-59784557D01*
X50086434Y-59784557D02*
X50301934Y-59569057D01*
X50301934Y-59569057D02*
X50382746Y-59542120D01*
X50382746Y-59542120D02*
X50436621Y-59542120D01*
X50436621Y-59542120D02*
X50517433Y-59569057D01*
X50517433Y-59569057D02*
X50598245Y-59649870D01*
X50598245Y-59649870D02*
X50625182Y-59730682D01*
X50625182Y-59730682D02*
X50625182Y-59784557D01*
X50625182Y-59784557D02*
X50598245Y-59865369D01*
X50598245Y-59865369D02*
X50382746Y-60080868D01*
X51514117Y-59488245D02*
X51190868Y-59811494D01*
X51352492Y-59649870D02*
X50786807Y-59084184D01*
X50786807Y-59084184D02*
X50813744Y-59218871D01*
X50813744Y-59218871D02*
X50813744Y-59326621D01*
X50813744Y-59326621D02*
X50786807Y-59407433D01*
X51136993Y-58733998D02*
X51487179Y-58383812D01*
X51487179Y-58383812D02*
X51514117Y-58787873D01*
X51514117Y-58787873D02*
X51594929Y-58707060D01*
X51594929Y-58707060D02*
X51675741Y-58680123D01*
X51675741Y-58680123D02*
X51729616Y-58680123D01*
X51729616Y-58680123D02*
X51810428Y-58707060D01*
X51810428Y-58707060D02*
X51945115Y-58841747D01*
X51945115Y-58841747D02*
X51972053Y-58922560D01*
X51972053Y-58922560D02*
X51972053Y-58976434D01*
X51972053Y-58976434D02*
X51945115Y-59057247D01*
X51945115Y-59057247D02*
X51783491Y-59218871D01*
X51783491Y-59218871D02*
X51702679Y-59245808D01*
X51702679Y-59245808D02*
X51648804Y-59245808D01*
X42393372Y-19171494D02*
X42312560Y-19198431D01*
X42312560Y-19198431D02*
X42231748Y-19279243D01*
X42231748Y-19279243D02*
X42177873Y-19386993D01*
X42177873Y-19386993D02*
X42177873Y-19494742D01*
X42177873Y-19494742D02*
X42204810Y-19575555D01*
X42204810Y-19575555D02*
X42285623Y-19710242D01*
X42285623Y-19710242D02*
X42366435Y-19791054D01*
X42366435Y-19791054D02*
X42501122Y-19871866D01*
X42501122Y-19871866D02*
X42581934Y-19898803D01*
X42581934Y-19898803D02*
X42689684Y-19898803D01*
X42689684Y-19898803D02*
X42797433Y-19844929D01*
X42797433Y-19844929D02*
X42851308Y-19791054D01*
X42851308Y-19791054D02*
X42905183Y-19683304D01*
X42905183Y-19683304D02*
X42905183Y-19629429D01*
X42905183Y-19629429D02*
X42716621Y-19440868D01*
X42716621Y-19440868D02*
X42608871Y-19548617D01*
X43201494Y-19440868D02*
X42635809Y-18875182D01*
X42635809Y-18875182D02*
X42851308Y-18659683D01*
X42851308Y-18659683D02*
X42932120Y-18632746D01*
X42932120Y-18632746D02*
X42985995Y-18632746D01*
X42985995Y-18632746D02*
X43066807Y-18659683D01*
X43066807Y-18659683D02*
X43147619Y-18740495D01*
X43147619Y-18740495D02*
X43174557Y-18821307D01*
X43174557Y-18821307D02*
X43174557Y-18875182D01*
X43174557Y-18875182D02*
X43147619Y-18955994D01*
X43147619Y-18955994D02*
X42932120Y-19171494D01*
X43309244Y-18201747D02*
X43363119Y-18147872D01*
X43363119Y-18147872D02*
X43443931Y-18120935D01*
X43443931Y-18120935D02*
X43497806Y-18120935D01*
X43497806Y-18120935D02*
X43578618Y-18147872D01*
X43578618Y-18147872D02*
X43713305Y-18228685D01*
X43713305Y-18228685D02*
X43847992Y-18363372D01*
X43847992Y-18363372D02*
X43928804Y-18498059D01*
X43928804Y-18498059D02*
X43955741Y-18578871D01*
X43955741Y-18578871D02*
X43955741Y-18632746D01*
X43955741Y-18632746D02*
X43928804Y-18713558D01*
X43928804Y-18713558D02*
X43874929Y-18767433D01*
X43874929Y-18767433D02*
X43794117Y-18794370D01*
X43794117Y-18794370D02*
X43740242Y-18794370D01*
X43740242Y-18794370D02*
X43659430Y-18767433D01*
X43659430Y-18767433D02*
X43524743Y-18686620D01*
X43524743Y-18686620D02*
X43390056Y-18551933D01*
X43390056Y-18551933D02*
X43309244Y-18417246D01*
X43309244Y-18417246D02*
X43282306Y-18336434D01*
X43282306Y-18336434D02*
X43282306Y-18282559D01*
X43282306Y-18282559D02*
X43309244Y-18201747D01*
X60003998Y-67700868D02*
X59923185Y-67727805D01*
X59923185Y-67727805D02*
X59842373Y-67808618D01*
X59842373Y-67808618D02*
X59788498Y-67916367D01*
X59788498Y-67916367D02*
X59788498Y-68024117D01*
X59788498Y-68024117D02*
X59815436Y-68104929D01*
X59815436Y-68104929D02*
X59896248Y-68239616D01*
X59896248Y-68239616D02*
X59977060Y-68320428D01*
X59977060Y-68320428D02*
X60111747Y-68401241D01*
X60111747Y-68401241D02*
X60192560Y-68428178D01*
X60192560Y-68428178D02*
X60300309Y-68428178D01*
X60300309Y-68428178D02*
X60408059Y-68374303D01*
X60408059Y-68374303D02*
X60461934Y-68320428D01*
X60461934Y-68320428D02*
X60515808Y-68212679D01*
X60515808Y-68212679D02*
X60515808Y-68158804D01*
X60515808Y-68158804D02*
X60327247Y-67970242D01*
X60327247Y-67970242D02*
X60219497Y-68077992D01*
X60812120Y-67970242D02*
X60246434Y-67404557D01*
X60246434Y-67404557D02*
X60461934Y-67189057D01*
X60461934Y-67189057D02*
X60542746Y-67162120D01*
X60542746Y-67162120D02*
X60596621Y-67162120D01*
X60596621Y-67162120D02*
X60677433Y-67189057D01*
X60677433Y-67189057D02*
X60758245Y-67269870D01*
X60758245Y-67269870D02*
X60785182Y-67350682D01*
X60785182Y-67350682D02*
X60785182Y-67404557D01*
X60785182Y-67404557D02*
X60758245Y-67485369D01*
X60758245Y-67485369D02*
X60542746Y-67700868D01*
X61674117Y-67108245D02*
X61350868Y-67431494D01*
X61512492Y-67269870D02*
X60946807Y-66704184D01*
X60946807Y-66704184D02*
X60973744Y-66838871D01*
X60973744Y-66838871D02*
X60973744Y-66946621D01*
X60973744Y-66946621D02*
X60946807Y-67027433D01*
X61593305Y-66057686D02*
X61485555Y-66165436D01*
X61485555Y-66165436D02*
X61458618Y-66246248D01*
X61458618Y-66246248D02*
X61458618Y-66300123D01*
X61458618Y-66300123D02*
X61485555Y-66434810D01*
X61485555Y-66434810D02*
X61566367Y-66569497D01*
X61566367Y-66569497D02*
X61781866Y-66784996D01*
X61781866Y-66784996D02*
X61862679Y-66811934D01*
X61862679Y-66811934D02*
X61916553Y-66811934D01*
X61916553Y-66811934D02*
X61997366Y-66784996D01*
X61997366Y-66784996D02*
X62105115Y-66677247D01*
X62105115Y-66677247D02*
X62132053Y-66596434D01*
X62132053Y-66596434D02*
X62132053Y-66542560D01*
X62132053Y-66542560D02*
X62105115Y-66461747D01*
X62105115Y-66461747D02*
X61970428Y-66327060D01*
X61970428Y-66327060D02*
X61889616Y-66300123D01*
X61889616Y-66300123D02*
X61835741Y-66300123D01*
X61835741Y-66300123D02*
X61754929Y-66327060D01*
X61754929Y-66327060D02*
X61647179Y-66434810D01*
X61647179Y-66434810D02*
X61620242Y-66515622D01*
X61620242Y-66515622D02*
X61620242Y-66569497D01*
X61620242Y-66569497D02*
X61647179Y-66650309D01*
X41869998Y-67700868D02*
X41789185Y-67727805D01*
X41789185Y-67727805D02*
X41708373Y-67808618D01*
X41708373Y-67808618D02*
X41654498Y-67916367D01*
X41654498Y-67916367D02*
X41654498Y-68024117D01*
X41654498Y-68024117D02*
X41681436Y-68104929D01*
X41681436Y-68104929D02*
X41762248Y-68239616D01*
X41762248Y-68239616D02*
X41843060Y-68320428D01*
X41843060Y-68320428D02*
X41977747Y-68401241D01*
X41977747Y-68401241D02*
X42058560Y-68428178D01*
X42058560Y-68428178D02*
X42166309Y-68428178D01*
X42166309Y-68428178D02*
X42274059Y-68374303D01*
X42274059Y-68374303D02*
X42327934Y-68320428D01*
X42327934Y-68320428D02*
X42381808Y-68212679D01*
X42381808Y-68212679D02*
X42381808Y-68158804D01*
X42381808Y-68158804D02*
X42193247Y-67970242D01*
X42193247Y-67970242D02*
X42085497Y-68077992D01*
X42678120Y-67970242D02*
X42112434Y-67404557D01*
X42112434Y-67404557D02*
X42327934Y-67189057D01*
X42327934Y-67189057D02*
X42408746Y-67162120D01*
X42408746Y-67162120D02*
X42462621Y-67162120D01*
X42462621Y-67162120D02*
X42543433Y-67189057D01*
X42543433Y-67189057D02*
X42624245Y-67269870D01*
X42624245Y-67269870D02*
X42651182Y-67350682D01*
X42651182Y-67350682D02*
X42651182Y-67404557D01*
X42651182Y-67404557D02*
X42624245Y-67485369D01*
X42624245Y-67485369D02*
X42408746Y-67700868D01*
X43540117Y-67108245D02*
X43216868Y-67431494D01*
X43378492Y-67269870D02*
X42812807Y-66704184D01*
X42812807Y-66704184D02*
X42839744Y-66838871D01*
X42839744Y-66838871D02*
X42839744Y-66946621D01*
X42839744Y-66946621D02*
X42812807Y-67027433D01*
X43486242Y-66030749D02*
X43216868Y-66300123D01*
X43216868Y-66300123D02*
X43459305Y-66596434D01*
X43459305Y-66596434D02*
X43459305Y-66542560D01*
X43459305Y-66542560D02*
X43486242Y-66461747D01*
X43486242Y-66461747D02*
X43620929Y-66327060D01*
X43620929Y-66327060D02*
X43701741Y-66300123D01*
X43701741Y-66300123D02*
X43755616Y-66300123D01*
X43755616Y-66300123D02*
X43836428Y-66327060D01*
X43836428Y-66327060D02*
X43971115Y-66461747D01*
X43971115Y-66461747D02*
X43998053Y-66542560D01*
X43998053Y-66542560D02*
X43998053Y-66596434D01*
X43998053Y-66596434D02*
X43971115Y-66677247D01*
X43971115Y-66677247D02*
X43836428Y-66811934D01*
X43836428Y-66811934D02*
X43755616Y-66838871D01*
X43755616Y-66838871D02*
X43701741Y-66838871D01*
X42293372Y-26791494D02*
X42212560Y-26818431D01*
X42212560Y-26818431D02*
X42131748Y-26899243D01*
X42131748Y-26899243D02*
X42077873Y-27006993D01*
X42077873Y-27006993D02*
X42077873Y-27114742D01*
X42077873Y-27114742D02*
X42104810Y-27195555D01*
X42104810Y-27195555D02*
X42185623Y-27330242D01*
X42185623Y-27330242D02*
X42266435Y-27411054D01*
X42266435Y-27411054D02*
X42401122Y-27491866D01*
X42401122Y-27491866D02*
X42481934Y-27518803D01*
X42481934Y-27518803D02*
X42589684Y-27518803D01*
X42589684Y-27518803D02*
X42697433Y-27464929D01*
X42697433Y-27464929D02*
X42751308Y-27411054D01*
X42751308Y-27411054D02*
X42805183Y-27303304D01*
X42805183Y-27303304D02*
X42805183Y-27249429D01*
X42805183Y-27249429D02*
X42616621Y-27060868D01*
X42616621Y-27060868D02*
X42508871Y-27168617D01*
X43101494Y-27060868D02*
X42535809Y-26495182D01*
X42535809Y-26495182D02*
X42751308Y-26279683D01*
X42751308Y-26279683D02*
X42832120Y-26252746D01*
X42832120Y-26252746D02*
X42885995Y-26252746D01*
X42885995Y-26252746D02*
X42966807Y-26279683D01*
X42966807Y-26279683D02*
X43047619Y-26360495D01*
X43047619Y-26360495D02*
X43074557Y-26441307D01*
X43074557Y-26441307D02*
X43074557Y-26495182D01*
X43074557Y-26495182D02*
X43047619Y-26575994D01*
X43047619Y-26575994D02*
X42832120Y-26791494D01*
X43128432Y-26010309D02*
X43128432Y-25956434D01*
X43128432Y-25956434D02*
X43155369Y-25875622D01*
X43155369Y-25875622D02*
X43290056Y-25740935D01*
X43290056Y-25740935D02*
X43370868Y-25713998D01*
X43370868Y-25713998D02*
X43424743Y-25713998D01*
X43424743Y-25713998D02*
X43505555Y-25740935D01*
X43505555Y-25740935D02*
X43559430Y-25794810D01*
X43559430Y-25794810D02*
X43613305Y-25902559D01*
X43613305Y-25902559D02*
X43613305Y-26549057D01*
X43613305Y-26549057D02*
X43963491Y-26198871D01*
X42393372Y-44571494D02*
X42312560Y-44598431D01*
X42312560Y-44598431D02*
X42231748Y-44679243D01*
X42231748Y-44679243D02*
X42177873Y-44786993D01*
X42177873Y-44786993D02*
X42177873Y-44894742D01*
X42177873Y-44894742D02*
X42204810Y-44975555D01*
X42204810Y-44975555D02*
X42285623Y-45110242D01*
X42285623Y-45110242D02*
X42366435Y-45191054D01*
X42366435Y-45191054D02*
X42501122Y-45271866D01*
X42501122Y-45271866D02*
X42581934Y-45298803D01*
X42581934Y-45298803D02*
X42689684Y-45298803D01*
X42689684Y-45298803D02*
X42797433Y-45244929D01*
X42797433Y-45244929D02*
X42851308Y-45191054D01*
X42851308Y-45191054D02*
X42905183Y-45083304D01*
X42905183Y-45083304D02*
X42905183Y-45029429D01*
X42905183Y-45029429D02*
X42716621Y-44840868D01*
X42716621Y-44840868D02*
X42608871Y-44948617D01*
X43201494Y-44840868D02*
X42635809Y-44275182D01*
X42635809Y-44275182D02*
X42851308Y-44059683D01*
X42851308Y-44059683D02*
X42932120Y-44032746D01*
X42932120Y-44032746D02*
X42985995Y-44032746D01*
X42985995Y-44032746D02*
X43066807Y-44059683D01*
X43066807Y-44059683D02*
X43147619Y-44140495D01*
X43147619Y-44140495D02*
X43174557Y-44221307D01*
X43174557Y-44221307D02*
X43174557Y-44275182D01*
X43174557Y-44275182D02*
X43147619Y-44355994D01*
X43147619Y-44355994D02*
X42932120Y-44571494D01*
X43524743Y-43871121D02*
X43443931Y-43898059D01*
X43443931Y-43898059D02*
X43390056Y-43898059D01*
X43390056Y-43898059D02*
X43309244Y-43871121D01*
X43309244Y-43871121D02*
X43282306Y-43844184D01*
X43282306Y-43844184D02*
X43255369Y-43763372D01*
X43255369Y-43763372D02*
X43255369Y-43709497D01*
X43255369Y-43709497D02*
X43282306Y-43628685D01*
X43282306Y-43628685D02*
X43390056Y-43520935D01*
X43390056Y-43520935D02*
X43470868Y-43493998D01*
X43470868Y-43493998D02*
X43524743Y-43493998D01*
X43524743Y-43493998D02*
X43605555Y-43520935D01*
X43605555Y-43520935D02*
X43632493Y-43547872D01*
X43632493Y-43547872D02*
X43659430Y-43628685D01*
X43659430Y-43628685D02*
X43659430Y-43682559D01*
X43659430Y-43682559D02*
X43632493Y-43763372D01*
X43632493Y-43763372D02*
X43524743Y-43871121D01*
X43524743Y-43871121D02*
X43497806Y-43951933D01*
X43497806Y-43951933D02*
X43497806Y-44005808D01*
X43497806Y-44005808D02*
X43524743Y-44086620D01*
X43524743Y-44086620D02*
X43632493Y-44194370D01*
X43632493Y-44194370D02*
X43713305Y-44221307D01*
X43713305Y-44221307D02*
X43767180Y-44221307D01*
X43767180Y-44221307D02*
X43847992Y-44194370D01*
X43847992Y-44194370D02*
X43955741Y-44086620D01*
X43955741Y-44086620D02*
X43982679Y-44005808D01*
X43982679Y-44005808D02*
X43982679Y-43951933D01*
X43982679Y-43951933D02*
X43955741Y-43871121D01*
X43955741Y-43871121D02*
X43847992Y-43763372D01*
X43847992Y-43763372D02*
X43767180Y-43736434D01*
X43767180Y-43736434D02*
X43713305Y-43736434D01*
X43713305Y-43736434D02*
X43632493Y-43763372D01*
X42393372Y-31871494D02*
X42312560Y-31898431D01*
X42312560Y-31898431D02*
X42231748Y-31979243D01*
X42231748Y-31979243D02*
X42177873Y-32086993D01*
X42177873Y-32086993D02*
X42177873Y-32194742D01*
X42177873Y-32194742D02*
X42204810Y-32275555D01*
X42204810Y-32275555D02*
X42285623Y-32410242D01*
X42285623Y-32410242D02*
X42366435Y-32491054D01*
X42366435Y-32491054D02*
X42501122Y-32571866D01*
X42501122Y-32571866D02*
X42581934Y-32598803D01*
X42581934Y-32598803D02*
X42689684Y-32598803D01*
X42689684Y-32598803D02*
X42797433Y-32544929D01*
X42797433Y-32544929D02*
X42851308Y-32491054D01*
X42851308Y-32491054D02*
X42905183Y-32383304D01*
X42905183Y-32383304D02*
X42905183Y-32329429D01*
X42905183Y-32329429D02*
X42716621Y-32140868D01*
X42716621Y-32140868D02*
X42608871Y-32248617D01*
X43201494Y-32140868D02*
X42635809Y-31575182D01*
X42635809Y-31575182D02*
X42851308Y-31359683D01*
X42851308Y-31359683D02*
X42932120Y-31332746D01*
X42932120Y-31332746D02*
X42985995Y-31332746D01*
X42985995Y-31332746D02*
X43066807Y-31359683D01*
X43066807Y-31359683D02*
X43147619Y-31440495D01*
X43147619Y-31440495D02*
X43174557Y-31521307D01*
X43174557Y-31521307D02*
X43174557Y-31575182D01*
X43174557Y-31575182D02*
X43147619Y-31655994D01*
X43147619Y-31655994D02*
X42932120Y-31871494D01*
X43632493Y-30955622D02*
X44009616Y-31332746D01*
X43282306Y-30874810D02*
X43551680Y-31413558D01*
X43551680Y-31413558D02*
X43901867Y-31063372D01*
X67966435Y-24278431D02*
X67885623Y-24305368D01*
X67885623Y-24305368D02*
X67804811Y-24386180D01*
X67804811Y-24386180D02*
X67750936Y-24493930D01*
X67750936Y-24493930D02*
X67750936Y-24601680D01*
X67750936Y-24601680D02*
X67777873Y-24682492D01*
X67777873Y-24682492D02*
X67858685Y-24817179D01*
X67858685Y-24817179D02*
X67939498Y-24897991D01*
X67939498Y-24897991D02*
X68074185Y-24978803D01*
X68074185Y-24978803D02*
X68154997Y-25005741D01*
X68154997Y-25005741D02*
X68262746Y-25005741D01*
X68262746Y-25005741D02*
X68370496Y-24951866D01*
X68370496Y-24951866D02*
X68424371Y-24897991D01*
X68424371Y-24897991D02*
X68478246Y-24790241D01*
X68478246Y-24790241D02*
X68478246Y-24736367D01*
X68478246Y-24736367D02*
X68289684Y-24547805D01*
X68289684Y-24547805D02*
X68181934Y-24655554D01*
X68774557Y-24547805D02*
X68208872Y-23982119D01*
X68208872Y-23982119D02*
X69097806Y-24224556D01*
X69097806Y-24224556D02*
X68532120Y-23658871D01*
X69367180Y-23955182D02*
X68801494Y-23389497D01*
X68801494Y-23389497D02*
X68936181Y-23254810D01*
X68936181Y-23254810D02*
X69043931Y-23200935D01*
X69043931Y-23200935D02*
X69151680Y-23200935D01*
X69151680Y-23200935D02*
X69232493Y-23227872D01*
X69232493Y-23227872D02*
X69367180Y-23308685D01*
X69367180Y-23308685D02*
X69447992Y-23389497D01*
X69447992Y-23389497D02*
X69528804Y-23524184D01*
X69528804Y-23524184D02*
X69555741Y-23604996D01*
X69555741Y-23604996D02*
X69555741Y-23712746D01*
X69555741Y-23712746D02*
X69501867Y-23820495D01*
X69501867Y-23820495D02*
X69367180Y-23955182D01*
X42393372Y-39491494D02*
X42312560Y-39518431D01*
X42312560Y-39518431D02*
X42231748Y-39599243D01*
X42231748Y-39599243D02*
X42177873Y-39706993D01*
X42177873Y-39706993D02*
X42177873Y-39814742D01*
X42177873Y-39814742D02*
X42204810Y-39895555D01*
X42204810Y-39895555D02*
X42285623Y-40030242D01*
X42285623Y-40030242D02*
X42366435Y-40111054D01*
X42366435Y-40111054D02*
X42501122Y-40191866D01*
X42501122Y-40191866D02*
X42581934Y-40218803D01*
X42581934Y-40218803D02*
X42689684Y-40218803D01*
X42689684Y-40218803D02*
X42797433Y-40164929D01*
X42797433Y-40164929D02*
X42851308Y-40111054D01*
X42851308Y-40111054D02*
X42905183Y-40003304D01*
X42905183Y-40003304D02*
X42905183Y-39949429D01*
X42905183Y-39949429D02*
X42716621Y-39760868D01*
X42716621Y-39760868D02*
X42608871Y-39868617D01*
X43201494Y-39760868D02*
X42635809Y-39195182D01*
X42635809Y-39195182D02*
X42851308Y-38979683D01*
X42851308Y-38979683D02*
X42932120Y-38952746D01*
X42932120Y-38952746D02*
X42985995Y-38952746D01*
X42985995Y-38952746D02*
X43066807Y-38979683D01*
X43066807Y-38979683D02*
X43147619Y-39060495D01*
X43147619Y-39060495D02*
X43174557Y-39141307D01*
X43174557Y-39141307D02*
X43174557Y-39195182D01*
X43174557Y-39195182D02*
X43147619Y-39275994D01*
X43147619Y-39275994D02*
X42932120Y-39491494D01*
X43443931Y-38387060D02*
X43336181Y-38494810D01*
X43336181Y-38494810D02*
X43309244Y-38575622D01*
X43309244Y-38575622D02*
X43309244Y-38629497D01*
X43309244Y-38629497D02*
X43336181Y-38764184D01*
X43336181Y-38764184D02*
X43416993Y-38898871D01*
X43416993Y-38898871D02*
X43632493Y-39114370D01*
X43632493Y-39114370D02*
X43713305Y-39141307D01*
X43713305Y-39141307D02*
X43767180Y-39141307D01*
X43767180Y-39141307D02*
X43847992Y-39114370D01*
X43847992Y-39114370D02*
X43955741Y-39006620D01*
X43955741Y-39006620D02*
X43982679Y-38925808D01*
X43982679Y-38925808D02*
X43982679Y-38871933D01*
X43982679Y-38871933D02*
X43955741Y-38791121D01*
X43955741Y-38791121D02*
X43821054Y-38656434D01*
X43821054Y-38656434D02*
X43740242Y-38629497D01*
X43740242Y-38629497D02*
X43686367Y-38629497D01*
X43686367Y-38629497D02*
X43605555Y-38656434D01*
X43605555Y-38656434D02*
X43497806Y-38764184D01*
X43497806Y-38764184D02*
X43470868Y-38844996D01*
X43470868Y-38844996D02*
X43470868Y-38898871D01*
X43470868Y-38898871D02*
X43497806Y-38979683D01*
X60003998Y-47380868D02*
X59923185Y-47407805D01*
X59923185Y-47407805D02*
X59842373Y-47488618D01*
X59842373Y-47488618D02*
X59788498Y-47596367D01*
X59788498Y-47596367D02*
X59788498Y-47704117D01*
X59788498Y-47704117D02*
X59815436Y-47784929D01*
X59815436Y-47784929D02*
X59896248Y-47919616D01*
X59896248Y-47919616D02*
X59977060Y-48000428D01*
X59977060Y-48000428D02*
X60111747Y-48081241D01*
X60111747Y-48081241D02*
X60192560Y-48108178D01*
X60192560Y-48108178D02*
X60300309Y-48108178D01*
X60300309Y-48108178D02*
X60408059Y-48054303D01*
X60408059Y-48054303D02*
X60461934Y-48000428D01*
X60461934Y-48000428D02*
X60515808Y-47892679D01*
X60515808Y-47892679D02*
X60515808Y-47838804D01*
X60515808Y-47838804D02*
X60327247Y-47650242D01*
X60327247Y-47650242D02*
X60219497Y-47757992D01*
X60812120Y-47650242D02*
X60246434Y-47084557D01*
X60246434Y-47084557D02*
X60461934Y-46869057D01*
X60461934Y-46869057D02*
X60542746Y-46842120D01*
X60542746Y-46842120D02*
X60596621Y-46842120D01*
X60596621Y-46842120D02*
X60677433Y-46869057D01*
X60677433Y-46869057D02*
X60758245Y-46949870D01*
X60758245Y-46949870D02*
X60785182Y-47030682D01*
X60785182Y-47030682D02*
X60785182Y-47084557D01*
X60785182Y-47084557D02*
X60758245Y-47165369D01*
X60758245Y-47165369D02*
X60542746Y-47380868D01*
X60839057Y-46599683D02*
X60839057Y-46545809D01*
X60839057Y-46545809D02*
X60865995Y-46464996D01*
X60865995Y-46464996D02*
X61000682Y-46330309D01*
X61000682Y-46330309D02*
X61081494Y-46303372D01*
X61081494Y-46303372D02*
X61135369Y-46303372D01*
X61135369Y-46303372D02*
X61216181Y-46330309D01*
X61216181Y-46330309D02*
X61270056Y-46384184D01*
X61270056Y-46384184D02*
X61323930Y-46491934D01*
X61323930Y-46491934D02*
X61323930Y-47138431D01*
X61323930Y-47138431D02*
X61674117Y-46788245D01*
X61377805Y-46060935D02*
X61377805Y-46007060D01*
X61377805Y-46007060D02*
X61404743Y-45926248D01*
X61404743Y-45926248D02*
X61539430Y-45791561D01*
X61539430Y-45791561D02*
X61620242Y-45764624D01*
X61620242Y-45764624D02*
X61674117Y-45764624D01*
X61674117Y-45764624D02*
X61754929Y-45791561D01*
X61754929Y-45791561D02*
X61808804Y-45845436D01*
X61808804Y-45845436D02*
X61862679Y-45953186D01*
X61862679Y-45953186D02*
X61862679Y-46599683D01*
X61862679Y-46599683D02*
X62212865Y-46249497D01*
X42393372Y-29331494D02*
X42312560Y-29358431D01*
X42312560Y-29358431D02*
X42231748Y-29439243D01*
X42231748Y-29439243D02*
X42177873Y-29546993D01*
X42177873Y-29546993D02*
X42177873Y-29654742D01*
X42177873Y-29654742D02*
X42204810Y-29735555D01*
X42204810Y-29735555D02*
X42285623Y-29870242D01*
X42285623Y-29870242D02*
X42366435Y-29951054D01*
X42366435Y-29951054D02*
X42501122Y-30031866D01*
X42501122Y-30031866D02*
X42581934Y-30058803D01*
X42581934Y-30058803D02*
X42689684Y-30058803D01*
X42689684Y-30058803D02*
X42797433Y-30004929D01*
X42797433Y-30004929D02*
X42851308Y-29951054D01*
X42851308Y-29951054D02*
X42905183Y-29843304D01*
X42905183Y-29843304D02*
X42905183Y-29789429D01*
X42905183Y-29789429D02*
X42716621Y-29600868D01*
X42716621Y-29600868D02*
X42608871Y-29708617D01*
X43201494Y-29600868D02*
X42635809Y-29035182D01*
X42635809Y-29035182D02*
X42851308Y-28819683D01*
X42851308Y-28819683D02*
X42932120Y-28792746D01*
X42932120Y-28792746D02*
X42985995Y-28792746D01*
X42985995Y-28792746D02*
X43066807Y-28819683D01*
X43066807Y-28819683D02*
X43147619Y-28900495D01*
X43147619Y-28900495D02*
X43174557Y-28981307D01*
X43174557Y-28981307D02*
X43174557Y-29035182D01*
X43174557Y-29035182D02*
X43147619Y-29115994D01*
X43147619Y-29115994D02*
X42932120Y-29331494D01*
X43147619Y-28523372D02*
X43497806Y-28173185D01*
X43497806Y-28173185D02*
X43524743Y-28577246D01*
X43524743Y-28577246D02*
X43605555Y-28496434D01*
X43605555Y-28496434D02*
X43686367Y-28469497D01*
X43686367Y-28469497D02*
X43740242Y-28469497D01*
X43740242Y-28469497D02*
X43821054Y-28496434D01*
X43821054Y-28496434D02*
X43955741Y-28631121D01*
X43955741Y-28631121D02*
X43982679Y-28711933D01*
X43982679Y-28711933D02*
X43982679Y-28765808D01*
X43982679Y-28765808D02*
X43955741Y-28846620D01*
X43955741Y-28846620D02*
X43794117Y-29008245D01*
X43794117Y-29008245D02*
X43713305Y-29035182D01*
X43713305Y-29035182D02*
X43659430Y-29035182D01*
X60003998Y-55000868D02*
X59923185Y-55027805D01*
X59923185Y-55027805D02*
X59842373Y-55108618D01*
X59842373Y-55108618D02*
X59788498Y-55216367D01*
X59788498Y-55216367D02*
X59788498Y-55324117D01*
X59788498Y-55324117D02*
X59815436Y-55404929D01*
X59815436Y-55404929D02*
X59896248Y-55539616D01*
X59896248Y-55539616D02*
X59977060Y-55620428D01*
X59977060Y-55620428D02*
X60111747Y-55701241D01*
X60111747Y-55701241D02*
X60192560Y-55728178D01*
X60192560Y-55728178D02*
X60300309Y-55728178D01*
X60300309Y-55728178D02*
X60408059Y-55674303D01*
X60408059Y-55674303D02*
X60461934Y-55620428D01*
X60461934Y-55620428D02*
X60515808Y-55512679D01*
X60515808Y-55512679D02*
X60515808Y-55458804D01*
X60515808Y-55458804D02*
X60327247Y-55270242D01*
X60327247Y-55270242D02*
X60219497Y-55377992D01*
X60812120Y-55270242D02*
X60246434Y-54704557D01*
X60246434Y-54704557D02*
X60461934Y-54489057D01*
X60461934Y-54489057D02*
X60542746Y-54462120D01*
X60542746Y-54462120D02*
X60596621Y-54462120D01*
X60596621Y-54462120D02*
X60677433Y-54489057D01*
X60677433Y-54489057D02*
X60758245Y-54569870D01*
X60758245Y-54569870D02*
X60785182Y-54650682D01*
X60785182Y-54650682D02*
X60785182Y-54704557D01*
X60785182Y-54704557D02*
X60758245Y-54785369D01*
X60758245Y-54785369D02*
X60542746Y-55000868D01*
X60839057Y-54219683D02*
X60839057Y-54165809D01*
X60839057Y-54165809D02*
X60865995Y-54084996D01*
X60865995Y-54084996D02*
X61000682Y-53950309D01*
X61000682Y-53950309D02*
X61081494Y-53923372D01*
X61081494Y-53923372D02*
X61135369Y-53923372D01*
X61135369Y-53923372D02*
X61216181Y-53950309D01*
X61216181Y-53950309D02*
X61270056Y-54004184D01*
X61270056Y-54004184D02*
X61323930Y-54111934D01*
X61323930Y-54111934D02*
X61323930Y-54758431D01*
X61323930Y-54758431D02*
X61674117Y-54408245D01*
X61458618Y-53492373D02*
X61512492Y-53438499D01*
X61512492Y-53438499D02*
X61593305Y-53411561D01*
X61593305Y-53411561D02*
X61647179Y-53411561D01*
X61647179Y-53411561D02*
X61727992Y-53438499D01*
X61727992Y-53438499D02*
X61862679Y-53519311D01*
X61862679Y-53519311D02*
X61997366Y-53653998D01*
X61997366Y-53653998D02*
X62078178Y-53788685D01*
X62078178Y-53788685D02*
X62105115Y-53869497D01*
X62105115Y-53869497D02*
X62105115Y-53923372D01*
X62105115Y-53923372D02*
X62078178Y-54004184D01*
X62078178Y-54004184D02*
X62024303Y-54058059D01*
X62024303Y-54058059D02*
X61943491Y-54084996D01*
X61943491Y-54084996D02*
X61889616Y-54084996D01*
X61889616Y-54084996D02*
X61808804Y-54058059D01*
X61808804Y-54058059D02*
X61674117Y-53977247D01*
X61674117Y-53977247D02*
X61539430Y-53842560D01*
X61539430Y-53842560D02*
X61458618Y-53707873D01*
X61458618Y-53707873D02*
X61431680Y-53627060D01*
X61431680Y-53627060D02*
X61431680Y-53573186D01*
X61431680Y-53573186D02*
X61458618Y-53492373D01*
X60246435Y-62378431D02*
X60165623Y-62405368D01*
X60165623Y-62405368D02*
X60084811Y-62486180D01*
X60084811Y-62486180D02*
X60030936Y-62593930D01*
X60030936Y-62593930D02*
X60030936Y-62701680D01*
X60030936Y-62701680D02*
X60057873Y-62782492D01*
X60057873Y-62782492D02*
X60138685Y-62917179D01*
X60138685Y-62917179D02*
X60219498Y-62997991D01*
X60219498Y-62997991D02*
X60354185Y-63078803D01*
X60354185Y-63078803D02*
X60434997Y-63105741D01*
X60434997Y-63105741D02*
X60542746Y-63105741D01*
X60542746Y-63105741D02*
X60650496Y-63051866D01*
X60650496Y-63051866D02*
X60704371Y-62997991D01*
X60704371Y-62997991D02*
X60758246Y-62890241D01*
X60758246Y-62890241D02*
X60758246Y-62836367D01*
X60758246Y-62836367D02*
X60569684Y-62647805D01*
X60569684Y-62647805D02*
X60461934Y-62755554D01*
X61054557Y-62647805D02*
X60488872Y-62082119D01*
X60488872Y-62082119D02*
X61377806Y-62324556D01*
X61377806Y-62324556D02*
X60812120Y-61758871D01*
X61647180Y-62055182D02*
X61081494Y-61489497D01*
X61081494Y-61489497D02*
X61216181Y-61354810D01*
X61216181Y-61354810D02*
X61323931Y-61300935D01*
X61323931Y-61300935D02*
X61431680Y-61300935D01*
X61431680Y-61300935D02*
X61512493Y-61327872D01*
X61512493Y-61327872D02*
X61647180Y-61408685D01*
X61647180Y-61408685D02*
X61727992Y-61489497D01*
X61727992Y-61489497D02*
X61808804Y-61624184D01*
X61808804Y-61624184D02*
X61835741Y-61704996D01*
X61835741Y-61704996D02*
X61835741Y-61812746D01*
X61835741Y-61812746D02*
X61781867Y-61920495D01*
X61781867Y-61920495D02*
X61647180Y-62055182D01*
D11*
%TO.C,U3*%
X45380000Y-17680000D02*
X45380000Y-17980000D01*
X45380000Y-17680000D02*
X66380000Y-17680000D01*
X45380000Y-20080000D02*
X45380000Y-20480000D01*
X45380000Y-20347000D02*
X48387000Y-20347000D01*
X45380000Y-22680000D02*
X45380000Y-23080000D01*
X45380000Y-25180000D02*
X45380000Y-25580000D01*
X45380000Y-27780000D02*
X45380000Y-28180000D01*
X45380000Y-30280000D02*
X45380000Y-30680000D01*
X45380000Y-32780000D02*
X45380000Y-33180000D01*
X45380000Y-35380000D02*
X45380000Y-35780000D01*
X45380000Y-37880000D02*
X45380000Y-38280000D01*
X45380000Y-40480000D02*
X45380000Y-40880000D01*
X45380000Y-42980000D02*
X45380000Y-43380000D01*
X45380000Y-45480000D02*
X45380000Y-45880000D01*
X45380000Y-48080000D02*
X45380000Y-48480000D01*
X45380000Y-50580000D02*
X45380000Y-50980000D01*
X45380000Y-53180000D02*
X45380000Y-53580000D01*
X45380000Y-55680000D02*
X45380000Y-56080000D01*
X45380000Y-58280000D02*
X45380000Y-58680000D01*
X45380000Y-60780000D02*
X45380000Y-61180000D01*
X45380000Y-63280000D02*
X45380000Y-63680000D01*
X45380000Y-65880000D02*
X45380000Y-66280000D01*
X48387000Y-20347000D02*
X48387000Y-17680000D01*
X52180000Y-68680000D02*
X45380000Y-68680000D01*
X54380000Y-68680000D02*
X54780000Y-68680000D01*
X56980000Y-68680000D02*
X57380000Y-68680000D01*
X66380000Y-17680000D02*
X66380000Y-17980000D01*
X66380000Y-20080000D02*
X66380000Y-20480000D01*
X66380000Y-22680000D02*
X66380000Y-23080000D01*
X66380000Y-25180000D02*
X66380000Y-25580000D01*
X66380000Y-27780000D02*
X66380000Y-28180000D01*
X66380000Y-30280000D02*
X66380000Y-30680000D01*
X66380000Y-32780000D02*
X66380000Y-33180000D01*
X66380000Y-35380000D02*
X66380000Y-35780000D01*
X66380000Y-37880000D02*
X66380000Y-38280000D01*
X66380000Y-40480000D02*
X66380000Y-40880000D01*
X66380000Y-42980000D02*
X66380000Y-43380000D01*
X66380000Y-45480000D02*
X66380000Y-45880000D01*
X66380000Y-48080000D02*
X66380000Y-48480000D01*
X66380000Y-50580000D02*
X66380000Y-50980000D01*
X66380000Y-53180000D02*
X66380000Y-53580000D01*
X66380000Y-55680000D02*
X66380000Y-56080000D01*
X66380000Y-58280000D02*
X66380000Y-58680000D01*
X66380000Y-60780000D02*
X66380000Y-61180000D01*
X66380000Y-63280000D02*
X66380000Y-63680000D01*
X66380000Y-65880000D02*
X66380000Y-66280000D01*
X66380000Y-68680000D02*
X59580000Y-68680000D01*
%TD*%
M02*
