G04 #@! TF.GenerationSoftware,KiCad,Pcbnew,7.0.10*
G04 #@! TF.CreationDate,2024-05-14T11:07:36+01:00*
G04 #@! TF.ProjectId,PCB_v2,5043425f-7632-42e6-9b69-6361645f7063,rev?*
G04 #@! TF.SameCoordinates,Original*
G04 #@! TF.FileFunction,Copper,L2,Bot*
G04 #@! TF.FilePolarity,Positive*
%FSLAX46Y46*%
G04 Gerber Fmt 4.6, Leading zero omitted, Abs format (unit mm)*
G04 Created by KiCad (PCBNEW 7.0.10) date 2024-05-14 11:07:36*
%MOMM*%
%LPD*%
G01*
G04 APERTURE LIST*
G04 #@! TA.AperFunction,ComponentPad*
%ADD10C,1.778000*%
G04 #@! TD*
G04 #@! TA.AperFunction,ComponentPad*
%ADD11R,1.700000X1.700000*%
G04 #@! TD*
G04 #@! TA.AperFunction,ComponentPad*
%ADD12O,1.700000X1.700000*%
G04 #@! TD*
G04 #@! TA.AperFunction,Conductor*
%ADD13C,0.200000*%
G04 #@! TD*
G04 APERTURE END LIST*
D10*
X129337000Y-87427000D03*
X126797000Y-87427000D03*
X124257000Y-87427000D03*
X121717000Y-87427000D03*
X119177000Y-87427000D03*
X116637000Y-87427000D03*
X114097000Y-87427000D03*
X111557000Y-87427000D03*
X160937800Y-83632900D03*
X158397800Y-83632900D03*
X155857800Y-83632900D03*
X153317800Y-83632900D03*
X150777800Y-83632900D03*
X160937800Y-58232900D03*
X158397800Y-58232900D03*
X155857800Y-58232900D03*
X153317800Y-58232900D03*
X150777800Y-58232900D03*
X148237800Y-58232900D03*
X145697800Y-58232900D03*
X143157800Y-58232900D03*
X140617800Y-58232900D03*
X133020000Y-59360000D03*
X133020000Y-61900000D03*
X133020000Y-64440000D03*
X133020000Y-66980000D03*
X133020000Y-69520000D03*
X133020000Y-72060000D03*
X133020000Y-74600000D03*
X133020000Y-77140000D03*
X133020000Y-79680000D03*
D11*
X108370000Y-48770000D03*
D12*
X108370000Y-46230000D03*
X110910000Y-48770000D03*
X110910000Y-46230000D03*
X113450000Y-48770000D03*
X113450000Y-46230000D03*
X115990000Y-48770000D03*
X115990000Y-46230000D03*
X118530000Y-48770000D03*
X118530000Y-46230000D03*
X121070000Y-48770000D03*
X121070000Y-46230000D03*
X123610000Y-48770000D03*
X123610000Y-46230000D03*
X126150000Y-48770000D03*
X126150000Y-46230000D03*
X128690000Y-48770000D03*
X128690000Y-46230000D03*
X131230000Y-48770000D03*
X131230000Y-46230000D03*
X133770000Y-48770000D03*
X133770000Y-46230000D03*
X136310000Y-48770000D03*
X136310000Y-46230000D03*
X138850000Y-48770000D03*
X138850000Y-46230000D03*
X141390000Y-48770000D03*
X141390000Y-46230000D03*
X143930000Y-48770000D03*
X143930000Y-46230000D03*
X146470000Y-48770000D03*
X146470000Y-46230000D03*
X149010000Y-48770000D03*
X149010000Y-46230000D03*
X151550000Y-48770000D03*
X151550000Y-46230000D03*
X154090000Y-48770000D03*
X154090000Y-46230000D03*
X156630000Y-48770000D03*
X156630000Y-46230000D03*
D13*
X133020000Y-69520000D02*
X126670000Y-69520000D01*
X119920000Y-62770000D02*
X119920000Y-47620000D01*
X126670000Y-69520000D02*
X119920000Y-62770000D01*
X119920000Y-47620000D02*
X118530000Y-46230000D01*
X132620000Y-50235100D02*
X132620000Y-47380000D01*
X132620000Y-47380000D02*
X133770000Y-46230000D01*
X140617800Y-58232900D02*
X132620000Y-50235100D01*
X140240000Y-47620000D02*
X140240000Y-55315100D01*
X138850000Y-46230000D02*
X140240000Y-47620000D01*
X140240000Y-55315100D02*
X143157800Y-58232900D01*
M02*
