M48
; DRILL file {KiCad 7.0.10} date Tuesday, May 14, 2024 at 11:07:32 AM
; FORMAT={-:-/ absolute / inch / decimal}
; #@! TF.CreationDate,2024-05-14T11:07:32+01:00
; #@! TF.GenerationSoftware,Kicad,Pcbnew,7.0.10
; #@! TF.FileFunction,Plated,1,2,PTH
FMAT,2
INCH
; #@! TA.AperFunction,Plated,PTH,ComponentDrill
T1C0.0394
%
G90
G05
T1
X4.2665Y-1.8201
X4.2665Y-1.9201
X4.3665Y-1.8201
X4.3665Y-1.9201
X4.392Y-3.442
X4.4665Y-1.8201
X4.4665Y-1.9201
X4.492Y-3.442
X4.5665Y-1.8201
X4.5665Y-1.9201
X4.592Y-3.442
X4.6665Y-1.8201
X4.6665Y-1.9201
X4.692Y-3.442
X4.7665Y-1.8201
X4.7665Y-1.9201
X4.792Y-3.442
X4.8665Y-1.8201
X4.8665Y-1.9201
X4.892Y-3.442
X4.9665Y-1.8201
X4.9665Y-1.9201
X4.992Y-3.442
X5.0665Y-1.8201
X5.0665Y-1.9201
X5.092Y-3.442
X5.1665Y-1.8201
X5.1665Y-1.9201
X5.237Y-2.337
X5.237Y-2.437
X5.237Y-2.537
X5.237Y-2.637
X5.237Y-2.737
X5.237Y-2.837
X5.237Y-2.937
X5.237Y-3.037
X5.237Y-3.137
X5.2665Y-1.8201
X5.2665Y-1.9201
X5.3665Y-1.8201
X5.3665Y-1.9201
X5.4665Y-1.8201
X5.4665Y-1.9201
X5.5361Y-2.2926
X5.5665Y-1.8201
X5.5665Y-1.9201
X5.6361Y-2.2926
X5.6665Y-1.8201
X5.6665Y-1.9201
X5.7361Y-2.2926
X5.7665Y-1.8201
X5.7665Y-1.9201
X5.8361Y-2.2926
X5.8665Y-1.8201
X5.8665Y-1.9201
X5.9361Y-2.2926
X5.9361Y-3.2926
X5.9665Y-1.8201
X5.9665Y-1.9201
X6.0361Y-2.2926
X6.0361Y-3.2926
X6.0665Y-1.8201
X6.0665Y-1.9201
X6.1361Y-2.2926
X6.1361Y-3.2926
X6.1665Y-1.8201
X6.1665Y-1.9201
X6.2361Y-2.2926
X6.2361Y-3.2926
X6.3361Y-2.2926
X6.3361Y-3.2926
M30
